  0
SECTION
  2
HEADER
  9
$ACADVER
  1
AC1032
  9
$ACADMAINTVER
 90
      266
  9
$DWGCODEPAGE
  3
ANSI_1252
  9
$REQUIREDVERSIONS
160
                 0
  9
$INSBASE
 10
0.0
 20
0.0
 30
0.0
  9
$EXTMIN
 10
1.000000000000000E+20
 20
1.000000000000000E+20
 30
1.000000000000000E+20
  9
$EXTMAX
 10
-1.000000000000000E+20
 20
-1.000000000000000E+20
 30
-1.000000000000000E+20
  9
$LIMMIN
 10
0.0
 20
0.0
  9
$LIMMAX
 10
12.0
 20
9.0
  9
$ORTHOMODE
 70
     0
  9
$REGENMODE
 70
     1
  9
$FILLMODE
 70
     1
  9
$QTEXTMODE
 70
     0
  9
$MIRRTEXT
 70
     0
  9
$LTSCALE
 40
1.0
  9
$ATTMODE
 70
     1
  9
$TEXTSIZE
 40
0.2
  9
$TRACEWID
 40
0.05
  9
$TEXTSTYLE
  7
Standard
  9
$CLAYER
  8
0
  9
$CELTYPE
  6
ByLayer
  9
$CECOLOR
 62
   256
  9
$CELTSCALE
 40
1.0
  9
$DISPSILH
 70
     0
  9
$DIMSCALE
 40
1.0
  9
$DIMASZ
 40
0.18
  9
$DIMEXO
 40
0.0625
  9
$DIMDLI
 40
0.38
  9
$DIMRND
 40
0.0
  9
$DIMDLE
 40
0.0
  9
$DIMEXE
 40
0.18
  9
$DIMTP
 40
0.0
  9
$DIMTM
 40
0.0
  9
$DIMTXT
 40
0.18
  9
$DIMCEN
 40
0.09
  9
$DIMTSZ
 40
0.0
  9
$DIMTOL
 70
     0
  9
$DIMLIM
 70
     0
  9
$DIMTIH
 70
     1
  9
$DIMTOH
 70
     1
  9
$DIMSE1
 70
     0
  9
$DIMSE2
 70
     0
  9
$DIMTAD
 70
     0
  9
$DIMZIN
 70
     0
  9
$DIMBLK
  1

  9
$DIMASO
 70
     1
  9
$DIMSHO
 70
     1
  9
$DIMPOST
  1

  9
$DIMAPOST
  1

  9
$DIMALT
 70
     0
  9
$DIMALTD
 70
     2
  9
$DIMALTF
 40
25.4
  9
$DIMLFAC
 40
1.0
  9
$DIMTOFL
 70
     0
  9
$DIMTVP
 40
0.0
  9
$DIMTIX
 70
     0
  9
$DIMSOXD
 70
     0
  9
$DIMSAH
 70
     0
  9
$DIMBLK1
  1

  9
$DIMBLK2
  1

  9
$DIMSTYLE
  2
Standard
  9
$DIMCLRD
 70
     0
  9
$DIMCLRE
 70
     0
  9
$DIMCLRT
 70
     0
  9
$DIMTFAC
 40
1.0
  9
$DIMGAP
 40
0.09
  9
$DIMJUST
 70
     0
  9
$DIMSD1
 70
     0
  9
$DIMSD2
 70
     0
  9
$DIMTOLJ
 70
     1
  9
$DIMTZIN
 70
     0
  9
$DIMALTZ
 70
     0
  9
$DIMALTTZ
 70
     0
  9
$DIMUPT
 70
     0
  9
$DIMDEC
 70
     4
  9
$DIMTDEC
 70
     4
  9
$DIMALTU
 70
     2
  9
$DIMALTTD
 70
     2
  9
$DIMTXSTY
  7
Standard
  9
$DIMAUNIT
 70
     0
  9
$DIMADEC
 70
     0
  9
$DIMALTRND
 40
0.0
  9
$DIMAZIN
 70
     0
  9
$DIMDSEP
 70
    46
  9
$DIMATFIT
 70
     3
  9
$DIMFRAC
 70
     0
  9
$DIMLDRBLK
  1

  9
$DIMLUNIT
 70
     2
  9
$DIMLWD
 70
    -2
  9
$DIMLWE
 70
    -2
  9
$DIMTMOVE
 70
     0
  9
$DIMFXL
 40
1.0
  9
$DIMFXLON
 70
     0
  9
$DIMJOGANG
 40
0.7853981633974483
  9
$DIMTFILL
 70
     0
  9
$DIMTFILLCLR
 70
     0
  9
$DIMARCSYM
 70
     0
  9
$DIMLTYPE
  6

  9
$DIMLTEX1
  6

  9
$DIMLTEX2
  6

  9
$DIMTXTDIRECTION
 70
     0
  9
$LUNITS
 70
     2
  9
$LUPREC
 70
     4
  9
$SKETCHINC
 40
0.1
  9
$FILLETRAD
 40
0.0
  9
$AUNITS
 70
     0
  9
$AUPREC
 70
     0
  9
$MENU
  1
.
  9
$ELEVATION
 40
0.0
  9
$PELEVATION
 40
0.0
  9
$THICKNESS
 40
0.0
  9
$LIMCHECK
 70
     0
  9
$CHAMFERA
 40
0.0
  9
$CHAMFERB
 40
0.0
  9
$CHAMFERC
 40
0.0
  9
$CHAMFERD
 40
0.0
  9
$SKPOLY
 70
     0
  9
$TDCREATE
 40
2460881.451180556
  9
$TDUCREATE
 40
2460881.034513889
  9
$TDUPDATE
 40
2460881.451180556
  9
$TDUUPDATE
 40
2460881.034513889
  9
$TDINDWG
 40
0.0000000000
  9
$TDUSRTIMER
 40
0.0000000000
  9
$USRTIMER
 70
     1
  9
$ANGBASE
 50
0.0
  9
$ANGDIR
 70
     0
  9
$PDMODE
 70
     0
  9
$PDSIZE
 40
0.0
  9
$PLINEWID
 40
0.0
  9
$SPLFRAME
 70
     0
  9
$SPLINETYPE
 70
     6
  9
$SPLINESEGS
 70
     8
  9
$HANDSEED
  5
179
  9
$SURFTAB1
 70
     6
  9
$SURFTAB2
 70
     6
  9
$SURFTYPE
 70
     6
  9
$SURFU
 70
     6
  9
$SURFV
 70
     6
  9
$UCSBASE
  2

  9
$UCSNAME
  2

  9
$UCSORG
 10
0.0
 20
0.0
 30
0.0
  9
$UCSXDIR
 10
1.0
 20
0.0
 30
0.0
  9
$UCSYDIR
 10
0.0
 20
1.0
 30
0.0
  9
$UCSORTHOREF
  2

  9
$UCSORTHOVIEW
 70
     0
  9
$UCSORGTOP
 10
0.0
 20
0.0
 30
0.0
  9
$UCSORGBOTTOM
 10
0.0
 20
0.0
 30
0.0
  9
$UCSORGLEFT
 10
0.0
 20
0.0
 30
0.0
  9
$UCSORGRIGHT
 10
0.0
 20
0.0
 30
0.0
  9
$UCSORGFRONT
 10
0.0
 20
0.0
 30
0.0
  9
$UCSORGBACK
 10
0.0
 20
0.0
 30
0.0
  9
$PUCSBASE
  2

  9
$PUCSNAME
  2

  9
$PUCSORG
 10
0.0
 20
0.0
 30
0.0
  9
$PUCSXDIR
 10
1.0
 20
0.0
 30
0.0
  9
$PUCSYDIR
 10
0.0
 20
1.0
 30
0.0
  9
$PUCSORTHOREF
  2

  9
$PUCSORTHOVIEW
 70
     0
  9
$PUCSORGTOP
 10
0.0
 20
0.0
 30
0.0
  9
$PUCSORGBOTTOM
 10
0.0
 20
0.0
 30
0.0
  9
$PUCSORGLEFT
 10
0.0
 20
0.0
 30
0.0
  9
$PUCSORGRIGHT
 10
0.0
 20
0.0
 30
0.0
  9
$PUCSORGFRONT
 10
0.0
 20
0.0
 30
0.0
  9
$PUCSORGBACK
 10
0.0
 20
0.0
 30
0.0
  9
$USERI1
 70
     0
  9
$USERI2
 70
     0
  9
$USERI3
 70
     0
  9
$USERI4
 70
     0
  9
$USERI5
 70
     0
  9
$USERR1
 40
0.0
  9
$USERR2
 40
0.0
  9
$USERR3
 40
0.0
  9
$USERR4
 40
0.0
  9
$USERR5
 40
0.0
  9
$WORLDVIEW
 70
     1
  9
$SHADEDGE
 70
     3
  9
$SHADEDIF
 70
    70
  9
$TILEMODE
 70
     1
  9
$MAXACTVP
 70
    64
  9
$PINSBASE
 10
0.0
 20
0.0
 30
0.0
  9
$PLIMCHECK
 70
     0
  9
$PEXTMIN
 10
1.000000000000000E+20
 20
1.000000000000000E+20
 30
1.000000000000000E+20
  9
$PEXTMAX
 10
-1.000000000000000E+20
 20
-1.000000000000000E+20
 30
-1.000000000000000E+20
  9
$PLIMMIN
 10
0.0
 20
0.0
  9
$PLIMMAX
 10
12.0
 20
9.0
  9
$UNITMODE
 70
     0
  9
$VISRETAIN
 70
     1
  9
$PLINEGEN
 70
     0
  9
$PSLTSCALE
 70
     1
  9
$TREEDEPTH
 70
  3020
  9
$CMLSTYLE
  2
Standard
  9
$CMLJUST
 70
     0
  9
$CMLSCALE
 40
1.0
  9
$PROXYGRAPHICS
 70
     1
  9
$MEASUREMENT
 70
     0
  9
$CELWEIGHT
370
    -1
  9
$ENDCAPS
280
     0
  9
$JOINSTYLE
280
     0
  9
$LWDISPLAY
290
     1
  9
$INSUNITS
 70
     0
  9
$HYPERLINKBASE
  1

  9
$STYLESHEET
  1

  9
$XEDIT
290
     1
  9
$CEPSNTYPE
380
     0
  9
$PSTYLEMODE
290
     1
  9
$FINGERPRINTGUID
  2
{BE4ABE71-F045-434C-BB9C-E09A16EFAE2F}
  9
$VERSIONGUID
  2
{9CBC0FA9-18A7-CB40-AC02-1AC53704327D}
  9
$EXTNAMES
290
     1
  9
$PSVPSCALE
 40
0.0
  9
$OLESTARTUP
290
     0
  9
$SORTENTS
280
   127
  9
$INDEXCTL
280
     0
  9
$HIDETEXT
280
     1
  9
$XCLIPFRAME
280
     2
  9
$HALOGAP
280
     0
  9
$OBSCOLOR
 70
   257
  9
$OBSLTYPE
280
     0
  9
$INTERSECTIONDISPLAY
280
     0
  9
$INTERSECTIONCOLOR
 70
   257
  9
$DIMASSOC
280
     2
  9
$PROJECTNAME
  1

  9
$CAMERADISPLAY
290
     0
  9
$LENSLENGTH
 40
50.0
  9
$CAMERAHEIGHT
 40
0.0
  9
$STEPSPERSEC
 40
2.0
  9
$STEPSIZE
 40
6.0
  9
$3DDWFPREC
 40
2.0
  9
$PSOLWIDTH
 40
0.25
  9
$PSOLHEIGHT
 40
4.0
  9
$LOFTANG1
 40
1.570796326794896
  9
$LOFTANG2
 40
1.570796326794896
  9
$LOFTMAG1
 40
0.0
  9
$LOFTMAG2
 40
0.0
  9
$LOFTPARAM
 70
     7
  9
$LOFTNORMALS
280
     1
  9
$LATITUDE
 40
37.795
  9
$LONGITUDE
 40
-122.394
  9
$NORTHDIRECTION
 40
0.0
  9
$TIMEZONE
 70
 -8000
  9
$LIGHTGLYPHDISPLAY
280
     1
  9
$TILEMODELIGHTSYNCH
280
     1
  9
$CMATERIAL
347
11
  9
$SOLIDHIST
280
     0
  9
$SHOWHIST
280
     1
  9
$DWFFRAME
280
     2
  9
$DGNFRAME
280
     0
  9
$REALWORLDSCALE
290
     1
  9
$INTERFERECOLOR
 62
     1
  9
$INTERFEREOBJVS
345
33
  9
$INTERFEREVPVS
346
30
  9
$CSHADOW
280
     0
  9
$SHADOWPLANELOCATION
 40
0.0
  0
ENDSEC
  0
SECTION
  2
CLASSES
  0
CLASS
  1
ACDBDICTIONARYWDFLT
  2
AcDbDictionaryWithDefault
  3
ObjectDBX Classes
 90
        0
 91
        1
280
     0
281
     0
  0
CLASS
  1
MATERIAL
  2
AcDbMaterial
  3
ObjectDBX Classes
 90
     1153
 91
        3
280
     0
281
     0
  0
CLASS
  1
VISUALSTYLE
  2
AcDbVisualStyle
  3
ObjectDBX Classes
 90
     4095
 91
       24
280
     0
281
     0
  0
CLASS
  1
SCALE
  2
AcDbScale
  3
ObjectDBX Classes
 90
     1153
 91
       17
280
     0
281
     0
  0
CLASS
  1
TABLESTYLE
  2
AcDbTableStyle
  3
ObjectDBX Classes
 90
     4095
 91
        1
280
     0
281
     0
  0
CLASS
  1
MLEADERSTYLE
  2
AcDbMLeaderStyle
  3
ACDB_MLEADERSTYLE_CLASS
 90
     4095
 91
        1
280
     0
281
     0
  0
CLASS
  1
ACDBSECTIONVIEWSTYLE
  2
AcDbSectionViewStyle
  3
ObjectDBX Classes
 90
     1025
 91
        1
280
     0
281
     0
  0
CLASS
  1
ACDBDETAILVIEWSTYLE
  2
AcDbDetailViewStyle
  3
ObjectDBX Classes
 90
     1025
 91
        1
280
     0
281
     0
  0
CLASS
  1
DICTIONARYVAR
  2
AcDbDictionaryVar
  3
ObjectDBX Classes
 90
        0
 91
        5
280
     0
281
     0
  0
CLASS
  1
CELLSTYLEMAP
  2
AcDbCellStyleMap
  3
ObjectDBX Classes
 90
     1152
 91
        1
280
     0
281
     0
  0
ENDSEC
  0
SECTION
  2
TABLES
  0
TABLE
  2
VPORT
  5
8
330
0
100
AcDbSymbolTable
 70
     1
  0
VPORT
  5
57
330
8
100
AcDbSymbolTableRecord
100
AcDbViewportTableRecord
  2
*Active
 70
     0
 10
0.0
 20
0.0
 11
1.0
 21
1.0
 12
0.0
 22
0.0
 13
0.0
 23
0.0
 14
1.0
 24
1.0
 15
0.0
 25
0.0
 16
0.0
 26
0.0
 36
1.0
 17
960.0
 27
540.0000000000009
 37
0.0
 40
1899.666078984082
 41
1.030918023786226
 42
50.0
 43
0.0
 44
0.0
 50
0.0
 51
0.0
 71
     0
 72
   100
 73
     1
 74
     1
 75
     0
 76
     0
 77
     0
 78
     0
281
     0
 65
     1
110
0.0
120
0.0
130
0.0
111
1.0
121
0.0
131
0.0
112
0.0
122
1.0
132
0.0
 79
     0
146
0.0
 60
     3
 61
     5
292
     1
282
     1
141
0.0
142
0.0
 63
   250
421
  3355443
  0
ENDTAB
  0
TABLE
  2
LTYPE
  5
5
330
0
100
AcDbSymbolTable
 70
    10
  0
LTYPE
  5
5B
330
5
100
AcDbSymbolTableRecord
100
AcDbLinetypeTableRecord
  2
ByBlock
 70
     0
  3

 72
    65
 73
     0
 40
0.0
  0
LTYPE
  5
5C
330
5
100
AcDbSymbolTableRecord
100
AcDbLinetypeTableRecord
  2
ByLayer
 70
     0
  3

 72
    65
 73
     0
 40
0.0
  0
LTYPE
  5
5D
330
5
100
AcDbSymbolTableRecord
100
AcDbLinetypeTableRecord
  2
Continuous
 70
     0
  3
Solid line
 72
    65
 73
     0
 40
0.0
  0
LTYPE
  5
15F
330
5
100
AcDbSymbolTableRecord
100
AcDbLinetypeTableRecord
  2
AI-Linetype-0
 70
     0
  3
Adobe Illustrator Linetype No. 0
 72
    65
 73
     2
 40
1.90499997138977
 49
1.269999980926513
 74
     0
 49
-0.6349999904632569
 74
     0
  0
LTYPE
  5
161
330
5
100
AcDbSymbolTableRecord
100
AcDbLinetypeTableRecord
  2
AI-Linetype-1
 70
     0
  3
Adobe Illustrator Linetype No. 1
 72
    65
 73
     2
 40
1.90499997138977
 49
1.269999980926513
 74
     0
 49
-0.6349999904632569
 74
     0
  0
LTYPE
  5
163
330
5
100
AcDbSymbolTableRecord
100
AcDbLinetypeTableRecord
  2
AI-Linetype-2
 70
     0
  3
Adobe Illustrator Linetype No. 2
 72
    65
 73
     2
 40
1.90499997138977
 49
1.269999980926513
 74
     0
 49
-0.6349999904632569
 74
     0
  0
LTYPE
  5
165
330
5
100
AcDbSymbolTableRecord
100
AcDbLinetypeTableRecord
  2
AI-Linetype-3
 70
     0
  3
Adobe Illustrator Linetype No. 3
 72
    65
 73
     2
 40
1.90499997138977
 49
1.269999980926513
 74
     0
 49
-0.6349999904632569
 74
     0
  0
LTYPE
  5
167
330
5
100
AcDbSymbolTableRecord
100
AcDbLinetypeTableRecord
  2
AI-Linetype-4
 70
     0
  3
Adobe Illustrator Linetype No. 4
 72
    65
 73
     2
 40
1.90499997138977
 49
1.269999980926513
 74
     0
 49
-0.6349999904632569
 74
     0
  0
LTYPE
  5
169
330
5
100
AcDbSymbolTableRecord
100
AcDbLinetypeTableRecord
  2
AI-Linetype-5
 70
     0
  3
Adobe Illustrator Linetype No. 5
 72
    65
 73
     2
 40
1.90499997138977
 49
1.269999980926513
 74
     0
 49
-0.6349999904632569
 74
     0
  0
LTYPE
  5
16B
330
5
100
AcDbSymbolTableRecord
100
AcDbLinetypeTableRecord
  2
AI-Linetype-6
 70
     0
  3
Adobe Illustrator Linetype No. 6
 72
    65
 73
     2
 40
1.90499997138977
 49
1.269999980926513
 74
     0
 49
-0.6349999904632569
 74
     0
  0
LTYPE
  5
16D
330
5
100
AcDbSymbolTableRecord
100
AcDbLinetypeTableRecord
  2
AI-Linetype-7
 70
     0
  3
Adobe Illustrator Linetype No. 7
 72
    65
 73
     2
 40
1.90499997138977
 49
1.269999980926513
 74
     0
 49
-0.6349999904632569
 74
     0
  0
LTYPE
  5
16F
330
5
100
AcDbSymbolTableRecord
100
AcDbLinetypeTableRecord
  2
AI-Linetype-8
 70
     0
  3
Adobe Illustrator Linetype No. 8
 72
    65
 73
     2
 40
1.90499997138977
 49
1.269999980926513
 74
     0
 49
-0.6349999904632569
 74
     0
  0
ENDTAB
  0
TABLE
  2
LAYER
  5
2
330
0
100
AcDbSymbolTable
 70
     2
  0
LAYER
  5
54
330
2
100
AcDbSymbolTableRecord
100
AcDbLayerTableRecord
  2
0
 70
     0
 62
     7
  6
Continuous
370
     0
390
F
347
21
348
0
  0
LAYER
  5
15D
330
2
100
AcDbSymbolTableRecord
100
AcDbLayerTableRecord
  2
1
 70
     0
 62
     7
  6
Continuous
370
     0
390
F
347
21
348
0
  0
ENDTAB
  0
TABLE
  2
STYLE
  5
3
330
0
100
AcDbSymbolTable
 70
     2
  0
STYLE
  5
55
330
3
100
AcDbSymbolTableRecord
100
AcDbTextStyleTableRecord
  2
Standard
 70
     0
 40
0.0
 41
1.0
 50
0.0
 71
     0
 42
0.2
  3
txt
  4

  0
STYLE
  5
5A
330
3
100
AcDbSymbolTableRecord
100
AcDbTextStyleTableRecord
  2
Annotative
 70
     0
 40
0.0
 41
1.0
 50
0.0
 71
     0
 42
0.2
  3
txt
  4

1001
AcadAnnotative
1000
AnnotativeData
1002
{
1070
     1
1070
     1
1002
}
  0
ENDTAB
  0
TABLE
  2
VIEW
  5
6
330
0
100
AcDbSymbolTable
 70
     0
  0
ENDTAB
  0
TABLE
  2
UCS
  5
7
330
0
100
AcDbSymbolTable
 70
     0
  0
ENDTAB
  0
TABLE
  2
APPID
  5
9
330
0
100
AcDbSymbolTable
 70
     2
  0
APPID
  5
56
330
9
100
AcDbSymbolTableRecord
100
AcDbRegAppTableRecord
  2
ACAD
 70
     0
  0
APPID
  5
5E
330
9
100
AcDbSymbolTableRecord
100
AcDbRegAppTableRecord
  2
AcadAnnotative
 70
     0
  0
ENDTAB
  0
TABLE
  2
DIMSTYLE
  5
A
330
0
100
AcDbSymbolTable
 70
     2
100
AcDbDimStyleTable
 71
     0
  0
DIMSTYLE
105
58
330
A
100
AcDbSymbolTableRecord
100
AcDbDimStyleTableRecord
  2
Standard
 70
     0
340
55
  0
DIMSTYLE
105
59
330
A
100
AcDbSymbolTableRecord
100
AcDbDimStyleTableRecord
  2
Annotative
 70
     0
340
55
1001
AcadAnnotative
1000
AnnotativeData
1002
{
1070
     1
1070
     1
1002
}
  0
ENDTAB
  0
TABLE
  2
BLOCK_RECORD
  5
1
330
0
100
AcDbSymbolTable
 70
     1
  0
BLOCK_RECORD
  5
70
330
1
100
AcDbSymbolTableRecord
100
AcDbBlockTableRecord
  2
*Model_Space
340
73
 70
     0
280
     1
281
     0
  0
BLOCK_RECORD
  5
6C
330
1
100
AcDbSymbolTableRecord
100
AcDbBlockTableRecord
  2
*Paper_Space
340
6F
 70
     0
280
     1
281
     0
  0
BLOCK_RECORD
  5
74
330
1
100
AcDbSymbolTableRecord
100
AcDbBlockTableRecord
  2
*Paper_Space0
340
77
 70
     0
280
     1
281
     0
  0
ENDTAB
  0
ENDSEC
  0
SECTION
  2
BLOCKS
  0
BLOCK
  5
71
330
70
100
AcDbEntity
  8
0
100
AcDbBlockBegin
  2
*Model_Space
 70
     0
 10
0.0
 20
0.0
 30
0.0
  3
*Model_Space
  1

  0
ENDBLK
  5
72
330
70
100
AcDbEntity
  8
0
100
AcDbBlockEnd
  0
BLOCK
  5
6D
330
6C
100
AcDbEntity
 67
     1
  8
0
100
AcDbBlockBegin
  2
*Paper_Space
 70
     0
 10
0.0
 20
0.0
 30
0.0
  3
*Paper_Space
  1

  0
ENDBLK
  5
6E
330
6C
100
AcDbEntity
 67
     1
  8
0
100
AcDbBlockEnd
  0
BLOCK
  5
75
330
74
100
AcDbEntity
 67
     1
  8
0
100
AcDbBlockBegin
  2
*Paper_Space0
 70
     0
 10
0.0
 20
0.0
 30
0.0
  3
*Paper_Space0
  1

  0
ENDBLK
  5
76
330
74
100
AcDbEntity
 67
     1
  8
0
100
AcDbBlockEnd
  0
ENDSEC
  0
SECTION
  2
ENTITIES
  0
LINE
  5
78
330
70
100
AcDbEntity
  8
0
 62
     6
420
 16711935
370
    25
100
AcDbLine
 10
427.5056036241003
 20
41.69528735415042
 30
0.0
 11
422.8725741298003
 21
39.81511775945
 31
0.0
  0
LINE
  5
79
330
70
100
AcDbEntity
  8
0
 62
     6
420
 16711935
370
    25
100
AcDbLine
 10
419.1122349404995
 20
49.08117674815002
 30
0.0
 11
423.7452644348004
 21
50.96134634285045
 31
0.0
  0
LINE
  5
7A
330
70
100
AcDbEntity
  8
0
 62
     6
420
 16711935
370
    25
100
AcDbLine
 10
577.9191711954999
 20
-328.9470721927501
 30
0.0
 11
573.2861417010999
 21
-330.8272417873504
 31
0.0
  0
LINE
  5
7B
330
70
100
AcDbEntity
  8
0
 62
     6
420
 16711935
370
    25
100
AcDbLine
 10
569.5258025119001
 20
-321.5611827986504
 30
0.0
 11
574.1588320062001
 21
-319.68101320405
 31
0.0
  0
LINE
  5
7C
330
70
100
AcDbEntity
  8
0
 62
     6
420
 16711935
370
    25
100
AcDbLine
 10
442.5469603811998
 20
4.63105139945037
 30
0.0
 11
437.9139308868998
 21
2.750881804849996
 31
0.0
  0
LINE
  5
7D
330
70
100
AcDbEntity
  8
0
 62
     6
420
 16711935
370
    25
100
AcDbLine
 10
434.1535916975999
 20
12.01694079344997
 30
0.0
 11
438.7866211919999
 21
13.89711038815039
 31
0.0
  0
LINE
  5
7E
330
70
100
AcDbEntity
  8
0
 62
     6
420
 16711935
370
    25
100
AcDbLine
 10
307.1747495669997
 20
338.2091749916508
 30
0.0
 11
302.5417200726997
 21
336.3290053969504
 31
0.0
  0
LINE
  5
7F
330
70
100
AcDbEntity
  8
0
 62
     6
420
 16711935
370
    25
100
AcDbLine
 10
298.7813808833998
 20
345.5950643856504
 30
0.0
 11
303.4144103776998
 21
347.4752339802508
 31
0.0
  0
LINE
  5
80
330
70
100
AcDbEntity
  8
0
 62
     6
420
 16711935
370
    25
100
AcDbLine
 10
562.8778144382995
 20
-291.88283623805
 30
0.0
 11
558.2447849439995
 21
-293.7630058326504
 31
0.0
  0
LINE
  5
81
330
70
100
AcDbEntity
  8
0
 62
     6
420
 16711935
370
    25
100
AcDbLine
 10
554.4844457546997
 20
-284.4969468439503
 30
0.0
 11
559.1174752490997
 21
-282.61677724935
 31
0.0
  0
LINE
  5
82
330
70
100
AcDbEntity
  8
0
 62
     6
420
 16711935
370
    25
100
AcDbLine
 10
1464.850517323801
 20
422.7810510449508
 30
0.0
 11
1465.770820445399
 21
417.8664819834502
 31
0.0
  0
LINE
  5
83
330
70
100
AcDbEntity
  8
0
 62
     6
420
 16711935
370
    25
100
AcDbLine
 10
1455.941796067
 20
416.0259757334497
 30
0.0
 11
1455.0214929455
 21
420.9405447949502
 31
0.0
  0
LINE
  5
84
330
70
100
AcDbEntity
  8
0
 62
     6
420
 16711935
370
    25
100
AcDbLine
 10
1720.231615119999
 20
-304.3074400429505
 30
0.0
 11
1715.7362774354
 21
-306.4963168937502
 31
0.0
  0
LINE
  5
85
330
70
100
AcDbEntity
  8
0
 62
     6
420
 16711935
370
    25
100
AcDbLine
 10
1711.3584574326
 20
-297.5055053606502
 30
0.0
 11
1715.8537951172
 21
-295.3166285098505
 31
0.0
  0
LINE
  5
86
330
70
100
AcDbEntity
  8
0
 62
     6
420
 16711935
370
    25
100
AcDbLine
 10
1551.077618167001
 20
43.08731481504946
 30
0.0
 11
1546.5822804824
 21
40.8984379641497
 31
0.0
  0
LINE
  5
87
330
70
100
AcDbEntity
  8
0
 62
     6
420
 16711935
370
    25
100
AcDbLine
 10
1542.204460479599
 20
49.88924949724969
 30
0.0
 11
1546.6997981642
 21
52.07812634804941
 31
0.0
  0
LINE
  5
88
330
70
100
AcDbEntity
  8
0
 62
     6
420
 16711935
370
    25
100
AcDbLine
 10
1425.534419810599
 20
415.4190260448504
 30
0.0
 11
1426.454722932099
 21
410.5044569833498
 31
0.0
  0
LINE
  5
89
330
70
100
AcDbEntity
  8
0
 62
     6
420
 16711935
370
    25
100
AcDbLine
 10
1416.6256985537
 20
408.6639507333493
 30
0.0
 11
1415.7053954322
 21
413.5785197947497
 31
0.0
  0
LINE
  5
8A
330
70
100
AcDbEntity
  8
0
 62
     6
420
 16711935
370
    25
100
AcDbLine
 10
1737.742895130999
 20
-340.2706861752504
 30
0.0
 11
1733.2475574464
 21
-342.4595630260501
 31
0.0
  0
LINE
  5
8B
330
70
100
AcDbEntity
  8
0
 62
     6
420
 16711935
370
    25
100
AcDbLine
 10
1728.8697374436
 20
-333.4687514930501
 30
0.0
 11
1733.3650751283
 21
-331.2798746421504
 31
0.0
  0
LINE
  5
8C
330
70
100
AcDbEntity
  8
0
 62
     6
420
 16711935
370
    25
100
AcDbLine
 10
1568.588898178001
 20
7.124068682649522
 30
0.0
 11
1564.0935604934
 21
4.935191831849806
 31
0.0
  0
LINE
  5
8D
330
70
100
AcDbEntity
  8
0
 62
     6
420
 16711935
370
    25
100
AcDbLine
 10
1559.715740490599
 20
13.92600336494979
 30
0.0
 11
1564.2110781753
 21
16.11488021574951
 31
0.0
  0
LINE
  5
8E
330
70
100
AcDbEntity
  8
0
 62
     6
420
 16711935
370
    25
100
AcDbLine
 10
1648.1345900209
 20
-376.9618706831498
 30
0.0
 11
1648.1345900209
 21
-371.9618706831497
 31
0.0
  0
LINE
  5
8F
330
70
100
AcDbEntity
  8
0
 62
     6
420
 16711935
370
    25
100
AcDbLine
 10
1658.1345900209
 20
-371.9618706831497
 30
0.0
 11
1658.1345900209
 21
-376.9618706831498
 31
0.0
  0
LINE
  5
90
330
70
100
AcDbEntity
  8
0
 62
     6
420
 16711935
370
    25
100
AcDbLine
 10
623.1345900208999
 20
-376.9618706831498
 30
0.0
 11
623.1345900208999
 21
-371.9618706831497
 31
0.0
  0
LINE
  5
91
330
70
100
AcDbEntity
  8
0
 62
     6
420
 16711935
370
    25
100
AcDbLine
 10
633.1345900208998
 20
-371.9618706831497
 30
0.0
 11
633.1345900208998
 21
-376.9618706831498
 31
0.0
  0
LINE
  5
92
330
70
100
AcDbEntity
  8
0
 62
     6
420
 16711935
370
    25
100
AcDbLine
 10
978.1345900208998
 20
-376.9618706831498
 30
0.0
 11
978.1345900208998
 21
-371.9618706831497
 31
0.0
  0
LINE
  5
93
330
70
100
AcDbEntity
  8
0
 62
     6
420
 16711935
370
    25
100
AcDbLine
 10
988.1345900208998
 20
-371.9618706831497
 30
0.0
 11
988.1345900208998
 21
-376.9618706831498
 31
0.0
  0
LINE
  5
94
330
70
100
AcDbEntity
  8
0
 62
     6
420
 16711935
370
    25
100
AcDbLine
 10
1333.1345900209
 20
-376.9618706831498
 30
0.0
 11
1333.1345900209
 21
-371.9618706831497
 31
0.0
  0
LINE
  5
95
330
70
100
AcDbEntity
  8
0
 62
     6
420
 16711935
370
    25
100
AcDbLine
 10
1343.1345900209
 20
-371.9618706831497
 30
0.0
 11
1343.1345900209
 21
-376.9618706831498
 31
0.0
  0
LINE
  5
96
330
70
100
AcDbEntity
  8
0
 62
     6
420
 16711935
370
    25
100
AcDbLine
 10
1293.1345900209
 20
-376.9618706831498
 30
0.0
 11
1293.1345900209
 21
-371.9618706831497
 31
0.0
  0
LINE
  5
97
330
70
100
AcDbEntity
  8
0
 62
     6
420
 16711935
370
    25
100
AcDbLine
 10
1303.1345900209
 20
-371.9618706831497
 30
0.0
 11
1303.1345900209
 21
-376.9618706831498
 31
0.0
  0
LINE
  5
98
330
70
100
AcDbEntity
  8
0
 62
     6
420
 16711935
370
    25
100
AcDbLine
 10
938.1345900208998
 20
-376.9618706831498
 30
0.0
 11
938.1345900208998
 21
-371.9618706831497
 31
0.0
  0
LINE
  5
99
330
70
100
AcDbEntity
  8
0
 62
     6
420
 16711935
370
    25
100
AcDbLine
 10
948.1345900208998
 20
-371.9618706831497
 30
0.0
 11
948.1345900208998
 21
-376.9618706831498
 31
0.0
  0
LINE
  5
9A
330
70
100
AcDbEntity
  8
0
 62
     6
420
 16711935
370
    25
100
AcDbLine
 10
583.1345900208998
 20
-376.9618706831498
 30
0.0
 11
583.1345900208998
 21
-371.9618706831497
 31
0.0
  0
LINE
  5
9B
330
70
100
AcDbEntity
  8
0
 62
     6
420
 16711935
370
    25
100
AcDbLine
 10
593.1345900208998
 20
-371.9618706831497
 30
0.0
 11
593.1345900208998
 21
-376.9618706831498
 31
0.0
  0
LINE
  5
9C
330
70
100
AcDbEntity
  8
0
 62
     6
420
 16711935
370
    25
100
AcDbLine
 10
1688.1345900209
 20
-376.9618706831498
 30
0.0
 11
1688.1345900209
 21
-371.9618706831497
 31
0.0
  0
LINE
  5
9D
330
70
100
AcDbEntity
  8
0
 62
     6
420
 16711935
370
    25
100
AcDbLine
 10
1698.1345900209
 20
-371.9618706831497
 30
0.0
 11
1698.1345900209
 21
-376.9618706831498
 31
0.0
  0
LINE
  5
9E
330
70
100
AcDbEntity
  8
0
 62
     6
420
 16711935
370
    25
100
AcDbLine
 10
503.1385668904004
 20
1352.47037814215
 30
0.0
 11
503.1385668904004
 21
1357.47037814215
 31
0.0
  0
LINE
  5
9F
330
70
100
AcDbEntity
  8
0
 62
     6
420
 16711935
370
    25
100
AcDbLine
 10
513.1385668904004
 20
1357.47037814215
 30
0.0
 11
513.1385668904004
 21
1352.47037814215
 31
0.0
  0
LINE
  5
A0
330
70
100
AcDbEntity
  8
0
 62
     6
420
 16711935
370
    25
100
AcDbLine
 10
410.6385668904003
 20
1414.97037814215
 30
0.0
 11
415.6385668904004
 21
1414.97037814215
 31
0.0
  0
LINE
  5
A1
330
70
100
AcDbEntity
  8
0
 62
     6
420
 16711935
370
    25
100
AcDbLine
 10
415.6385668904004
 20
1404.97037814215
 30
0.0
 11
410.6385668904003
 21
1404.97037814215
 31
0.0
  0
LINE
  5
A2
330
70
100
AcDbEntity
  8
0
 62
     6
420
 16711935
370
    25
100
AcDbLine
 10
463.1385668904004
 20
1352.47037814215
 30
0.0
 11
463.1385668904004
 21
1357.47037814215
 31
0.0
  0
LINE
  5
A3
330
70
100
AcDbEntity
  8
0
 62
     6
420
 16711935
370
    25
100
AcDbLine
 10
473.1385668904003
 20
1357.47037814215
 30
0.0
 11
473.1385668904003
 21
1352.47037814215
 31
0.0
  0
LINE
  5
A4
330
70
100
AcDbEntity
  8
0
 62
     6
420
 16711935
370
    25
100
AcDbLine
 10
410.6385668904003
 20
1454.97037814215
 30
0.0
 11
415.6385668904004
 21
1454.97037814215
 31
0.0
  0
LINE
  5
A5
330
70
100
AcDbEntity
  8
0
 62
     6
420
 16711935
370
    25
100
AcDbLine
 10
415.6385668904004
 20
1444.97037814215
 30
0.0
 11
410.6385668904003
 21
1444.97037814215
 31
0.0
  0
LINE
  5
A6
330
70
100
AcDbEntity
  8
0
 62
     6
420
 16711935
370
    25
100
AcDbLine
 10
907.2714545019998
 20
1412.88701324925
 30
0.0
 11
912.2714532834997
 21
1412.88701324925
 31
0.0
  0
LINE
  5
A7
330
70
100
AcDbEntity
  8
0
 62
     6
420
 16711935
370
    25
100
AcDbLine
 10
912.2714532834997
 20
1402.88701324925
 30
0.0
 11
907.2714545019998
 21
1402.88701324925
 31
0.0
  0
LINE
  5
A8
330
70
100
AcDbEntity
  8
0
 62
     6
420
 16711935
370
    25
100
AcDbLine
 10
907.2714545019998
 20
1452.88701324925
 30
0.0
 11
912.2714532834997
 21
1452.88701324925
 31
0.0
  0
LINE
  5
A9
330
70
100
AcDbEntity
  8
0
 62
     6
420
 16711935
370
    25
100
AcDbLine
 10
912.2714532834997
 20
1442.88701324925
 30
0.0
 11
907.2714545019998
 21
1442.88701324925
 31
0.0
  0
LINE
  5
AA
330
70
100
AcDbEntity
  8
0
 62
     6
420
 16711935
370
    25
100
AcDbLine
 10
1206.0938757609
 20
788.7962924693502
 30
0.0
 11
1210.575022058299
 21
791.0141853014502
 31
0.0
  0
LINE
  5
AB
330
70
100
AcDbEntity
  8
0
 62
     6
420
 16711935
370
    25
100
AcDbLine
 10
1215.0108324963
 20
782.0518426524504
 30
0.0
 11
1210.529686198901
 21
779.8339498202503
 31
0.0
  0
LINE
  5
AC
330
70
100
AcDbEntity
  8
0
 62
     6
420
 16711935
370
    25
100
AcDbLine
 10
955.5898743932003
 20
1364.05646757515
 30
0.0
 11
958.7110191570999
 21
1360.15026190925
 31
0.0
  0
LINE
  5
AD
330
70
100
AcDbEntity
  8
0
 62
     6
420
 16711935
370
    25
100
AcDbLine
 10
950.8986620063996
 20
1353.90798593005
 30
0.0
 11
947.7775172424999
 21
1357.81419159595
 31
0.0
  0
LINE
  5
AE
330
70
100
AcDbEntity
  8
0
 62
     6
420
 16711935
370
    25
100
AcDbLine
 10
1188.350634008999
 20
824.6456630653501
 30
0.0
 11
1192.8317803064
 21
826.8635558974501
 31
0.0
  0
LINE
  5
AF
330
70
100
AcDbEntity
  8
0
 62
     6
420
 16711935
370
    25
100
AcDbLine
 10
1197.267590744399
 20
817.9012132484503
 30
0.0
 11
1192.786444446999
 21
815.6833204163504
 31
0.0
  0
LINE
  5
B0
330
70
100
AcDbEntity
  8
0
 62
     6
420
 16711935
370
    25
100
AcDbLine
 10
986.8393029960007
 20
1389.02557149175
 30
0.0
 11
989.9604477598003
 21
1385.119365825851
 31
0.0
  0
LINE
  5
B1
330
70
100
AcDbEntity
  8
0
 62
     6
420
 16711935
370
    25
100
AcDbLine
 10
982.1480906091
 20
1378.87708984665
 30
0.0
 11
979.0269458453003
 21
1382.78329551265
 31
0.0
  0
LINE
  5
B2
330
70
100
AcDbEntity
  8
0
 62
     6
420
 16711935
370
    25
100
AcDbLine
 10
403.6171393405002
 20
1321.39141037505
 30
0.0
 11
399.4743123586004
 21
1324.19087185855
 31
0.0
  0
LINE
  5
B3
330
70
100
AcDbEntity
  8
0
 62
     6
420
 16711935
370
    25
100
AcDbLine
 10
398.0182163734999
 20
1313.105756411151
 30
0.0
 11
393.8753893915
 21
1315.90521789465
 31
0.0
  0
LINE
  5
B4
330
70
100
AcDbEntity
  8
0
 62
     6
420
 16711935
370
    25
100
AcDbLine
 10
381.2214474722996
 20
1288.24879451955
 30
0.0
 11
377.0786204903998
 21
1291.04825600305
 31
0.0
  0
LINE
  5
B5
330
70
100
AcDbEntity
  8
0
 62
     6
420
 16711935
370
    25
100
AcDbLine
 10
375.6225245053002
 20
1279.96314055565
 30
0.0
 11
371.4796975234003
 21
1282.76260203915
 31
0.0
  0
LINE
  5
B6
330
70
100
AcDbEntity
  8
0
 62
     6
420
 16711935
370
    25
100
AcDbLine
 10
190.0875789526999
 20
1008.91497277185
 30
0.0
 11
185.2142230281997
 21
1010.03318654055
 31
0.0
  0
LINE
  5
B7
330
70
100
AcDbEntity
  8
0
 62
     6
420
 16711935
370
    25
100
AcDbLine
 10
187.8511514153997
 20
999.1682609227501
 30
0.0
 11
182.9777954909005
 21
1000.28647469135
 31
0.0
  0
LINE
  5
B8
330
70
100
AcDbEntity
  8
0
 62
     6
420
 16711935
370
    25
100
AcDbLine
 10
181.1418688036001
 20
969.9281253752506
 30
0.0
 11
176.2685128789999
 21
971.0463391439498
 31
0.0
  0
LINE
  5
B9
330
70
100
AcDbEntity
  8
0
 62
     6
420
 16711935
370
    25
100
AcDbLine
 10
178.9054412662999
 20
960.1814135261502
 30
0.0
 11
174.0320853416997
 21
961.2996272947503
 31
0.0
  0
LINE
  5
BA
330
70
100
AcDbEntity
  8
0
 62
     6
420
 16711935
370
    25
100
AcDbLine
 10
220.4964154366999
 20
709.3943642906497
 30
0.0
 11
225.4195642739996
 21
710.26763717215
 31
0.0
  0
LINE
  5
BB
330
70
100
AcDbEntity
  8
0
 62
     6
420
 16711935
370
    25
100
AcDbLine
 10
218.7498696736002
 20
719.2406619652501
 30
0.0
 11
223.6730185109
 21
720.1139348468505
 31
0.0
  0
LINE
  5
BC
330
70
100
AcDbEntity
  8
0
 62
     6
420
 16711935
370
    25
100
AcDbLine
 10
227.4825984891004
 20
670.0091735921505
 30
0.0
 11
232.4057473264002
 21
670.8824464736498
 31
0.0
  0
LINE
  5
BD
330
70
100
AcDbEntity
  8
0
 62
     6
420
 16711935
370
    25
100
AcDbLine
 10
225.7360527259998
 20
679.8554712667501
 30
0.0
 11
230.6592015632996
 21
680.7287441483504
 31
0.0
  0
LINE
  5
BE
330
70
100
AcDbEntity
  8
0
 62
     6
420
 16711935
370
    25
100
AcDbLine
 10
267.1920139250997
 20
446.1440260937506
 30
0.0
 11
272.1151627624004
 21
447.01729897535
 31
0.0
  0
LINE
  5
BF
330
70
100
AcDbEntity
  8
0
 62
     6
420
 16711935
370
    25
100
AcDbLine
 10
265.445468162
 20
455.9903237684502
 30
0.0
 11
270.3686169992998
 21
456.8635966499495
 31
0.0
  0
LINE
  5
C0
330
70
100
AcDbEntity
  8
0
 62
     6
420
 16711935
370
    25
100
AcDbLine
 10
159.197640591
 20
989.7556606549496
 30
0.0
 11
140.7612408979002
 21
1008.451565025451
 31
0.0
  0
LINE
  5
C1
330
70
100
AcDbEntity
  8
0
 62
     6
420
 16711935
370
    25
100
AcDbLine
 10
140.7612408979002
 20
1008.451565025451
 30
0.0
 11
381.3091163171002
 21
1364.43011111375
 31
0.0
  0
LINE
  5
C2
330
70
100
AcDbEntity
  8
0
 62
     6
420
 16711935
370
    25
100
AcDbLine
 10
381.3091163171002
 20
1364.43011111375
 30
0.0
 11
398.1702101110004
 21
1347.33168612835
 31
0.0
  0
LINE
  5
C3
330
70
100
AcDbEntity
  8
0
 62
     6
420
 16711935
370
    25
100
AcDbLine
 10
393.0552310535004
 20
1339.76220414895
 30
0.0
 11
398.1702101110004
 21
1347.33168612835
 31
0.0
  0
LINE
  5
C4
330
70
100
AcDbEntity
  8
0
 62
     6
420
 16711935
370
    25
100
AcDbLine
 10
399.2669492879004
 20
1334.05608462075
 30
0.0
 11
393.4007370217996
 21
1338.02010130905
 31
0.0
  0
LINE
  5
C5
330
70
100
AcDbEntity
  8
0
 62
     6
420
 16711935
370
    25
100
AcDbLine
 10
405.1018328100999
 20
1340.45835627095
 30
0.0
 11
401.0025214042998
 21
1334.39192599535
 31
0.0
  0
LINE
  5
C6
330
70
100
AcDbEntity
  8
0
 62
     6
420
 16711935
370
    25
100
AcDbLine
 10
408.5150710140997
 20
1344.051892267051
 30
0.0
 11
405.1018328100999
 21
1340.45835627095
 31
0.0
  0
LINE
  5
C7
330
70
100
AcDbEntity
  8
0
 62
     6
420
 16711935
370
    25
100
AcDbLine
 10
408.6223526655003
 20
1344.72018617935
 30
0.0
 11
408.5150710140997
 21
1344.051892267051
 31
0.0
  0
LINE
  5
C8
330
70
100
AcDbEntity
  8
0
 62
     6
420
 16711935
370
    25
100
AcDbLine
 10
407.4541668255997
 20
1346.84093911845
 30
0.0
 11
403.8380998148004
 21
1346.84093911845
 31
0.0
  0
LINE
  5
C9
330
70
100
AcDbEntity
  8
0
 62
     6
420
 16711935
370
    25
100
AcDbLine
 10
403.8380998148004
 20
1470.85453153835
 30
0.0
 11
403.8380998148004
 21
1346.84093911845
 31
0.0
  0
LINE
  5
CA
330
70
100
AcDbEntity
  8
0
 62
     6
420
 16711935
370
    25
100
AcDbLine
 10
873.8368129574
 20
1470.85453153835
 30
0.0
 11
403.8380998148004
 21
1470.85453153835
 31
0.0
  0
LINE
  5
CB
330
70
100
AcDbEntity
  8
0
 62
     6
420
 16711935
370
    25
100
AcDbLine
 10
876.8075029705997
 20
1470.82919303395
 30
0.0
 11
873.8368129574
 21
1470.85453153835
 31
0.0
  0
LINE
  5
CC
330
70
100
AcDbEntity
  8
0
 62
     6
420
 16711935
370
    25
100
AcDbLine
 10
876.8075029705997
 20
1470.82919303395
 30
0.0
 11
957.8946205410002
 21
1454.078093988149
 31
0.0
  0
LINE
  5
CD
330
70
100
AcDbEntity
  8
0
 62
     6
420
 16711935
370
    25
100
AcDbLine
 10
963.4229018600999
 20
1437.72921789325
 30
0.0
 11
896.6848467626997
 21
1360.854531538351
 31
0.0
  0
LINE
  5
CE
330
70
100
AcDbEntity
  8
0
 62
     6
420
 16711935
370
    25
100
AcDbLine
 10
896.6848467626997
 20
1360.854531538351
 30
0.0
 11
871.3368129574
 21
1360.854531538351
 31
0.0
  0
LINE
  5
CF
330
70
100
AcDbEntity
  8
0
 62
     6
420
 16711935
370
    25
100
AcDbLine
 10
871.3368129574
 20
1358.354531538351
 30
0.0
 11
879.5691062836995
 21
1358.354531538351
 31
0.0
  0
LINE
  5
D0
330
70
100
AcDbEntity
  8
0
 62
     6
420
 16711935
370
    25
100
AcDbLine
 10
879.5691062836995
 20
1344.051892267051
 30
0.0
 11
879.5691062836995
 21
1358.354531538351
 31
0.0
  0
LINE
  5
D1
330
70
100
AcDbEntity
  8
0
 62
     6
420
 16711935
370
    25
100
AcDbLine
 10
881.5892056781004
 20
1340.45835627095
 30
0.0
 11
879.5691062836995
 21
1344.051892267051
 31
0.0
  0
LINE
  5
D2
330
70
100
AcDbEntity
  8
0
 62
     6
420
 16711935
370
    25
100
AcDbLine
 10
881.5892056781004
 20
1340.45835627095
 30
0.0
 11
881.4278110871001
 21
1340.37847583795
 31
0.0
  0
LINE
  5
D3
330
70
100
AcDbEntity
  8
0
 62
     6
420
 16711935
370
    25
100
AcDbLine
 10
884.9580640658997
 20
1342.16951959625
 30
0.0
 11
881.4278110871001
 21
1340.37847583795
 31
0.0
  0
LINE
  5
D4
330
70
100
AcDbEntity
  8
0
 62
     6
420
 16711935
370
    25
100
AcDbLine
 10
884.9580640658997
 20
1342.16951959625
 30
0.0
 11
983.8539693016992
 21
1421.189912773751
 31
0.0
  0
LINE
  5
D5
330
70
100
AcDbEntity
  8
0
 62
     6
420
 16711935
370
    25
100
AcDbLine
 10
983.8539693016992
 20
1421.189912773751
 30
0.0
 11
1025.3182632391
 21
1337.41329175665
 31
0.0
  0
LINE
  5
D6
330
70
100
AcDbEntity
  8
0
 62
     6
420
 16711935
370
    25
100
AcDbLine
 10
1025.3182632391
 20
1337.41329175665
 30
0.0
 11
1024.1311049913
 21
1263.46523471995
 31
0.0
  0
LINE
  5
D7
330
70
100
AcDbEntity
  8
0
 62
     6
420
 16711935
370
    25
100
AcDbLine
 10
1024.1311049913
 20
1263.46523471995
 30
0.0
 11
1374.0507916887
 21
556.4692582976504
 31
0.0
  0
LINE
  5
D8
330
70
100
AcDbEntity
  8
0
 62
     6
420
 16711935
370
    25
100
AcDbLine
 10
1374.0507916887
 20
556.4692582976504
 30
0.0
 11
1435.2401376258
 21
523.0142928898494
 31
0.0
  0
LINE
  5
D9
330
70
100
AcDbEntity
  8
0
 62
     6
420
 16711935
370
    25
100
AcDbLine
 10
1435.2401376258
 20
523.0142928898494
 30
0.0
 11
1467.0250753485
 21
458.7943477565495
 31
0.0
  0
LINE
  5
DA
330
70
100
AcDbEntity
  8
0
 62
     6
420
 16711935
370
    25
100
AcDbLine
 10
1467.0250753485
 20
458.7943477565495
 30
0.0
 11
1409.671662480399
 21
430.4079227539496
 31
0.0
  0
LINE
  5
DB
330
70
100
AcDbEntity
  8
0
 62
     6
420
 16711935
370
    25
100
AcDbLine
 10
1409.671662480399
 20
430.4079227539496
 30
0.0
 11
1377.537731517999
 21
447.9769869808497
 31
0.0
  0
LINE
  5
DC
330
70
100
AcDbEntity
  8
0
 62
     6
420
 16711935
370
    25
100
AcDbLine
 10
1377.537731517999
 20
447.9769869808497
 30
0.0
 11
1337.3685841887
 21
428.0957204430506
 31
0.0
  0
LINE
  5
DD
330
70
100
AcDbEntity
  8
0
 62
     6
420
 16711935
370
    25
100
AcDbLine
 10
1333.781388511001
 20
426.4197266813498
 30
0.0
 11
1337.3685841887
 21
428.0957204430506
 31
0.0
  0
LINE
  5
DE
330
70
100
AcDbEntity
  8
0
 62
     6
420
 16711935
370
    25
100
AcDbLine
 10
1360.4484516337
 20
371.1889103512494
 30
0.0
 11
1333.781388511001
 21
426.4197266813498
 31
0.0
  0
LINE
  5
DF
330
70
100
AcDbEntity
  8
0
 62
     6
420
 16711935
370
    25
100
AcDbLine
 10
1360.4484516337
 20
371.1889103512494
 30
0.0
 11
1362.4502718853
 21
371.1889103512494
 31
0.0
  0
LINE
  5
E0
330
70
100
AcDbEntity
  8
0
 62
     6
420
 16711935
370
    25
100
AcDbLine
 10
1362.4502718853
 20
371.1889103512494
 30
0.0
 11
1410.1994433664
 21
394.4390115524511
 31
0.0
  0
LINE
  5
E1
330
70
100
AcDbEntity
  8
0
 62
     6
420
 16711935
370
    25
100
AcDbLine
 10
1410.1994433664
 20
394.4390115524511
 30
0.0
 11
1404.282540615699
 21
426.0375901388506
 31
0.0
  0
LINE
  5
E2
330
70
100
AcDbEntity
  8
0
 62
     6
420
 16711935
370
    25
100
AcDbLine
 10
1404.282540615699
 20
426.0375901388506
 30
0.0
 11
1471.120847649999
 21
438.5532088924501
 31
0.0
  0
LINE
  5
E3
330
70
100
AcDbEntity
  8
0
 62
     6
420
 16711935
370
    25
100
AcDbLine
 10
1471.120847649999
 20
438.5532088924501
 30
0.0
 11
1511.490476413001
 21
222.9635768293501
 31
0.0
  0
LINE
  5
E4
330
70
100
AcDbEntity
  8
0
 62
     6
420
 16711935
370
    25
100
AcDbLine
 10
1511.490476413001
 20
222.9635768293501
 30
0.0
 11
1788.967392413
 21
-346.8960005314493
 31
0.0
  0
LINE
  5
E5
330
70
100
AcDbEntity
  8
0
 62
     6
420
 16711935
370
    25
100
AcDbLine
 10
1788.967392413
 20
-346.8960005314493
 30
0.0
 11
1717.850279517999
 21
-360.21283501365
 31
0.0
  0
LINE
  5
E6
330
70
100
AcDbEntity
  8
0
 62
     6
420
 16711935
370
    25
100
AcDbLine
 10
1712.5451887946
 20
-359.8666218640501
 30
0.0
 11
1717.850279517999
 21
-360.21283501365
 31
0.0
  0
LINE
  5
E7
330
70
100
AcDbEntity
  8
0
 62
     6
420
 16711935
370
    25
100
AcDbLine
 10
1714.964855103301
 20
-363.3005255053504
 30
0.0
 11
1712.5451887946
 21
-359.8666218640501
 31
0.0
  0
LINE
  5
E8
330
70
100
AcDbEntity
  8
0
 62
     6
420
 16711935
370
    25
100
AcDbLine
 10
1714.964855103301
 20
-363.3005255053504
 30
0.0
 11
1720.2860979495
 21
-363.3005255053504
 31
0.0
  0
LINE
  5
E9
330
70
100
AcDbEntity
  8
0
 62
     6
420
 16711935
370
    25
100
AcDbLine
 10
1720.2860979495
 20
-363.3005255053504
 30
0.0
 11
1720.2860979495
 21
-390.854531538349
 31
0.0
  0
LINE
  5
EA
330
70
100
AcDbEntity
  8
0
 62
     6
420
 16711935
370
    25
100
AcDbLine
 10
573.1881427872995
 20
-390.854531538349
 30
0.0
 11
1720.2860979495
 21
-390.854531538349
 31
0.0
  0
LINE
  5
EB
330
70
100
AcDbEntity
  8
0
 62
     6
420
 16711935
370
    25
100
AcDbLine
 10
573.1881427872995
 20
-390.854531538349
 30
0.0
 11
573.1881427872995
 21
-367.4110037413502
 31
0.0
  0
LINE
  5
EC
330
70
100
AcDbEntity
  8
0
 62
     6
420
 16711935
370
    25
100
AcDbLine
 10
573.1881427872995
 20
-367.4110037413502
 30
0.0
 11
581.5872793862999
 21
-367.4110037413502
 31
0.0
  0
LINE
  5
ED
330
70
100
AcDbEntity
  8
0
 62
     6
420
 16711935
370
    25
100
AcDbLine
 10
582.4449543969003
 20
-363.3005255053504
 30
0.0
 11
582.7799373647994
 21
-366.1029762057497
 31
0.0
  0
LINE
  5
EE
330
70
100
AcDbEntity
  8
0
 62
     6
420
 16711935
370
    25
100
AcDbLine
 10
580.4283141501
 20
-359.8666218644503
 30
0.0
 11
582.4449543969003
 21
-363.3005255053504
 31
0.0
  0
LINE
  5
EF
330
70
100
AcDbEntity
  8
0
 62
     6
420
 16711935
370
    25
100
AcDbLine
 10
578.1223014631996
 20
-354.1842489429509
 30
0.0
 11
580.4283141501
 21
-359.8666218644503
 31
0.0
  0
LINE
  5
F0
330
70
100
AcDbEntity
  8
0
 62
     6
420
 16711935
370
    25
100
AcDbLine
 10
576.4940016909995
 20
-353.4960339680511
 30
0.0
 11
569.0788212767001
 21
-356.5052521849502
 31
0.0
  0
LINE
  5
F1
330
70
100
AcDbEntity
  8
0
 62
     6
420
 16711935
370
    25
100
AcDbLine
 10
569.6314771021998
 20
-361.2135023815499
 30
0.0
 11
568.3828528112999
 21
-358.1366984679498
 31
0.0
  0
LINE
  5
F2
330
70
100
AcDbEntity
  8
0
 62
     6
420
 16711935
370
    25
100
AcDbLine
 10
569.6314771021998
 20
-361.2135023815499
 30
0.0
 11
551.1619107322003
 21
-375.67888242765
 31
0.0
  0
LINE
  5
F3
330
70
100
AcDbEntity
  8
0
 62
     6
420
 16711935
370
    25
100
AcDbLine
 10
551.1619107322003
 20
-375.67888242765
 30
0.0
 11
243.3192495460998
 21
382.8931809405513
 31
0.0
  0
LINE
  5
F4
330
70
100
AcDbEntity
  8
0
 62
     6
420
 16711935
370
    25
100
AcDbLine
 10
244.9501275078
 20
384.1640101539506
 30
0.0
 11
243.3192495460998
 21
382.8931809405513
 31
0.0
  0
LINE
  5
F5
330
70
100
AcDbEntity
  8
0
 62
     6
420
 16711935
370
    25
100
AcDbLine
 10
244.9501275078
 20
384.1640101539506
 30
0.0
 11
253.2110957465002
 21
363.807703142651
 31
0.0
  0
LINE
  5
F6
330
70
100
AcDbEntity
  8
0
 62
     6
420
 16711935
370
    25
100
AcDbLine
 10
254.9064881908998
 20
362.9764137313505
 30
0.0
 11
275.9816762928003
 21
370.4036184761499
 31
0.0
  0
LINE
  5
F7
330
70
100
AcDbEntity
  8
0
 62
     6
420
 16711935
370
    25
100
AcDbLine
 10
280.4111255221997
 20
369.9389103512495
 30
0.0
 11
275.9816762928003
 21
370.4036184761499
 31
0.0
  0
LINE
  5
F8
330
70
100
AcDbEntity
  8
0
 62
     6
420
 16711935
370
    25
100
AcDbLine
 10
292.1324606601002
 20
369.9389103512495
 30
0.0
 11
280.4111255221997
 21
369.9389103512495
 31
0.0
  0
LINE
  5
F9
330
70
100
AcDbEntity
  8
0
 62
     6
420
 16711935
370
    25
100
AcDbLine
 10
293.3824606601001
 20
431.2062054165507
 30
0.0
 11
293.3824606601001
 21
371.1889103512494
 31
0.0
  0
LINE
  5
FA
330
70
100
AcDbEntity
  8
0
 62
     6
420
 16711935
370
    25
100
AcDbLine
 10
265.9500563627998
 20
432.6625626056502
 30
0.0
 11
292.1324606601002
 21
432.6625626056502
 31
0.0
  0
LINE
  5
FB
330
70
100
AcDbEntity
  8
0
 62
     6
420
 16711935
370
    25
100
AcDbLine
 10
264.4872380213001
 20
434.0104798648499
 30
0.0
 11
228.6438934225998
 21
427.6525528842503
 31
0.0
  0
LINE
  5
FC
330
70
100
AcDbEntity
  8
0
 62
     6
420
 16711935
370
    25
100
AcDbLine
 10
228.6438934225998
 20
427.6525528842503
 30
0.0
 11
131.0326075869998
 21
977.9443328352499
 31
0.0
  0
LINE
  5
FD
330
70
100
AcDbEntity
  8
0
 62
     6
420
 16711935
370
    25
100
AcDbLine
 10
131.0326075869998
 20
977.9443328352499
 30
0.0
 11
159.2769560101997
 21
982.9543425566498
 31
0.0
  0
LINE
  5
FE
330
70
100
AcDbEntity
  8
0
 62
     6
420
 16711935
370
    25
100
AcDbLine
 10
159.197640591
 20
989.7556606549496
 30
0.0
 11
159.2769560101997
 21
982.9543425566498
 31
0.0
  0
LINE
  5
FF
330
70
100
AcDbEntity
  8
0
 62
     6
420
 16711935
370
    25
100
AcDbLine
 10
1407.2528860321
 20
441.6662081715513
 30
0.0
 11
1404.131739512
 21
445.5723922016495
 31
0.0
  0
LINE
  5
100
330
70
100
AcDbEntity
  8
0
 62
     6
420
 16711935
370
    25
100
AcDbLine
 10
1411.9440838722
 20
451.8145106150496
 30
0.0
 11
1415.0652303924
 21
447.9083265848494
 31
0.0
  0
LINE
  5
101
330
70
100
AcDbEntity
  8
0
 62
     6
420
 16711935
370
    25
100
AcDbLine
 10
1438.502263473199
 20
466.6346818249512
 30
0.0
 11
1435.381116953
 21
470.5408658550495
 31
0.0
  0
LINE
  5
102
330
70
100
AcDbEntity
  8
0
 62
     6
420
 16711935
370
    25
100
AcDbLine
 10
1443.1934613133
 20
476.7829842684496
 30
0.0
 11
1446.314607833499
 21
472.8768002383494
 31
0.0
  0
SPLINE
  5
103
330
70
100
AcDbEntity
  8
0
 62
     6
420
 16711935
370
    25
100
AcDbSpline
210
0.0
220
0.0
230
1.0
 70
     8
 71
     3
 72
    11
 73
     7
 74
     0
 42
0.0000000001
 43
0.0000000001
 40
0.0
 40
0.0
 40
0.0
 40
0.0
 40
1.0
 40
1.0
 40
1.0
 40
2.0
 40
2.0
 40
2.0
 40
2.0
 10
427.5056036241403
 20
41.69528735411404
 30
0.0
 10
430.0643551593784
 20
42.73367634832903
 30
0.0
 10
431.2968525180512
 20
45.64973490785269
 30
0.0
 10
430.2584635238353
 20
48.2084864430908
 30
0.0
 10
429.2200745296204
 20
50.76723797832892
 30
0.0
 10
426.3040159700968
 20
51.99973533700177
 30
0.0
 10
423.7452644348596
 20
50.96134634278496
 30
0.0
  0
SPLINE
  5
104
330
70
100
AcDbEntity
  8
0
 62
     6
420
 16711935
370
    25
100
AcDbSpline
210
0.0
220
0.0
230
1.0
 70
     8
 71
     3
 72
    11
 73
     7
 74
     0
 42
0.0000000001
 43
0.0000000001
 40
0.0
 40
0.0
 40
0.0
 40
0.0
 40
1.0
 40
1.0
 40
1.0
 40
2.0
 40
2.0
 40
2.0
 40
2.0
 10
419.1122349404586
 20
49.0811767481864
 30
0.0
 10
416.5534834052205
 20
48.04278775397142
 30
0.0
 10
415.3209860465477
 20
45.12672919444776
 30
0.0
 10
416.3593750407635
 20
42.56797765920964
 30
0.0
 10
417.3977640349794
 20
40.00922612397153
 30
0.0
 10
420.313822594503
 20
38.77672876529869
 30
0.0
 10
422.8725741297412
 20
39.81511775951367
 30
0.0
  0
SPLINE
  5
105
330
70
100
AcDbEntity
  8
0
 62
     6
420
 16711935
370
    25
100
AcDbSpline
210
0.0
220
0.0
230
1.0
 70
     8
 71
     3
 72
    11
 73
     7
 74
     0
 42
0.0000000001
 43
0.0000000001
 40
0.0
 40
0.0
 40
0.0
 40
0.0
 40
1.0
 40
1.0
 40
1.0
 40
2.0
 40
2.0
 40
2.0
 40
2.0
 10
577.9191711954409
 20
-328.9470721926864
 30
0.0
 10
580.477922730679
 20
-327.9086831984714
 30
0.0
 10
581.7104200893518
 20
-324.9926246389478
 30
0.0
 10
580.6720310951368
 20
-322.4338731037097
 30
0.0
 10
579.6336421009209
 20
-319.8751215684715
 30
0.0
 10
576.7175835413972
 20
-318.6426242097969
 30
0.0
 10
574.1588320061591
 20
-319.6810132040137
 30
0.0
  0
SPLINE
  5
106
330
70
100
AcDbEntity
  8
0
 62
     6
420
 16711935
370
    25
100
AcDbSpline
210
0.0
220
0.0
230
1.0
 70
     8
 71
     3
 72
    11
 73
     7
 74
     0
 42
0.0000000001
 43
0.0000000001
 40
0.0
 40
0.0
 40
0.0
 40
0.0
 40
1.0
 40
1.0
 40
1.0
 40
2.0
 40
2.0
 40
2.0
 40
2.0
 10
569.5258025118591
 20
-321.5611827987141
 30
0.0
 10
566.967050976621
 20
-322.599571792929
 30
0.0
 10
565.7345536179482
 20
-325.5156303524527
 30
0.0
 10
566.7729426121641
 20
-328.0743818876908
 30
0.0
 10
567.811331606379
 20
-330.633133422929
 30
0.0
 10
570.7273901659028
 20
-331.8656307816018
 30
0.0
 10
573.2861417011409
 20
-330.8272417873868
 30
0.0
  0
SPLINE
  5
107
330
70
100
AcDbEntity
  8
0
 62
     6
420
 16711935
370
    25
100
AcDbSpline
210
0.0
220
0.0
230
1.0
 70
     8
 71
     3
 72
    11
 73
     7
 74
     0
 42
0.0000000001
 43
0.0000000001
 40
0.0
 40
0.0
 40
0.0
 40
0.0
 40
1.0
 40
1.0
 40
1.0
 40
2.0
 40
2.0
 40
2.0
 40
2.0
 10
442.5469603812407
 20
4.631051399413991
 30
0.0
 10
445.1057119164797
 20
5.669440393628974
 30
0.0
 10
446.3382092751526
 20
8.585498953152637
 30
0.0
 10
445.2998202809367
 20
11.14425048839075
 30
0.0
 10
444.2614312867208
 20
13.70300202362887
 30
0.0
 10
441.3453727271972
 20
14.93549938230171
 30
0.0
 10
438.7866211919591
 20
13.89711038808673
 30
0.0
  0
SPLINE
  5
108
330
70
100
AcDbEntity
  8
0
 62
     6
420
 16711935
370
    25
100
AcDbSpline
210
0.0
220
0.0
230
1.0
 70
     8
 71
     3
 72
    11
 73
     7
 74
     0
 42
0.0000000001
 43
0.0000000001
 40
0.0
 40
0.0
 40
0.0
 40
0.0
 40
1.0
 40
1.0
 40
1.0
 40
2.0
 40
2.0
 40
2.0
 40
2.0
 10
434.1535916976591
 20
12.01694079348635
 30
0.0
 10
431.594840162421
 20
10.97855179927137
 30
0.0
 10
430.362342803748
 20
8.062493239747709
 30
0.0
 10
431.400731797964
 20
5.503741704509593
 30
0.0
 10
432.439120792179
 20
2.944990169271477
 30
0.0
 10
435.3551793517026
 20
1.712492810598632
 30
0.0
 10
437.9139308869407
 20
2.750881804813616
 30
0.0
  0
SPLINE
  5
109
330
70
100
AcDbEntity
  8
0
 62
     6
420
 16711935
370
    25
100
AcDbSpline
210
0.0
220
0.0
230
1.0
 70
     8
 71
     3
 72
    11
 73
     7
 74
     0
 42
0.0000000001
 43
0.0000000001
 40
0.0
 40
0.0
 40
0.0
 40
0.0
 40
1.0
 40
1.0
 40
1.0
 40
2.0
 40
2.0
 40
2.0
 40
2.0
 10
307.1747495670406
 20
338.2091749916144
 30
0.0
 10
309.7335011022788
 20
339.2475639858294
 30
0.0
 10
310.9659984609516
 20
342.1636225453531
 30
0.0
 10
309.9276094667366
 20
344.7223740805912
 30
0.0
 10
308.8892204725207
 20
347.2811256158293
 30
0.0
 10
305.9731619129971
 20
348.5136229745021
 30
0.0
 10
303.414410377759
 20
347.4752339802872
 30
0.0
  0
SPLINE
  5
10A
330
70
100
AcDbEntity
  8
0
 62
     6
420
 16711935
370
    25
100
AcDbSpline
210
0.0
220
0.0
230
1.0
 70
     8
 71
     3
 72
    11
 73
     7
 74
     0
 42
0.0000000001
 43
0.0000000001
 40
0.0
 40
0.0
 40
0.0
 40
0.0
 40
1.0
 40
1.0
 40
1.0
 40
2.0
 40
2.0
 40
2.0
 40
2.0
 10
298.7813808833589
 20
345.5950643856868
 30
0.0
 10
296.2226293481208
 20
344.55667539147
 30
0.0
 10
294.9901319894479
 20
341.6406168319481
 30
0.0
 10
296.0285209836639
 20
339.08186529671
 30
0.0
 10
297.0669099778797
 20
336.5231137614719
 30
0.0
 10
299.9829685374025
 20
335.2906164027991
 30
0.0
 10
302.5417200726406
 20
336.329005397014
 30
0.0
  0
SPLINE
  5
10B
330
70
100
AcDbEntity
  8
0
 62
     6
420
 16711935
370
    25
100
AcDbSpline
210
0.0
220
0.0
230
1.0
 70
     8
 71
     3
 72
    11
 73
     7
 74
     0
 42
0.0000000001
 43
0.0000000001
 40
0.0
 40
0.0
 40
0.0
 40
0.0
 40
1.0
 40
1.0
 40
1.0
 40
2.0
 40
2.0
 40
2.0
 40
2.0
 10
562.8778144383414
 20
-291.8828362379863
 30
0.0
 10
565.4365659735795
 20
-290.8444472437714
 30
0.0
 10
566.6690633322523
 20
-287.9283886842477
 30
0.0
 10
565.6306743380364
 20
-285.3696371490096
 30
0.0
 10
564.5922853438205
 20
-282.8108856137697
 30
0.0
 10
561.6762267842968
 20
-281.5783882550968
 30
0.0
 10
559.1174752490587
 20
-282.6167772493136
 30
0.0
  0
SPLINE
  5
10C
330
70
100
AcDbEntity
  8
0
 62
     6
420
 16711935
370
    25
100
AcDbSpline
210
0.0
220
0.0
230
1.0
 70
     8
 71
     3
 72
    11
 73
     7
 74
     0
 42
0.0000000001
 43
0.0000000001
 40
0.0
 40
0.0
 40
0.0
 40
0.0
 40
1.0
 40
1.0
 40
1.0
 40
2.0
 40
2.0
 40
2.0
 40
2.0
 10
554.4844457547587
 20
-284.496946844014
 30
0.0
 10
551.9256942195206
 20
-285.535335838229
 30
0.0
 10
550.6931968608478
 20
-288.4513943977527
 30
0.0
 10
551.7315858550637
 20
-291.0101459329908
 30
0.0
 10
552.7699748492795
 20
-293.5688974682289
 30
0.0
 10
555.6860334088033
 20
-294.8013948269018
 30
0.0
 10
558.2447849440414
 20
-293.7630058326868
 30
0.0
  0
SPLINE
  5
10D
330
70
100
AcDbEntity
  8
0
 62
     6
420
 16711935
370
    25
100
AcDbSpline
210
0.0
220
0.0
230
1.0
 70
     8
 71
     3
 72
    14
 73
    10
 74
     0
 42
0.0000000001
 43
0.0000000001
 40
0.0
 40
0.0
 40
0.0
 40
0.0
 40
1.0
 40
1.0
 40
1.0
 40
2.0
 40
2.0
 40
2.0
 40
3.0
 40
3.0
 40
3.0
 40
3.0
 10
1455.941796067076
 20
416.0259757334443
 30
0.0
 10
1456.450010877037
 20
413.3117605507614
 30
0.0
 10
1459.062306528423
 20
411.5234439096639
 30
0.0
 10
1461.776521711106
 20
412.0316587196266
 30
0.0
 10
1464.490736893789
 20
412.5398735295875
 30
0.0
 10
1466.279053534885
 20
415.1521691809739
 30
0.0
 10
1465.770838724924
 20
417.8663843636568
 30
0.0
 10
1465.77083263207
 20
417.8664169036673
 30
0.0
 10
1465.770826538899
 20
417.8664494435889
 30
0.0
 10
1465.770820445399
 20
417.8664819834794
 30
0.0
  0
SPLINE
  5
10E
330
70
100
AcDbEntity
  8
0
 62
     6
420
 16711935
370
    25
100
AcDbSpline
210
0.0
220
0.0
230
1.0
 70
     8
 71
     3
 72
    14
 73
    10
 74
     0
 42
0.0000000001
 43
0.0000000001
 40
0.0
 40
0.0
 40
0.0
 40
0.0
 40
1.0
 40
1.0
 40
1.0
 40
2.0
 40
2.0
 40
2.0
 40
3.0
 40
3.0
 40
3.0
 40
3.0
 10
1464.850517323824
 20
422.7810510449562
 30
0.0
 10
1464.342302513862
 20
425.4952662276391
 30
0.0
 10
1461.730006862477
 20
427.2835828687366
 30
0.0
 10
1459.015791679794
 20
426.7753680587738
 30
0.0
 10
1456.301576497111
 20
426.267153248813
 30
0.0
 10
1454.513259856014
 20
423.6548575974266
 30
0.0
 10
1455.021474665977
 20
420.9406424147436
 30
0.0
 10
1455.021480758829
 20
420.9406098747331
 30
0.0
 10
1455.021486852001
 20
420.9405773348116
 30
0.0
 10
1455.021492945501
 20
420.9405447949211
 30
0.0
  0
SPLINE
  5
10F
330
70
100
AcDbEntity
  8
0
 62
     6
420
 16711935
370
    25
100
AcDbSpline
210
0.0
220
0.0
230
1.0
 70
     8
 71
     3
 72
    11
 73
     7
 74
     0
 42
0.0000000001
 43
0.0000000001
 40
0.0
 40
0.0
 40
0.0
 40
0.0
 40
1.0
 40
1.0
 40
1.0
 40
2.0
 40
2.0
 40
2.0
 40
2.0
 10
1711.358457432579
 20
-297.5055053606793
 30
0.0
 10
1708.875727683269
 20
-298.714436341068
 30
0.0
 10
1707.84310975444
 20
-301.707118662358
 30
0.0
 10
1709.052040734828
 20
-304.18984841167
 30
0.0
 10
1710.260951491735
 20
-306.6725366288811
 30
0.0
 10
1713.253560618919
 20
-307.7051689159034
 30
0.0
 10
1715.73627743535
 20
-306.4963168937575
 30
0.0
  0
SPLINE
  5
110
330
70
100
AcDbEntity
  8
0
 62
     6
420
 16711935
370
    25
100
AcDbSpline
210
0.0
220
0.0
230
1.0
 70
     8
 71
     3
 72
    11
 73
     7
 74
     0
 42
0.0000000001
 43
0.0000000001
 40
0.0
 40
0.0
 40
0.0
 40
0.0
 40
1.0
 40
1.0
 40
1.0
 40
2.0
 40
2.0
 40
2.0
 40
2.0
 10
1720.231615119957
 20
-304.3074400429723
 30
0.0
 10
1722.714345220494
 20
-303.0985097839021
 30
0.0
 10
1723.746964018792
 20
-300.1058277626289
 30
0.0
 10
1722.538033759721
 20
-297.6230976620918
 30
0.0
 10
1721.329123227406
 20
-295.1404080735774
 30
0.0
 10
1718.336512602505
 20
-294.1077752697474
 30
0.0
 10
1715.853795117195
 20
-295.3166285098869
 30
0.0
  0
SPLINE
  5
111
330
70
100
AcDbEntity
  8
0
 62
     6
420
 16711935
370
    25
100
AcDbSpline
210
0.0
220
0.0
230
1.0
 70
     8
 71
     3
 72
    11
 73
     7
 74
     0
 42
0.0000000001
 43
0.0000000001
 40
0.0
 40
0.0
 40
0.0
 40
0.0
 40
1.0
 40
1.0
 40
1.0
 40
2.0
 40
2.0
 40
2.0
 40
2.0
 10
1542.204460479579
 20
49.88924949732063
 30
0.0
 10
1539.721730730267
 20
48.68031851693377
 30
0.0
 10
1538.689112801439
 20
45.68763619564196
 30
0.0
 10
1539.898043781828
 20
43.20490644632991
 30
0.0
 10
1541.106954538733
 20
40.72221822911887
 30
0.0
 10
1544.099563665919
 20
39.68958594209653
 30
0.0
 10
1546.582280482351
 20
40.89843796424247
 30
0.0
  0
SPLINE
  5
112
330
70
100
AcDbEntity
  8
0
 62
     6
420
 16711935
370
    25
100
AcDbSpline
210
0.0
220
0.0
230
1.0
 70
     8
 71
     3
 72
    11
 73
     7
 74
     0
 42
0.0000000001
 43
0.0000000001
 40
0.0
 40
0.0
 40
0.0
 40
0.0
 40
1.0
 40
1.0
 40
1.0
 40
2.0
 40
2.0
 40
2.0
 40
2.0
 10
1551.077618167012
 20
43.08731481497488
 30
0.0
 10
1553.560347916326
 20
44.29624579535993
 30
0.0
 10
1554.592965845159
 20
47.28892811664991
 30
0.0
 10
1553.384034864773
 20
49.77165786596197
 30
0.0
 10
1552.175124107871
 20
52.25434608317846
 30
0.0
 10
1549.182514980684
 20
53.28697837020445
 30
0.0
 10
1546.699798164249
 20
52.07812634805851
 30
0.0
  0
SPLINE
  5
113
330
70
100
AcDbEntity
  8
0
 62
     6
420
 16711935
370
    25
100
AcDbSpline
210
0.0
220
0.0
230
1.0
 70
     8
 71
     3
 72
    14
 73
    10
 74
     0
 42
0.0000000001
 43
0.0000000001
 40
0.0
 40
0.0
 40
0.0
 40
0.0
 40
1.0
 40
1.0
 40
1.0
 40
2.0
 40
2.0
 40
2.0
 40
3.0
 40
3.0
 40
3.0
 40
3.0
 10
1416.625698553776
 20
408.6639507333439
 30
0.0
 10
1417.133913363737
 20
405.949735550661
 30
0.0
 10
1419.746209015124
 20
404.1614189095635
 30
0.0
 10
1422.460424197805
 20
404.6696337195262
 30
0.0
 10
1425.174639380488
 20
405.1778485294871
 30
0.0
 10
1426.962956021585
 20
407.7901441808735
 30
0.0
 10
1426.454741211622
 20
410.5043593635564
 30
0.0
 10
1426.45473511877
 20
410.504391903567
 30
0.0
 10
1426.454729025597
 20
410.5044244434884
 30
0.0
 10
1426.454722932099
 20
410.504456983379
 30
0.0
  0
SPLINE
  5
114
330
70
100
AcDbEntity
  8
0
 62
     6
420
 16711935
370
    25
100
AcDbSpline
210
0.0
220
0.0
230
1.0
 70
     8
 71
     3
 72
    14
 73
    10
 74
     0
 42
0.0000000001
 43
0.0000000001
 40
0.0
 40
0.0
 40
0.0
 40
0.0
 40
1.0
 40
1.0
 40
1.0
 40
2.0
 40
2.0
 40
2.0
 40
3.0
 40
3.0
 40
3.0
 40
3.0
 10
1425.534419810523
 20
415.4190260447558
 30
0.0
 10
1425.026205000562
 20
418.1332412274387
 30
0.0
 10
1422.413909349176
 20
419.9215578685361
 30
0.0
 10
1419.699694166493
 20
419.4133430585752
 30
0.0
 10
1416.98547898381
 20
418.9051282486125
 30
0.0
 10
1415.197162342714
 20
416.2928325972261
 30
0.0
 10
1415.705377152675
 20
413.5786174145432
 30
0.0
 10
1415.705383245529
 20
413.5785848745326
 30
0.0
 10
1415.7053893387
 20
413.5785523346112
 30
0.0
 10
1415.7053954322
 20
413.5785197947207
 30
0.0
  0
SPLINE
  5
115
330
70
100
AcDbEntity
  8
0
 62
     6
420
 16711935
370
    25
100
AcDbSpline
210
0.0
220
0.0
230
1.0
 70
     8
 71
     3
 72
    11
 73
     7
 74
     0
 42
0.0000000001
 43
0.0000000001
 40
0.0
 40
0.0
 40
0.0
 40
0.0
 40
1.0
 40
1.0
 40
1.0
 40
2.0
 40
2.0
 40
2.0
 40
2.0
 10
1728.86973744368
 20
-333.4687514929774
 30
0.0
 10
1726.387007694367
 20
-334.6776824733661
 30
0.0
 10
1725.35438976554
 20
-337.6703647946579
 30
0.0
 10
1726.563320745929
 20
-340.1530945439699
 30
0.0
 10
1727.772231502833
 20
-342.635782761181
 30
0.0
 10
1730.764840630017
 20
-343.6684150482033
 30
0.0
 10
1733.247557446449
 20
-342.4595630260574
 30
0.0
  0
SPLINE
  5
116
330
70
100
AcDbEntity
  8
0
 62
     6
420
 16711935
370
    25
100
AcDbSpline
210
0.0
220
0.0
230
1.0
 70
     8
 71
     3
 72
    11
 73
     7
 74
     0
 42
0.0000000001
 43
0.0000000001
 40
0.0
 40
0.0
 40
0.0
 40
0.0
 40
1.0
 40
1.0
 40
1.0
 40
2.0
 40
2.0
 40
2.0
 40
2.0
 10
1737.742895131012
 20
-340.2706861752249
 30
0.0
 10
1740.225624880326
 20
-339.0617551948417
 30
0.0
 10
1741.258242809159
 20
-336.0690728735517
 30
0.0
 10
1740.049311828774
 20
-333.5863431242378
 30
0.0
 10
1738.840401071871
 20
-331.1036549070213
 30
0.0
 10
1735.847791944683
 20
-330.0710226199953
 30
0.0
 10
1733.365075128249
 20
-331.2798746421413
 30
0.0
  0
SPLINE
  5
117
330
70
100
AcDbEntity
  8
0
 62
     6
420
 16711935
370
    25
100
AcDbSpline
210
0.0
220
0.0
230
1.0
 70
     8
 71
     3
 72
    11
 73
     7
 74
     0
 42
0.0000000001
 43
0.0000000001
 40
0.0
 40
0.0
 40
0.0
 40
0.0
 40
1.0
 40
1.0
 40
1.0
 40
2.0
 40
2.0
 40
2.0
 40
2.0
 10
1559.715740490679
 20
13.92600336492251
 30
0.0
 10
1557.233010741367
 20
12.71707238453382
 30
0.0
 10
1556.200392812539
 20
9.724390063242026
 30
0.0
 10
1557.409323792928
 20
7.241660313929969
 30
0.0
 10
1558.618234549834
 20
4.758972096718935
 30
0.0
 10
1561.610843677019
 20
3.726339809696582
 30
0.0
 10
1564.093560493451
 20
4.93519183184253
 30
0.0
  0
SPLINE
  5
118
330
70
100
AcDbEntity
  8
0
 62
     6
420
 16711935
370
    25
100
AcDbSpline
210
0.0
220
0.0
230
1.0
 70
     8
 71
     3
 72
    11
 73
     7
 74
     0
 42
0.0000000001
 43
0.0000000001
 40
0.0
 40
0.0
 40
0.0
 40
0.0
 40
1.0
 40
1.0
 40
1.0
 40
2.0
 40
2.0
 40
2.0
 40
2.0
 10
1568.588898178014
 20
7.124068682673168
 30
0.0
 10
1571.071627927327
 20
8.332999663058217
 30
0.0
 10
1572.10424585616
 20
11.32568198434819
 30
0.0
 10
1570.895314875775
 20
13.80841173366207
 30
0.0
 10
1569.686404118873
 20
16.29109995087856
 30
0.0
 10
1566.693794991684
 20
17.32373223790637
 30
0.0
 10
1564.211078175249
 20
16.1148802157586
 30
0.0
  0
SPLINE
  5
119
330
70
100
AcDbEntity
  8
0
 62
     6
420
 16711935
370
    25
100
AcDbSpline
210
0.0
220
0.0
230
1.0
 70
     8
 71
     3
 72
    11
 73
     7
 74
     0
 42
0.0000000001
 43
0.0000000001
 40
0.0
 40
0.0
 40
0.0
 40
0.0
 40
1.0
 40
1.0
 40
1.0
 40
2.0
 40
2.0
 40
2.0
 40
2.0
 10
1648.1345900209
 20
-376.9618706831498
 30
0.0
 10
1648.1345900209
 20
-379.7232944323041
 30
0.0
 10
1650.373166271745
 20
-381.9618706831498
 30
0.0
 10
1653.1345900209
 20
-381.9618706831498
 30
0.0
 10
1655.896013770054
 20
-381.9618706831498
 30
0.0
 10
1658.1345900209
 20
-379.7232944323041
 30
0.0
 10
1658.1345900209
 20
-376.9618706831498
 30
0.0
  0
SPLINE
  5
11A
330
70
100
AcDbEntity
  8
0
 62
     6
420
 16711935
370
    25
100
AcDbSpline
210
0.0
220
0.0
230
1.0
 70
     8
 71
     3
 72
    11
 73
     7
 74
     0
 42
0.0000000001
 43
0.0000000001
 40
0.0
 40
0.0
 40
0.0
 40
0.0
 40
1.0
 40
1.0
 40
1.0
 40
2.0
 40
2.0
 40
2.0
 40
2.0
 10
1658.1345900209
 20
-371.9618706831497
 30
0.0
 10
1658.1345900209
 20
-369.2004469339954
 30
0.0
 10
1655.896013770054
 20
-366.9618706831498
 30
0.0
 10
1653.1345900209
 20
-366.9618706831498
 30
0.0
 10
1650.373166271745
 20
-366.9618706831498
 30
0.0
 10
1648.1345900209
 20
-369.2004469339954
 30
0.0
 10
1648.1345900209
 20
-371.9618706831497
 30
0.0
  0
SPLINE
  5
11B
330
70
100
AcDbEntity
  8
0
 62
     6
420
 16711935
370
    25
100
AcDbSpline
210
0.0
220
0.0
230
1.0
 70
     8
 71
     3
 72
    11
 73
     7
 74
     0
 42
0.0000000001
 43
0.0000000001
 40
0.0
 40
0.0
 40
0.0
 40
0.0
 40
1.0
 40
1.0
 40
1.0
 40
2.0
 40
2.0
 40
2.0
 40
2.0
 10
623.1345900208999
 20
-376.9618706831498
 30
0.0
 10
623.1345900208999
 20
-379.7232944323041
 30
0.0
 10
625.3731662717464
 20
-381.9618706831498
 30
0.0
 10
628.1345900208998
 20
-381.9618706831498
 30
0.0
 10
630.8960137700542
 20
-381.9618706831498
 30
0.0
 10
633.1345900208998
 20
-379.7232944323041
 30
0.0
 10
633.1345900208998
 20
-376.9618706831498
 30
0.0
  0
SPLINE
  5
11C
330
70
100
AcDbEntity
  8
0
 62
     6
420
 16711935
370
    25
100
AcDbSpline
210
0.0
220
0.0
230
1.0
 70
     8
 71
     3
 72
    11
 73
     7
 74
     0
 42
0.0000000001
 43
0.0000000001
 40
0.0
 40
0.0
 40
0.0
 40
0.0
 40
1.0
 40
1.0
 40
1.0
 40
2.0
 40
2.0
 40
2.0
 40
2.0
 10
633.1345900208998
 20
-371.9618706831497
 30
0.0
 10
633.1345900208998
 20
-369.2004469339954
 30
0.0
 10
630.8960137700542
 20
-366.9618706831498
 30
0.0
 10
628.1345900208998
 20
-366.9618706831498
 30
0.0
 10
625.3731662717464
 20
-366.9618706831498
 30
0.0
 10
623.1345900208999
 20
-369.2004469339954
 30
0.0
 10
623.1345900208999
 20
-371.9618706831497
 30
0.0
  0
SPLINE
  5
11D
330
70
100
AcDbEntity
  8
0
 62
     6
420
 16711935
370
    25
100
AcDbSpline
210
0.0
220
0.0
230
1.0
 70
     8
 71
     3
 72
    11
 73
     7
 74
     0
 42
0.0000000001
 43
0.0000000001
 40
0.0
 40
0.0
 40
0.0
 40
0.0
 40
1.0
 40
1.0
 40
1.0
 40
2.0
 40
2.0
 40
2.0
 40
2.0
 10
978.1345900208998
 20
-376.9618706831498
 30
0.0
 10
978.1345900208998
 20
-379.7232944323041
 30
0.0
 10
980.3731662717455
 20
-381.9618706831498
 30
0.0
 10
983.1345900208999
 20
-381.9618706831498
 30
0.0
 10
985.8960137700542
 20
-381.9618706831498
 30
0.0
 10
988.1345900208998
 20
-379.7232944323041
 30
0.0
 10
988.1345900208998
 20
-376.9618706831498
 30
0.0
  0
SPLINE
  5
11E
330
70
100
AcDbEntity
  8
0
 62
     6
420
 16711935
370
    25
100
AcDbSpline
210
0.0
220
0.0
230
1.0
 70
     8
 71
     3
 72
    11
 73
     7
 74
     0
 42
0.0000000001
 43
0.0000000001
 40
0.0
 40
0.0
 40
0.0
 40
0.0
 40
1.0
 40
1.0
 40
1.0
 40
2.0
 40
2.0
 40
2.0
 40
2.0
 10
988.1345900208998
 20
-371.9618706831497
 30
0.0
 10
988.1345900208998
 20
-369.2004469339954
 30
0.0
 10
985.8960137700542
 20
-366.9618706831498
 30
0.0
 10
983.1345900208999
 20
-366.9618706831498
 30
0.0
 10
980.3731662717455
 20
-366.9618706831498
 30
0.0
 10
978.1345900208998
 20
-369.2004469339954
 30
0.0
 10
978.1345900208998
 20
-371.9618706831497
 30
0.0
  0
SPLINE
  5
11F
330
70
100
AcDbEntity
  8
0
 62
     6
420
 16711935
370
    25
100
AcDbSpline
210
0.0
220
0.0
230
1.0
 70
     8
 71
     3
 72
    11
 73
     7
 74
     0
 42
0.0000000001
 43
0.0000000001
 40
0.0
 40
0.0
 40
0.0
 40
0.0
 40
1.0
 40
1.0
 40
1.0
 40
2.0
 40
2.0
 40
2.0
 40
2.0
 10
1333.1345900209
 20
-376.9618706831498
 30
0.0
 10
1333.1345900209
 20
-379.7232944323041
 30
0.0
 10
1335.373166271745
 20
-381.9618706831498
 30
0.0
 10
1338.1345900209
 20
-381.9618706831498
 30
0.0
 10
1340.896013770054
 20
-381.9618706831498
 30
0.0
 10
1343.1345900209
 20
-379.7232944323041
 30
0.0
 10
1343.1345900209
 20
-376.9618706831498
 30
0.0
  0
SPLINE
  5
120
330
70
100
AcDbEntity
  8
0
 62
     6
420
 16711935
370
    25
100
AcDbSpline
210
0.0
220
0.0
230
1.0
 70
     8
 71
     3
 72
    11
 73
     7
 74
     0
 42
0.0000000001
 43
0.0000000001
 40
0.0
 40
0.0
 40
0.0
 40
0.0
 40
1.0
 40
1.0
 40
1.0
 40
2.0
 40
2.0
 40
2.0
 40
2.0
 10
1343.1345900209
 20
-371.9618706831497
 30
0.0
 10
1343.1345900209
 20
-369.2004469339954
 30
0.0
 10
1340.896013770054
 20
-366.9618706831498
 30
0.0
 10
1338.1345900209
 20
-366.9618706831498
 30
0.0
 10
1335.373166271745
 20
-366.9618706831498
 30
0.0
 10
1333.1345900209
 20
-369.2004469339954
 30
0.0
 10
1333.1345900209
 20
-371.9618706831497
 30
0.0
  0
SPLINE
  5
121
330
70
100
AcDbEntity
  8
0
 62
     6
420
 16711935
370
    25
100
AcDbSpline
210
0.0
220
0.0
230
1.0
 70
     8
 71
     3
 72
    11
 73
     7
 74
     0
 42
0.0000000001
 43
0.0000000001
 40
0.0
 40
0.0
 40
0.0
 40
0.0
 40
1.0
 40
1.0
 40
1.0
 40
2.0
 40
2.0
 40
2.0
 40
2.0
 10
1293.1345900209
 20
-376.9618706831498
 30
0.0
 10
1293.1345900209
 20
-379.7232944323041
 30
0.0
 10
1295.373166271745
 20
-381.9618706831498
 30
0.0
 10
1298.1345900209
 20
-381.9618706831498
 30
0.0
 10
1300.896013770054
 20
-381.9618706831498
 30
0.0
 10
1303.1345900209
 20
-379.7232944323041
 30
0.0
 10
1303.1345900209
 20
-376.9618706831498
 30
0.0
  0
SPLINE
  5
122
330
70
100
AcDbEntity
  8
0
 62
     6
420
 16711935
370
    25
100
AcDbSpline
210
0.0
220
0.0
230
1.0
 70
     8
 71
     3
 72
    11
 73
     7
 74
     0
 42
0.0000000001
 43
0.0000000001
 40
0.0
 40
0.0
 40
0.0
 40
0.0
 40
1.0
 40
1.0
 40
1.0
 40
2.0
 40
2.0
 40
2.0
 40
2.0
 10
1303.1345900209
 20
-371.9618706831497
 30
0.0
 10
1303.1345900209
 20
-369.2004469339954
 30
0.0
 10
1300.896013770054
 20
-366.9618706831498
 30
0.0
 10
1298.1345900209
 20
-366.9618706831498
 30
0.0
 10
1295.373166271745
 20
-366.9618706831498
 30
0.0
 10
1293.1345900209
 20
-369.2004469339954
 30
0.0
 10
1293.1345900209
 20
-371.9618706831497
 30
0.0
  0
SPLINE
  5
123
330
70
100
AcDbEntity
  8
0
 62
     6
420
 16711935
370
    25
100
AcDbSpline
210
0.0
220
0.0
230
1.0
 70
     8
 71
     3
 72
    11
 73
     7
 74
     0
 42
0.0000000001
 43
0.0000000001
 40
0.0
 40
0.0
 40
0.0
 40
0.0
 40
1.0
 40
1.0
 40
1.0
 40
2.0
 40
2.0
 40
2.0
 40
2.0
 10
938.1345900208998
 20
-376.9618706831498
 30
0.0
 10
938.1345900208998
 20
-379.7232944323041
 30
0.0
 10
940.3731662717454
 20
-381.9618706831498
 30
0.0
 10
943.1345900208999
 20
-381.9618706831498
 30
0.0
 10
945.8960137700541
 20
-381.9618706831498
 30
0.0
 10
948.1345900208998
 20
-379.7232944323041
 30
0.0
 10
948.1345900208998
 20
-376.9618706831498
 30
0.0
  0
SPLINE
  5
124
330
70
100
AcDbEntity
  8
0
 62
     6
420
 16711935
370
    25
100
AcDbSpline
210
0.0
220
0.0
230
1.0
 70
     8
 71
     3
 72
    11
 73
     7
 74
     0
 42
0.0000000001
 43
0.0000000001
 40
0.0
 40
0.0
 40
0.0
 40
0.0
 40
1.0
 40
1.0
 40
1.0
 40
2.0
 40
2.0
 40
2.0
 40
2.0
 10
948.1345900208998
 20
-371.9618706831497
 30
0.0
 10
948.1345900208998
 20
-369.2004469339954
 30
0.0
 10
945.8960137700541
 20
-366.9618706831498
 30
0.0
 10
943.1345900208999
 20
-366.9618706831498
 30
0.0
 10
940.3731662717454
 20
-366.9618706831498
 30
0.0
 10
938.1345900208998
 20
-369.2004469339954
 30
0.0
 10
938.1345900208998
 20
-371.9618706831497
 30
0.0
  0
SPLINE
  5
125
330
70
100
AcDbEntity
  8
0
 62
     6
420
 16711935
370
    25
100
AcDbSpline
210
0.0
220
0.0
230
1.0
 70
     8
 71
     3
 72
    11
 73
     7
 74
     0
 42
0.0000000001
 43
0.0000000001
 40
0.0
 40
0.0
 40
0.0
 40
0.0
 40
1.0
 40
1.0
 40
1.0
 40
2.0
 40
2.0
 40
2.0
 40
2.0
 10
583.1345900208998
 20
-376.9618706831498
 30
0.0
 10
583.1345900208998
 20
-379.7232944323041
 30
0.0
 10
585.3731662717463
 20
-381.9618706831498
 30
0.0
 10
588.1345900208998
 20
-381.9618706831498
 30
0.0
 10
590.8960137700542
 20
-381.9618706831498
 30
0.0
 10
593.1345900208998
 20
-379.7232944323041
 30
0.0
 10
593.1345900208998
 20
-376.9618706831498
 30
0.0
  0
SPLINE
  5
126
330
70
100
AcDbEntity
  8
0
 62
     6
420
 16711935
370
    25
100
AcDbSpline
210
0.0
220
0.0
230
1.0
 70
     8
 71
     3
 72
    11
 73
     7
 74
     0
 42
0.0000000001
 43
0.0000000001
 40
0.0
 40
0.0
 40
0.0
 40
0.0
 40
1.0
 40
1.0
 40
1.0
 40
2.0
 40
2.0
 40
2.0
 40
2.0
 10
593.1345900208998
 20
-371.9618706831497
 30
0.0
 10
593.1345900208998
 20
-369.2004469339954
 30
0.0
 10
590.8960137700542
 20
-366.9618706831498
 30
0.0
 10
588.1345900208998
 20
-366.9618706831498
 30
0.0
 10
585.3731662717463
 20
-366.9618706831498
 30
0.0
 10
583.1345900208998
 20
-369.2004469339954
 30
0.0
 10
583.1345900208998
 20
-371.9618706831497
 30
0.0
  0
SPLINE
  5
127
330
70
100
AcDbEntity
  8
0
 62
     6
420
 16711935
370
    25
100
AcDbSpline
210
0.0
220
0.0
230
1.0
 70
     8
 71
     3
 72
    11
 73
     7
 74
     0
 42
0.0000000001
 43
0.0000000001
 40
0.0
 40
0.0
 40
0.0
 40
0.0
 40
1.0
 40
1.0
 40
1.0
 40
2.0
 40
2.0
 40
2.0
 40
2.0
 10
1688.1345900209
 20
-376.9618706831498
 30
0.0
 10
1688.1345900209
 20
-379.7232944323041
 30
0.0
 10
1690.373166271745
 20
-381.9618706831498
 30
0.0
 10
1693.1345900209
 20
-381.9618706831498
 30
0.0
 10
1695.896013770054
 20
-381.9618706831498
 30
0.0
 10
1698.1345900209
 20
-379.7232944323041
 30
0.0
 10
1698.1345900209
 20
-376.9618706831498
 30
0.0
  0
SPLINE
  5
128
330
70
100
AcDbEntity
  8
0
 62
     6
420
 16711935
370
    25
100
AcDbSpline
210
0.0
220
0.0
230
1.0
 70
     8
 71
     3
 72
    11
 73
     7
 74
     0
 42
0.0000000001
 43
0.0000000001
 40
0.0
 40
0.0
 40
0.0
 40
0.0
 40
1.0
 40
1.0
 40
1.0
 40
2.0
 40
2.0
 40
2.0
 40
2.0
 10
1698.1345900209
 20
-371.9618706831497
 30
0.0
 10
1698.1345900209
 20
-369.2004469339954
 30
0.0
 10
1695.896013770054
 20
-366.9618706831498
 30
0.0
 10
1693.1345900209
 20
-366.9618706831498
 30
0.0
 10
1690.373166271745
 20
-366.9618706831498
 30
0.0
 10
1688.1345900209
 20
-369.2004469339954
 30
0.0
 10
1688.1345900209
 20
-371.9618706831497
 30
0.0
  0
SPLINE
  5
129
330
70
100
AcDbEntity
  8
0
 62
     6
420
 16711935
370
    25
100
AcDbSpline
210
0.0
220
0.0
230
1.0
 70
     8
 71
     3
 72
    11
 73
     7
 74
     0
 42
0.0000000001
 43
0.0000000001
 40
0.0
 40
0.0
 40
0.0
 40
0.0
 40
1.0
 40
1.0
 40
1.0
 40
2.0
 40
2.0
 40
2.0
 40
2.0
 10
503.1385668904004
 20
1352.47037814215
 30
0.0
 10
503.1385668904004
 20
1349.708954392996
 30
0.0
 10
505.377143141246
 20
1347.47037814215
 30
0.0
 10
508.1385668904004
 20
1347.47037814215
 30
0.0
 10
510.8999906395538
 20
1347.47037814215
 30
0.0
 10
513.1385668904004
 20
1349.708954392996
 30
0.0
 10
513.1385668904004
 20
1352.47037814215
 30
0.0
  0
SPLINE
  5
12A
330
70
100
AcDbEntity
  8
0
 62
     6
420
 16711935
370
    25
100
AcDbSpline
210
0.0
220
0.0
230
1.0
 70
     8
 71
     3
 72
    11
 73
     7
 74
     0
 42
0.0000000001
 43
0.0000000001
 40
0.0
 40
0.0
 40
0.0
 40
0.0
 40
1.0
 40
1.0
 40
1.0
 40
2.0
 40
2.0
 40
2.0
 40
2.0
 10
513.1385668904004
 20
1357.47037814215
 30
0.0
 10
513.1385668904004
 20
1360.231801891304
 30
0.0
 10
510.8999906395538
 20
1362.47037814215
 30
0.0
 10
508.1385668904004
 20
1362.47037814215
 30
0.0
 10
505.377143141246
 20
1362.47037814215
 30
0.0
 10
503.1385668904004
 20
1360.231801891304
 30
0.0
 10
503.1385668904004
 20
1357.47037814215
 30
0.0
  0
SPLINE
  5
12B
330
70
100
AcDbEntity
  8
0
 62
     6
420
 16711935
370
    25
100
AcDbSpline
210
0.0
220
0.0
230
1.0
 70
     8
 71
     3
 72
    11
 73
     7
 74
     0
 42
0.0000000001
 43
0.0000000001
 40
0.0
 40
0.0
 40
0.0
 40
0.0
 40
1.0
 40
1.0
 40
1.0
 40
2.0
 40
2.0
 40
2.0
 40
2.0
 10
410.6385668904003
 20
1414.97037814215
 30
0.0
 10
407.8771431412461
 20
1414.97037814215
 30
0.0
 10
405.6385668903994
 20
1412.731801891305
 30
0.0
 10
405.6385668903994
 20
1409.97037814215
 30
0.0
 10
405.6385668903994
 20
1407.208954392996
 30
0.0
 10
407.8771431412461
 20
1404.97037814215
 30
0.0
 10
410.6385668904003
 20
1404.97037814215
 30
0.0
  0
SPLINE
  5
12C
330
70
100
AcDbEntity
  8
0
 62
     6
420
 16711935
370
    25
100
AcDbSpline
210
0.0
220
0.0
230
1.0
 70
     8
 71
     3
 72
    11
 73
     7
 74
     0
 42
0.0000000001
 43
0.0000000001
 40
0.0
 40
0.0
 40
0.0
 40
0.0
 40
1.0
 40
1.0
 40
1.0
 40
2.0
 40
2.0
 40
2.0
 40
2.0
 10
415.6385668904004
 20
1404.97037814215
 30
0.0
 10
418.3999906395538
 20
1404.97037814215
 30
0.0
 10
420.6385668904004
 20
1407.208954392996
 30
0.0
 10
420.6385668904004
 20
1409.97037814215
 30
0.0
 10
420.6385668904004
 20
1412.731801891305
 30
0.0
 10
418.3999906395538
 20
1414.97037814215
 30
0.0
 10
415.6385668904004
 20
1414.97037814215
 30
0.0
  0
SPLINE
  5
12D
330
70
100
AcDbEntity
  8
0
 62
     6
420
 16711935
370
    25
100
AcDbSpline
210
0.0
220
0.0
230
1.0
 70
     8
 71
     3
 72
    11
 73
     7
 74
     0
 42
0.0000000001
 43
0.0000000001
 40
0.0
 40
0.0
 40
0.0
 40
0.0
 40
1.0
 40
1.0
 40
1.0
 40
2.0
 40
2.0
 40
2.0
 40
2.0
 10
463.1385668904004
 20
1352.47037814215
 30
0.0
 10
463.1385668904004
 20
1349.708954392996
 30
0.0
 10
465.377143141246
 20
1347.47037814215
 30
0.0
 10
468.1385668904003
 20
1347.47037814215
 30
0.0
 10
470.8999906395538
 20
1347.47037814215
 30
0.0
 10
473.1385668904003
 20
1349.708954392996
 30
0.0
 10
473.1385668904003
 20
1352.47037814215
 30
0.0
  0
SPLINE
  5
12E
330
70
100
AcDbEntity
  8
0
 62
     6
420
 16711935
370
    25
100
AcDbSpline
210
0.0
220
0.0
230
1.0
 70
     8
 71
     3
 72
    11
 73
     7
 74
     0
 42
0.0000000001
 43
0.0000000001
 40
0.0
 40
0.0
 40
0.0
 40
0.0
 40
1.0
 40
1.0
 40
1.0
 40
2.0
 40
2.0
 40
2.0
 40
2.0
 10
473.1385668904003
 20
1357.47037814215
 30
0.0
 10
473.1385668904003
 20
1360.231801891305
 30
0.0
 10
470.8999906395538
 20
1362.47037814215
 30
0.0
 10
468.1385668904003
 20
1362.47037814215
 30
0.0
 10
465.377143141246
 20
1362.47037814215
 30
0.0
 10
463.1385668903995
 20
1360.231801891305
 30
0.0
 10
463.1385668903995
 20
1357.47037814215
 30
0.0
  0
SPLINE
  5
12F
330
70
100
AcDbEntity
  8
0
 62
     6
420
 16711935
370
    25
100
AcDbSpline
210
0.0
220
0.0
230
1.0
 70
     8
 71
     3
 72
    11
 73
     7
 74
     0
 42
0.0000000001
 43
0.0000000001
 40
0.0
 40
0.0
 40
0.0
 40
0.0
 40
1.0
 40
1.0
 40
1.0
 40
2.0
 40
2.0
 40
2.0
 40
2.0
 10
410.6385668904003
 20
1454.97037814215
 30
0.0
 10
407.8771431412461
 20
1454.97037814215
 30
0.0
 10
405.6385668903994
 20
1452.731801891305
 30
0.0
 10
405.6385668903994
 20
1449.97037814215
 30
0.0
 10
405.6385668903994
 20
1447.208954392996
 30
0.0
 10
407.8771431412461
 20
1444.97037814215
 30
0.0
 10
410.6385668904003
 20
1444.97037814215
 30
0.0
  0
SPLINE
  5
130
330
70
100
AcDbEntity
  8
0
 62
     6
420
 16711935
370
    25
100
AcDbSpline
210
0.0
220
0.0
230
1.0
 70
     8
 71
     3
 72
    11
 73
     7
 74
     0
 42
0.0000000001
 43
0.0000000001
 40
0.0
 40
0.0
 40
0.0
 40
0.0
 40
1.0
 40
1.0
 40
1.0
 40
2.0
 40
2.0
 40
2.0
 40
2.0
 10
415.6385668904004
 20
1444.97037814215
 30
0.0
 10
418.3999906395538
 20
1444.97037814215
 30
0.0
 10
420.6385668904004
 20
1447.208954392996
 30
0.0
 10
420.6385668904004
 20
1449.97037814215
 30
0.0
 10
420.6385668904004
 20
1452.731801891305
 30
0.0
 10
418.3999906395538
 20
1454.97037814215
 30
0.0
 10
415.6385668904004
 20
1454.97037814215
 30
0.0
  0
SPLINE
  5
131
330
70
100
AcDbEntity
  8
0
 62
     6
420
 16711935
370
    25
100
AcDbSpline
210
0.0
220
0.0
230
1.0
 70
     8
 71
     3
 72
    11
 73
     7
 74
     0
 42
0.0000000001
 43
0.0000000001
 40
0.0
 40
0.0
 40
0.0
 40
0.0
 40
1.0
 40
1.0
 40
1.0
 40
2.0
 40
2.0
 40
2.0
 40
2.0
 10
912.2714532835052
 20
1402.88701324925
 30
0.0
 10
915.0328770326595
 20
1402.887013761939
 30
0.0
 10
917.271452867889
 20
1405.125590428402
 30
0.0
 10
917.2714523552004
 20
1407.887014177556
 30
0.0
 10
917.2714518425109
 20
1410.648437201661
 30
0.0
 10
915.0328763076021
 20
1412.887012736566
 30
0.0
 10
912.2714532834971
 20
1412.88701324925
 30
0.0
  0
SPLINE
  5
132
330
70
100
AcDbEntity
  8
0
 62
     6
420
 16711935
370
    25
100
AcDbSpline
210
0.0
220
0.0
230
1.0
 70
     8
 71
     3
 72
    11
 73
     7
 74
     0
 42
0.0000000001
 43
0.0000000001
 40
0.0
 40
0.0
 40
0.0
 40
0.0
 40
1.0
 40
1.0
 40
1.0
 40
2.0
 40
2.0
 40
2.0
 40
2.0
 10
907.2714545019243
 20
1412.88701324925
 30
0.0
 10
904.51003075277
 20
1412.887012723654
 30
0.0
 10
902.2714549280044
 20
1410.648436046728
 30
0.0
 10
902.2714554535996
 20
1407.887012297575
 30
0.0
 10
902.2714559791957
 20
1405.125589291725
 30
0.0
 10
904.5100314960755
 20
1402.887013774846
 30
0.0
 10
907.2714545019243
 20
1402.88701324925
 30
0.0
  0
SPLINE
  5
133
330
70
100
AcDbEntity
  8
0
 62
     6
420
 16711935
370
    25
100
AcDbSpline
210
0.0
220
0.0
230
1.0
 70
     8
 71
     3
 72
    11
 73
     7
 74
     0
 42
0.0000000001
 43
0.0000000001
 40
0.0
 40
0.0
 40
0.0
 40
0.0
 40
1.0
 40
1.0
 40
1.0
 40
2.0
 40
2.0
 40
2.0
 40
2.0
 10
912.2714532834761
 20
1442.88701324925
 30
0.0
 10
915.0328770326295
 20
1442.887013774846
 30
0.0
 10
917.271452857396
 20
1445.125590451772
 30
0.0
 10
917.2714523317999
 20
1447.887014200925
 30
0.0
 10
917.2714518062038
 20
1450.648437206775
 30
0.0
 10
915.032876289325
 20
1452.887012723654
 30
0.0
 10
912.2714532834761
 20
1452.88701324925
 30
0.0
  0
SPLINE
  5
134
330
70
100
AcDbEntity
  8
0
 62
     6
420
 16711935
370
    25
100
AcDbSpline
210
0.0
220
0.0
230
1.0
 70
     8
 71
     3
 72
    11
 73
     7
 74
     0
 42
0.0000000001
 43
0.0000000001
 40
0.0
 40
0.0
 40
0.0
 40
0.0
 40
1.0
 40
1.0
 40
1.0
 40
2.0
 40
2.0
 40
2.0
 40
2.0
 10
907.2714545020026
 20
1452.88701324925
 30
0.0
 10
904.5100307528491
 20
1452.887012736566
 30
0.0
 10
902.2714549176154
 20
1450.648436070107
 30
0.0
 10
902.2714554303002
 20
1447.887012320953
 30
0.0
 10
902.2714559429841
 20
1445.125589296844
 30
0.0
 10
904.5100314778938
 20
1442.887013761934
 30
0.0
 10
907.2714545020026
 20
1442.88701324925
 30
0.0
  0
SPLINE
  5
135
330
70
100
AcDbEntity
  8
0
 62
     6
420
 16711935
370
    25
100
AcDbSpline
210
0.0
220
0.0
230
1.0
 70
     8
 71
     3
 72
    11
 73
     7
 74
     0
 42
0.0000000001
 43
0.0000000001
 40
0.0
 40
0.0
 40
0.0
 40
0.0
 40
1.0
 40
1.0
 40
1.0
 40
2.0
 40
2.0
 40
2.0
 40
2.0
 10
1206.093875760869
 20
788.7962924692901
 30
0.0
 10
1203.618998388912
 20
787.5713667097807
 30
0.0
 10
1202.605712400051
 20
784.5720836676755
 30
0.0
 10
1203.830638159559
 20
782.0972062957189
 30
0.0
 10
1205.055556548204
 20
779.6223438160832
 30
0.0
 10
1208.054813295377
 20
778.6090524924875
 30
0.0
 10
1210.529686198846
 20
779.8339498202758
 30
0.0
  0
SPLINE
  5
136
330
70
100
AcDbEntity
  8
0
 62
     6
420
 16711935
370
    25
100
AcDbSpline
210
0.0
220
0.0
230
1.0
 70
     8
 71
     3
 72
    11
 73
     7
 74
     0
 42
0.0000000001
 43
0.0000000001
 40
0.0
 40
0.0
 40
0.0
 40
0.0
 40
1.0
 40
1.0
 40
1.0
 40
2.0
 40
2.0
 40
2.0
 40
2.0
 10
1215.010832496338
 20
782.0518426524341
 30
0.0
 10
1217.485709737059
 20
783.2767686770994
 30
0.0
 10
1218.498995404581
 20
786.2760518277682
 30
0.0
 10
1217.274069379917
 20
788.7509290684874
 30
0.0
 10
1216.049150911715
 20
791.225791041903
 30
0.0
 10
1213.049894718079
 20
792.2390821784874
 30
0.0
 10
1210.575022058361
 20
791.0141853014474
 30
0.0
  0
SPLINE
  5
137
330
70
100
AcDbEntity
  8
0
 62
     6
420
 16711935
370
    25
100
AcDbSpline
210
0.0
220
0.0
230
1.0
 70
     8
 71
     3
 72
    14
 73
    10
 74
     0
 42
0.0000000001
 43
0.0000000001
 40
0.0
 40
0.0
 40
0.0
 40
0.0
 40
1.0
 40
1.0
 40
1.0
 40
2.0
 40
2.0
 40
2.0
 40
3.0
 40
3.0
 40
3.0
 40
3.0
 10
955.5898743931784
 20
1364.056467575136
 30
0.0
 10
953.8661258264783
 20
1366.213797101935
 30
0.0
 10
950.7198903925118
 20
1366.565283917529
 30
0.0
 10
948.5625608657137
 20
1364.841535350829
 30
0.0
 10
946.4052313389148
 20
1363.117786784129
 30
0.0
 10
946.0537445233212
 20
1359.971551350162
 30
0.0
 10
947.7774930900213
 20
1357.814221823364
 30
0.0
 10
947.7775011408212
 20
1357.814211747515
 30
0.0
 10
947.7775091916127
 20
1357.814201671758
 30
0.0
 10
947.7775172424909
 20
1357.814191595973
 30
0.0
  0
SPLINE
  5
138
330
70
100
AcDbEntity
  8
0
 62
     6
420
 16711935
370
    25
100
AcDbSpline
210
0.0
220
0.0
230
1.0
 70
     8
 71
     3
 72
    14
 73
    10
 74
     0
 42
0.0000000001
 43
0.0000000001
 40
0.0
 40
0.0
 40
0.0
 40
0.0
 40
1.0
 40
1.0
 40
1.0
 40
2.0
 40
2.0
 40
2.0
 40
3.0
 40
3.0
 40
3.0
 40
3.0
 10
950.8986620063215
 20
1353.907985930064
 30
0.0
 10
952.6224105730216
 20
1351.750656403265
 30
0.0
 10
955.7686460069881
 20
1351.399169587672
 30
0.0
 10
957.9259755337862
 20
1353.122918154371
 30
0.0
 10
960.0833050605851
 20
1354.846666721072
 30
0.0
 10
960.4347918761778
 20
1357.992902155038
 30
0.0
 10
958.7110433094785
 20
1360.150231681837
 30
0.0
 10
958.7110352586787
 20
1360.150241757685
 30
0.0
 10
958.7110272078872
 20
1360.150251833442
 30
0.0
 10
958.711019157009
 20
1360.150261909228
 30
0.0
  0
SPLINE
  5
139
330
70
100
AcDbEntity
  8
0
 62
     6
420
 16711935
370
    25
100
AcDbSpline
210
0.0
220
0.0
230
1.0
 70
     8
 71
     3
 72
    11
 73
     7
 74
     0
 42
0.0000000001
 43
0.0000000001
 40
0.0
 40
0.0
 40
0.0
 40
0.0
 40
1.0
 40
1.0
 40
1.0
 40
2.0
 40
2.0
 40
2.0
 40
2.0
 10
1188.350634008962
 20
824.6456630653664
 30
0.0
 10
1185.87575676824
 20
823.4207370407011
 30
0.0
 10
1184.862471100718
 20
820.4214538900323
 30
0.0
 10
1186.087397125382
 20
817.9465766493121
 30
0.0
 10
1187.312315593584
 20
815.4717146758967
 30
0.0
 10
1190.31157178722
 20
814.4584235393121
 30
0.0
 10
1192.786444446938
 20
815.6833204163522
 30
0.0
  0
SPLINE
  5
13A
330
70
100
AcDbEntity
  8
0
 62
     6
420
 16711935
370
    25
100
AcDbSpline
210
0.0
220
0.0
230
1.0
 70
     8
 71
     3
 72
    11
 73
     7
 74
     0
 42
0.0000000001
 43
0.0000000001
 40
0.0
 40
0.0
 40
0.0
 40
0.0
 40
1.0
 40
1.0
 40
1.0
 40
2.0
 40
2.0
 40
2.0
 40
2.0
 10
1197.267590744437
 20
817.9012132484331
 30
0.0
 10
1199.742467985157
 20
819.1261392730984
 30
0.0
 10
1200.755753652682
 20
822.1254224237682
 30
0.0
 10
1199.530827628016
 20
824.6002996644884
 30
0.0
 10
1198.305909159815
 20
827.0751616379039
 30
0.0
 10
1195.306652966179
 20
828.0884527744873
 30
0.0
 10
1192.83178030646
 20
826.8635558974484
 30
0.0
  0
SPLINE
  5
13B
330
70
100
AcDbEntity
  8
0
 62
     6
420
 16711935
370
    25
100
AcDbSpline
210
0.0
220
0.0
230
1.0
 70
     8
 71
     3
 72
    14
 73
    10
 74
     0
 42
0.0000000001
 43
0.0000000001
 40
0.0
 40
0.0
 40
0.0
 40
0.0
 40
1.0
 40
1.0
 40
1.0
 40
2.0
 40
2.0
 40
2.0
 40
3.0
 40
3.0
 40
3.0
 40
3.0
 10
986.8393029959788
 20
1389.025571491736
 30
0.0
 10
985.1155544292778
 20
1391.182901018535
 30
0.0
 10
981.9693189953122
 20
1391.534387834128
 30
0.0
 10
979.8119894685132
 20
1389.810639267429
 30
0.0
 10
977.6546599417143
 20
1388.086890700728
 30
0.0
 10
977.3031731261216
 20
1384.940655266762
 30
0.0
 10
979.0269216928209
 20
1382.783325739963
 30
0.0
 10
979.0269297436225
 20
1382.783315664115
 30
0.0
 10
979.0269377944133
 20
1382.783305588358
 30
0.0
 10
979.0269458452913
 20
1382.783295512573
 30
0.0
  0
SPLINE
  5
13C
330
70
100
AcDbEntity
  8
0
 62
     6
420
 16711935
370
    25
100
AcDbSpline
210
0.0
220
0.0
230
1.0
 70
     8
 71
     3
 72
    14
 73
    10
 74
     0
 42
0.0000000001
 43
0.0000000001
 40
0.0
 40
0.0
 40
0.0
 40
0.0
 40
1.0
 40
1.0
 40
1.0
 40
2.0
 40
2.0
 40
2.0
 40
3.0
 40
3.0
 40
3.0
 40
3.0
 10
982.1480906091219
 20
1378.877089846664
 30
0.0
 10
983.8718391758211
 20
1376.719760319865
 30
0.0
 10
987.0180746097885
 20
1376.368273504271
 30
0.0
 10
989.1754041365857
 20
1378.092022070972
 30
0.0
 10
991.3327336633846
 20
1379.815770637671
 30
0.0
 10
991.6842204789791
 20
1382.962006071639
 30
0.0
 10
989.960471912278
 20
1385.119335598437
 30
0.0
 10
989.9604638614782
 20
1385.119345674285
 30
0.0
 10
989.9604558106876
 20
1385.119355750042
 30
0.0
 10
989.9604477598096
 20
1385.119365825828
 30
0.0
  0
SPLINE
  5
13D
330
70
100
AcDbEntity
  8
0
 62
     6
420
 16711935
370
    25
100
AcDbSpline
210
0.0
220
0.0
230
1.0
 70
     8
 71
     3
 72
    11
 73
     7
 74
     0
 42
0.0000000001
 43
0.0000000001
 40
0.0
 40
0.0
 40
0.0
 40
0.0
 40
1.0
 40
1.0
 40
1.0
 40
2.0
 40
2.0
 40
2.0
 40
2.0
 10
399.4743123586195
 20
1324.19087185859
 30
0.0
 10
397.1862921953071
 20
1325.736971743677
 30
0.0
 10
394.0781237782467
 20
1325.135526523483
 30
0.0
 10
392.5320238931599
 20
1322.84750636017
 30
0.0
 10
390.9859240080732
 20
1320.559486196856
 30
0.0
 10
391.5873692282676
 20
1317.451317779797
 30
0.0
 10
393.87538939158
 20
1315.90521789471
 30
0.0
  0
SPLINE
  5
13E
330
70
100
AcDbEntity
  8
0
 62
     6
420
 16711935
370
    25
100
AcDbSpline
210
0.0
220
0.0
230
1.0
 70
     8
 71
     3
 72
    11
 73
     7
 74
     0
 42
0.0000000001
 43
0.0000000001
 40
0.0
 40
0.0
 40
0.0
 40
0.0
 40
1.0
 40
1.0
 40
1.0
 40
2.0
 40
2.0
 40
2.0
 40
2.0
 10
398.0182163734799
 20
1313.10575641111
 30
0.0
 10
400.3062365367932
 20
1311.559656526023
 30
0.0
 10
403.4144049538536
 20
1312.161101746217
 30
0.0
 10
404.9605048389403
 20
1314.449121909531
 30
0.0
 10
406.506604724027
 20
1316.737142072843
 30
0.0
 10
405.9051595038327
 20
1319.845310489903
 30
0.0
 10
403.6171393405202
 20
1321.39141037499
 30
0.0
  0
SPLINE
  5
13F
330
70
100
AcDbEntity
  8
0
 62
     6
420
 16711935
370
    25
100
AcDbSpline
210
0.0
220
0.0
230
1.0
 70
     8
 71
     3
 72
    11
 73
     7
 74
     0
 42
0.0000000001
 43
0.0000000001
 40
0.0
 40
0.0
 40
0.0
 40
0.0
 40
1.0
 40
1.0
 40
1.0
 40
2.0
 40
2.0
 40
2.0
 40
2.0
 10
377.0786204904198
 20
1291.04825600309
 30
0.0
 10
374.7906003271064
 20
1292.594355888177
 30
0.0
 10
371.6824319100469
 20
1291.992910667983
 30
0.0
 10
370.1363320249602
 20
1289.70489050467
 30
0.0
 10
368.5902321398735
 20
1287.416870341357
 30
0.0
 10
369.1916773600669
 20
1284.308701924296
 30
0.0
 10
371.4796975233803
 20
1282.76260203921
 30
0.0
  0
SPLINE
  5
140
330
70
100
AcDbEntity
  8
0
 62
     6
420
 16711935
370
    25
100
AcDbSpline
210
0.0
220
0.0
230
1.0
 70
     8
 71
     3
 72
    11
 73
     7
 74
     0
 42
0.0000000001
 43
0.0000000001
 40
0.0
 40
0.0
 40
0.0
 40
0.0
 40
1.0
 40
1.0
 40
1.0
 40
2.0
 40
2.0
 40
2.0
 40
2.0
 10
375.6225245052801
 20
1279.96314055561
 30
0.0
 10
377.9105446685935
 20
1278.417040670523
 30
0.0
 10
381.018713085653
 20
1279.018485890718
 30
0.0
 10
382.5648129707397
 20
1281.30650605403
 30
0.0
 10
384.1109128558264
 20
1283.594526217344
 30
0.0
 10
383.509467635633
 20
1286.702694634403
 30
0.0
 10
381.2214474723196
 20
1288.24879451949
 30
0.0
  0
SPLINE
  5
141
330
70
100
AcDbEntity
  8
0
 62
     6
420
 16711935
370
    25
100
AcDbSpline
210
0.0
220
0.0
230
1.0
 70
     8
 71
     3
 72
    11
 73
     7
 74
     0
 42
0.0000000001
 43
0.0000000001
 40
0.0
 40
0.0
 40
0.0
 40
0.0
 40
1.0
 40
1.0
 40
1.0
 40
2.0
 40
2.0
 40
2.0
 40
2.0
 10
185.2142230281497
 20
1010.033186540526
 30
0.0
 10
182.5227428705084
 20
1010.650758952002
 30
0.0
 10
179.8402257463995
 20
1008.96952454224
 30
0.0
 10
179.2226533349239
 20
1006.278044384599
 30
0.0
 10
178.6050809234484
 20
1003.586564226958
 30
0.0
 10
180.28631533321
 20
1000.904047102849
 30
0.0
 10
182.9777954908504
 20
1000.286474691374
 30
0.0
  0
SPLINE
  5
142
330
70
100
AcDbEntity
  8
0
 62
     6
420
 16711935
370
    25
100
AcDbSpline
210
0.0
220
0.0
230
1.0
 70
     8
 71
     3
 72
    11
 73
     7
 74
     0
 42
0.0000000001
 43
0.0000000001
 40
0.0
 40
0.0
 40
0.0
 40
0.0
 40
1.0
 40
1.0
 40
1.0
 40
2.0
 40
2.0
 40
2.0
 40
2.0
 10
187.8511514154506
 20
999.1682609227737
 30
0.0
 10
190.5426315730919
 20
998.5506885112981
 30
0.0
 10
193.2251486971999
 20
1000.231922921059
 30
0.0
 10
193.8427211086764
 20
1002.923403078701
 30
0.0
 10
194.4602935201519
 20
1005.614883236341
 30
0.0
 10
192.7790591103903
 20
1008.29740036045
 30
0.0
 10
190.087578952749
 20
1008.914972771927
 30
0.0
  0
SPLINE
  5
143
330
70
100
AcDbEntity
  8
0
 62
     6
420
 16711935
370
    25
100
AcDbSpline
210
0.0
220
0.0
230
1.0
 70
     8
 71
     3
 72
    11
 73
     7
 74
     0
 42
0.0000000001
 43
0.0000000001
 40
0.0
 40
0.0
 40
0.0
 40
0.0
 40
1.0
 40
1.0
 40
1.0
 40
2.0
 40
2.0
 40
2.0
 40
2.0
 10
176.268512878949
 20
971.0463391439262
 30
0.0
 10
173.5770327213085
 20
971.6639115554025
 30
0.0
 10
170.8945155971996
 20
969.98267714564
 30
0.0
 10
170.2769431857241
 20
967.2911969879997
 30
0.0
 10
169.6593707742477
 20
964.5997168303583
 30
0.0
 10
171.3406051840093
 20
961.9171997062494
 30
0.0
 10
174.0320853416506
 20
961.2996272947739
 30
0.0
  0
SPLINE
  5
144
330
70
100
AcDbEntity
  8
0
 62
     6
420
 16711935
370
    25
100
AcDbSpline
210
0.0
220
0.0
230
1.0
 70
     8
 71
     3
 72
    11
 73
     7
 74
     0
 42
0.0000000001
 43
0.0000000001
 40
0.0
 40
0.0
 40
0.0
 40
0.0
 40
1.0
 40
1.0
 40
1.0
 40
2.0
 40
2.0
 40
2.0
 40
2.0
 10
178.9054412662508
 20
960.1814135260738
 30
0.0
 10
181.5969214238921
 20
959.5638411145973
 30
0.0
 10
184.279438548001
 20
961.2450755243598
 30
0.0
 10
184.8970109594765
 20
963.9365556820012
 30
0.0
 10
185.5145833709521
 20
966.6280358396416
 30
0.0
 10
183.8333489611905
 20
969.3105529637504
 30
0.0
 10
181.1418688035492
 20
969.9281253752269
 30
0.0
  0
SPLINE
  5
145
330
70
100
AcDbEntity
  8
0
 62
     6
420
 16711935
370
    25
100
AcDbSpline
210
0.0
220
0.0
230
1.0
 70
     8
 71
     3
 72
    11
 73
     7
 74
     0
 42
0.0000000001
 43
0.0000000001
 40
0.0
 40
0.0
 40
0.0
 40
0.0
 40
1.0
 40
1.0
 40
1.0
 40
2.0
 40
2.0
 40
2.0
 40
2.0
 10
225.4195642740496
 20
710.2676371722354
 30
0.0
 10
228.1385442980454
 20
710.7499324671562
 30
0.0
 10
229.9517355247354
 20
713.3450788671043
 30
0.0
 10
229.4694402298146
 20
716.0640588911
 30
0.0
 10
228.9871449348939
 20
718.7830389150958
 30
0.0
 10
226.3919985349466
 20
720.5962301417858
 30
0.0
 10
223.67301851095
 20
720.113934846865
 30
0.0
  0
SPLINE
  5
146
330
70
100
AcDbEntity
  8
0
 62
     6
420
 16711935
370
    25
100
AcDbSpline
210
0.0
220
0.0
230
1.0
 70
     8
 71
     3
 72
    11
 73
     7
 74
     0
 42
0.0000000001
 43
0.0000000001
 40
0.0
 40
0.0
 40
0.0
 40
0.0
 40
1.0
 40
1.0
 40
1.0
 40
2.0
 40
2.0
 40
2.0
 40
2.0
 10
218.7498696736502
 20
719.2406619652647
 30
0.0
 10
216.0308896496535
 20
718.7583666703448
 30
0.0
 10
214.2176984229645
 20
716.1632202703968
 30
0.0
 10
214.6999937178853
 20
713.4442402464001
 30
0.0
 10
215.182289012806
 20
710.7252602224043
 30
0.0
 10
217.7774354127532
 20
708.9120689957144
 30
0.0
 10
220.4964154367499
 20
709.3943642906351
 30
0.0
  0
SPLINE
  5
147
330
70
100
AcDbEntity
  8
0
 62
     6
420
 16711935
370
    25
100
AcDbSpline
210
0.0
220
0.0
230
1.0
 70
     8
 71
     3
 72
    11
 73
     7
 74
     0
 42
0.0000000001
 43
0.0000000001
 40
0.0
 40
0.0
 40
0.0
 40
0.0
 40
1.0
 40
1.0
 40
1.0
 40
2.0
 40
2.0
 40
2.0
 40
2.0
 10
232.4057473264502
 20
670.8824464736353
 30
0.0
 10
235.1247273504459
 20
671.364741768556
 30
0.0
 10
236.9379185771359
 20
673.9598881685033
 30
0.0
 10
236.4556232822151
 20
676.6788681925
 30
0.0
 10
235.9733279872944
 20
679.3978482164957
 30
0.0
 10
233.3781815873463
 20
681.2110394431856
 30
0.0
 10
230.6592015633505
 20
680.7287441482649
 30
0.0
  0
SPLINE
  5
148
330
70
100
AcDbEntity
  8
0
 62
     6
420
 16711935
370
    25
100
AcDbSpline
210
0.0
220
0.0
230
1.0
 70
     8
 71
     3
 72
    11
 73
     7
 74
     0
 42
0.0000000001
 43
0.0000000001
 40
0.0
 40
0.0
 40
0.0
 40
0.0
 40
1.0
 40
1.0
 40
1.0
 40
2.0
 40
2.0
 40
2.0
 40
2.0
 10
225.7360527259507
 20
679.8554712667646
 30
0.0
 10
223.017072701954
 20
679.3731759718439
 30
0.0
 10
221.203881475265
 20
676.7780295718966
 30
0.0
 10
221.6861767701857
 20
674.0590495479
 30
0.0
 10
222.1684720651065
 20
671.3400695239043
 30
0.0
 10
224.7636184650537
 20
669.5268782972152
 30
0.0
 10
227.4825984890494
 20
670.0091735921359
 30
0.0
  0
SPLINE
  5
149
330
70
100
AcDbEntity
  8
0
 62
     6
420
 16711935
370
    25
100
AcDbSpline
210
0.0
220
0.0
230
1.0
 70
     8
 71
     3
 72
    11
 73
     7
 74
     0
 42
0.0000000001
 43
0.0000000001
 40
0.0
 40
0.0
 40
0.0
 40
0.0
 40
1.0
 40
1.0
 40
1.0
 40
2.0
 40
2.0
 40
2.0
 40
2.0
 10
272.1151627623494
 20
447.0172989753355
 30
0.0
 10
274.8341427863461
 20
447.4995942702553
 30
0.0
 10
276.647334013036
 20
450.0947406702034
 30
0.0
 10
276.1650387181153
 20
452.8137206941992
 30
0.0
 10
275.6827434231945
 20
455.5327007181968
 30
0.0
 10
273.0875970232464
 20
457.3458919448857
 30
0.0
 10
270.3686169992506
 20
456.863596649966
 30
0.0
  0
SPLINE
  5
14A
330
70
100
AcDbEntity
  8
0
 62
     6
420
 16711935
370
    25
100
AcDbSpline
210
0.0
220
0.0
230
1.0
 70
     8
 71
     3
 72
    11
 73
     7
 74
     0
 42
0.0000000001
 43
0.0000000001
 40
0.0
 40
0.0
 40
0.0
 40
0.0
 40
1.0
 40
1.0
 40
1.0
 40
2.0
 40
2.0
 40
2.0
 40
2.0
 10
265.44546816195
 20
455.9903237683648
 30
0.0
 10
262.7264881379542
 20
455.5080284734449
 30
0.0
 10
260.9132969112643
 20
452.9128820734968
 30
0.0
 10
261.395592206185
 20
450.193902049501
 30
0.0
 10
261.8778875011058
 20
447.4749220255034
 30
0.0
 10
264.4730339010539
 20
445.6617307988144
 30
0.0
 10
267.1920139250496
 20
446.1440260937361
 30
0.0
  0
SPLINE
  5
14B
330
70
100
AcDbEntity
  8
0
 62
     6
420
 16711935
370
    25
100
AcDbSpline
210
0.0
220
0.0
230
1.0
 70
     8
 71
     3
 72
     8
 73
     4
 74
     0
 42
0.0000000001
 43
0.0000000001
 40
0.0
 40
0.0
 40
0.0
 40
0.0
 40
1.0
 40
1.0
 40
1.0
 40
1.0
 10
393.0552310534504
 20
1339.762204149006
 30
0.0
 10
392.6697277895982
 20
1339.185695719312
 30
0.0
 10
392.8243923513837
 20
1338.405849357576
 30
0.0
 10
393.4007370217305
 20
1338.020101309088
 30
0.0
  0
SPLINE
  5
14C
330
70
100
AcDbEntity
  8
0
 62
     6
420
 16711935
370
    25
100
AcDbSpline
210
0.0
220
0.0
230
1.0
 70
     8
 71
     3
 72
     8
 73
     4
 74
     0
 42
0.0000000001
 43
0.0000000001
 40
0.0
 40
0.0
 40
0.0
 40
0.0
 40
1.0
 40
1.0
 40
1.0
 40
1.0
 10
399.2669492879204
 20
1334.056084620765
 30
0.0
 10
399.8389543287485
 20
1333.669559649494
 30
0.0
 10
400.6159964330127
 20
1333.819920954542
 30
0.0
 10
401.0025214042843
 20
1334.391925995371
 30
0.0
  0
SPLINE
  5
14D
330
70
100
AcDbEntity
  8
0
 62
     6
420
 16711935
370
    25
100
AcDbSpline
210
0.0
220
0.0
230
1.0
 70
     8
 71
     3
 72
     8
 73
     4
 74
     0
 42
0.0000000001
 43
0.0000000001
 40
0.0
 40
0.0
 40
0.0
 40
0.0
 40
1.0
 40
1.0
 40
1.0
 40
1.0
 10
408.622352665563
 20
1344.720186179275
 30
0.0
 10
408.6664140768443
 20
1344.997098968578
 30
0.0
 10
408.7028174319039
 20
1345.275176103661
 30
0.0
 10
408.7315210760461
 20
1345.554099393575
 30
0.0
  0
SPLINE
  5
14E
330
70
100
AcDbEntity
  8
0
 62
     6
420
 16711935
370
    25
100
AcDbSpline
210
0.0
220
0.0
230
1.0
 70
     8
 71
     3
 72
     8
 73
     4
 74
     0
 42
0.0000000001
 43
0.0000000001
 40
0.0
 40
0.0
 40
0.0
 40
0.0
 40
1.0
 40
1.0
 40
1.0
 40
1.0
 10
408.7315210760689
 20
1345.554099393668
 30
0.0
 10
408.7895786024964
 20
1346.11172446718
 30
0.0
 10
408.4374414034255
 20
1346.630070051386
 30
0.0
 10
407.8976543102444
 20
1346.781550390105
 30
0.0
  0
SPLINE
  5
14F
330
70
100
AcDbEntity
  8
0
 62
     6
420
 16711935
370
    25
100
AcDbSpline
210
0.0
220
0.0
230
1.0
 70
     8
 71
     3
 72
     8
 73
     4
 74
     0
 42
0.0000000001
 43
0.0000000001
 40
0.0
 40
0.0
 40
0.0
 40
0.0
 40
1.0
 40
1.0
 40
1.0
 40
1.0
 10
407.8976543101953
 20
1346.781550390085
 30
0.0
 10
407.7532246913587
 20
1346.821476011285
 30
0.0
 10
407.6040124172341
 20
1346.841457470809
 30
0.0
 10
407.454166825587
 20
1346.840939118491
 30
0.0
  0
SPLINE
  5
150
330
70
100
AcDbEntity
  8
0
 62
     6
420
 16711935
370
    25
100
AcDbSpline
210
0.0
220
0.0
230
1.0
 70
     8
 71
     3
 72
    11
 73
     7
 74
     0
 42
0.0000000001
 43
0.0000000001
 40
0.0
 40
0.0
 40
0.0
 40
0.0
 40
1.0
 40
1.0
 40
1.0
 40
2.0
 40
2.0
 40
2.0
 40
2.0
 10
963.4229018600818
 20
1437.729217893249
 30
0.0
 10
967.0434930214579
 20
1441.899729148688
 30
0.0
 10
966.5976947035378
 20
1448.215665572256
 30
0.0
 10
962.4271834481005
 20
1451.836256733631
 30
0.0
 10
961.133335840388
 20
1452.959498687851
 30
0.0
 10
959.5725828795403
 20
1453.731457997501
 30
0.0
 10
957.8946205409637
 20
1454.078093988158
 30
0.0
  0
SPLINE
  5
151
330
70
100
AcDbEntity
  8
0
 62
     6
420
 16711935
370
    25
100
AcDbSpline
210
0.0
220
0.0
230
1.0
 70
     8
 71
     3
 72
    11
 73
     7
 74
     0
 42
0.0000000001
 43
0.0000000001
 40
0.0
 40
0.0
 40
0.0
 40
0.0
 40
1.0
 40
1.0
 40
1.0
 40
2.0
 40
2.0
 40
2.0
 40
2.0
 10
871.3368129574
 20
1360.85453153835
 30
0.0
 10
870.6464570201115
 20
1360.85453153835
 30
0.0
 10
870.0868129574001
 20
1360.294887475638
 30
0.0
 10
870.0868129574001
 20
1359.604531538351
 30
0.0
 10
870.0868129574001
 20
1358.914175601062
 30
0.0
 10
870.6464570201115
 20
1358.354531538351
 30
0.0
 10
871.3368129574
 20
1358.354531538351
 30
0.0
  0
SPLINE
  5
152
330
70
100
AcDbEntity
  8
0
 62
     6
420
 16711935
370
    25
100
AcDbSpline
210
0.0
220
0.0
230
1.0
 70
     8
 71
     3
 72
    11
 73
     7
 74
     0
 42
0.0000000001
 43
0.0000000001
 40
0.0
 40
0.0
 40
0.0
 40
0.0
 40
1.0
 40
1.0
 40
1.0
 40
2.0
 40
2.0
 40
2.0
 40
2.0
 10
581.5872793862154
 20
-367.4110037413266
 30
0.0
 10
582.2284610235383
 20
-367.4332840135248
 30
0.0
 10
582.766303169079
 20
-366.9315653265585
 30
0.0
 10
582.7885834412772
 20
-366.2903836892346
 30
0.0
 10
582.7907587175896
 20
-366.2277835910281
 30
0.0
 10
582.7878672652732
 20
-366.1651100998279
 30
0.0
 10
582.7799373647294
 20
-366.1029762056969
 30
0.0
  0
SPLINE
  5
153
330
70
100
AcDbEntity
  8
0
 62
     6
420
 16711935
370
    25
100
AcDbSpline
210
0.0
220
0.0
230
1.0
 70
     8
 71
     3
 72
     8
 73
     4
 74
     0
 42
0.0000000001
 43
0.0000000001
 40
0.0
 40
0.0
 40
0.0
 40
0.0
 40
1.0
 40
1.0
 40
1.0
 40
1.0
 10
578.1223014632833
 20
-354.1842489429873
 30
0.0
 10
577.8627042147291
 20
-353.5445610591796
 30
0.0
 10
577.1336895748482
 20
-353.2364367195114
 30
0.0
 10
576.4940016910395
 20
-353.4960339680656
 30
0.0
  0
SPLINE
  5
154
330
70
100
AcDbEntity
  8
0
 62
     6
420
 16711935
370
    25
100
AcDbSpline
210
0.0
220
0.0
230
1.0
 70
     8
 71
     3
 72
     8
 73
     4
 74
     0
 42
0.0000000001
 43
0.0000000001
 40
0.0
 40
0.0
 40
0.0
 40
0.0
 40
1.0
 40
1.0
 40
1.0
 40
1.0
 10
569.0788212766656
 20
-356.5052521849521
 30
0.0
 10
568.4361292777712
 20
-356.7635832124379
 30
0.0
 10
568.1245360877646
 20
-357.4940007197165
 30
0.0
 10
568.3828528112708
 20
-358.1366984679316
 30
0.0
  0
SPLINE
  5
155
330
70
100
AcDbEntity
  8
0
 62
     6
420
 16711935
370
    25
100
AcDbSpline
210
0.0
220
0.0
230
1.0
 70
     8
 71
     3
 72
     8
 73
     4
 74
     0
 42
0.0000000001
 43
0.0000000001
 40
0.0
 40
0.0
 40
0.0
 40
0.0
 40
1.0
 40
1.0
 40
1.0
 40
1.0
 10
253.2110957465538
 20
363.8077031427074
 30
0.0
 10
253.4675617769726
 20
363.1259465973744
 30
0.0
 10
254.2104567124288
 20
362.7616883422124
 30
0.0
 10
254.9064881909826
 20
362.9764137313123
 30
0.0
  0
SPLINE
  5
156
330
70
100
AcDbEntity
  8
0
 62
     6
420
 16711935
370
    25
100
AcDbSpline
210
0.0
220
0.0
230
1.0
 70
     8
 71
     3
 72
     8
 73
     4
 74
     0
 42
0.0000000001
 43
0.0000000001
 40
0.0
 40
0.0
 40
0.0
 40
0.0
 40
1.0
 40
1.0
 40
1.0
 40
1.0
 10
292.1324606601002
 20
369.9389103512495
 30
0.0
 10
292.8228165973887
 20
369.9389103512495
 30
0.0
 10
293.3824606601001
 20
370.4985544139618
 30
0.0
 10
293.3824606601001
 20
371.1889103512494
 30
0.0
  0
SPLINE
  5
157
330
70
100
AcDbEntity
  8
0
 62
     6
420
 16711935
370
    25
100
AcDbSpline
210
0.0
220
0.0
230
1.0
 70
     8
 71
     3
 72
     8
 73
     4
 74
     0
 42
0.0000000001
 43
0.0000000001
 40
0.0
 40
0.0
 40
0.0
 40
0.0
 40
1.0
 40
1.0
 40
1.0
 40
1.0
 10
293.3824606600556
 20
431.2062054166017
 30
0.0
 10
293.4325929410425
 20
431.9512836754183
 30
0.0
 10
292.8765262357374
 20
432.5991490705291
 30
0.0
 10
292.1324606600556
 20
432.6625626056993
 30
0.0
  0
SPLINE
  5
158
330
70
100
AcDbEntity
  8
0
 62
     6
420
 16711935
370
    25
100
AcDbSpline
210
0.0
220
0.0
230
1.0
 70
     8
 71
     3
 72
    11
 73
     7
 74
     0
 42
0.0000000001
 43
0.0000000001
 40
0.0
 40
0.0
 40
0.0
 40
0.0
 40
1.0
 40
1.0
 40
1.0
 40
2.0
 40
2.0
 40
2.0
 40
2.0
 10
265.9500563628062
 20
432.6625626056502
 30
0.0
 10
266.0147455030583
 20
433.3498810436995
 30
0.0
 10
265.51000472955
 20
433.9595036363043
 30
0.0
 10
264.8226862914999
 20
434.0241927765564
 30
0.0
 10
264.7107622920885
 20
434.0347268563873
 30
0.0
 10
264.5979287513164
 20
434.0301142930566
 30
0.0
 10
264.4872380213146
 20
434.0104798647789
 30
0.0
  0
SPLINE
  5
159
330
70
100
AcDbEntity
  8
0
 62
     6
420
 16711935
370
    25
100
AcDbSpline
210
0.0
220
0.0
230
1.0
 70
     8
 71
     3
 72
    14
 73
    10
 74
     0
 42
0.0000000001
 43
0.0000000001
 40
0.0
 40
0.0
 40
0.0
 40
0.0
 40
1.0
 40
1.0
 40
1.0
 40
2.0
 40
2.0
 40
2.0
 40
3.0
 40
3.0
 40
3.0
 40
3.0
 10
1407.252886032127
 20
441.6662081715148
 30
0.0
 10
1408.97657875519
 20
439.5088723226617
 30
0.0
 10
1412.122774043981
 20
439.1573351118167
 30
0.0
 10
1414.280109892834
 20
440.8810278348774
 30
0.0
 10
1416.437445741689
 20
442.6047205579398
 30
0.0
 10
1416.788982952534
 20
445.750915846731
 30
0.0
 10
1415.065290229471
 20
447.908251695584
 30
0.0
 10
1415.065270284025
 20
447.9082766588671
 30
0.0
 10
1415.065250338324
 20
447.9083016219756
 30
0.0
 10
1415.065230392398
 20
447.9083265848749
 30
0.0
  0
SPLINE
  5
15A
330
70
100
AcDbEntity
  8
0
 62
     6
420
 16711935
370
    25
100
AcDbSpline
210
0.0
220
0.0
230
1.0
 70
     8
 71
     3
 72
    14
 73
    10
 74
     0
 42
0.0000000001
 43
0.0000000001
 40
0.0
 40
0.0
 40
0.0
 40
0.0
 40
1.0
 40
1.0
 40
1.0
 40
2.0
 40
2.0
 40
2.0
 40
3.0
 40
3.0
 40
3.0
 40
3.0
 10
1411.944083872235
 20
451.8145106149786
 30
0.0
 10
1410.220391428467
 20
453.9718466869908
 30
0.0
 10
1407.074196185182
 20
454.323384305153
 30
0.0
 10
1404.916860113171
 20
452.5996918613855
 30
0.0
 10
1402.759524041159
 20
450.8759994176162
 30
0.0
 10
1402.407986422997
 20
447.7298041743324
 30
0.0
 10
1404.131678866764
 20
445.572468102322
 30
0.0
 10
1404.131699081577
 20
445.5724428019002
 30
0.0
 10
1404.131719296663
 20
445.572417501642
 30
0.0
 10
1404.131739511969
 20
445.5723922016114
 30
0.0
  0
SPLINE
  5
15B
330
70
100
AcDbEntity
  8
0
 62
     6
420
 16711935
370
    25
100
AcDbSpline
210
0.0
220
0.0
230
1.0
 70
     8
 71
     3
 72
    14
 73
    10
 74
     0
 42
0.0000000001
 43
0.0000000001
 40
0.0
 40
0.0
 40
0.0
 40
0.0
 40
1.0
 40
1.0
 40
1.0
 40
2.0
 40
2.0
 40
2.0
 40
3.0
 40
3.0
 40
3.0
 40
3.0
 10
1438.502263473227
 20
466.6346818250149
 30
0.0
 10
1440.225956196289
 20
464.4773459761617
 30
0.0
 10
1443.37215148508
 20
464.125808765315
 30
0.0
 10
1445.529487333933
 20
465.8495014883774
 30
0.0
 10
1447.686823182788
 20
467.5731942114398
 30
0.0
 10
1448.038360393633
 20
470.719389500231
 30
0.0
 10
1446.314667670573
 20
472.8767253490842
 30
0.0
 10
1446.314647725125
 20
472.8767503123672
 30
0.0
 10
1446.314627779424
 20
472.8767752754756
 30
0.0
 10
1446.314607833499
 20
472.8768002383749
 30
0.0
  0
SPLINE
  5
15C
330
70
100
AcDbEntity
  8
0
 62
     6
420
 16711935
370
    25
100
AcDbSpline
210
0.0
220
0.0
230
1.0
 70
     8
 71
     3
 72
    14
 73
    10
 74
     0
 42
0.0000000001
 43
0.0000000001
 40
0.0
 40
0.0
 40
0.0
 40
0.0
 40
1.0
 40
1.0
 40
1.0
 40
2.0
 40
2.0
 40
2.0
 40
3.0
 40
3.0
 40
3.0
 40
3.0
 10
1443.193461313334
 20
476.7829842684786
 30
0.0
 10
1441.469768869567
 20
478.9403203404908
 30
0.0
 10
1438.323573626283
 20
479.2918579586531
 30
0.0
 10
1436.166237554271
 20
477.5681655148855
 30
0.0
 10
1434.008901482259
 20
475.844473071118
 30
0.0
 10
1433.657363864097
 20
472.6982778278324
 30
0.0
 10
1435.381056307864
 20
470.5409417558221
 30
0.0
 10
1435.381076522673
 20
470.5409164554039
 30
0.0
 10
1435.381096737761
 20
470.5408911551439
 30
0.0
 10
1435.381116953063
 20
470.5408658551187
 30
0.0
  0
LINE
  5
15E
330
70
100
AcDbEntity
  8
1
  6
AI-Linetype-0
 62
    40
420
 16760576
370
    18
100
AcDbLine
 10
1359.7798741402
 20
369.8886361078494
 30
0.0
 11
1715.1977341566
 21
-360.0397284393494
 31
0.0
  0
LINE
  5
160
330
70
100
AcDbEntity
  8
1
  6
AI-Linetype-1
 62
    40
420
 16760576
370
    18
100
AcDbLine
 10
293.3824606601001
 20
398.8043185161496
 30
0.0
 11
1347.114920072299
 21
398.8043185162496
 31
0.0
  0
LINE
  5
162
330
70
100
AcDbEntity
  8
1
  6
AI-Linetype-2
 62
    40
420
 16760576
370
    18
100
AcDbLine
 10
875.3221579640003
 20
1470.84186228615
 30
0.0
 11
875.3221579640003
 21
1360.854531538351
 31
0.0
  0
LINE
  5
164
330
70
100
AcDbEntity
  8
1
  6
AI-Linetype-3
 62
    40
420
 16760576
370
    18
100
AcDbLine
 10
162.2567970804002
 20
983.4829096351505
 30
0.0
 11
259.8680829161003
 21
433.1911296842499
 31
0.0
  0
LINE
  5
166
330
70
100
AcDbEntity
  8
1
  6
AI-Linetype-4
 62
    40
420
 16760576
370
    18
100
AcDbLine
 10
883.1929375764003
 20
1341.27399771705
 30
0.0
 11
1335.5749863499
 21
427.2577235621501
 31
0.0
  0
LINE
  5
168
330
70
100
AcDbEntity
  8
1
  6
AI-Linetype-5
 62
    40
420
 16760576
370
    18
100
AcDbLine
 10
1713.755021949
 20
-361.5835736847494
 30
0.0
 11
581.4366342733001
 21
-361.5835736847494
 31
0.0
  0
LINE
  5
16A
330
70
100
AcDbEntity
  8
1
  6
AI-Linetype-6
 62
    40
420
 16760576
370
    18
100
AcDbLine
 10
406.8084519121002
 20
1342.25512426905
 30
0.0
 11
880.5791559809003
 21
1342.25512426905
 31
0.0
  0
LINE
  5
16C
330
70
100
AcDbEntity
  8
1
  6
AI-Linetype-7
 62
    40
420
 16760576
370
    18
100
AcDbLine
 10
159.2372983005998
 20
986.3550016058507
 30
0.0
 11
395.7827448138997
 21
1336.41049050545
 31
0.0
  0
LINE
  5
16E
330
70
100
AcDbEntity
  8
1
  6
AI-Linetype-8
 62
    40
420
 16760576
370
    18
100
AcDbLine
 10
572.5273257316002
 20
-355.1057848966502
 30
0.0
 11
278.1964009075
 21
370.1712644137497
 31
0.0
  0
ENDSEC
  0
SECTION
  2
OBJECTS
  0
DICTIONARY
  5
C
330
0
100
AcDbDictionary
281
     1
  3
ACAD_COLOR
350
63
  3
ACAD_DETAILVIEWSTYLE
350
6A
  3
ACAD_GROUP
350
D
  3
ACAD_LAYOUT
350
62
  3
ACAD_MATERIAL
350
10
  3
ACAD_MLEADERSTYLE
350
66
  3
ACAD_MLINESTYLE
350
5F
  3
ACAD_PLOTSETTINGS
350
61
  3
ACAD_PLOTSTYLENAME
350
E
  3
ACAD_SCALELIST
350
42
  3
ACAD_SECTIONVIEWSTYLE
350
68
  3
ACAD_TABLESTYLE
350
64
  3
ACAD_VISUALSTYLE
350
29
  3
ACDB_RECOMPOSE_DATA
350
178
  3
AcDbVariableDictionary
350
170
  0
DICTIONARY
  5
63
102
{ACAD_REACTORS
330
C
102
}
330
C
100
AcDbDictionary
281
     1
  0
DICTIONARY
  5
6A
102
{ACAD_REACTORS
330
C
102
}
330
C
100
AcDbDictionary
281
     1
  3
Imperial24
350
6B
  0
DICTIONARY
  5
D
102
{ACAD_REACTORS
330
C
102
}
330
C
100
AcDbDictionary
281
     1
  0
DICTIONARY
  5
62
102
{ACAD_REACTORS
330
C
102
}
330
C
100
AcDbDictionary
281
     1
  3
Layout1
350
6F
  3
Layout2
350
77
  3
Model
350
73
  0
DICTIONARY
  5
10
102
{ACAD_REACTORS
330
C
102
}
330
C
100
AcDbDictionary
281
     1
  3
ByBlock
350
19
  3
ByLayer
350
11
  3
Global
350
21
  0
DICTIONARY
  5
66
102
{ACAD_REACTORS
330
C
102
}
330
C
100
AcDbDictionary
281
     1
  3
Standard
350
67
  0
DICTIONARY
  5
5F
102
{ACAD_REACTORS
330
C
102
}
330
C
100
AcDbDictionary
281
     1
  3
Standard
350
60
  0
DICTIONARY
  5
61
102
{ACAD_REACTORS
330
C
102
}
330
C
100
AcDbDictionary
281
     1
  0
ACDBDICTIONARYWDFLT
  5
E
102
{ACAD_REACTORS
330
C
102
}
330
C
100
AcDbDictionary
281
     1
  3
Normal
350
F
100
AcDbDictionaryWithDefault
340
F
  0
DICTIONARY
  5
42
102
{ACAD_REACTORS
330
C
102
}
330
C
100
AcDbDictionary
281
     1
  3
A0
350
43
  3
A1
350
44
  3
A2
350
45
  3
A3
350
46
  3
A4
350
47
  3
A5
350
48
  3
A6
350
49
  3
A7
350
4A
  3
A8
350
4B
  3
A9
350
4C
  3
B0
350
4D
  3
B1
350
4E
  3
B2
350
4F
  3
B3
350
50
  3
B4
350
51
  3
B5
350
52
  3
B6
350
53
  0
DICTIONARY
  5
68
102
{ACAD_REACTORS
330
C
102
}
330
C
100
AcDbDictionary
281
     1
  3
Imperial24
350
69
  0
DICTIONARY
  5
64
102
{ACAD_REACTORS
330
C
102
}
330
C
100
AcDbDictionary
281
     1
  3
Standard
350
65
  0
DICTIONARY
  5
29
102
{ACAD_REACTORS
330
C
102
}
330
C
100
AcDbDictionary
281
     1
  3
2dWireframe
350
2F
  3
Basic
350
2E
  3
Brighten
350
35
  3
ColorChange
350
39
  3
Conceptual
350
32
  3
Dim
350
34
  3
EdgeColorOff
350
41
  3
Facepattern
350
38
  3
Flat
350
2A
  3
FlatWithEdges
350
2B
  3
Gouraud
350
2C
  3
GouraudWithEdges
350
2D
  3
Hidden
350
31
  3
JitterOff
350
3F
  3
Linepattern
350
37
  3
OverhangOff
350
40
  3
Realistic
350
33
  3
Shaded
350
3E
  3
Shaded with edges
350
3D
  3
Shades of Gray
350
3A
  3
Sketchy
350
3B
  3
Thicken
350
36
  3
Wireframe
350
30
  3
X-Ray
350
3C
  0
XRECORD
  5
178
102
{ACAD_REACTORS
330
C
102
}
330
C
100
AcDbXrecord
280
     1
 90
        1
330
65
  0
DICTIONARY
  5
170
102
{ACAD_REACTORS
330
C
102
}
330
C
100
AcDbDictionary
281
     1
  3
CANNOSCALE
350
175
  3
CMLEADERSTYLE
350
172
  3
CTABLESTYLE
350
171
  3
CVIEWDETAILSTYLE
350
173
  3
CVIEWSECTIONSTYLE
350
174
  0
ACDBDETAILVIEWSTYLE
  5
6B
102
{ACAD_REACTORS
330
6A
102
}
330
6A
100
AcDbModelDocViewStyle
 70
     0
  3
Imperial24
290
     1
300
Imperial24
 90
        0
100
AcDbDetailViewStyle
 70
     0
 71
     0
 90
        3
 71
     1
340
55
 62
   256
 40
0.24
340
0
 62
   256
 40
0.24
300

 40
0.36
280
     3
 71
     2
340
5D
 90
       25
 62
   256
 71
     3
340
55
 62
   256
 40
0.24
 90
        1
 40
0.75
 90
        1
300
%<\AcVar ViewType \f "%tc1">% %<\AcVar ViewDetailId>%\PSCALE %<\AcVar ViewScale \f "%sn">%
 71
     4
340
5D
 90
       25
 62
   256
340
5D
 90
       25
 62
   256
280
     0
  0
LAYOUT
  5
6F
102
{ACAD_REACTORS
330
62
102
}
330
62
100
AcDbPlotSettings
  1

  2

  4

  6

 40
0.0
 41
0.0
 42
0.0
 43
0.0
 44
0.0
 45
0.0
 46
0.0
 47
0.0
 48
0.0
 49
0.0
140
0.0
141
0.0
142
1.0
143
1.0
 70
   688
 72
     0
 73
     0
 74
     5
  7

 75
    16
147
1.0
 76
     0
 77
     2
 78
   300
148
0.0
149
0.0
100
AcDbLayout
  1
Layout1
 70
     1
 71
     1
 10
0.0
 20
0.0
 11
12.0
 21
9.0
 12
0.0
 22
0.0
 32
0.0
 14
0.0
 24
0.0
 34
0.0
 15
0.0
 25
0.0
 35
0.0
146
0.0
 13
0.0
 23
0.0
 33
0.0
 16
1.0
 26
0.0
 36
0.0
 17
0.0
 27
1.0
 37
0.0
 76
     0
330
6C
  0
LAYOUT
  5
77
102
{ACAD_REACTORS
330
62
102
}
330
62
100
AcDbPlotSettings
  1

  2

  4

  6

 40
0.0
 41
0.0
 42
0.0
 43
0.0
 44
0.0
 45
0.0
 46
0.0
 47
0.0
 48
0.0
 49
0.0
140
0.0
141
0.0
142
1.0
143
1.0
 70
   688
 72
     0
 73
     0
 74
     5
  7

 75
    16
147
1.0
 76
     0
 77
     2
 78
   300
148
0.0
149
0.0
100
AcDbLayout
  1
Layout2
 70
     1
 71
     2
 10
0.0
 20
0.0
 11
12.0
 21
9.0
 12
0.0
 22
0.0
 32
0.0
 14
0.0
 24
0.0
 34
0.0
 15
0.0
 25
0.0
 35
0.0
146
0.0
 13
0.0
 23
0.0
 33
0.0
 16
1.0
 26
0.0
 36
0.0
 17
0.0
 27
1.0
 37
0.0
 76
     0
330
74
  0
LAYOUT
  5
73
102
{ACAD_REACTORS
330
62
102
}
330
62
100
AcDbPlotSettings
  1

  2

  4

  6

 40
0.0
 41
0.0
 42
0.0
 43
0.0
 44
0.0
 45
0.0
 46
0.0
 47
0.0
 48
0.0
 49
0.0
140
0.0
141
0.0
142
1.0
143
1.0
 70
  1712
 72
     0
 73
     0
 74
     0
  7

 75
     0
147
1.0
 76
     0
 77
     2
 78
   300
148
0.0
149
0.0
100
AcDbLayout
  1
Model
 70
     1
 71
     0
 10
0.0
 20
0.0
 11
12.0
 21
9.0
 12
0.0
 22
0.0
 32
0.0
 14
0.0
 24
0.0
 34
0.0
 15
0.0
 25
0.0
 35
0.0
146
0.0
 13
0.0
 23
0.0
 33
0.0
 16
1.0
 26
0.0
 36
0.0
 17
0.0
 27
1.0
 37
0.0
 76
     0
330
70
  0
MATERIAL
  5
19
102
{ACAD_XDICTIONARY
360
1A
102
}
102
{ACAD_REACTORS
330
10
102
}
330
10
100
AcDbMaterial
  1
ByBlock
 72
     0
 43
0.0208333333333333
 43
0.0
 43
0.0
 43
0.0
 43
0.0
 43
0.0208333333333333
 43
0.0
 43
0.0
 43
0.0
 43
0.0
 43
1.0
 43
0.0
 43
0.0
 43
0.0
 43
0.0
 43
1.0
 77
     0
 47
0.0208333333333333
 47
0.0
 47
0.0
 47
0.0
 47
0.0
 47
0.0208333333333333
 47
0.0
 47
0.0
 47
0.0
 47
0.0
 47
1.0
 47
0.0
 47
0.0
 47
0.0
 47
0.0
 47
1.0
171
     0
 49
0.0208333333333333
 49
0.0
 49
0.0
 49
0.0
 49
0.0
 49
0.0208333333333333
 49
0.0
 49
0.0
 49
0.0
 49
0.0
 49
1.0
 49
0.0
 49
0.0
 49
0.0
 49
0.0
 49
1.0
175
     0
142
0.0208333333333333
142
0.0
142
0.0
142
0.0
142
0.0
142
0.0208333333333333
142
0.0
142
0.0
142
0.0
142
0.0
142
1.0
142
0.0
142
0.0
142
0.0
142
0.0
142
1.0
179
     0
144
0.0208333333333333
144
0.0
144
0.0
144
0.0
144
0.0
144
0.0208333333333333
144
0.0
144
0.0
144
0.0
144
0.0
144
1.0
144
0.0
144
0.0
144
0.0
144
0.0
144
1.0
147
0.0208333333333333
147
0.0
147
0.0
147
0.0
147
0.0
147
0.0208333333333333
147
0.0
147
0.0
147
0.0
147
0.0
147
1.0
147
0.0
147
0.0
147
0.0
147
0.0
147
1.0
  0
MATERIAL
  5
11
102
{ACAD_XDICTIONARY
360
12
102
}
102
{ACAD_REACTORS
330
10
102
}
330
10
100
AcDbMaterial
  1
ByLayer
 72
     0
 43
0.0208333333333333
 43
0.0
 43
0.0
 43
0.0
 43
0.0
 43
0.0208333333333333
 43
0.0
 43
0.0
 43
0.0
 43
0.0
 43
1.0
 43
0.0
 43
0.0
 43
0.0
 43
0.0
 43
1.0
 77
     0
 47
0.0208333333333333
 47
0.0
 47
0.0
 47
0.0
 47
0.0
 47
0.0208333333333333
 47
0.0
 47
0.0
 47
0.0
 47
0.0
 47
1.0
 47
0.0
 47
0.0
 47
0.0
 47
0.0
 47
1.0
171
     0
 49
0.0208333333333333
 49
0.0
 49
0.0
 49
0.0
 49
0.0
 49
0.0208333333333333
 49
0.0
 49
0.0
 49
0.0
 49
0.0
 49
1.0
 49
0.0
 49
0.0
 49
0.0
 49
0.0
 49
1.0
175
     0
142
0.0208333333333333
142
0.0
142
0.0
142
0.0
142
0.0
142
0.0208333333333333
142
0.0
142
0.0
142
0.0
142
0.0
142
1.0
142
0.0
142
0.0
142
0.0
142
0.0
142
1.0
179
     0
144
0.0208333333333333
144
0.0
144
0.0
144
0.0
144
0.0
144
0.0208333333333333
144
0.0
144
0.0
144
0.0
144
0.0
144
1.0
144
0.0
144
0.0
144
0.0
144
0.0
144
1.0
147
0.0208333333333333
147
0.0
147
0.0
147
0.0
147
0.0
147
0.0208333333333333
147
0.0
147
0.0
147
0.0
147
0.0
147
1.0
147
0.0
147
0.0
147
0.0
147
0.0
147
1.0
  0
MATERIAL
  5
21
102
{ACAD_XDICTIONARY
360
22
102
}
102
{ACAD_REACTORS
330
10
102
}
330
10
100
AcDbMaterial
  1
Global
 72
     0
 43
0.0208333333333333
 43
0.0
 43
0.0
 43
0.0
 43
0.0
 43
0.0208333333333333
 43
0.0
 43
0.0
 43
0.0
 43
0.0
 43
1.0
 43
0.0
 43
0.0
 43
0.0
 43
0.0
 43
1.0
 77
     0
 47
0.0208333333333333
 47
0.0
 47
0.0
 47
0.0
 47
0.0
 47
0.0208333333333333
 47
0.0
 47
0.0
 47
0.0
 47
0.0
 47
1.0
 47
0.0
 47
0.0
 47
0.0
 47
0.0
 47
1.0
171
     0
 49
0.0208333333333333
 49
0.0
 49
0.0
 49
0.0
 49
0.0
 49
0.0208333333333333
 49
0.0
 49
0.0
 49
0.0
 49
0.0
 49
1.0
 49
0.0
 49
0.0
 49
0.0
 49
0.0
 49
1.0
175
     0
142
0.0208333333333333
142
0.0
142
0.0
142
0.0
142
0.0
142
0.0208333333333333
142
0.0
142
0.0
142
0.0
142
0.0
142
1.0
142
0.0
142
0.0
142
0.0
142
0.0
142
1.0
179
     0
144
0.0208333333333333
144
0.0
144
0.0
144
0.0
144
0.0
144
0.0208333333333333
144
0.0
144
0.0
144
0.0
144
0.0
144
1.0
144
0.0
144
0.0
144
0.0
144
0.0
144
1.0
147
0.0208333333333333
147
0.0
147
0.0
147
0.0
147
0.0
147
0.0208333333333333
147
0.0
147
0.0
147
0.0
147
0.0
147
1.0
147
0.0
147
0.0
147
0.0
147
0.0
147
1.0
  0
MLEADERSTYLE
  5
67
102
{ACAD_REACTORS
330
66
102
}
330
66
100
AcDbMLeaderStyle
179
     2
170
     2
171
     1
172
     0
 90
        2
 40
0.0
 41
0.0
173
     1
 91
-1056964608
340
5B
 92
       -2
290
     1
 42
0.09
291
     1
 43
0.36
  3
Standard
 44
0.18
300

342
55
174
     1
178
     6
175
     1
176
     0
 93
-1056964608
 45
0.18
292
     0
297
     0
 46
0.18
 94
-1056964608
 47
1.0
 49
1.0
140
1.0
293
     1
141
0.0
294
     1
177
     0
142
1.0
295
     1
296
     0
143
0.125
271
     0
272
     9
273
     9
298
     1
  0
MLINESTYLE
  5
60
102
{ACAD_REACTORS
330
5F
102
}
330
5F
100
AcDbMlineStyle
  2
STANDARD
 70
     0
  3

 62
   256
 51
90.0
 52
90.0
 71
     2
 49
0.5
 62
   256
  6
BYLAYER
 49
-0.5
 62
   256
  6
BYLAYER
  0
ACDBPLACEHOLDER
  5
F
102
{ACAD_REACTORS
330
E
102
}
330
E
  0
SCALE
  5
43
102
{ACAD_REACTORS
330
42
102
}
330
42
100
AcDbScale
 70
     0
300
1:1
140
1.0
141
1.0
290
     1
  0
SCALE
  5
44
102
{ACAD_REACTORS
330
42
102
}
330
42
100
AcDbScale
 70
     0
300
1/128" = 1'-0"
140
0.0078125
141
12.0
290
     0
  0
SCALE
  5
45
102
{ACAD_REACTORS
330
42
102
}
330
42
100
AcDbScale
 70
     0
300
1/64" = 1'-0"
140
0.015625
141
12.0
290
     0
  0
SCALE
  5
46
102
{ACAD_REACTORS
330
42
102
}
330
42
100
AcDbScale
 70
     0
300
1/32" = 1'-0"
140
0.03125
141
12.0
290
     0
  0
SCALE
  5
47
102
{ACAD_REACTORS
330
42
102
}
330
42
100
AcDbScale
 70
     0
300
1/16" = 1'-0"
140
0.0625
141
12.0
290
     0
  0
SCALE
  5
48
102
{ACAD_REACTORS
330
42
102
}
330
42
100
AcDbScale
 70
     0
300
3/32" = 1'-0"
140
0.09375
141
12.0
290
     0
  0
SCALE
  5
49
102
{ACAD_REACTORS
330
42
102
}
330
42
100
AcDbScale
 70
     0
300
1/8" = 1'-0"
140
0.125
141
12.0
290
     0
  0
SCALE
  5
4A
102
{ACAD_REACTORS
330
42
102
}
330
42
100
AcDbScale
 70
     0
300
3/16" = 1'-0"
140
0.1875
141
12.0
290
     0
  0
SCALE
  5
4B
102
{ACAD_REACTORS
330
42
102
}
330
42
100
AcDbScale
 70
     0
300
1/4" = 1'-0"
140
0.25
141
12.0
290
     0
  0
SCALE
  5
4C
102
{ACAD_REACTORS
330
42
102
}
330
42
100
AcDbScale
 70
     0
300
3/8" = 1'-0"
140
0.375
141
12.0
290
     0
  0
SCALE
  5
4D
102
{ACAD_REACTORS
330
42
102
}
330
42
100
AcDbScale
 70
     0
300
1/2" = 1'-0"
140
0.5
141
12.0
290
     0
  0
SCALE
  5
4E
102
{ACAD_REACTORS
330
42
102
}
330
42
100
AcDbScale
 70
     0
300
3/4" = 1'-0"
140
0.75
141
12.0
290
     0
  0
SCALE
  5
4F
102
{ACAD_REACTORS
330
42
102
}
330
42
100
AcDbScale
 70
     0
300
1" = 1'-0"
140
1.0
141
12.0
290
     0
  0
SCALE
  5
50
102
{ACAD_REACTORS
330
42
102
}
330
42
100
AcDbScale
 70
     0
300
1-1/2" = 1'-0"
140
1.5
141
12.0
290
     0
  0
SCALE
  5
51
102
{ACAD_REACTORS
330
42
102
}
330
42
100
AcDbScale
 70
     0
300
3" = 1'-0"
140
3.0
141
12.0
290
     0
  0
SCALE
  5
52
102
{ACAD_REACTORS
330
42
102
}
330
42
100
AcDbScale
 70
     0
300
6" = 1'-0"
140
6.0
141
12.0
290
     0
  0
SCALE
  5
53
102
{ACAD_REACTORS
330
42
102
}
330
42
100
AcDbScale
 70
     0
300
1'-0" = 1'-0"
140
12.0
141
12.0
290
     0
  0
ACDBSECTIONVIEWSTYLE
  5
69
102
{ACAD_REACTORS
330
68
102
}
330
68
100
AcDbModelDocViewStyle
 70
     0
  3
Imperial24
290
     1
300
Imperial24
 90
        0
100
AcDbSectionViewStyle
 70
     0
 71
     0
 90
       78
 71
     1
340
55
 62
   256
 40
0.24
340
0
340
0
 62
   256
 40
0.24
300
I, O, Q, S, X, Z
 40
0.48
 90
        3
 40
0.18
 90
        1
 71
     2
340
5D
 90
       25
 62
   256
340
5D
 90
       50
 62
   256
 40
0.24
 40
0.0
 40
0.24
 71
     3
340
55
 62
   256
 40
0.24
 90
        1
 40
0.75
 90
        1
300
%<\AcVar ViewType \f "%tc1">% %<\AcVar ViewSectionStartId>%-%<\AcVar ViewSectionEndId>%\PSCALE %<\AcVar ViewScale \f "%sn">%
 71
     4
 62
   256
 62
   257
300
ANSI31
 40
1.0
 90
        0
290
     0
290
     0
 90
        6
 40
0.0
 40
1.570796326794896
 40
0.2617993877991494
 40
1.308996938995747
 40
-0.2617993877991494
 40
1.832595714594046
  0
TABLESTYLE
  5
65
102
{ACAD_XDICTIONARY
360
176
102
}
102
{ACAD_REACTORS
330
64
102
}
330
64
100
AcDbTableStyle
280
     0
  3
Standard
 70
     0
 71
     0
 40
0.06
 41
0.06
280
     0
281
     0
  7
Standard
140
0.18
170
     2
 62
     0
 63
     7
283
     0
 90
      512
 91
        0
  1

274
    -2
284
     1
 64
     0
275
    -2
285
     1
 65
     0
276
    -2
286
     1
 66
     0
277
    -2
287
     1
 67
     0
278
    -2
288
     1
 68
     0
279
    -2
289
     1
 69
     0
  7
Standard
140
0.25
170
     5
 62
     0
 63
     7
283
     0
 90
      512
 91
        0
  1

274
    -2
284
     1
 64
     0
275
    -2
285
     1
 65
     0
276
    -2
286
     1
 66
     0
277
    -2
287
     1
 67
     0
278
    -2
288
     1
 68
     0
279
    -2
289
     1
 69
     0
  7
Standard
140
0.18
170
     5
 62
     0
 63
     7
283
     0
 90
      512
 91
        0
  1

274
    -2
284
     1
 64
     0
275
    -2
285
     1
 65
     0
276
    -2
286
     1
 66
     0
277
    -2
287
     1
 67
     0
278
    -2
288
     1
 68
     0
279
    -2
289
     1
 69
     0
  0
VISUALSTYLE
  5
2F
102
{ACAD_REACTORS
330
29
102
}
330
29
100
AcDbVisualStyle
  2
2dWireframe
 70
     4
177
     3
291
     0
 70
    58
 90
        0
176
     1
 90
        2
176
     1
 90
        0
176
     1
 90
        0
176
     1
 40
0.6
176
     1
 40
30.0
176
     1
 62
     7
420
 16777215
176
     1
 90
        1
176
     1
 90
        4
176
     1
 62
     7
176
     1
 62
   257
176
     1
 90
        1
176
     1
 90
        1
176
     1
 40
1.0
176
     1
 90
        0
176
     1
 62
   257
176
     1
 40
1.0
176
     1
 90
        1
176
     1
 90
        6
176
     1
 90
        2
176
     1
 62
     7
176
     1
 90
        5
176
     1
 90
        0
176
     1
 90
        0
176
     1
290
     0
176
     1
 90
        1
176
     1
 40
0.0
176
     1
 90
        0
176
     1
290
     1
176
     1
290
     1
176
     1
290
     0
176
     1
290
     0
176
     1
290
     0
176
     1
290
     0
176
     1
290
     0
176
     1
290
     0
176
     1
290
     0
176
     1
 90
       50
176
     1
 40
0.0
176
     1
 40
1.0
176
     1
 90
        0
176
     1
 62
    18
420
        0
176
     1
 90
       50
176
     1
 90
        3
176
     1
 62
     5
420
      255
176
     1
290
     0
176
     1
 90
       50
176
     1
 90
       50
176
     1
 90
       50
176
     1
290
     0
176
     1
 90
       50
176
     1
 62
   256
176
     0
 40
1.0
176
     0
 90
        2
176
     1
  1
strokes_ogs.tif
176
     1
290
     0
176
     1
 40
1.0
176
     1
 40
1.0
176
     1
  0
VISUALSTYLE
  5
2E
102
{ACAD_REACTORS
330
29
102
}
330
29
100
AcDbVisualStyle
  2
Basic
 70
     7
177
     3
291
     1
 70
    58
 90
        1
176
     1
 90
        0
176
     1
 90
        1
176
     1
 90
        0
176
     1
 40
0.6
176
     1
 40
30.0
176
     1
 62
     7
420
 16777215
176
     1
 90
        0
176
     1
 90
        4
176
     1
 62
     7
176
     1
 62
   257
176
     1
 90
        1
176
     1
 90
        1
176
     1
 40
1.0
176
     1
 90
        8
176
     1
 62
     7
176
     1
 40
1.0
176
     1
 90
        1
176
     1
 90
        6
176
     1
 90
        2
176
     1
 62
     7
176
     1
 90
        5
176
     1
 90
        0
176
     1
 90
        0
176
     1
290
     0
176
     1
 90
        1
176
     1
 40
0.0
176
     1
 90
        0
176
     1
290
     0
176
     1
290
     1
176
     1
290
     1
176
     1
290
     0
176
     1
290
     0
176
     1
290
     0
176
     1
290
     0
176
     1
290
     0
176
     1
290
     0
176
     1
 90
       50
176
     1
 40
0.0
176
     1
 40
1.0
176
     1
 90
        0
176
     1
 62
    18
420
        0
176
     1
 90
       50
176
     1
 90
        3
176
     1
 62
     5
420
      255
176
     1
290
     0
176
     1
 90
       50
176
     1
 90
       50
176
     1
 90
       50
176
     1
290
     0
176
     1
 90
       50
176
     1
 62
   256
176
     0
 40
1.0
176
     0
 90
        2
176
     1
  1
strokes_ogs.tif
176
     1
290
     0
176
     1
 40
1.0
176
     1
 40
1.0
176
     1
  0
VISUALSTYLE
  5
35
102
{ACAD_REACTORS
330
29
102
}
330
29
100
AcDbVisualStyle
  2
Brighten
 70
    12
177
     3
291
     1
 70
    58
 90
        2
176
     1
 90
        2
176
     1
 90
        0
176
     1
 90
        0
176
     1
 40
0.6
176
     1
 40
30.0
176
     1
 62
     7
420
 16777215
176
     1
 90
        1
176
     1
 90
        4
176
     1
 62
     7
176
     1
 62
   257
176
     1
 90
        1
176
     1
 90
        1
176
     1
 40
1.0
176
     1
 90
        8
176
     1
 62
     7
176
     1
 40
1.0
176
     1
 90
        1
176
     1
 90
        6
176
     1
 90
        2
176
     1
 62
     7
176
     1
 90
        5
176
     1
 90
        0
176
     1
 90
        0
176
     1
290
     0
176
     1
 90
        1
176
     1
 40
50.0
176
     1
 90
        0
176
     1
290
     0
176
     1
290
     1
176
     1
290
     1
176
     1
290
     0
176
     1
290
     0
176
     1
290
     0
176
     1
290
     0
176
     1
290
     0
176
     1
290
     0
176
     1
 90
       50
176
     1
 40
0.0
176
     1
 40
1.0
176
     1
 90
        0
176
     1
 62
    18
420
        0
176
     1
 90
       50
176
     1
 90
        3
176
     1
 62
     5
420
      255
176
     1
290
     0
176
     1
 90
       50
176
     1
 90
       50
176
     1
 90
       50
176
     1
290
     0
176
     1
 90
       50
176
     1
 62
   256
176
     0
 40
1.0
176
     0
 90
        2
176
     1
  1
strokes_ogs.tif
176
     1
290
     0
176
     1
 40
1.0
176
     1
 40
1.0
176
     1
  0
VISUALSTYLE
  5
39
102
{ACAD_REACTORS
330
29
102
}
330
29
100
AcDbVisualStyle
  2
ColorChange
 70
    16
177
     3
291
     1
 70
    58
 90
        2
176
     1
 90
        2
176
     1
 90
        3
176
     1
 90
        0
176
     1
 40
0.6
176
     1
 40
30.0
176
     1
 62
     8
420
  8421504
176
     1
 90
        1
176
     1
 90
        4
176
     1
 62
     7
176
     1
 62
   257
176
     1
 90
        1
176
     1
 90
        1
176
     1
 40
1.0
176
     1
 90
        8
176
     1
 62
     8
420
  8421504
176
     1
 40
1.0
176
     1
 90
        1
176
     1
 90
        6
176
     1
 90
        2
176
     1
 62
     7
176
     1
 90
        5
176
     1
 90
        0
176
     1
 90
        0
176
     1
290
     0
176
     1
 90
        1
176
     1
 40
0.0
176
     1
 90
        0
176
     1
290
     0
176
     1
290
     1
176
     1
290
     1
176
     1
290
     0
176
     1
290
     0
176
     1
290
     0
176
     1
290
     0
176
     1
290
     0
176
     1
290
     0
176
     1
 90
       50
176
     1
 40
0.0
176
     1
 40
1.0
176
     1
 90
        0
176
     1
 62
    18
420
        0
176
     1
 90
       50
176
     1
 90
        3
176
     1
 62
     5
420
      255
176
     1
290
     0
176
     1
 90
       50
176
     1
 90
       50
176
     1
 90
       50
176
     1
290
     0
176
     1
 90
       50
176
     1
 62
   256
176
     0
 40
1.0
176
     0
 90
        2
176
     1
  1
strokes_ogs.tif
176
     1
290
     0
176
     1
 40
1.0
176
     1
 40
1.0
176
     1
  0
VISUALSTYLE
  5
32
102
{ACAD_REACTORS
330
29
102
}
330
29
100
AcDbVisualStyle
  2
Conceptual
 70
     9
177
     3
291
     0
 70
    58
 90
        3
176
     1
 90
        2
176
     1
 90
        0
176
     1
 90
        0
176
     1
 40
0.6
176
     1
 40
30.0
176
     1
 62
     7
420
 16777215
176
     1
 90
        2
176
     1
 90
        2
176
     1
 62
     7
176
     1
 62
   257
176
     1
 90
        1
176
     1
 90
        1
176
     1
 40
179.0
176
     1
 90
        8
176
     1
 62
     7
176
     1
 40
1.0
176
     1
 90
        1
176
     1
 90
        6
176
     1
 90
        2
176
     1
 62
     7
176
     1
 90
        3
176
     1
 90
        0
176
     1
 90
        0
176
     1
290
     0
176
     1
 90
        1
176
     1
 40
0.0
176
     1
 90
        0
176
     1
290
     0
176
     1
290
     1
176
     1
290
     1
176
     1
290
     0
176
     1
290
     0
176
     1
290
     0
176
     1
290
     0
176
     1
290
     0
176
     1
290
     0
176
     1
 90
       50
176
     1
 40
0.0
176
     1
 40
1.0
176
     1
 90
        0
176
     1
 62
    18
420
        0
176
     1
 90
       50
176
     1
 90
        3
176
     1
 62
     5
420
      255
176
     1
290
     0
176
     1
 90
       50
176
     1
 90
       50
176
     1
 90
       50
176
     1
290
     0
176
     1
 90
       50
176
     1
 62
   256
176
     0
 40
1.0
176
     0
 90
        2
176
     1
  1
strokes_ogs.tif
176
     1
290
     0
176
     1
 40
1.0
176
     1
 40
1.0
176
     1
  0
VISUALSTYLE
  5
34
102
{ACAD_REACTORS
330
29
102
}
330
29
100
AcDbVisualStyle
  2
Dim
 70
    11
177
     3
291
     1
 70
    58
 90
        2
176
     1
 90
        2
176
     1
 90
        0
176
     1
 90
        0
176
     1
 40
0.6
176
     1
 40
30.0
176
     1
 62
     7
420
 16777215
176
     1
 90
        1
176
     1
 90
        4
176
     1
 62
     7
176
     1
 62
   257
176
     1
 90
        1
176
     1
 90
        1
176
     1
 40
1.0
176
     1
 90
        8
176
     1
 62
     7
176
     1
 40
1.0
176
     1
 90
        1
176
     1
 90
        6
176
     1
 90
        2
176
     1
 62
     7
176
     1
 90
        5
176
     1
 90
        0
176
     1
 90
        0
176
     1
290
     0
176
     1
 90
        1
176
     1
 40
-50.0
176
     1
 90
        0
176
     1
290
     0
176
     1
290
     1
176
     1
290
     1
176
     1
290
     0
176
     1
290
     0
176
     1
290
     0
176
     1
290
     0
176
     1
290
     0
176
     1
290
     0
176
     1
 90
       50
176
     1
 40
0.0
176
     1
 40
1.0
176
     1
 90
        0
176
     1
 62
    18
420
        0
176
     1
 90
       50
176
     1
 90
        3
176
     1
 62
     5
420
      255
176
     1
290
     0
176
     1
 90
       50
176
     1
 90
       50
176
     1
 90
       50
176
     1
290
     0
176
     1
 90
       50
176
     1
 62
   256
176
     0
 40
1.0
176
     0
 90
        2
176
     1
  1
strokes_ogs.tif
176
     1
290
     0
176
     1
 40
1.0
176
     1
 40
1.0
176
     1
  0
VISUALSTYLE
  5
41
102
{ACAD_REACTORS
330
29
102
}
330
29
100
AcDbVisualStyle
  2
EdgeColorOff
 70
    22
177
     3
291
     1
 70
    58
 90
        2
176
     0
 90
        2
176
     0
 90
        0
176
     0
 90
        0
176
     0
 40
0.6
176
     0
 40
30.0
176
     0
 62
     7
420
 16777215
176
     0
 90
        1
176
     0
 90
        4
176
     0
 62
     7
176
     0
 62
   257
176
     0
 90
        1
176
     0
 90
        1
176
     0
 40
1.0
176
     0
 90
        8
176
     2
 62
     7
176
     0
 40
1.0
176
     0
 90
        1
176
     0
 90
        6
176
     0
 90
        2
176
     0
 62
     7
176
     0
 90
        5
176
     0
 90
        0
176
     0
 90
        0
176
     0
290
     0
176
     0
 90
        1
176
     0
 40
0.0
176
     0
 90
        0
176
     0
290
     0
176
     0
290
     1
176
     0
290
     1
176
     0
290
     0
176
     0
290
     0
176
     0
290
     0
176
     0
290
     0
176
     0
290
     0
176
     0
290
     0
176
     0
 90
       50
176
     0
 40
0.0
176
     0
 40
1.0
176
     0
 90
        0
176
     0
 62
    18
420
        0
176
     0
 90
       50
176
     0
 90
        3
176
     0
 62
     5
420
      255
176
     0
290
     0
176
     0
 90
       50
176
     0
 90
       50
176
     0
 90
       50
176
     0
290
     0
176
     0
 90
       50
176
     0
 62
   256
176
     0
 40
1.0
176
     0
 90
        2
176
     0
  1
strokes_ogs.tif
176
     0
290
     0
176
     0
 40
1.0
176
     0
 40
1.0
176
     0
  0
VISUALSTYLE
  5
38
102
{ACAD_REACTORS
330
29
102
}
330
29
100
AcDbVisualStyle
  2
Facepattern
 70
    15
177
     3
291
     1
 70
    58
 90
        2
176
     1
 90
        2
176
     1
 90
        0
176
     1
 90
        0
176
     1
 40
0.6
176
     1
 40
30.0
176
     1
 62
     7
420
 16777215
176
     1
 90
        1
176
     1
 90
        4
176
     1
 62
     7
176
     1
 62
   257
176
     1
 90
        1
176
     1
 90
        1
176
     1
 40
1.0
176
     1
 90
        8
176
     1
 62
     7
176
     1
 40
1.0
176
     1
 90
        1
176
     1
 90
        6
176
     1
 90
        2
176
     1
 62
     7
176
     1
 90
        5
176
     1
 90
        0
176
     1
 90
        0
176
     1
290
     0
176
     1
 90
        1
176
     1
 40
0.0
176
     1
 90
        0
176
     1
290
     0
176
     1
290
     1
176
     1
290
     1
176
     1
290
     0
176
     1
290
     0
176
     1
290
     0
176
     1
290
     0
176
     1
290
     0
176
     1
290
     0
176
     1
 90
       50
176
     1
 40
0.0
176
     1
 40
1.0
176
     1
 90
        0
176
     1
 62
    18
420
        0
176
     1
 90
       50
176
     1
 90
        3
176
     1
 62
     5
420
      255
176
     1
290
     0
176
     1
 90
       50
176
     1
 90
       50
176
     1
 90
       50
176
     1
290
     0
176
     1
 90
       50
176
     1
 62
   256
176
     0
 40
1.0
176
     0
 90
        2
176
     1
  1
strokes_ogs.tif
176
     1
290
     0
176
     1
 40
1.0
176
     1
 40
1.0
176
     1
  0
VISUALSTYLE
  5
2A
102
{ACAD_REACTORS
330
29
102
}
330
29
100
AcDbVisualStyle
  2
Flat
 70
     0
177
     3
291
     1
 70
    58
 90
        2
176
     1
 90
        1
176
     1
 90
        1
176
     1
 90
        2
176
     1
 40
0.6
176
     1
 40
30.0
176
     1
 62
     7
420
 16777215
176
     1
 90
        0
176
     1
 90
        0
176
     1
 62
     7
176
     1
 62
   257
176
     1
 90
        1
176
     1
 90
        1
176
     1
 40
1.0
176
     1
 90
        8
176
     1
 62
     7
176
     1
 40
1.0
176
     1
 90
        1
176
     1
 90
        6
176
     1
 90
        2
176
     1
 62
     7
176
     1
 90
        5
176
     1
 90
        0
176
     1
 90
        0
176
     1
290
     0
176
     1
 90
       13
176
     1
 40
0.0
176
     1
 90
        0
176
     1
290
     0
176
     1
290
     1
176
     1
290
     1
176
     1
290
     0
176
     1
290
     0
176
     1
290
     0
176
     1
290
     0
176
     1
290
     0
176
     1
290
     0
176
     1
 90
       50
176
     1
 40
0.0
176
     1
 40
1.0
176
     1
 90
        0
176
     1
 62
    18
420
        0
176
     1
 90
       50
176
     1
 90
        3
176
     1
 62
     5
420
      255
176
     1
290
     0
176
     1
 90
       50
176
     1
 90
       50
176
     1
 90
       50
176
     1
290
     0
176
     1
 90
       50
176
     1
 62
   256
176
     0
 40
1.0
176
     0
 90
        2
176
     1
  1
strokes_ogs.tif
176
     1
290
     0
176
     1
 40
1.0
176
     1
 40
1.0
176
     1
  0
VISUALSTYLE
  5
2B
102
{ACAD_REACTORS
330
29
102
}
330
29
100
AcDbVisualStyle
  2
FlatWithEdges
 70
     1
177
     3
291
     1
 70
    58
 90
        2
176
     1
 90
        1
176
     1
 90
        1
176
     1
 90
        2
176
     1
 40
0.6
176
     1
 40
30.0
176
     1
 62
     7
420
 16777215
176
     1
 90
        1
176
     1
 90
        0
176
     1
 62
     7
176
     1
 62
   257
176
     1
 90
        1
176
     1
 90
        1
176
     1
 40
1.0
176
     1
 90
        0
176
     1
 62
   257
176
     1
 40
1.0
176
     1
 90
        1
176
     1
 90
        6
176
     1
 90
        2
176
     1
 62
     7
176
     1
 90
        5
176
     1
 90
        0
176
     1
 90
        0
176
     1
290
     0
176
     1
 90
       13
176
     1
 40
0.0
176
     1
 90
        0
176
     1
290
     0
176
     1
290
     1
176
     1
290
     1
176
     1
290
     0
176
     1
290
     0
176
     1
290
     0
176
     1
290
     0
176
     1
290
     0
176
     1
290
     0
176
     1
 90
       50
176
     1
 40
0.0
176
     1
 40
1.0
176
     1
 90
        0
176
     1
 62
    18
420
        0
176
     1
 90
       50
176
     1
 90
        3
176
     1
 62
     5
420
      255
176
     1
290
     0
176
     1
 90
       50
176
     1
 90
       50
176
     1
 90
       50
176
     1
290
     0
176
     1
 90
       50
176
     1
 62
   256
176
     0
 40
1.0
176
     0
 90
        2
176
     1
  1
strokes_ogs.tif
176
     1
290
     0
176
     1
 40
1.0
176
     1
 40
1.0
176
     1
  0
VISUALSTYLE
  5
2C
102
{ACAD_REACTORS
330
29
102
}
330
29
100
AcDbVisualStyle
  2
Gouraud
 70
     2
177
     3
291
     1
 70
    58
 90
        2
176
     1
 90
        2
176
     1
 90
        1
176
     1
 90
        2
176
     1
 40
0.6
176
     1
 40
30.0
176
     1
 62
     7
420
 16777215
176
     1
 90
        0
176
     1
 90
        0
176
     1
 62
     7
176
     1
 62
   257
176
     1
 90
        1
176
     1
 90
        1
176
     1
 40
1.0
176
     1
 90
        0
176
     1
 62
     7
176
     1
 40
1.0
176
     1
 90
        1
176
     1
 90
        6
176
     1
 90
        2
176
     1
 62
     7
176
     1
 90
        5
176
     1
 90
        0
176
     1
 90
        0
176
     1
290
     0
176
     1
 90
       13
176
     1
 40
0.0
176
     1
 90
        0
176
     1
290
     0
176
     1
290
     1
176
     1
290
     1
176
     1
290
     0
176
     1
290
     0
176
     1
290
     0
176
     1
290
     0
176
     1
290
     0
176
     1
290
     0
176
     1
 90
       50
176
     1
 40
0.0
176
     1
 40
1.0
176
     1
 90
        0
176
     1
 62
    18
420
        0
176
     1
 90
       50
176
     1
 90
        3
176
     1
 62
     5
420
      255
176
     1
290
     0
176
     1
 90
       50
176
     1
 90
       50
176
     1
 90
       50
176
     1
290
     0
176
     1
 90
       50
176
     1
 62
   256
176
     0
 40
1.0
176
     0
 90
        2
176
     1
  1
strokes_ogs.tif
176
     1
290
     0
176
     1
 40
1.0
176
     1
 40
1.0
176
     1
  0
VISUALSTYLE
  5
2D
102
{ACAD_REACTORS
330
29
102
}
330
29
100
AcDbVisualStyle
  2
GouraudWithEdges
 70
     3
177
     3
291
     1
 70
    58
 90
        2
176
     1
 90
        2
176
     1
 90
        1
176
     1
 90
        2
176
     1
 40
0.6
176
     1
 40
30.0
176
     1
 62
     7
420
 16777215
176
     1
 90
        1
176
     1
 90
        0
176
     1
 62
     7
176
     1
 62
   257
176
     1
 90
        1
176
     1
 90
        1
176
     1
 40
1.0
176
     1
 90
        0
176
     1
 62
   257
176
     1
 40
1.0
176
     1
 90
        1
176
     1
 90
        6
176
     1
 90
        2
176
     1
 62
     7
176
     1
 90
        5
176
     1
 90
        0
176
     1
 90
        0
176
     1
290
     0
176
     1
 90
       13
176
     1
 40
0.0
176
     1
 90
        0
176
     1
290
     0
176
     1
290
     1
176
     1
290
     1
176
     1
290
     0
176
     1
290
     0
176
     1
290
     0
176
     1
290
     0
176
     1
290
     0
176
     1
290
     0
176
     1
 90
       50
176
     1
 40
0.0
176
     1
 40
1.0
176
     1
 90
        0
176
     1
 62
    18
420
        0
176
     1
 90
       50
176
     1
 90
        3
176
     1
 62
     5
420
      255
176
     1
290
     0
176
     1
 90
       50
176
     1
 90
       50
176
     1
 90
       50
176
     1
290
     0
176
     1
 90
       50
176
     1
 62
   256
176
     0
 40
1.0
176
     0
 90
        2
176
     1
  1
strokes_ogs.tif
176
     1
290
     0
176
     1
 40
1.0
176
     1
 40
1.0
176
     1
  0
VISUALSTYLE
  5
31
102
{ACAD_REACTORS
330
29
102
}
330
29
100
AcDbVisualStyle
  2
Hidden
 70
     6
177
     3
291
     0
 70
    58
 90
        1
176
     1
 90
        2
176
     1
 90
        2
176
     1
 90
        0
176
     1
 40
0.6
176
     1
 40
30.0
176
     1
 62
     7
420
 16777215
176
     1
 90
        2
176
     1
 90
        2
176
     1
 62
     7
176
     1
 62
   257
176
     1
 90
        2
176
     1
 90
        1
176
     1
 40
40.0
176
     1
 90
        0
176
     1
 62
   257
176
     1
 40
1.0
176
     1
 90
        1
176
     1
 90
        6
176
     1
 90
        2
176
     1
 62
     7
176
     1
 90
        3
176
     1
 90
        0
176
     1
 90
        0
176
     1
290
     0
176
     1
 90
        1
176
     1
 40
0.0
176
     1
 90
        0
176
     1
290
     0
176
     1
290
     1
176
     1
290
     1
176
     1
290
     0
176
     1
290
     0
176
     1
290
     0
176
     1
290
     0
176
     1
290
     0
176
     1
290
     0
176
     1
 90
       50
176
     1
 40
0.0
176
     1
 40
1.0
176
     1
 90
        0
176
     1
 62
    18
420
        0
176
     1
 90
       50
176
     1
 90
        3
176
     1
 62
     5
420
      255
176
     1
290
     0
176
     1
 90
       50
176
     1
 90
       50
176
     1
 90
       50
176
     1
290
     0
176
     1
 90
       50
176
     1
 62
   256
176
     0
 40
1.0
176
     0
 90
        2
176
     1
  1
strokes_ogs.tif
176
     1
290
     0
176
     1
 40
1.0
176
     1
 40
1.0
176
     1
  0
VISUALSTYLE
  5
3F
102
{ACAD_REACTORS
330
29
102
}
330
29
100
AcDbVisualStyle
  2
JitterOff
 70
    20
177
     3
291
     1
 70
    58
 90
        2
176
     0
 90
        2
176
     0
 90
        0
176
     0
 90
        0
176
     0
 40
0.6
176
     0
 40
30.0
176
     0
 62
     7
420
 16777215
176
     0
 90
        1
176
     0
 90
        4
176
     0
 62
     7
176
     0
 62
   257
176
     0
 90
        1
176
     0
 90
        1
176
     0
 40
1.0
176
     0
 90
       10
176
     2
 62
     7
176
     0
 40
1.0
176
     0
 90
        1
176
     0
 90
        6
176
     0
 90
        2
176
     0
 62
     7
176
     0
 90
        5
176
     0
 90
        0
176
     0
 90
        0
176
     0
290
     0
176
     0
 90
        1
176
     0
 40
0.0
176
     0
 90
        0
176
     0
290
     0
176
     0
290
     1
176
     0
290
     1
176
     0
290
     0
176
     0
290
     0
176
     0
290
     0
176
     0
290
     0
176
     0
290
     0
176
     0
290
     0
176
     0
 90
       50
176
     0
 40
0.0
176
     0
 40
1.0
176
     0
 90
        0
176
     0
 62
    18
420
        0
176
     0
 90
       50
176
     0
 90
        3
176
     0
 62
     5
420
      255
176
     0
290
     0
176
     0
 90
       50
176
     0
 90
       50
176
     0
 90
       50
176
     0
290
     0
176
     0
 90
       50
176
     0
 62
   256
176
     0
 40
1.0
176
     0
 90
        2
176
     0
  1
strokes_ogs.tif
176
     0
290
     0
176
     0
 40
1.0
176
     0
 40
1.0
176
     0
  0
VISUALSTYLE
  5
37
102
{ACAD_REACTORS
330
29
102
}
330
29
100
AcDbVisualStyle
  2
Linepattern
 70
    14
177
     3
291
     1
 70
    58
 90
        2
176
     1
 90
        2
176
     1
 90
        0
176
     1
 90
        0
176
     1
 40
0.6
176
     1
 40
30.0
176
     1
 62
     7
420
 16777215
176
     1
 90
        1
176
     1
 90
        4
176
     1
 62
     7
176
     1
 62
   257
176
     1
 90
        7
176
     1
 90
        7
176
     1
 40
1.0
176
     1
 90
        8
176
     1
 62
     7
176
     1
 40
1.0
176
     1
 90
        1
176
     1
 90
        6
176
     1
 90
        2
176
     1
 62
     7
176
     1
 90
        5
176
     1
 90
        0
176
     1
 90
        0
176
     1
290
     0
176
     1
 90
        1
176
     1
 40
0.0
176
     1
 90
        0
176
     1
290
     0
176
     1
290
     1
176
     1
290
     1
176
     1
290
     0
176
     1
290
     0
176
     1
290
     0
176
     1
290
     0
176
     1
290
     0
176
     1
290
     0
176
     1
 90
       50
176
     1
 40
0.0
176
     1
 40
1.0
176
     1
 90
        0
176
     1
 62
    18
420
        0
176
     1
 90
       50
176
     1
 90
        3
176
     1
 62
     5
420
      255
176
     1
290
     0
176
     1
 90
       50
176
     1
 90
       50
176
     1
 90
       50
176
     1
290
     0
176
     1
 90
       50
176
     1
 62
   256
176
     0
 40
1.0
176
     0
 90
        2
176
     1
  1
strokes_ogs.tif
176
     1
290
     0
176
     1
 40
1.0
176
     1
 40
1.0
176
     1
  0
VISUALSTYLE
  5
40
102
{ACAD_REACTORS
330
29
102
}
330
29
100
AcDbVisualStyle
  2
OverhangOff
 70
    21
177
     3
291
     1
 70
    58
 90
        2
176
     0
 90
        2
176
     0
 90
        0
176
     0
 90
        0
176
     0
 40
0.6
176
     0
 40
30.0
176
     0
 62
     7
420
 16777215
176
     0
 90
        1
176
     0
 90
        4
176
     0
 62
     7
176
     0
 62
   257
176
     0
 90
        1
176
     0
 90
        1
176
     0
 40
1.0
176
     0
 90
        9
176
     2
 62
     7
176
     0
 40
1.0
176
     0
 90
        1
176
     0
 90
        6
176
     0
 90
        2
176
     0
 62
     7
176
     0
 90
        5
176
     0
 90
        0
176
     0
 90
        0
176
     0
290
     0
176
     0
 90
        1
176
     0
 40
0.0
176
     0
 90
        0
176
     0
290
     0
176
     0
290
     1
176
     0
290
     1
176
     0
290
     0
176
     0
290
     0
176
     0
290
     0
176
     0
290
     0
176
     0
290
     0
176
     0
290
     0
176
     0
 90
       50
176
     0
 40
0.0
176
     0
 40
1.0
176
     0
 90
        0
176
     0
 62
    18
420
        0
176
     0
 90
       50
176
     0
 90
        3
176
     0
 62
     5
420
      255
176
     0
290
     0
176
     0
 90
       50
176
     0
 90
       50
176
     0
 90
       50
176
     0
290
     0
176
     0
 90
       50
176
     0
 62
   256
176
     0
 40
1.0
176
     0
 90
        2
176
     0
  1
strokes_ogs.tif
176
     0
290
     0
176
     0
 40
1.0
176
     0
 40
1.0
176
     0
  0
VISUALSTYLE
  5
33
102
{ACAD_REACTORS
330
29
102
}
330
29
100
AcDbVisualStyle
  2
Realistic
 70
     8
177
     3
291
     0
 70
    58
 90
        2
176
     1
 90
        3
176
     1
 90
        0
176
     1
 90
        2
176
     1
 40
0.6
176
     1
 40
30.0
176
     1
 62
     7
420
 16777215
176
     1
 90
        0
176
     1
 90
        0
176
     1
 62
     7
176
     1
 62
   257
176
     1
 90
        1
176
     1
 90
        1
176
     1
 40
1.0
176
     1
 90
        8
176
     1
 62
   257
176
     1
 40
1.0
176
     1
 90
        1
176
     1
 90
        6
176
     1
 90
        2
176
     1
 62
     7
176
     1
 90
        3
176
     1
 90
        0
176
     1
 90
        0
176
     1
290
     0
176
     1
 90
       13
176
     1
 40
0.0
176
     1
 90
        0
176
     1
290
     0
176
     1
290
     1
176
     1
290
     1
176
     1
290
     0
176
     1
290
     0
176
     1
290
     0
176
     1
290
     0
176
     1
290
     0
176
     1
290
     0
176
     1
 90
       50
176
     1
 40
0.0
176
     1
 40
1.0
176
     1
 90
        0
176
     1
 62
    18
420
        0
176
     1
 90
       50
176
     1
 90
        3
176
     1
 62
     5
420
      255
176
     1
290
     0
176
     1
 90
       50
176
     1
 90
       50
176
     1
 90
       50
176
     1
290
     0
176
     1
 90
       50
176
     1
 62
   256
176
     0
 40
1.0
176
     0
 90
        2
176
     1
  1
strokes_ogs.tif
176
     1
290
     0
176
     1
 40
1.0
176
     1
 40
1.0
176
     1
  0
VISUALSTYLE
  5
3E
102
{ACAD_REACTORS
330
29
102
}
330
29
100
AcDbVisualStyle
  2
Shaded
 70
    27
177
     3
291
     0
 70
    58
 90
        2
176
     1
 90
        2
176
     1
 90
        1
176
     1
 90
        2
176
     1
 40
0.6
176
     1
 40
30.0
176
     1
 62
     7
420
 16777215
176
     1
 90
        0
176
     1
 90
        4
176
     1
 62
     7
176
     1
 62
   257
176
     1
 90
        1
176
     1
 90
        1
176
     1
 40
1.0
176
     1
 90
        8
176
     1
 62
   257
176
     1
 40
1.0
176
     1
 90
        1
176
     1
 90
        6
176
     1
 90
        2
176
     1
 62
     8
420
  7895160
176
     1
 90
        3
176
     1
 90
        0
176
     1
 90
        0
176
     1
290
     0
176
     1
 90
        5
176
     1
 40
0.0
176
     1
 90
        0
176
     1
290
     0
176
     1
290
     1
176
     1
290
     1
176
     1
290
     0
176
     1
290
     0
176
     1
290
     0
176
     1
290
     0
176
     1
290
     0
176
     1
290
     0
176
     1
 90
       50
176
     1
 40
0.0
176
     1
 40
1.0
176
     1
 90
        0
176
     1
 62
    18
420
        0
176
     1
 90
       50
176
     1
 90
        3
176
     1
 62
     5
420
      255
176
     1
290
     0
176
     1
 90
       50
176
     1
 90
       50
176
     1
 90
       50
176
     1
290
     0
176
     1
 90
       50
176
     1
 62
   256
176
     0
 40
1.0
176
     0
 90
        2
176
     1
  1
strokes_ogs.tif
176
     1
290
     0
176
     1
 40
1.0
176
     1
 40
1.0
176
     1
  0
VISUALSTYLE
  5
3D
102
{ACAD_REACTORS
330
29
102
}
330
29
100
AcDbVisualStyle
  2
Shaded with edges
 70
    26
177
     3
291
     0
 70
    58
 90
        2
176
     1
 90
        2
176
     1
 90
        1
176
     1
 90
        2
176
     1
 40
0.6
176
     1
 40
30.0
176
     1
 62
     7
420
 16777215
176
     1
 90
        1
176
     1
 90
        2
176
     1
 62
     7
176
     1
 62
   257
176
     1
 90
        2
176
     1
 90
        1
176
     1
 40
1.0
176
     1
 90
        8
176
     1
 62
   257
176
     1
 40
1.0
176
     1
 90
        1
176
     1
 90
        6
176
     1
 90
        2
176
     1
 62
     7
176
     1
 90
        3
176
     1
 90
        0
176
     1
 90
        0
176
     1
290
     0
176
     1
 90
        5
176
     1
 40
0.0
176
     1
 90
        0
176
     1
290
     0
176
     1
290
     1
176
     1
290
     1
176
     1
290
     0
176
     1
290
     0
176
     1
290
     0
176
     1
290
     0
176
     1
290
     0
176
     1
290
     0
176
     1
 90
       50
176
     1
 40
0.0
176
     1
 40
1.0
176
     1
 90
        0
176
     1
 62
    18
420
        0
176
     1
 90
       50
176
     1
 90
        3
176
     1
 62
     5
420
      255
176
     1
290
     0
176
     1
 90
       50
176
     1
 90
       50
176
     1
 90
       50
176
     1
290
     0
176
     1
 90
       50
176
     1
 62
   256
176
     0
 40
1.0
176
     0
 90
        2
176
     1
  1
strokes_ogs.tif
176
     1
290
     0
176
     1
 40
1.0
176
     1
 40
1.0
176
     1
  0
VISUALSTYLE
  5
3A
102
{ACAD_REACTORS
330
29
102
}
330
29
100
AcDbVisualStyle
  2
Shades of Gray
 70
    23
177
     3
291
     0
 70
    58
 90
        2
176
     1
 90
        2
176
     1
 90
        3
176
     1
 90
        0
176
     1
 40
0.6
176
     1
 40
30.0
176
     1
 62
     7
420
 16777215
176
     1
 90
        2
176
     1
 90
        2
176
     1
 62
     7
176
     1
 62
     7
176
     1
 90
        1
176
     1
 90
        1
176
     1
 40
40.0
176
     1
 90
        8
176
     1
 62
     7
176
     1
 40
1.0
176
     1
 90
        1
176
     1
 90
        6
176
     1
 90
        2
176
     1
 62
     7
176
     1
 90
        3
176
     1
 90
        0
176
     1
 90
        0
176
     1
290
     0
176
     1
 90
        1
176
     1
 40
0.0
176
     1
 90
        0
176
     1
290
     0
176
     1
290
     1
176
     1
290
     1
176
     1
290
     0
176
     1
290
     0
176
     1
290
     0
176
     1
290
     0
176
     1
290
     0
176
     1
290
     0
176
     1
 90
       50
176
     1
 40
0.0
176
     1
 40
1.0
176
     1
 90
        0
176
     1
 62
    18
420
        0
176
     1
 90
       50
176
     1
 90
        3
176
     1
 62
     5
420
      255
176
     1
290
     0
176
     1
 90
       50
176
     1
 90
       50
176
     1
 90
       50
176
     1
290
     0
176
     1
 90
       50
176
     1
 62
   256
176
     0
 40
1.0
176
     0
 90
        2
176
     1
  1
strokes_ogs.tif
176
     1
290
     0
176
     1
 40
1.0
176
     1
 40
1.0
176
     1
  0
VISUALSTYLE
  5
3B
102
{ACAD_REACTORS
330
29
102
}
330
29
100
AcDbVisualStyle
  2
Sketchy
 70
    24
177
     3
291
     0
 70
    58
 90
        1
176
     1
 90
        2
176
     1
 90
        2
176
     1
 90
        0
176
     1
 40
0.6
176
     1
 40
30.0
176
     1
 62
     7
420
 16777215
176
     1
 90
        2
176
     1
 90
        2
176
     1
 62
     7
176
     1
 62
     7
176
     1
 90
        1
176
     1
 90
        1
176
     1
 40
40.0
176
     1
 90
       11
176
     1
 62
     7
176
     1
 40
1.0
176
     1
 90
        1
176
     1
 90
        6
176
     1
 90
        2
176
     1
 62
     7
176
     1
 90
        6
176
     1
 90
        0
176
     1
 90
        0
176
     1
290
     0
176
     1
 90
        1
176
     1
 40
0.0
176
     1
 90
        0
176
     1
290
     0
176
     1
290
     1
176
     1
290
     1
176
     1
290
     0
176
     1
290
     0
176
     1
290
     0
176
     1
290
     0
176
     1
290
     0
176
     1
290
     0
176
     1
 90
       50
176
     1
 40
0.0
176
     1
 40
1.0
176
     1
 90
        0
176
     1
 62
    18
420
        0
176
     1
 90
       50
176
     1
 90
        3
176
     1
 62
     5
420
      255
176
     1
290
     0
176
     1
 90
       50
176
     1
 90
       50
176
     1
 90
       50
176
     1
290
     0
176
     1
 90
       50
176
     1
 62
   256
176
     0
 40
1.0
176
     0
 90
        2
176
     1
  1
strokes_ogs.tif
176
     1
290
     0
176
     1
 40
1.0
176
     1
 40
1.0
176
     1
  0
VISUALSTYLE
  5
36
102
{ACAD_REACTORS
330
29
102
}
330
29
100
AcDbVisualStyle
  2
Thicken
 70
    13
177
     3
291
     1
 70
    58
 90
        2
176
     1
 90
        2
176
     1
 90
        0
176
     1
 90
        0
176
     1
 40
0.6
176
     1
 40
30.0
176
     1
 62
     7
420
 16777215
176
     1
 90
        1
176
     1
 90
        4
176
     1
 62
     7
176
     1
 62
   257
176
     1
 90
        1
176
     1
 90
        1
176
     1
 40
1.0
176
     1
 90
       12
176
     1
 62
     7
176
     1
 40
1.0
176
     1
 90
        1
176
     1
 90
        6
176
     1
 90
        2
176
     1
 62
     7
176
     1
 90
        5
176
     1
 90
        0
176
     1
 90
        0
176
     1
290
     0
176
     1
 90
        1
176
     1
 40
0.0
176
     1
 90
        0
176
     1
290
     0
176
     1
290
     1
176
     1
290
     1
176
     1
290
     0
176
     1
290
     0
176
     1
290
     0
176
     1
290
     0
176
     1
290
     0
176
     1
290
     0
176
     1
 90
       50
176
     1
 40
0.0
176
     1
 40
1.0
176
     1
 90
        0
176
     1
 62
    18
420
        0
176
     1
 90
       50
176
     1
 90
        3
176
     1
 62
     5
420
      255
176
     1
290
     0
176
     1
 90
       50
176
     1
 90
       50
176
     1
 90
       50
176
     1
290
     0
176
     1
 90
       50
176
     1
 62
   256
176
     0
 40
1.0
176
     0
 90
        2
176
     1
  1
strokes_ogs.tif
176
     1
290
     0
176
     1
 40
1.0
176
     1
 40
1.0
176
     1
  0
VISUALSTYLE
  5
30
102
{ACAD_REACTORS
330
29
102
}
330
29
100
AcDbVisualStyle
  2
Wireframe
 70
     5
177
     3
291
     0
 70
    58
 90
        0
176
     1
 90
        2
176
     1
 90
        0
176
     1
 90
        0
176
     1
 40
0.6
176
     1
 40
30.0
176
     1
 62
     7
420
 16777215
176
     1
 90
        1
176
     1
 90
        4
176
     1
 62
     7
176
     1
 62
   257
176
     1
 90
        1
176
     1
 90
        1
176
     1
 40
1.0
176
     1
 90
        0
176
     1
 62
   257
176
     1
 40
1.0
176
     1
 90
        1
176
     1
 90
        6
176
     1
 90
        2
176
     1
 62
     7
176
     1
 90
        3
176
     1
 90
        0
176
     1
 90
        0
176
     1
290
     0
176
     1
 90
        1
176
     1
 40
0.0
176
     1
 90
        0
176
     1
290
     0
176
     1
290
     1
176
     1
290
     1
176
     1
290
     0
176
     1
290
     0
176
     1
290
     0
176
     1
290
     0
176
     1
290
     0
176
     1
290
     0
176
     1
 90
       50
176
     1
 40
0.0
176
     1
 40
1.0
176
     1
 90
        0
176
     1
 62
    18
420
        0
176
     1
 90
       50
176
     1
 90
        3
176
     1
 62
     5
420
      255
176
     1
290
     0
176
     1
 90
       50
176
     1
 90
       50
176
     1
 90
       50
176
     1
290
     0
176
     1
 90
       50
176
     1
 62
   256
176
     0
 40
1.0
176
     0
 90
        2
176
     1
  1
strokes_ogs.tif
176
     1
290
     0
176
     1
 40
1.0
176
     1
 40
1.0
176
     1
  0
VISUALSTYLE
  5
3C
102
{ACAD_REACTORS
330
29
102
}
330
29
100
AcDbVisualStyle
  2
X-Ray
 70
    25
177
     3
291
     0
 70
    58
 90
        2
176
     1
 90
        2
176
     1
 90
        1
176
     1
 90
        1
176
     1
 40
0.5
176
     1
 40
30.0
176
     1
 62
     7
420
 16777215
176
     1
 90
        1
176
     1
 90
        0
176
     1
 62
     7
176
     1
 62
   257
176
     1
 90
        1
176
     1
 90
        1
176
     1
 40
1.0
176
     1
 90
        8
176
     1
 62
     7
176
     1
 40
1.0
176
     1
 90
        1
176
     1
 90
        6
176
     1
 90
        2
176
     1
 62
     7
176
     1
 90
        3
176
     1
 90
        0
176
     1
 90
        0
176
     1
290
     0
176
     1
 90
       13
176
     1
 40
0.0
176
     1
 90
        0
176
     1
290
     0
176
     1
290
     1
176
     1
290
     1
176
     1
290
     0
176
     1
290
     0
176
     1
290
     0
176
     1
290
     0
176
     1
290
     0
176
     1
290
     0
176
     1
 90
       50
176
     1
 40
0.0
176
     1
 40
1.0
176
     1
 90
        0
176
     1
 62
    18
420
        0
176
     1
 90
       50
176
     1
 90
        3
176
     1
 62
     5
420
      255
176
     1
290
     0
176
     1
 90
       50
176
     1
 90
       50
176
     1
 90
       50
176
     1
290
     0
176
     1
 90
       50
176
     1
 62
   256
176
     0
 40
1.0
176
     0
 90
        2
176
     1
  1
strokes_ogs.tif
176
     1
290
     0
176
     1
 40
1.0
176
     1
 40
1.0
176
     1
  0
DICTIONARYVAR
  5
175
102
{ACAD_REACTORS
330
170
102
}
330
170
100
DictionaryVariables
280
     0
  1
1:1
  0
DICTIONARYVAR
  5
172
102
{ACAD_REACTORS
330
170
102
}
330
170
100
DictionaryVariables
280
     0
  1
STANDARD
  0
DICTIONARYVAR
  5
171
102
{ACAD_REACTORS
330
170
102
}
330
170
100
DictionaryVariables
280
     0
  1
STANDARD
  0
DICTIONARYVAR
  5
173
102
{ACAD_REACTORS
330
170
102
}
330
170
100
DictionaryVariables
280
     0
  1
Imperial24
  0
DICTIONARYVAR
  5
174
102
{ACAD_REACTORS
330
170
102
}
330
170
100
DictionaryVariables
280
     0
  1
Imperial24
  0
DICTIONARY
  5
1A
330
19
100
AcDbDictionary
280
     1
281
     1
  3
BUMPTILE
360
1C
  3
DIFFUSETILE
360
1B
  3
OPACITYTILE
360
1F
  3
REFLECTIONTILE
360
1E
  3
REFRACTIONTILE
360
20
  3
SPECULARTILE
360
1D
  0
DICTIONARY
  5
12
330
11
100
AcDbDictionary
280
     1
281
     1
  3
BUMPTILE
360
14
  3
DIFFUSETILE
360
13
  3
OPACITYTILE
360
17
  3
REFLECTIONTILE
360
16
  3
REFRACTIONTILE
360
18
  3
SPECULARTILE
360
15
  0
DICTIONARY
  5
22
330
21
100
AcDbDictionary
280
     1
281
     1
  3
BUMPTILE
360
24
  3
DIFFUSETILE
360
23
  3
OPACITYTILE
360
27
  3
REFLECTIONTILE
360
26
  3
REFRACTIONTILE
360
28
  3
SPECULARTILE
360
25
  0
DICTIONARY
  5
176
330
65
100
AcDbDictionary
280
     1
281
     1
  3
ACAD_ROUNDTRIP_2008_TABLESTYLE_CELLSTYLEMAP
360
177
  0
XRECORD
  5
1C
102
{ACAD_REACTORS
330
1A
102
}
330
1A
100
AcDbXrecord
280
     1
270
     1
271
     1
  0
XRECORD
  5
1B
102
{ACAD_REACTORS
330
1A
102
}
330
1A
100
AcDbXrecord
280
     1
270
     1
271
     1
  0
XRECORD
  5
1F
102
{ACAD_REACTORS
330
1A
102
}
330
1A
100
AcDbXrecord
280
     1
270
     1
271
     1
  0
XRECORD
  5
1E
102
{ACAD_REACTORS
330
1A
102
}
330
1A
100
AcDbXrecord
280
     1
270
     1
271
     1
  0
XRECORD
  5
20
102
{ACAD_REACTORS
330
1A
102
}
330
1A
100
AcDbXrecord
280
     1
270
     1
271
     1
  0
XRECORD
  5
1D
102
{ACAD_REACTORS
330
1A
102
}
330
1A
100
AcDbXrecord
280
     1
270
     1
271
     1
  0
XRECORD
  5
14
102
{ACAD_REACTORS
330
12
102
}
330
12
100
AcDbXrecord
280
     1
270
     1
271
     1
  0
XRECORD
  5
13
102
{ACAD_REACTORS
330
12
102
}
330
12
100
AcDbXrecord
280
     1
270
     1
271
     1
  0
XRECORD
  5
17
102
{ACAD_REACTORS
330
12
102
}
330
12
100
AcDbXrecord
280
     1
270
     1
271
     1
  0
XRECORD
  5
16
102
{ACAD_REACTORS
330
12
102
}
330
12
100
AcDbXrecord
280
     1
270
     1
271
     1
  0
XRECORD
  5
18
102
{ACAD_REACTORS
330
12
102
}
330
12
100
AcDbXrecord
280
     1
270
     1
271
     1
  0
XRECORD
  5
15
102
{ACAD_REACTORS
330
12
102
}
330
12
100
AcDbXrecord
280
     1
270
     1
271
     1
  0
XRECORD
  5
24
102
{ACAD_REACTORS
330
22
102
}
330
22
100
AcDbXrecord
280
     1
270
     1
271
     1
  0
XRECORD
  5
23
102
{ACAD_REACTORS
330
22
102
}
330
22
100
AcDbXrecord
280
     1
270
     1
271
     1
  0
XRECORD
  5
27
102
{ACAD_REACTORS
330
22
102
}
330
22
100
AcDbXrecord
280
     1
270
     1
271
     1
  0
XRECORD
  5
26
102
{ACAD_REACTORS
330
22
102
}
330
22
100
AcDbXrecord
280
     1
270
     1
271
     1
  0
XRECORD
  5
28
102
{ACAD_REACTORS
330
22
102
}
330
22
100
AcDbXrecord
280
     1
270
     1
271
     1
  0
XRECORD
  5
25
102
{ACAD_REACTORS
330
22
102
}
330
22
100
AcDbXrecord
280
     1
270
     1
271
     1
  0
CELLSTYLEMAP
  5
177
102
{ACAD_REACTORS
330
176
102
}
330
176
100
AcDbCellStyleMap
 90
        3
300
CELLSTYLE
  1
TABLEFORMAT_BEGIN
 90
        5
170
     1
 91
        0
 92
    32768
 62
   257
 93
        1
300
CONTENTFORMAT
  1
CONTENTFORMAT_BEGIN
 90
        0
 91
        0
 92
      512
 93
        0
300

 40
0.0
140
1.0
 94
        5
 62
     0
340
55
144
0.25
309
CONTENTFORMAT_END
171
     0
 94
        0
309
TABLEFORMAT_END
  1
CELLSTYLE_BEGIN
 90
        1
 91
        1
300
_TITLE
309
CELLSTYLE_END
300
CELLSTYLE
  1
TABLEFORMAT_BEGIN
 90
        5
170
     1
 91
        0
 92
        0
 62
   257
 93
        1
300
CONTENTFORMAT
  1
CONTENTFORMAT_BEGIN
 90
        0
 91
        0
 92
      512
 93
        0
300

 40
0.0
140
1.0
 94
        5
 62
     0
340
55
144
0.18
309
CONTENTFORMAT_END
171
     0
 94
        0
309
TABLEFORMAT_END
  1
CELLSTYLE_BEGIN
 90
        2
 91
        1
300
_HEADER
309
CELLSTYLE_END
300
CELLSTYLE
  1
TABLEFORMAT_BEGIN
 90
        5
170
     1
 91
        0
 92
        0
 62
   257
 93
        1
300
CONTENTFORMAT
  1
CONTENTFORMAT_BEGIN
 90
        0
 91
        0
 92
      512
 93
        0
300

 40
0.0
140
1.0
 94
        2
 62
     0
340
55
144
0.18
309
CONTENTFORMAT_END
171
     0
 94
        0
309
TABLEFORMAT_END
  1
CELLSTYLE_BEGIN
 90
        3
 91
        2
300
_DATA
309
CELLSTYLE_END
  0
ENDSEC
  0
EOF
