  0
SECTION
  2
HEADER
  9
$ACADVER
  1
AC1032
  9
$ACADMAINTVER
 90
      266
  9
$DWGCODEPAGE
  3
ANSI_1252
  9
$REQUIREDVERSIONS
160
                 0
  9
$INSBASE
 10
0.0
 20
0.0
 30
0.0
  9
$EXTMIN
 10
1.000000000000000E+20
 20
1.000000000000000E+20
 30
1.000000000000000E+20
  9
$EXTMAX
 10
-1.000000000000000E+20
 20
-1.000000000000000E+20
 30
-1.000000000000000E+20
  9
$LIMMIN
 10
0.0
 20
0.0
  9
$LIMMAX
 10
12.0
 20
9.0
  9
$ORTHOMODE
 70
     0
  9
$REGENMODE
 70
     1
  9
$FILLMODE
 70
     1
  9
$QTEXTMODE
 70
     0
  9
$MIRRTEXT
 70
     0
  9
$LTSCALE
 40
1.0
  9
$ATTMODE
 70
     1
  9
$TEXTSIZE
 40
0.2
  9
$TRACEWID
 40
0.05
  9
$TEXTSTYLE
  7
Standard
  9
$CLAYER
  8
0
  9
$CELTYPE
  6
ByLayer
  9
$CECOLOR
 62
   256
  9
$CELTSCALE
 40
1.0
  9
$DISPSILH
 70
     0
  9
$DIMSCALE
 40
1.0
  9
$DIMASZ
 40
0.18
  9
$DIMEXO
 40
0.0625
  9
$DIMDLI
 40
0.38
  9
$DIMRND
 40
0.0
  9
$DIMDLE
 40
0.0
  9
$DIMEXE
 40
0.18
  9
$DIMTP
 40
0.0
  9
$DIMTM
 40
0.0
  9
$DIMTXT
 40
0.18
  9
$DIMCEN
 40
0.09
  9
$DIMTSZ
 40
0.0
  9
$DIMTOL
 70
     0
  9
$DIMLIM
 70
     0
  9
$DIMTIH
 70
     1
  9
$DIMTOH
 70
     1
  9
$DIMSE1
 70
     0
  9
$DIMSE2
 70
     0
  9
$DIMTAD
 70
     0
  9
$DIMZIN
 70
     0
  9
$DIMBLK
  1

  9
$DIMASO
 70
     1
  9
$DIMSHO
 70
     1
  9
$DIMPOST
  1

  9
$DIMAPOST
  1

  9
$DIMALT
 70
     0
  9
$DIMALTD
 70
     2
  9
$DIMALTF
 40
25.4
  9
$DIMLFAC
 40
1.0
  9
$DIMTOFL
 70
     0
  9
$DIMTVP
 40
0.0
  9
$DIMTIX
 70
     0
  9
$DIMSOXD
 70
     0
  9
$DIMSAH
 70
     0
  9
$DIMBLK1
  1

  9
$DIMBLK2
  1

  9
$DIMSTYLE
  2
Standard
  9
$DIMCLRD
 70
     0
  9
$DIMCLRE
 70
     0
  9
$DIMCLRT
 70
     0
  9
$DIMTFAC
 40
1.0
  9
$DIMGAP
 40
0.09
  9
$DIMJUST
 70
     0
  9
$DIMSD1
 70
     0
  9
$DIMSD2
 70
     0
  9
$DIMTOLJ
 70
     1
  9
$DIMTZIN
 70
     0
  9
$DIMALTZ
 70
     0
  9
$DIMALTTZ
 70
     0
  9
$DIMUPT
 70
     0
  9
$DIMDEC
 70
     4
  9
$DIMTDEC
 70
     4
  9
$DIMALTU
 70
     2
  9
$DIMALTTD
 70
     2
  9
$DIMTXSTY
  7
Standard
  9
$DIMAUNIT
 70
     0
  9
$DIMADEC
 70
     0
  9
$DIMALTRND
 40
0.0
  9
$DIMAZIN
 70
     0
  9
$DIMDSEP
 70
    46
  9
$DIMATFIT
 70
     3
  9
$DIMFRAC
 70
     0
  9
$DIMLDRBLK
  1

  9
$DIMLUNIT
 70
     2
  9
$DIMLWD
 70
    -2
  9
$DIMLWE
 70
    -2
  9
$DIMTMOVE
 70
     0
  9
$DIMFXL
 40
1.0
  9
$DIMFXLON
 70
     0
  9
$DIMJOGANG
 40
0.7853981633974483
  9
$DIMTFILL
 70
     0
  9
$DIMTFILLCLR
 70
     0
  9
$DIMARCSYM
 70
     0
  9
$DIMLTYPE
  6

  9
$DIMLTEX1
  6

  9
$DIMLTEX2
  6

  9
$DIMTXTDIRECTION
 70
     0
  9
$LUNITS
 70
     2
  9
$LUPREC
 70
     4
  9
$SKETCHINC
 40
0.1
  9
$FILLETRAD
 40
0.0
  9
$AUNITS
 70
     0
  9
$AUPREC
 70
     0
  9
$MENU
  1
.
  9
$ELEVATION
 40
0.0
  9
$PELEVATION
 40
0.0
  9
$THICKNESS
 40
0.0
  9
$LIMCHECK
 70
     0
  9
$CHAMFERA
 40
0.0
  9
$CHAMFERB
 40
0.0
  9
$CHAMFERC
 40
0.0
  9
$CHAMFERD
 40
0.0
  9
$SKPOLY
 70
     0
  9
$TDCREATE
 40
2460964.443125000
  9
$TDUCREATE
 40
2460964.026458333
  9
$TDUPDATE
 40
2460964.443125000
  9
$TDUUPDATE
 40
2460964.026458333
  9
$TDINDWG
 40
0.0000000000
  9
$TDUSRTIMER
 40
0.0000000000
  9
$USRTIMER
 70
     1
  9
$ANGBASE
 50
0.0
  9
$ANGDIR
 70
     0
  9
$PDMODE
 70
     0
  9
$PDSIZE
 40
0.0
  9
$PLINEWID
 40
0.0
  9
$SPLFRAME
 70
     0
  9
$SPLINETYPE
 70
     6
  9
$SPLINESEGS
 70
     8
  9
$HANDSEED
  5
179
  9
$SURFTAB1
 70
     6
  9
$SURFTAB2
 70
     6
  9
$SURFTYPE
 70
     6
  9
$SURFU
 70
     6
  9
$SURFV
 70
     6
  9
$UCSBASE
  2

  9
$UCSNAME
  2

  9
$UCSORG
 10
0.0
 20
0.0
 30
0.0
  9
$UCSXDIR
 10
1.0
 20
0.0
 30
0.0
  9
$UCSYDIR
 10
0.0
 20
1.0
 30
0.0
  9
$UCSORTHOREF
  2

  9
$UCSORTHOVIEW
 70
     0
  9
$UCSORGTOP
 10
0.0
 20
0.0
 30
0.0
  9
$UCSORGBOTTOM
 10
0.0
 20
0.0
 30
0.0
  9
$UCSORGLEFT
 10
0.0
 20
0.0
 30
0.0
  9
$UCSORGRIGHT
 10
0.0
 20
0.0
 30
0.0
  9
$UCSORGFRONT
 10
0.0
 20
0.0
 30
0.0
  9
$UCSORGBACK
 10
0.0
 20
0.0
 30
0.0
  9
$PUCSBASE
  2

  9
$PUCSNAME
  2

  9
$PUCSORG
 10
0.0
 20
0.0
 30
0.0
  9
$PUCSXDIR
 10
1.0
 20
0.0
 30
0.0
  9
$PUCSYDIR
 10
0.0
 20
1.0
 30
0.0
  9
$PUCSORTHOREF
  2

  9
$PUCSORTHOVIEW
 70
     0
  9
$PUCSORGTOP
 10
0.0
 20
0.0
 30
0.0
  9
$PUCSORGBOTTOM
 10
0.0
 20
0.0
 30
0.0
  9
$PUCSORGLEFT
 10
0.0
 20
0.0
 30
0.0
  9
$PUCSORGRIGHT
 10
0.0
 20
0.0
 30
0.0
  9
$PUCSORGFRONT
 10
0.0
 20
0.0
 30
0.0
  9
$PUCSORGBACK
 10
0.0
 20
0.0
 30
0.0
  9
$USERI1
 70
     0
  9
$USERI2
 70
     0
  9
$USERI3
 70
     0
  9
$USERI4
 70
     0
  9
$USERI5
 70
     0
  9
$USERR1
 40
0.0
  9
$USERR2
 40
0.0
  9
$USERR3
 40
0.0
  9
$USERR4
 40
0.0
  9
$USERR5
 40
0.0
  9
$WORLDVIEW
 70
     1
  9
$SHADEDGE
 70
     3
  9
$SHADEDIF
 70
    70
  9
$TILEMODE
 70
     1
  9
$MAXACTVP
 70
    64
  9
$PINSBASE
 10
0.0
 20
0.0
 30
0.0
  9
$PLIMCHECK
 70
     0
  9
$PEXTMIN
 10
1.000000000000000E+20
 20
1.000000000000000E+20
 30
1.000000000000000E+20
  9
$PEXTMAX
 10
-1.000000000000000E+20
 20
-1.000000000000000E+20
 30
-1.000000000000000E+20
  9
$PLIMMIN
 10
0.0
 20
0.0
  9
$PLIMMAX
 10
12.0
 20
9.0
  9
$UNITMODE
 70
     0
  9
$VISRETAIN
 70
     1
  9
$PLINEGEN
 70
     0
  9
$PSLTSCALE
 70
     1
  9
$TREEDEPTH
 70
  3020
  9
$CMLSTYLE
  2
Standard
  9
$CMLJUST
 70
     0
  9
$CMLSCALE
 40
1.0
  9
$PROXYGRAPHICS
 70
     1
  9
$MEASUREMENT
 70
     0
  9
$CELWEIGHT
370
    -1
  9
$ENDCAPS
280
     0
  9
$JOINSTYLE
280
     0
  9
$LWDISPLAY
290
     1
  9
$INSUNITS
 70
     0
  9
$HYPERLINKBASE
  1

  9
$STYLESHEET
  1

  9
$XEDIT
290
     1
  9
$CEPSNTYPE
380
     0
  9
$PSTYLEMODE
290
     1
  9
$FINGERPRINTGUID
  2
{CD5757A7-051A-5447-ACB2-5F50BD0031E1}
  9
$VERSIONGUID
  2
{C65C69B8-4F99-254A-A5B0-C44387652C3B}
  9
$EXTNAMES
290
     1
  9
$PSVPSCALE
 40
0.0
  9
$OLESTARTUP
290
     0
  9
$SORTENTS
280
   127
  9
$INDEXCTL
280
     0
  9
$HIDETEXT
280
     1
  9
$XCLIPFRAME
280
     2
  9
$HALOGAP
280
     0
  9
$OBSCOLOR
 70
   257
  9
$OBSLTYPE
280
     0
  9
$INTERSECTIONDISPLAY
280
     0
  9
$INTERSECTIONCOLOR
 70
   257
  9
$DIMASSOC
280
     2
  9
$PROJECTNAME
  1

  9
$CAMERADISPLAY
290
     0
  9
$LENSLENGTH
 40
50.0
  9
$CAMERAHEIGHT
 40
0.0
  9
$STEPSPERSEC
 40
2.0
  9
$STEPSIZE
 40
6.0
  9
$3DDWFPREC
 40
2.0
  9
$PSOLWIDTH
 40
0.25
  9
$PSOLHEIGHT
 40
4.0
  9
$LOFTANG1
 40
1.570796326794896
  9
$LOFTANG2
 40
1.570796326794896
  9
$LOFTMAG1
 40
0.0
  9
$LOFTMAG2
 40
0.0
  9
$LOFTPARAM
 70
     7
  9
$LOFTNORMALS
280
     1
  9
$LATITUDE
 40
37.795
  9
$LONGITUDE
 40
-122.394
  9
$NORTHDIRECTION
 40
0.0
  9
$TIMEZONE
 70
 -8000
  9
$LIGHTGLYPHDISPLAY
280
     1
  9
$TILEMODELIGHTSYNCH
280
     1
  9
$CMATERIAL
347
11
  9
$SOLIDHIST
280
     0
  9
$SHOWHIST
280
     1
  9
$DWFFRAME
280
     2
  9
$DGNFRAME
280
     0
  9
$REALWORLDSCALE
290
     1
  9
$INTERFERECOLOR
 62
     1
  9
$INTERFEREOBJVS
345
33
  9
$INTERFEREVPVS
346
30
  9
$CSHADOW
280
     0
  9
$SHADOWPLANELOCATION
 40
0.0
  0
ENDSEC
  0
SECTION
  2
CLASSES
  0
CLASS
  1
ACDBDICTIONARYWDFLT
  2
AcDbDictionaryWithDefault
  3
ObjectDBX Classes
 90
        0
 91
        1
280
     0
281
     0
  0
CLASS
  1
MATERIAL
  2
AcDbMaterial
  3
ObjectDBX Classes
 90
     1153
 91
        3
280
     0
281
     0
  0
CLASS
  1
VISUALSTYLE
  2
AcDbVisualStyle
  3
ObjectDBX Classes
 90
     4095
 91
       24
280
     0
281
     0
  0
CLASS
  1
SCALE
  2
AcDbScale
  3
ObjectDBX Classes
 90
     1153
 91
       17
280
     0
281
     0
  0
CLASS
  1
TABLESTYLE
  2
AcDbTableStyle
  3
ObjectDBX Classes
 90
     4095
 91
        1
280
     0
281
     0
  0
CLASS
  1
MLEADERSTYLE
  2
AcDbMLeaderStyle
  3
ACDB_MLEADERSTYLE_CLASS
 90
     4095
 91
        1
280
     0
281
     0
  0
CLASS
  1
ACDBSECTIONVIEWSTYLE
  2
AcDbSectionViewStyle
  3
ObjectDBX Classes
 90
     1025
 91
        1
280
     0
281
     0
  0
CLASS
  1
ACDBDETAILVIEWSTYLE
  2
AcDbDetailViewStyle
  3
ObjectDBX Classes
 90
     1025
 91
        1
280
     0
281
     0
  0
CLASS
  1
DICTIONARYVAR
  2
AcDbDictionaryVar
  3
ObjectDBX Classes
 90
        0
 91
        5
280
     0
281
     0
  0
CLASS
  1
CELLSTYLEMAP
  2
AcDbCellStyleMap
  3
ObjectDBX Classes
 90
     1152
 91
        1
280
     0
281
     0
  0
ENDSEC
  0
SECTION
  2
TABLES
  0
TABLE
  2
VPORT
  5
8
330
0
100
AcDbSymbolTable
 70
     1
  0
VPORT
  5
57
330
8
100
AcDbSymbolTableRecord
100
AcDbViewportTableRecord
  2
*Active
 70
     0
 10
0.0
 20
0.0
 11
1.0
 21
1.0
 12
0.0
 22
0.0
 13
0.0
 23
0.0
 14
1.0
 24
1.0
 15
0.0
 25
0.0
 16
0.0
 26
0.0
 36
1.0
 17
421.0
 27
298.0
 37
0.0
 40
1899.666078984084
 41
0.8905861582121472
 42
50.0
 43
0.0
 44
0.0
 50
0.0
 51
0.0
 71
     0
 72
   100
 73
     1
 74
     1
 75
     0
 76
     0
 77
     0
 78
     0
281
     0
 65
     1
110
0.0
120
0.0
130
0.0
111
1.0
121
0.0
131
0.0
112
0.0
122
1.0
132
0.0
 79
     0
146
0.0
 60
     3
 61
     5
292
     1
282
     1
141
0.0
142
0.0
 63
   250
421
  3355443
  0
ENDTAB
  0
TABLE
  2
LTYPE
  5
5
330
0
100
AcDbSymbolTable
 70
    10
  0
LTYPE
  5
5B
330
5
100
AcDbSymbolTableRecord
100
AcDbLinetypeTableRecord
  2
ByBlock
 70
     0
  3

 72
    65
 73
     0
 40
0.0
  0
LTYPE
  5
5C
330
5
100
AcDbSymbolTableRecord
100
AcDbLinetypeTableRecord
  2
ByLayer
 70
     0
  3

 72
    65
 73
     0
 40
0.0
  0
LTYPE
  5
5D
330
5
100
AcDbSymbolTableRecord
100
AcDbLinetypeTableRecord
  2
Continuous
 70
     0
  3
Solid line
 72
    65
 73
     0
 40
0.0
  0
LTYPE
  5
15F
330
5
100
AcDbSymbolTableRecord
100
AcDbLinetypeTableRecord
  2
AI-Linetype-0
 70
     0
  3
Adobe Illustrator Linetype No. 0
 72
    65
 73
     2
 40
1.90499997138977
 49
1.269999980926513
 74
     0
 49
-0.6349999904632569
 74
     0
  0
LTYPE
  5
161
330
5
100
AcDbSymbolTableRecord
100
AcDbLinetypeTableRecord
  2
AI-Linetype-1
 70
     0
  3
Adobe Illustrator Linetype No. 1
 72
    65
 73
     2
 40
1.90499997138977
 49
1.269999980926513
 74
     0
 49
-0.6349999904632569
 74
     0
  0
LTYPE
  5
163
330
5
100
AcDbSymbolTableRecord
100
AcDbLinetypeTableRecord
  2
AI-Linetype-2
 70
     0
  3
Adobe Illustrator Linetype No. 2
 72
    65
 73
     2
 40
1.90499997138977
 49
1.269999980926513
 74
     0
 49
-0.6349999904632569
 74
     0
  0
LTYPE
  5
165
330
5
100
AcDbSymbolTableRecord
100
AcDbLinetypeTableRecord
  2
AI-Linetype-3
 70
     0
  3
Adobe Illustrator Linetype No. 3
 72
    65
 73
     2
 40
1.90499997138977
 49
1.269999980926513
 74
     0
 49
-0.6349999904632569
 74
     0
  0
LTYPE
  5
167
330
5
100
AcDbSymbolTableRecord
100
AcDbLinetypeTableRecord
  2
AI-Linetype-4
 70
     0
  3
Adobe Illustrator Linetype No. 4
 72
    65
 73
     2
 40
1.90499997138977
 49
1.269999980926513
 74
     0
 49
-0.6349999904632569
 74
     0
  0
LTYPE
  5
169
330
5
100
AcDbSymbolTableRecord
100
AcDbLinetypeTableRecord
  2
AI-Linetype-5
 70
     0
  3
Adobe Illustrator Linetype No. 5
 72
    65
 73
     2
 40
1.90499997138977
 49
1.269999980926513
 74
     0
 49
-0.6349999904632569
 74
     0
  0
LTYPE
  5
16B
330
5
100
AcDbSymbolTableRecord
100
AcDbLinetypeTableRecord
  2
AI-Linetype-6
 70
     0
  3
Adobe Illustrator Linetype No. 6
 72
    65
 73
     2
 40
1.90499997138977
 49
1.269999980926513
 74
     0
 49
-0.6349999904632569
 74
     0
  0
LTYPE
  5
16D
330
5
100
AcDbSymbolTableRecord
100
AcDbLinetypeTableRecord
  2
AI-Linetype-7
 70
     0
  3
Adobe Illustrator Linetype No. 7
 72
    65
 73
     2
 40
1.90499997138977
 49
1.269999980926513
 74
     0
 49
-0.6349999904632569
 74
     0
  0
LTYPE
  5
16F
330
5
100
AcDbSymbolTableRecord
100
AcDbLinetypeTableRecord
  2
AI-Linetype-8
 70
     0
  3
Adobe Illustrator Linetype No. 8
 72
    65
 73
     2
 40
1.90499997138977
 49
1.269999980926513
 74
     0
 49
-0.6349999904632569
 74
     0
  0
ENDTAB
  0
TABLE
  2
LAYER
  5
2
330
0
100
AcDbSymbolTable
 70
     2
  0
LAYER
  5
54
330
2
100
AcDbSymbolTableRecord
100
AcDbLayerTableRecord
  2
0
 70
     0
 62
     7
  6
Continuous
370
     0
390
F
347
21
348
0
  0
LAYER
  5
15D
330
2
100
AcDbSymbolTableRecord
100
AcDbLayerTableRecord
  2
1
 70
     0
 62
     7
  6
Continuous
370
     0
390
F
347
21
348
0
  0
ENDTAB
  0
TABLE
  2
STYLE
  5
3
330
0
100
AcDbSymbolTable
 70
     2
  0
STYLE
  5
55
330
3
100
AcDbSymbolTableRecord
100
AcDbTextStyleTableRecord
  2
Standard
 70
     0
 40
0.0
 41
1.0
 50
0.0
 71
     0
 42
0.2
  3
txt
  4

  0
STYLE
  5
5A
330
3
100
AcDbSymbolTableRecord
100
AcDbTextStyleTableRecord
  2
Annotative
 70
     0
 40
0.0
 41
1.0
 50
0.0
 71
     0
 42
0.2
  3
txt
  4

1001
AcadAnnotative
1000
AnnotativeData
1002
{
1070
     1
1070
     1
1002
}
  0
ENDTAB
  0
TABLE
  2
VIEW
  5
6
330
0
100
AcDbSymbolTable
 70
     0
  0
ENDTAB
  0
TABLE
  2
UCS
  5
7
330
0
100
AcDbSymbolTable
 70
     0
  0
ENDTAB
  0
TABLE
  2
APPID
  5
9
330
0
100
AcDbSymbolTable
 70
     2
  0
APPID
  5
56
330
9
100
AcDbSymbolTableRecord
100
AcDbRegAppTableRecord
  2
ACAD
 70
     0
  0
APPID
  5
5E
330
9
100
AcDbSymbolTableRecord
100
AcDbRegAppTableRecord
  2
AcadAnnotative
 70
     0
  0
ENDTAB
  0
TABLE
  2
DIMSTYLE
  5
A
330
0
100
AcDbSymbolTable
 70
     2
100
AcDbDimStyleTable
 71
     0
  0
DIMSTYLE
105
58
330
A
100
AcDbSymbolTableRecord
100
AcDbDimStyleTableRecord
  2
Standard
 70
     0
340
55
  0
DIMSTYLE
105
59
330
A
100
AcDbSymbolTableRecord
100
AcDbDimStyleTableRecord
  2
Annotative
 70
     0
340
55
1001
AcadAnnotative
1000
AnnotativeData
1002
{
1070
     1
1070
     1
1002
}
  0
ENDTAB
  0
TABLE
  2
BLOCK_RECORD
  5
1
330
0
100
AcDbSymbolTable
 70
     1
  0
BLOCK_RECORD
  5
70
330
1
100
AcDbSymbolTableRecord
100
AcDbBlockTableRecord
  2
*Model_Space
340
73
 70
     0
280
     1
281
     0
  0
BLOCK_RECORD
  5
6C
330
1
100
AcDbSymbolTableRecord
100
AcDbBlockTableRecord
  2
*Paper_Space
340
6F
 70
     0
280
     1
281
     0
  0
BLOCK_RECORD
  5
74
330
1
100
AcDbSymbolTableRecord
100
AcDbBlockTableRecord
  2
*Paper_Space0
340
77
 70
     0
280
     1
281
     0
  0
ENDTAB
  0
ENDSEC
  0
SECTION
  2
BLOCKS
  0
BLOCK
  5
71
330
70
100
AcDbEntity
  8
0
100
AcDbBlockBegin
  2
*Model_Space
 70
     0
 10
0.0
 20
0.0
 30
0.0
  3
*Model_Space
  1

  0
ENDBLK
  5
72
330
70
100
AcDbEntity
  8
0
100
AcDbBlockEnd
  0
BLOCK
  5
6D
330
6C
100
AcDbEntity
 67
     1
  8
0
100
AcDbBlockBegin
  2
*Paper_Space
 70
     0
 10
0.0
 20
0.0
 30
0.0
  3
*Paper_Space
  1

  0
ENDBLK
  5
6E
330
6C
100
AcDbEntity
 67
     1
  8
0
100
AcDbBlockEnd
  0
BLOCK
  5
75
330
74
100
AcDbEntity
 67
     1
  8
0
100
AcDbBlockBegin
  2
*Paper_Space0
 70
     0
 10
0.0
 20
0.0
 30
0.0
  3
*Paper_Space0
  1

  0
ENDBLK
  5
76
330
74
100
AcDbEntity
 67
     1
  8
0
100
AcDbBlockEnd
  0
ENDSEC
  0
SECTION
  2
ENTITIES
  0
LINE
  5
78
330
70
100
AcDbEntity
  8
0
 62
     6
420
 16711935
370
    25
100
AcDbLine
 10
-111.4943963758987
 20
-200.3047126458496
 30
0.0
 11
-116.1274258701987
 21
-202.18488224055
 31
0.0
  0
LINE
  5
79
330
70
100
AcDbEntity
  8
0
 62
     6
420
 16711935
370
    25
100
AcDbLine
 10
-119.8877650594995
 20
-192.91882325185
 30
0.0
 11
-115.2547355651995
 21
-191.0386536571514
 31
0.0
  0
LINE
  5
7A
330
70
100
AcDbEntity
  8
0
 62
     6
420
 16711935
370
    25
100
AcDbLine
 10
38.91917119549999
 20
-570.94707219275
 30
0.0
 11
34.28614170110177
 21
-572.8272417873504
 31
0.0
  0
LINE
  5
7B
330
70
100
AcDbEntity
  8
0
 62
     6
420
 16711935
370
    25
100
AcDbLine
 10
30.52580251190102
 20
-563.5611827986504
 30
0.0
 11
35.1588320062001
 21
-561.68101320405
 31
0.0
  0
LINE
  5
7C
330
70
100
AcDbEntity
  8
0
 62
     6
420
 16711935
370
    25
100
AcDbLine
 10
-96.45303961879927
 20
-237.3689486005496
 30
0.0
 11
-101.0860691130992
 21
-239.24911819515
 31
0.0
  0
LINE
  5
7D
330
70
100
AcDbEntity
  8
0
 62
     6
420
 16711935
370
    25
100
AcDbLine
 10
-104.8464083023991
 20
-229.98305920655
 30
0.0
 11
-100.2133788079991
 21
-228.1028896118496
 31
0.0
  0
LINE
  5
7E
330
70
100
AcDbEntity
  8
0
 62
     6
420
 16711935
370
    25
100
AcDbLine
 10
-231.8252504329994
 20
96.20917499164898
 30
0.0
 11
-236.4582799272994
 21
94.32900539695038
 31
0.0
  0
LINE
  5
7F
330
70
100
AcDbEntity
  8
0
 62
     6
420
 16711935
370
    25
100
AcDbLine
 10
-240.2186191165993
 20
103.5950643856486
 30
0.0
 11
-235.5855896222993
 21
105.4752339802489
 31
0.0
  0
LINE
  5
80
330
70
100
AcDbEntity
  8
0
 62
     6
420
 16711935
370
    25
100
AcDbLine
 10
23.87781443830045
 20
-533.88283623805
 30
0.0
 11
19.24478494400046
 21
-535.7630058326503
 31
0.0
  0
LINE
  5
81
330
70
100
AcDbEntity
  8
0
 62
     6
420
 16711935
370
    25
100
AcDbLine
 10
15.48444575470057
 20
-526.4969468439503
 30
0.0
 11
20.11747524910061
 21
-524.61677724935
 31
0.0
  0
LINE
  5
82
330
70
100
AcDbEntity
  8
0
 62
     6
420
 16711935
370
    25
100
AcDbLine
 10
925.850517323799
 20
180.7810510449508
 30
0.0
 11
926.7708204454011
 21
175.8664819834485
 31
0.0
  0
LINE
  5
83
330
70
100
AcDbEntity
  8
0
 62
     6
420
 16711935
370
    25
100
AcDbLine
 10
916.9417960669997
 20
174.0259757334497
 30
0.0
 11
916.0214929454996
 21
178.9405447949502
 31
0.0
  0
LINE
  5
84
330
70
100
AcDbEntity
  8
0
 62
     6
420
 16711935
370
    25
100
AcDbLine
 10
1181.231615119999
 20
-546.3074400429504
 30
0.0
 11
1176.736277435399
 21
-548.4963168937501
 31
0.0
  0
LINE
  5
85
330
70
100
AcDbEntity
  8
0
 62
     6
420
 16711935
370
    25
100
AcDbLine
 10
1172.358457432599
 20
-539.5055053606502
 30
0.0
 11
1176.8537951172
 21
-537.3166285098505
 31
0.0
  0
LINE
  5
86
330
70
100
AcDbEntity
  8
0
 62
     6
420
 16711935
370
    25
100
AcDbLine
 10
1012.077618167001
 20
-198.9126851849505
 30
0.0
 11
1007.5822804824
 21
-201.1015620358503
 31
0.0
  0
LINE
  5
87
330
70
100
AcDbEntity
  8
0
 62
     6
420
 16711935
370
    25
100
AcDbLine
 10
1003.204460479601
 20
-192.1107505027503
 30
0.0
 11
1007.6997981642
 21
-189.9218736519506
 31
0.0
  0
LINE
  5
88
330
70
100
AcDbEntity
  8
0
 62
     6
420
 16711935
370
    25
100
AcDbLine
 10
886.5344198105995
 20
173.4190260448504
 30
0.0
 11
887.4547229320997
 21
168.5044569833499
 31
0.0
  0
LINE
  5
89
330
70
100
AcDbEntity
  8
0
 62
     6
420
 16711935
370
    25
100
AcDbLine
 10
877.6256985537001
 20
166.6639507333493
 30
0.0
 11
876.7053954321999
 21
171.5785197947498
 31
0.0
  0
LINE
  5
8A
330
70
100
AcDbEntity
  8
0
 62
     6
420
 16711935
370
    25
100
AcDbLine
 10
1198.742895130999
 20
-582.2706861752504
 30
0.0
 11
1194.247557446399
 21
-584.45956302605
 31
0.0
  0
LINE
  5
8B
330
70
100
AcDbEntity
  8
0
 62
     6
420
 16711935
370
    25
100
AcDbLine
 10
1189.869737443601
 20
-575.4687514930501
 30
0.0
 11
1194.3650751283
 21
-573.2798746421503
 31
0.0
  0
LINE
  5
8C
330
70
100
AcDbEntity
  8
0
 62
     6
420
 16711935
370
    25
100
AcDbLine
 10
1029.588898178001
 20
-234.8759313173505
 30
0.0
 11
1025.093560493398
 21
-237.0648081681502
 31
0.0
  0
LINE
  5
8D
330
70
100
AcDbEntity
  8
0
 62
     6
420
 16711935
370
    25
100
AcDbLine
 10
1020.715740490601
 20
-228.0739966350502
 30
0.0
 11
1025.2110781753
 21
-225.8851197842505
 31
0.0
  0
LINE
  5
8E
330
70
100
AcDbEntity
  8
0
 62
     6
420
 16711935
370
    25
100
AcDbLine
 10
1109.1345900209
 20
-618.9618706831497
 30
0.0
 11
1109.1345900209
 21
-613.9618706831497
 31
0.0
  0
LINE
  5
8F
330
70
100
AcDbEntity
  8
0
 62
     6
420
 16711935
370
    25
100
AcDbLine
 10
1119.1345900209
 20
-613.9618706831497
 30
0.0
 11
1119.1345900209
 21
-618.9618706831497
 31
0.0
  0
LINE
  5
90
330
70
100
AcDbEntity
  8
0
 62
     6
420
 16711935
370
    25
100
AcDbLine
 10
84.13459002090077
 20
-618.9618706831497
 30
0.0
 11
84.13459002090077
 21
-613.9618706831497
 31
0.0
  0
LINE
  5
91
330
70
100
AcDbEntity
  8
0
 62
     6
420
 16711935
370
    25
100
AcDbLine
 10
94.13459002090077
 20
-613.9618706831497
 30
0.0
 11
94.13459002090077
 21
-618.9618706831497
 31
0.0
  0
LINE
  5
92
330
70
100
AcDbEntity
  8
0
 62
     6
420
 16711935
370
    25
100
AcDbLine
 10
439.1345900208998
 20
-618.9618706831497
 30
0.0
 11
439.1345900208998
 21
-613.9618706831497
 31
0.0
  0
LINE
  5
93
330
70
100
AcDbEntity
  8
0
 62
     6
420
 16711935
370
    25
100
AcDbLine
 10
449.1345900208998
 20
-613.9618706831497
 30
0.0
 11
449.1345900208998
 21
-618.9618706831497
 31
0.0
  0
LINE
  5
94
330
70
100
AcDbEntity
  8
0
 62
     6
420
 16711935
370
    25
100
AcDbLine
 10
794.1345900208998
 20
-618.9618706831497
 30
0.0
 11
794.1345900208998
 21
-613.9618706831497
 31
0.0
  0
LINE
  5
95
330
70
100
AcDbEntity
  8
0
 62
     6
420
 16711935
370
    25
100
AcDbLine
 10
804.1345900208998
 20
-613.9618706831497
 30
0.0
 11
804.1345900208998
 21
-618.9618706831497
 31
0.0
  0
LINE
  5
96
330
70
100
AcDbEntity
  8
0
 62
     6
420
 16711935
370
    25
100
AcDbLine
 10
754.1345900208998
 20
-618.9618706831497
 30
0.0
 11
754.1345900208998
 21
-613.9618706831497
 31
0.0
  0
LINE
  5
97
330
70
100
AcDbEntity
  8
0
 62
     6
420
 16711935
370
    25
100
AcDbLine
 10
764.1345900208998
 20
-613.9618706831497
 30
0.0
 11
764.1345900208998
 21
-618.9618706831497
 31
0.0
  0
LINE
  5
98
330
70
100
AcDbEntity
  8
0
 62
     6
420
 16711935
370
    25
100
AcDbLine
 10
399.1345900208998
 20
-618.9618706831497
 30
0.0
 11
399.1345900208998
 21
-613.9618706831497
 31
0.0
  0
LINE
  5
99
330
70
100
AcDbEntity
  8
0
 62
     6
420
 16711935
370
    25
100
AcDbLine
 10
409.1345900208998
 20
-613.9618706831497
 30
0.0
 11
409.1345900208998
 21
-618.9618706831497
 31
0.0
  0
LINE
  5
9A
330
70
100
AcDbEntity
  8
0
 62
     6
420
 16711935
370
    25
100
AcDbLine
 10
44.13459002090076
 20
-618.9618706831497
 30
0.0
 11
44.13459002090076
 21
-613.9618706831497
 31
0.0
  0
LINE
  5
9B
330
70
100
AcDbEntity
  8
0
 62
     6
420
 16711935
370
    25
100
AcDbLine
 10
54.13459002090076
 20
-613.9618706831497
 30
0.0
 11
54.13459002090076
 21
-618.9618706831497
 31
0.0
  0
LINE
  5
9C
330
70
100
AcDbEntity
  8
0
 62
     6
420
 16711935
370
    25
100
AcDbLine
 10
1149.1345900209
 20
-618.9618706831497
 30
0.0
 11
1149.1345900209
 21
-613.9618706831497
 31
0.0
  0
LINE
  5
9D
330
70
100
AcDbEntity
  8
0
 62
     6
420
 16711935
370
    25
100
AcDbLine
 10
1159.1345900209
 20
-613.9618706831497
 30
0.0
 11
1159.1345900209
 21
-618.9618706831497
 31
0.0
  0
LINE
  5
9E
330
70
100
AcDbEntity
  8
0
 62
     6
420
 16711935
370
    25
100
AcDbLine
 10
-35.8614331095996
 20
1110.470378142148
 30
0.0
 11
-35.8614331095996
 21
1115.47037814215
 31
0.0
  0
LINE
  5
9F
330
70
100
AcDbEntity
  8
0
 62
     6
420
 16711935
370
    25
100
AcDbLine
 10
-25.8614331095996
 20
1115.47037814215
 30
0.0
 11
-25.8614331095996
 21
1110.470378142148
 31
0.0
  0
LINE
  5
A0
330
70
100
AcDbEntity
  8
0
 62
     6
420
 16711935
370
    25
100
AcDbLine
 10
-128.3614331095996
 20
1172.970378142148
 30
0.0
 11
-123.3614331095987
 21
1172.970378142148
 31
0.0
  0
LINE
  5
A1
330
70
100
AcDbEntity
  8
0
 62
     6
420
 16711935
370
    25
100
AcDbLine
 10
-123.3614331095987
 20
1162.970378142148
 30
0.0
 11
-128.3614331095996
 21
1162.970378142148
 31
0.0
  0
LINE
  5
A2
330
70
100
AcDbEntity
  8
0
 62
     6
420
 16711935
370
    25
100
AcDbLine
 10
-75.8614331095996
 20
1110.470378142148
 30
0.0
 11
-75.8614331095996
 21
1115.47037814215
 31
0.0
  0
LINE
  5
A3
330
70
100
AcDbEntity
  8
0
 62
     6
420
 16711935
370
    25
100
AcDbLine
 10
-65.8614331095996
 20
1115.47037814215
 30
0.0
 11
-65.8614331095996
 21
1110.470378142148
 31
0.0
  0
LINE
  5
A4
330
70
100
AcDbEntity
  8
0
 62
     6
420
 16711935
370
    25
100
AcDbLine
 10
-128.3614331095996
 20
1212.97037814215
 30
0.0
 11
-123.3614331095987
 21
1212.97037814215
 31
0.0
  0
LINE
  5
A5
330
70
100
AcDbEntity
  8
0
 62
     6
420
 16711935
370
    25
100
AcDbLine
 10
-123.3614331095987
 20
1202.97037814215
 30
0.0
 11
-128.3614331095996
 21
1202.97037814215
 31
0.0
  0
LINE
  5
A6
330
70
100
AcDbEntity
  8
0
 62
     6
420
 16711935
370
    25
100
AcDbLine
 10
368.2714545019999
 20
1170.88701324925
 30
0.0
 11
373.2714532835007
 21
1170.88701324925
 31
0.0
  0
LINE
  5
A7
330
70
100
AcDbEntity
  8
0
 62
     6
420
 16711935
370
    25
100
AcDbLine
 10
373.2714532835007
 20
1160.88701324925
 30
0.0
 11
368.2714545019999
 21
1160.88701324925
 31
0.0
  0
LINE
  5
A8
330
70
100
AcDbEntity
  8
0
 62
     6
420
 16711935
370
    25
100
AcDbLine
 10
368.2714545019999
 20
1210.88701324925
 30
0.0
 11
373.2714532835007
 21
1210.88701324925
 31
0.0
  0
LINE
  5
A9
330
70
100
AcDbEntity
  8
0
 62
     6
420
 16711935
370
    25
100
AcDbLine
 10
373.2714532835007
 20
1200.88701324925
 30
0.0
 11
368.2714545019999
 21
1200.88701324925
 31
0.0
  0
LINE
  5
AA
330
70
100
AcDbEntity
  8
0
 62
     6
420
 16711935
370
    25
100
AcDbLine
 10
667.0938757609
 20
546.7962924693502
 30
0.0
 11
671.5750220582995
 21
549.0141853014493
 31
0.0
  0
LINE
  5
AB
330
70
100
AcDbEntity
  8
0
 62
     6
420
 16711935
370
    25
100
AcDbLine
 10
676.0108324963002
 20
540.0518426524504
 30
0.0
 11
671.5296861989009
 21
537.8339498202503
 31
0.0
  0
LINE
  5
AC
330
70
100
AcDbEntity
  8
0
 62
     6
420
 16711935
370
    25
100
AcDbLine
 10
416.5898743931993
 20
1122.05646757515
 30
0.0
 11
419.7110191571
 21
1118.15026190925
 31
0.0
  0
LINE
  5
AD
330
70
100
AcDbEntity
  8
0
 62
     6
420
 16711935
370
    25
100
AcDbLine
 10
411.8986620064005
 20
1111.90798593005
 30
0.0
 11
408.7775172424999
 21
1115.814191595948
 31
0.0
  0
LINE
  5
AE
330
70
100
AcDbEntity
  8
0
 62
     6
420
 16711935
370
    25
100
AcDbLine
 10
649.3506340089989
 20
582.6456630653502
 30
0.0
 11
653.8317803064001
 21
584.8635558974502
 31
0.0
  0
LINE
  5
AF
330
70
100
AcDbEntity
  8
0
 62
     6
420
 16711935
370
    25
100
AcDbLine
 10
658.2675907443991
 20
575.9012132484504
 30
0.0
 11
653.7864444469996
 21
573.6833204163503
 31
0.0
  0
LINE
  5
B0
330
70
100
AcDbEntity
  8
0
 62
     6
420
 16711935
370
    25
100
AcDbLine
 10
447.8393029960007
 20
1147.02557149175
 30
0.0
 11
450.9604477598004
 21
1143.119365825849
 31
0.0
  0
LINE
  5
B1
330
70
100
AcDbEntity
  8
0
 62
     6
420
 16711935
370
    25
100
AcDbLine
 10
443.1480906091
 20
1136.87708984665
 30
0.0
 11
440.0269458453003
 21
1140.78329551265
 31
0.0
  0
LINE
  5
B2
330
70
100
AcDbEntity
  8
0
 62
     6
420
 16711935
370
    25
100
AcDbLine
 10
-135.3828606594988
 20
1079.39141037505
 30
0.0
 11
-139.5256876413996
 21
1082.19087185855
 31
0.0
  0
LINE
  5
B3
330
70
100
AcDbEntity
  8
0
 62
     6
420
 16711935
370
    25
100
AcDbLine
 10
-140.9817836264992
 20
1071.105756411149
 30
0.0
 11
-145.1246106084991
 21
1073.905217894649
 31
0.0
  0
LINE
  5
B4
330
70
100
AcDbEntity
  8
0
 62
     6
420
 16711935
370
    25
100
AcDbLine
 10
-157.7785525276995
 20
1046.248794519549
 30
0.0
 11
-161.9213795095993
 21
1049.04825600305
 31
0.0
  0
LINE
  5
B5
330
70
100
AcDbEntity
  8
0
 62
     6
420
 16711935
370
    25
100
AcDbLine
 10
-163.3774754946989
 20
1037.96314055565
 30
0.0
 11
-167.5203024765997
 21
1040.76260203915
 31
0.0
  0
LINE
  5
B6
330
70
100
AcDbEntity
  8
0
 62
     6
420
 16711935
370
    25
100
AcDbLine
 10
-348.9124210472992
 20
766.9149727718505
 30
0.0
 11
-353.7857769717994
 21
768.0331865405496
 31
0.0
  0
LINE
  5
B7
330
70
100
AcDbEntity
  8
0
 62
     6
420
 16711935
370
    25
100
AcDbLine
 10
-351.1488485845994
 20
757.16826092275
 30
0.0
 11
-356.0222045090995
 21
758.2864746913492
 31
0.0
  0
LINE
  5
B8
330
70
100
AcDbEntity
  8
0
 62
     6
420
 16711935
370
    25
100
AcDbLine
 10
-357.858131196399
 20
727.9281253752487
 30
0.0
 11
-362.7314871209992
 21
729.0463391439498
 31
0.0
  0
LINE
  5
B9
330
70
100
AcDbEntity
  8
0
 62
     6
420
 16711935
370
    25
100
AcDbLine
 10
-360.0945587336992
 20
718.1814135261502
 30
0.0
 11
-364.9679146582994
 21
719.2996272947502
 31
0.0
  0
LINE
  5
BA
330
70
100
AcDbEntity
  8
0
 62
     6
420
 16711935
370
    25
100
AcDbLine
 10
-318.5035845632992
 20
467.3943642906488
 30
0.0
 11
-313.5804357259995
 21
468.2676371721499
 31
0.0
  0
LINE
  5
BB
330
70
100
AcDbEntity
  8
0
 62
     6
420
 16711935
370
    25
100
AcDbLine
 10
-320.2501303263989
 20
477.2406619652501
 30
0.0
 11
-315.3269814890991
 21
478.1139348468505
 31
0.0
  0
LINE
  5
BC
330
70
100
AcDbEntity
  8
0
 62
     6
420
 16711935
370
    25
100
AcDbLine
 10
-311.5174015108987
 20
428.0091735921486
 30
0.0
 11
-306.5942526735989
 21
428.882446473649
 31
0.0
  0
LINE
  5
BD
330
70
100
AcDbEntity
  8
0
 62
     6
420
 16711935
370
    25
100
AcDbLine
 10
-313.2639472739993
 20
437.8554712667492
 30
0.0
 11
-308.3407984366986
 21
438.7287441483494
 31
0.0
  0
LINE
  5
BE
330
70
100
AcDbEntity
  8
0
 62
     6
420
 16711935
370
    25
100
AcDbLine
 10
-271.8079860748985
 20
204.1440260937488
 30
0.0
 11
-266.8848372375987
 21
205.0172989753501
 31
0.0
  0
LINE
  5
BF
330
70
100
AcDbEntity
  8
0
 62
     6
420
 16711935
370
    25
100
AcDbLine
 10
-273.5545318379991
 20
213.9903237684503
 30
0.0
 11
-268.6313830006993
 21
214.8635966499496
 31
0.0
  0
LINE
  5
C0
330
70
100
AcDbEntity
  8
0
 62
     6
420
 16711935
370
    25
100
AcDbLine
 10
-379.8023594089991
 20
747.7556606549496
 30
0.0
 11
-398.2387591020988
 21
766.4515650254506
 31
0.0
  0
LINE
  5
C1
330
70
100
AcDbEntity
  8
0
 62
     6
420
 16711935
370
    25
100
AcDbLine
 10
-398.2387591020988
 20
766.4515650254506
 30
0.0
 11
-157.6908836828988
 21
1122.43011111375
 31
0.0
  0
LINE
  5
C2
330
70
100
AcDbEntity
  8
0
 62
     6
420
 16711935
370
    25
100
AcDbLine
 10
-157.6908836828988
 20
1122.43011111375
 30
0.0
 11
-140.8297898889996
 21
1105.33168612835
 31
0.0
  0
LINE
  5
C3
330
70
100
AcDbEntity
  8
0
 62
     6
420
 16711935
370
    25
100
AcDbLine
 10
-145.9447689464996
 20
1097.76220414895
 30
0.0
 11
-140.8297898889996
 21
1105.33168612835
 31
0.0
  0
LINE
  5
C4
330
70
100
AcDbEntity
  8
0
 62
     6
420
 16711935
370
    25
100
AcDbLine
 10
-139.7330507120996
 20
1092.05608462075
 30
0.0
 11
-145.5992629781994
 21
1096.02010130905
 31
0.0
  0
LINE
  5
C5
330
70
100
AcDbEntity
  8
0
 62
     6
420
 16711935
370
    25
100
AcDbLine
 10
-133.8981671898991
 20
1098.458356270948
 30
0.0
 11
-137.9974785956992
 21
1092.39192599535
 31
0.0
  0
LINE
  5
C6
330
70
100
AcDbEntity
  8
0
 62
     6
420
 16711935
370
    25
100
AcDbLine
 10
-130.4849289858984
 20
1102.05189226705
 30
0.0
 11
-133.8981671898991
 21
1098.458356270948
 31
0.0
  0
LINE
  5
C7
330
70
100
AcDbEntity
  8
0
 62
     6
420
 16711935
370
    25
100
AcDbLine
 10
-130.3776473344987
 20
1102.72018617935
 30
0.0
 11
-130.4849289858984
 21
1102.05189226705
 31
0.0
  0
LINE
  5
C8
330
70
100
AcDbEntity
  8
0
 62
     6
420
 16711935
370
    25
100
AcDbLine
 10
-131.5458331743994
 20
1104.840939118449
 30
0.0
 11
-135.1619001851986
 21
1104.840939118449
 31
0.0
  0
LINE
  5
C9
330
70
100
AcDbEntity
  8
0
 62
     6
420
 16711935
370
    25
100
AcDbLine
 10
-135.1619001851986
 20
1228.85453153835
 30
0.0
 11
-135.1619001851986
 21
1104.840939118449
 31
0.0
  0
LINE
  5
CA
330
70
100
AcDbEntity
  8
0
 62
     6
420
 16711935
370
    25
100
AcDbLine
 10
334.836812957401
 20
1228.85453153835
 30
0.0
 11
-135.1619001851986
 21
1228.85453153835
 31
0.0
  0
LINE
  5
CB
330
70
100
AcDbEntity
  8
0
 62
     6
420
 16711935
370
    25
100
AcDbLine
 10
337.8075029706006
 20
1228.82919303395
 30
0.0
 11
334.836812957401
 21
1228.85453153835
 31
0.0
  0
LINE
  5
CC
330
70
100
AcDbEntity
  8
0
 62
     6
420
 16711935
370
    25
100
AcDbLine
 10
337.8075029706006
 20
1228.82919303395
 30
0.0
 11
418.8946205410002
 21
1212.078093988149
 31
0.0
  0
LINE
  5
CD
330
70
100
AcDbEntity
  8
0
 62
     6
420
 16711935
370
    25
100
AcDbLine
 10
424.4229018600999
 20
1195.72921789325
 30
0.0
 11
357.6848467627006
 21
1118.854531538349
 31
0.0
  0
LINE
  5
CE
330
70
100
AcDbEntity
  8
0
 62
     6
420
 16711935
370
    25
100
AcDbLine
 10
357.6848467627006
 20
1118.854531538349
 30
0.0
 11
332.3368129574001
 21
1118.854531538349
 31
0.0
  0
LINE
  5
CF
330
70
100
AcDbEntity
  8
0
 62
     6
420
 16711935
370
    25
100
AcDbLine
 10
332.3368129574001
 20
1116.35453153835
 30
0.0
 11
340.5691062837004
 21
1116.35453153835
 31
0.0
  0
LINE
  5
D0
330
70
100
AcDbEntity
  8
0
 62
     6
420
 16711935
370
    25
100
AcDbLine
 10
340.5691062837004
 20
1102.05189226705
 30
0.0
 11
340.5691062837004
 21
1116.35453153835
 31
0.0
  0
LINE
  5
D1
330
70
100
AcDbEntity
  8
0
 62
     6
420
 16711935
370
    25
100
AcDbLine
 10
342.5892056781004
 20
1098.458356270948
 30
0.0
 11
340.5691062837004
 21
1102.05189226705
 31
0.0
  0
LINE
  5
D2
330
70
100
AcDbEntity
  8
0
 62
     6
420
 16711935
370
    25
100
AcDbLine
 10
342.5892056781004
 20
1098.458356270948
 30
0.0
 11
342.4278110871
 21
1098.378475837949
 31
0.0
  0
LINE
  5
D3
330
70
100
AcDbEntity
  8
0
 62
     6
420
 16711935
370
    25
100
AcDbLine
 10
345.9580640659015
 20
1100.16951959625
 30
0.0
 11
342.4278110871
 21
1098.378475837949
 31
0.0
  0
LINE
  5
D4
330
70
100
AcDbEntity
  8
0
 62
     6
420
 16711935
370
    25
100
AcDbLine
 10
345.9580640659015
 20
1100.16951959625
 30
0.0
 11
444.8539693016991
 21
1179.189912773749
 31
0.0
  0
LINE
  5
D5
330
70
100
AcDbEntity
  8
0
 62
     6
420
 16711935
370
    25
100
AcDbLine
 10
444.8539693016991
 20
1179.189912773749
 30
0.0
 11
486.3182632390999
 21
1095.413291756649
 31
0.0
  0
LINE
  5
D6
330
70
100
AcDbEntity
  8
0
 62
     6
420
 16711935
370
    25
100
AcDbLine
 10
486.3182632390999
 20
1095.413291756649
 30
0.0
 11
485.1311049913001
 21
1021.46523471995
 31
0.0
  0
LINE
  5
D7
330
70
100
AcDbEntity
  8
0
 62
     6
420
 16711935
370
    25
100
AcDbLine
 10
485.1311049913001
 20
1021.46523471995
 30
0.0
 11
835.0507916887
 21
314.4692582976495
 31
0.0
  0
LINE
  5
D8
330
70
100
AcDbEntity
  8
0
 62
     6
420
 16711935
370
    25
100
AcDbLine
 10
835.0507916887
 20
314.4692582976495
 30
0.0
 11
896.2401376257984
 21
281.0142928898494
 31
0.0
  0
LINE
  5
D9
330
70
100
AcDbEntity
  8
0
 62
     6
420
 16711935
370
    25
100
AcDbLine
 10
896.2401376257984
 20
281.0142928898494
 30
0.0
 11
928.0250753484997
 21
216.7943477565495
 31
0.0
  0
LINE
  5
DA
330
70
100
AcDbEntity
  8
0
 62
     6
420
 16711935
370
    25
100
AcDbLine
 10
928.0250753484997
 20
216.7943477565495
 30
0.0
 11
870.6716624803993
 21
188.4079227539496
 31
0.0
  0
LINE
  5
DB
330
70
100
AcDbEntity
  8
0
 62
     6
420
 16711935
370
    25
100
AcDbLine
 10
870.6716624803993
 20
188.4079227539496
 30
0.0
 11
838.5377315179994
 21
205.9769869808497
 31
0.0
  0
LINE
  5
DC
330
70
100
AcDbEntity
  8
0
 62
     6
420
 16711935
370
    25
100
AcDbLine
 10
838.5377315179994
 20
205.9769869808497
 30
0.0
 11
798.3685841886999
 21
186.0957204430487
 31
0.0
  0
LINE
  5
DD
330
70
100
AcDbEntity
  8
0
 62
     6
420
 16711935
370
    25
100
AcDbLine
 10
794.781388510999
 20
184.4197266813498
 30
0.0
 11
798.3685841886999
 21
186.0957204430487
 31
0.0
  0
LINE
  5
DE
330
70
100
AcDbEntity
  8
0
 62
     6
420
 16711935
370
    25
100
AcDbLine
 10
821.4484516336996
 20
129.1889103512494
 30
0.0
 11
794.781388510999
 21
184.4197266813498
 31
0.0
  0
LINE
  5
DF
330
70
100
AcDbEntity
  8
0
 62
     6
420
 16711935
370
    25
100
AcDbLine
 10
821.4484516336996
 20
129.1889103512494
 30
0.0
 11
823.4502718853001
 21
129.1889103512494
 31
0.0
  0
LINE
  5
E0
330
70
100
AcDbEntity
  8
0
 62
     6
420
 16711935
370
    25
100
AcDbLine
 10
823.4502718853001
 20
129.1889103512494
 30
0.0
 11
871.1994433664003
 21
152.4390115524493
 31
0.0
  0
LINE
  5
E1
330
70
100
AcDbEntity
  8
0
 62
     6
420
 16711935
370
    25
100
AcDbLine
 10
871.1994433664003
 20
152.4390115524493
 30
0.0
 11
865.282540615699
 21
184.0375901388488
 31
0.0
  0
LINE
  5
E2
330
70
100
AcDbEntity
  8
0
 62
     6
420
 16711935
370
    25
100
AcDbLine
 10
865.282540615699
 20
184.0375901388488
 30
0.0
 11
932.1208476499997
 21
196.5532088924501
 31
0.0
  0
LINE
  5
E3
330
70
100
AcDbEntity
  8
0
 62
     6
420
 16711935
370
    25
100
AcDbLine
 10
932.1208476499997
 20
196.5532088924501
 30
0.0
 11
972.4904764129988
 21
-19.03642317064987
 31
0.0
  0
LINE
  5
E4
330
70
100
AcDbEntity
  8
0
 62
     6
420
 16711935
370
    25
100
AcDbLine
 10
972.4904764129988
 20
-19.03642317064987
 30
0.0
 11
1249.967392413
 21
-588.8960005314493
 31
0.0
  0
LINE
  5
E5
330
70
100
AcDbEntity
  8
0
 62
     6
420
 16711935
370
    25
100
AcDbLine
 10
1249.967392413
 20
-588.8960005314493
 30
0.0
 11
1178.850279517999
 21
-602.2128350136499
 31
0.0
  0
LINE
  5
E6
330
70
100
AcDbEntity
  8
0
 62
     6
420
 16711935
370
    25
100
AcDbLine
 10
1173.5451887946
 20
-601.86662186405
 30
0.0
 11
1178.850279517999
 21
-602.2128350136499
 31
0.0
  0
LINE
  5
E7
330
70
100
AcDbEntity
  8
0
 62
     6
420
 16711935
370
    25
100
AcDbLine
 10
1175.9648551033
 20
-605.3005255053504
 30
0.0
 11
1173.5451887946
 21
-601.86662186405
 31
0.0
  0
LINE
  5
E8
330
70
100
AcDbEntity
  8
0
 62
     6
420
 16711935
370
    25
100
AcDbLine
 10
1175.9648551033
 20
-605.3005255053504
 30
0.0
 11
1181.2860979495
 21
-605.3005255053504
 31
0.0
  0
LINE
  5
E9
330
70
100
AcDbEntity
  8
0
 62
     6
420
 16711935
370
    25
100
AcDbLine
 10
1181.2860979495
 20
-605.3005255053504
 30
0.0
 11
1181.2860979495
 21
-632.8545315383507
 31
0.0
  0
LINE
  5
EA
330
70
100
AcDbEntity
  8
0
 62
     6
420
 16711935
370
    25
100
AcDbLine
 10
34.18814278730042
 20
-632.8545315383507
 30
0.0
 11
1181.2860979495
 21
-632.8545315383507
 31
0.0
  0
LINE
  5
EB
330
70
100
AcDbEntity
  8
0
 62
     6
420
 16711935
370
    25
100
AcDbLine
 10
34.18814278730042
 20
-632.8545315383507
 30
0.0
 11
34.18814278730042
 21
-609.4110037413502
 31
0.0
  0
LINE
  5
EC
330
70
100
AcDbEntity
  8
0
 62
     6
420
 16711935
370
    25
100
AcDbLine
 10
34.18814278730042
 20
-609.4110037413502
 30
0.0
 11
42.5872793863009
 21
-609.4110037413502
 31
0.0
  0
LINE
  5
ED
330
70
100
AcDbEntity
  8
0
 62
     6
420
 16711935
370
    25
100
AcDbLine
 10
43.44495439690035
 20
-605.3005255053504
 30
0.0
 11
43.77993736480038
 21
-608.1029762057497
 31
0.0
  0
LINE
  5
EE
330
70
100
AcDbEntity
  8
0
 62
     6
420
 16711935
370
    25
100
AcDbLine
 10
41.42831415010095
 20
-601.8666218644503
 30
0.0
 11
43.44495439690035
 21
-605.3005255053504
 31
0.0
  0
LINE
  5
EF
330
70
100
AcDbEntity
  8
0
 62
     6
420
 16711935
370
    25
100
AcDbLine
 10
39.12230146320053
 20
-596.1842489429509
 30
0.0
 11
41.42831415010095
 21
-601.8666218644503
 31
0.0
  0
LINE
  5
F0
330
70
100
AcDbEntity
  8
0
 62
     6
420
 16711935
370
    25
100
AcDbLine
 10
37.49400169100045
 20
-595.496033968051
 30
0.0
 11
30.07882127670018
 21
-598.5052521849502
 31
0.0
  0
LINE
  5
F1
330
70
100
AcDbEntity
  8
0
 62
     6
420
 16711935
370
    25
100
AcDbLine
 10
30.63147710219983
 20
-603.2135023815499
 30
0.0
 11
29.38285281129993
 21
-600.1366984679498
 31
0.0
  0
LINE
  5
F2
330
70
100
AcDbEntity
  8
0
 62
     6
420
 16711935
370
    25
100
AcDbLine
 10
30.63147710219983
 20
-603.2135023815499
 30
0.0
 11
12.16191073220034
 21
-617.67888242765
 31
0.0
  0
LINE
  5
F3
330
70
100
AcDbEntity
  8
0
 62
     6
420
 16711935
370
    25
100
AcDbLine
 10
12.16191073220034
 20
-617.67888242765
 30
0.0
 11
-295.6807504538992
 21
140.8931809405494
 31
0.0
  0
LINE
  5
F4
330
70
100
AcDbEntity
  8
0
 62
     6
420
 16711935
370
    25
100
AcDbLine
 10
-294.049872492199
 20
142.1640101539487
 30
0.0
 11
-295.6807504538992
 21
140.8931809405494
 31
0.0
  0
LINE
  5
F5
330
70
100
AcDbEntity
  8
0
 62
     6
420
 16711935
370
    25
100
AcDbLine
 10
-294.049872492199
 20
142.1640101539487
 30
0.0
 11
-285.7889042534998
 21
121.8077031426492
 31
0.0
  0
LINE
  5
F6
330
70
100
AcDbEntity
  8
0
 62
     6
420
 16711935
370
    25
100
AcDbLine
 10
-284.0935118090992
 20
120.9764137313505
 30
0.0
 11
-263.0183237071987
 21
128.4036184761498
 31
0.0
  0
LINE
  5
F7
330
70
100
AcDbEntity
  8
0
 62
     6
420
 16711935
370
    25
100
AcDbLine
 10
-258.5888744777995
 20
127.9389103512494
 30
0.0
 11
-263.0183237071987
 21
128.4036184761498
 31
0.0
  0
LINE
  5
F8
330
70
100
AcDbEntity
  8
0
 62
     6
420
 16711935
370
    25
100
AcDbLine
 10
-246.867539339899
 20
127.9389103512494
 30
0.0
 11
-258.5888744777995
 21
127.9389103512494
 31
0.0
  0
LINE
  5
F9
330
70
100
AcDbEntity
  8
0
 62
     6
420
 16711935
370
    25
100
AcDbLine
 10
-245.6175393398989
 20
189.2062054165508
 30
0.0
 11
-245.6175393398989
 21
129.1889103512494
 31
0.0
  0
LINE
  5
FA
330
70
100
AcDbEntity
  8
0
 62
     6
420
 16711935
370
    25
100
AcDbLine
 10
-273.0499436371992
 20
190.6625626056484
 30
0.0
 11
-246.867539339899
 21
190.6625626056484
 31
0.0
  0
LINE
  5
FB
330
70
100
AcDbEntity
  8
0
 62
     6
420
 16711935
370
    25
100
AcDbLine
 10
-274.512761978699
 20
192.0104798648499
 30
0.0
 11
-310.3561065773992
 21
185.6525528842485
 31
0.0
  0
LINE
  5
FC
330
70
100
AcDbEntity
  8
0
 62
     6
420
 16711935
370
    25
100
AcDbLine
 10
-310.3561065773992
 20
185.6525528842485
 30
0.0
 11
-407.9673924129992
 21
735.9443328352499
 31
0.0
  0
LINE
  5
FD
330
70
100
AcDbEntity
  8
0
 62
     6
420
 16711935
370
    25
100
AcDbLine
 10
-407.9673924129992
 20
735.9443328352499
 30
0.0
 11
-379.7230439897994
 21
740.9543425566489
 31
0.0
  0
LINE
  5
FE
330
70
100
AcDbEntity
  8
0
 62
     6
420
 16711935
370
    25
100
AcDbLine
 10
-379.8023594089991
 20
747.7556606549496
 30
0.0
 11
-379.7230439897994
 21
740.9543425566489
 31
0.0
  0
LINE
  5
FF
330
70
100
AcDbEntity
  8
0
 62
     6
420
 16711935
370
    25
100
AcDbLine
 10
868.2528860320999
 20
199.6662081715494
 30
0.0
 11
865.1317395119987
 21
203.5723922016495
 31
0.0
  0
LINE
  5
100
330
70
100
AcDbEntity
  8
0
 62
     6
420
 16711935
370
    25
100
AcDbLine
 10
872.9440838722002
 20
209.8145106150496
 30
0.0
 11
876.0652303923999
 21
205.9083265848494
 31
0.0
  0
LINE
  5
101
330
70
100
AcDbEntity
  8
0
 62
     6
420
 16711935
370
    25
100
AcDbLine
 10
899.5022634731995
 20
224.6346818249494
 30
0.0
 11
896.381116953
 21
228.5408658550496
 31
0.0
  0
LINE
  5
102
330
70
100
AcDbEntity
  8
0
 62
     6
420
 16711935
370
    25
100
AcDbLine
 10
904.1934613132998
 20
234.7829842684496
 30
0.0
 11
907.3146078334994
 21
230.8768002383494
 31
0.0
  0
SPLINE
  5
103
330
70
100
AcDbEntity
  8
0
 62
     6
420
 16711935
370
    25
100
AcDbSpline
210
0.0
220
0.0
230
1.0
 70
     8
 71
     3
 72
    11
 73
     7
 74
     0
 42
0.0000000001
 43
0.0000000001
 40
0.0
 40
0.0
 40
0.0
 40
0.0
 40
1.0
 40
1.0
 40
1.0
 40
2.0
 40
2.0
 40
2.0
 40
2.0
 10
-111.4943963758587
 20
-200.3047126458859
 30
0.0
 10
-108.9356448406206
 20
-199.266323651671
 30
0.0
 10
-107.7031474819478
 20
-196.3502650921473
 30
0.0
 10
-108.7415364761627
 20
-193.7915135569092
 30
0.0
 10
-109.7799254703786
 20
-191.2327620216711
 30
0.0
 10
-112.6959840299023
 20
-190.0002646629982
 30
0.0
 10
-115.2547355651395
 20
-191.038653657215
 30
0.0
  0
SPLINE
  5
104
330
70
100
AcDbEntity
  8
0
 62
     6
420
 16711935
370
    25
100
AcDbSpline
210
0.0
220
0.0
230
1.0
 70
     8
 71
     3
 72
    11
 73
     7
 74
     0
 42
0.0000000001
 43
0.0000000001
 40
0.0
 40
0.0
 40
0.0
 40
0.0
 40
1.0
 40
1.0
 40
1.0
 40
2.0
 40
2.0
 40
2.0
 40
2.0
 10
-119.8877650595404
 20
-192.9188232518136
 30
0.0
 10
-122.4465165947786
 20
-193.9572122460304
 30
0.0
 10
-123.6790139534514
 20
-196.8732708055522
 30
0.0
 10
-122.6406249592355
 20
-199.4320223407921
 30
0.0
 10
-121.6022359650187
 20
-201.9907738760303
 30
0.0
 10
-118.686177405496
 20
-203.2232712347031
 30
0.0
 10
-116.1274258702578
 20
-202.1848822404863
 30
0.0
  0
SPLINE
  5
105
330
70
100
AcDbEntity
  8
0
 62
     6
420
 16711935
370
    25
100
AcDbSpline
210
0.0
220
0.0
230
1.0
 70
     8
 71
     3
 72
    11
 73
     7
 74
     0
 42
0.0000000001
 43
0.0000000001
 40
0.0
 40
0.0
 40
0.0
 40
0.0
 40
1.0
 40
1.0
 40
1.0
 40
2.0
 40
2.0
 40
2.0
 40
2.0
 10
38.91917119544178
 20
-570.9470721926863
 30
0.0
 10
41.47792273067898
 20
-569.9086831984714
 30
0.0
 10
42.71042008935364
 20
-566.9926246389477
 30
0.0
 10
41.67203109513775
 20
-564.4338731037096
 30
0.0
 10
40.63364210092095
 20
-561.8751215684715
 30
0.0
 10
37.71758354139729
 20
-560.6426242097986
 30
0.0
 10
35.15883200615917
 20
-561.6810132040136
 30
0.0
  0
SPLINE
  5
106
330
70
100
AcDbEntity
  8
0
 62
     6
420
 16711935
370
    25
100
AcDbSpline
210
0.0
220
0.0
230
1.0
 70
     8
 71
     3
 72
    11
 73
     7
 74
     0
 42
0.0000000001
 43
0.0000000001
 40
0.0
 40
0.0
 40
0.0
 40
0.0
 40
1.0
 40
1.0
 40
1.0
 40
2.0
 40
2.0
 40
2.0
 40
2.0
 10
30.52580251185919
 20
-563.561182798714
 30
0.0
 10
27.96705097662107
 20
-564.5995717929308
 30
0.0
 10
26.73455361794822
 20
-567.5156303524527
 30
0.0
 10
27.77294261216411
 20
-570.0743818876908
 30
0.0
 10
28.81133160638001
 20
-572.6331334229289
 30
0.0
 10
31.72739016590367
 20
-573.8656307816017
 30
0.0
 10
34.28614170114179
 20
-572.8272417873868
 30
0.0
  0
SPLINE
  5
107
330
70
100
AcDbEntity
  8
0
 62
     6
420
 16711935
370
    25
100
AcDbSpline
210
0.0
220
0.0
230
1.0
 70
     8
 71
     3
 72
    11
 73
     7
 74
     0
 42
0.0000000001
 43
0.0000000001
 40
0.0
 40
0.0
 40
0.0
 40
0.0
 40
1.0
 40
1.0
 40
1.0
 40
2.0
 40
2.0
 40
2.0
 40
2.0
 10
-96.45303961875743
 20
-237.3689486005878
 30
0.0
 10
-93.89428808351931
 20
-236.330559606371
 30
0.0
 10
-92.66179072484646
 20
-233.4145010468474
 30
0.0
 10
-93.70017971906236
 20
-230.8557495116092
 30
0.0
 10
-94.73856871327825
 20
-228.2969979763711
 30
0.0
 10
-97.65462727280192
 20
-227.0645006176983
 30
0.0
 10
-100.21337880804
 20
-228.1028896119133
 30
0.0
  0
SPLINE
  5
108
330
70
100
AcDbEntity
  8
0
 62
     6
420
 16711935
370
    25
100
AcDbSpline
210
0.0
220
0.0
230
1.0
 70
     8
 71
     3
 72
    11
 73
     7
 74
     0
 42
0.0000000001
 43
0.0000000001
 40
0.0
 40
0.0
 40
0.0
 40
0.0
 40
1.0
 40
1.0
 40
1.0
 40
2.0
 40
2.0
 40
2.0
 40
2.0
 10
-104.84640830234
 20
-229.9830592065136
 30
0.0
 10
-107.4051598375781
 20
-231.0214482007304
 30
0.0
 10
-108.637657196251
 20
-233.9375067602523
 30
0.0
 10
-107.599268202036
 20
-236.4962582954904
 30
0.0
 10
-106.5608792078201
 20
-239.0550098307303
 30
0.0
 10
-103.6448206482955
 20
-240.2875071894032
 30
0.0
 10
-101.0860691130574
 20
-239.2491181951864
 30
0.0
  0
SPLINE
  5
109
330
70
100
AcDbEntity
  8
0
 62
     6
420
 16711935
370
    25
100
AcDbSpline
210
0.0
220
0.0
230
1.0
 70
     8
 71
     3
 72
    11
 73
     7
 74
     0
 42
0.0000000001
 43
0.0000000001
 40
0.0
 40
0.0
 40
0.0
 40
0.0
 40
1.0
 40
1.0
 40
1.0
 40
2.0
 40
2.0
 40
2.0
 40
2.0
 10
-231.8252504329584
 20
96.2091749916126
 30
0.0
 10
-229.2664988977203
 20
97.2475639858294
 30
0.0
 10
-228.0340015390475
 20
100.1636225453512
 30
0.0
 10
-229.0723905332634
 20
102.7223740805893
 30
0.0
 10
-230.1107795274793
 20
105.2811256158274
 30
0.0
 10
-233.026838087002
 20
106.5136229745003
 30
0.0
 10
-235.5855896222402
 20
105.4752339802853
 30
0.0
  0
SPLINE
  5
10A
330
70
100
AcDbEntity
  8
0
 62
     6
420
 16711935
370
    25
100
AcDbSpline
210
0.0
220
0.0
230
1.0
 70
     8
 71
     3
 72
    11
 73
     7
 74
     0
 42
0.0000000001
 43
0.0000000001
 40
0.0
 40
0.0
 40
0.0
 40
0.0
 40
1.0
 40
1.0
 40
1.0
 40
2.0
 40
2.0
 40
2.0
 40
2.0
 10
-240.2186191166402
 20
103.5950643856849
 30
0.0
 10
-242.7773706518783
 20
102.5566753914699
 30
0.0
 10
-244.0098680105502
 20
99.64061683194813
 30
0.0
 10
-242.9714790163353
 20
97.0818652967082
 30
0.0
 10
-241.9330900221194
 20
94.52311376147008
 30
0.0
 10
-239.0170314625966
 20
93.29061640279723
 30
0.0
 10
-236.4582799273585
 20
94.32900539701222
 30
0.0
  0
SPLINE
  5
10B
330
70
100
AcDbEntity
  8
0
 62
     6
420
 16711935
370
    25
100
AcDbSpline
210
0.0
220
0.0
230
1.0
 70
     8
 71
     3
 72
    11
 73
     7
 74
     0
 42
0.0000000001
 43
0.0000000001
 40
0.0
 40
0.0
 40
0.0
 40
0.0
 40
1.0
 40
1.0
 40
1.0
 40
2.0
 40
2.0
 40
2.0
 40
2.0
 10
23.87781443834228
 20
-533.8828362379863
 30
0.0
 10
26.4365659735804
 20
-532.8444472437714
 30
0.0
 10
27.66906333225325
 20
-529.9283886842476
 30
0.0
 10
26.63067433803735
 20
-527.3696371490095
 30
0.0
 10
25.59228534382146
 20
-524.8108856137714
 30
0.0
 10
22.67622678429871
 20
-523.5783882550967
 30
0.0
 10
20.11747524905968
 20
-524.6167772493135
 30
0.0
  0
SPLINE
  5
10C
330
70
100
AcDbEntity
  8
0
 62
     6
420
 16711935
370
    25
100
AcDbSpline
210
0.0
220
0.0
230
1.0
 70
     8
 71
     3
 72
    11
 73
     7
 74
     0
 42
0.0000000001
 43
0.0000000001
 40
0.0
 40
0.0
 40
0.0
 40
0.0
 40
1.0
 40
1.0
 40
1.0
 40
2.0
 40
2.0
 40
2.0
 40
2.0
 10
15.48444575475969
 20
-526.496946844014
 30
0.0
 10
12.92569421952157
 20
-527.535335838229
 30
0.0
 10
11.69319686084873
 20
-530.4513943977526
 30
0.0
 10
12.73158585506462
 20
-533.0101459329908
 30
0.0
 10
13.76997484928051
 20
-535.5688974682289
 30
0.0
 10
16.68603340880327
 20
-536.8013948269017
 30
0.0
 10
19.24478494404138
 20
-535.7630058326868
 30
0.0
  0
SPLINE
  5
10D
330
70
100
AcDbEntity
  8
0
 62
     6
420
 16711935
370
    25
100
AcDbSpline
210
0.0
220
0.0
230
1.0
 70
     8
 71
     3
 72
    14
 73
    10
 74
     0
 42
0.0000000001
 43
0.0000000001
 40
0.0
 40
0.0
 40
0.0
 40
0.0
 40
1.0
 40
1.0
 40
1.0
 40
2.0
 40
2.0
 40
2.0
 40
3.0
 40
3.0
 40
3.0
 40
3.0
 10
916.9417960670761
 20
174.0259757334424
 30
0.0
 10
917.4500108770372
 20
171.3117605507596
 30
0.0
 10
920.0623065284217
 20
169.5234439096639
 30
0.0
 10
922.7765217111064
 20
170.0316587196266
 30
0.0
 10
925.4907368937892
 20
170.5398735295875
 30
0.0
 10
927.279053534885
 20
173.1521691809721
 30
0.0
 10
926.7708387249241
 20
175.866384363655
 30
0.0
 10
926.7708326320699
 20
175.8664169036674
 30
0.0
 10
926.7708265388991
 20
175.8664494435888
 30
0.0
 10
926.7708204453994
 20
175.8664819834794
 30
0.0
  0
SPLINE
  5
10E
330
70
100
AcDbEntity
  8
0
 62
     6
420
 16711935
370
    25
100
AcDbSpline
210
0.0
220
0.0
230
1.0
 70
     8
 71
     3
 72
    14
 73
    10
 74
     0
 42
0.0000000001
 43
0.0000000001
 40
0.0
 40
0.0
 40
0.0
 40
0.0
 40
1.0
 40
1.0
 40
1.0
 40
2.0
 40
2.0
 40
2.0
 40
3.0
 40
3.0
 40
3.0
 40
3.0
 10
925.8505173238226
 20
180.7810510449562
 30
0.0
 10
925.3423025138618
 20
183.4952662276391
 30
0.0
 10
922.7300068624773
 20
185.2835828687366
 30
0.0
 10
920.0157916797943
 20
184.7753680587739
 30
0.0
 10
917.3015764971115
 20
184.267153248813
 30
0.0
 10
915.513259856014
 20
181.6548575974266
 30
0.0
 10
916.0214746659748
 20
178.9406424147437
 30
0.0
 10
916.0214807588291
 20
178.9406098747313
 30
0.0
 10
916.0214868520014
 20
178.9405773348117
 30
0.0
 10
916.0214929454996
 20
178.9405447949211
 30
0.0
  0
SPLINE
  5
10F
330
70
100
AcDbEntity
  8
0
 62
     6
420
 16711935
370
    25
100
AcDbSpline
210
0.0
220
0.0
230
1.0
 70
     8
 71
     3
 72
    11
 73
     7
 74
     0
 42
0.0000000001
 43
0.0000000001
 40
0.0
 40
0.0
 40
0.0
 40
0.0
 40
1.0
 40
1.0
 40
1.0
 40
2.0
 40
2.0
 40
2.0
 40
2.0
 10
1172.358457432579
 20
-539.5055053606792
 30
0.0
 10
1169.875727683267
 20
-540.7144363410679
 30
0.0
 10
1168.84310975444
 20
-543.707118662358
 30
0.0
 10
1170.052040734828
 20
-546.18984841167
 30
0.0
 10
1171.260951491735
 20
-548.672536628881
 30
0.0
 10
1174.253560618919
 20
-549.7051689159034
 30
0.0
 10
1176.73627743535
 20
-548.4963168937574
 30
0.0
  0
SPLINE
  5
110
330
70
100
AcDbEntity
  8
0
 62
     6
420
 16711935
370
    25
100
AcDbSpline
210
0.0
220
0.0
230
1.0
 70
     8
 71
     3
 72
    11
 73
     7
 74
     0
 42
0.0000000001
 43
0.0000000001
 40
0.0
 40
0.0
 40
0.0
 40
0.0
 40
1.0
 40
1.0
 40
1.0
 40
2.0
 40
2.0
 40
2.0
 40
2.0
 10
1181.231615119957
 20
-546.3074400429722
 30
0.0
 10
1183.714345220495
 20
-545.098509783902
 30
0.0
 10
1184.746964018792
 20
-542.1058277626307
 30
0.0
 10
1183.538033759721
 20
-539.6230976620918
 30
0.0
 10
1182.329123227406
 20
-537.1404080735774
 30
0.0
 10
1179.336512602503
 20
-536.1077752697474
 30
0.0
 10
1176.853795117195
 20
-537.3166285098868
 30
0.0
  0
SPLINE
  5
111
330
70
100
AcDbEntity
  8
0
 62
     6
420
 16711935
370
    25
100
AcDbSpline
210
0.0
220
0.0
230
1.0
 70
     8
 71
     3
 72
    11
 73
     7
 74
     0
 42
0.0000000001
 43
0.0000000001
 40
0.0
 40
0.0
 40
0.0
 40
0.0
 40
1.0
 40
1.0
 40
1.0
 40
2.0
 40
2.0
 40
2.0
 40
2.0
 10
1003.204460479579
 20
-192.1107505026793
 30
0.0
 10
1000.721730730269
 20
-193.319681483068
 30
0.0
 10
999.6891128014395
 20
-196.3123638043598
 30
0.0
 10
1000.898043781828
 20
-198.7950935536701
 30
0.0
 10
1002.106954538732
 20
-201.2777817708811
 30
0.0
 10
1005.099563665919
 20
-202.3104140579035
 30
0.0
 10
1007.582280482349
 20
-201.1015620357593
 30
0.0
  0
SPLINE
  5
112
330
70
100
AcDbEntity
  8
0
 62
     6
420
 16711935
370
    25
100
AcDbSpline
210
0.0
220
0.0
230
1.0
 70
     8
 71
     3
 72
    11
 73
     7
 74
     0
 42
0.0000000001
 43
0.0000000001
 40
0.0
 40
0.0
 40
0.0
 40
0.0
 40
1.0
 40
1.0
 40
1.0
 40
2.0
 40
2.0
 40
2.0
 40
2.0
 10
1012.077618167011
 20
-198.9126851850251
 30
0.0
 10
1014.560347916325
 20
-197.70375420464
 30
0.0
 10
1015.592965845159
 20
-194.7110718833519
 30
0.0
 10
1014.384034864773
 20
-192.228342134038
 30
0.0
 10
1013.175124107873
 20
-189.7456539168233
 30
0.0
 10
1010.182514980684
 20
-188.7130216297955
 30
0.0
 10
1007.699798164251
 20
-189.9218736519433
 30
0.0
  0
SPLINE
  5
113
330
70
100
AcDbEntity
  8
0
 62
     6
420
 16711935
370
    25
100
AcDbSpline
210
0.0
220
0.0
230
1.0
 70
     8
 71
     3
 72
    14
 73
    10
 74
     0
 42
0.0000000001
 43
0.0000000001
 40
0.0
 40
0.0
 40
0.0
 40
0.0
 40
1.0
 40
1.0
 40
1.0
 40
2.0
 40
2.0
 40
2.0
 40
3.0
 40
3.0
 40
3.0
 40
3.0
 10
877.6256985537747
 20
166.6639507333439
 30
0.0
 10
878.1339133637375
 20
163.949735550661
 30
0.0
 10
880.7462090151238
 20
162.1614189095635
 30
0.0
 10
883.460424197805
 20
162.6696337195262
 30
0.0
 10
886.1746393804878
 20
163.1778485294871
 30
0.0
 10
887.9629560215853
 20
165.7901441808735
 30
0.0
 10
887.4547412116227
 20
168.5043593635564
 30
0.0
 10
887.4547351187702
 20
168.504391903567
 30
0.0
 10
887.4547290255996
 20
168.5044244434884
 30
0.0
 10
887.4547229320979
 20
168.504456983379
 30
0.0
  0
SPLINE
  5
114
330
70
100
AcDbEntity
  8
0
 62
     6
420
 16711935
370
    25
100
AcDbSpline
210
0.0
220
0.0
230
1.0
 70
     8
 71
     3
 72
    14
 73
    10
 74
     0
 42
0.0000000001
 43
0.0000000001
 40
0.0
 40
0.0
 40
0.0
 40
0.0
 40
1.0
 40
1.0
 40
1.0
 40
2.0
 40
2.0
 40
2.0
 40
3.0
 40
3.0
 40
3.0
 40
3.0
 10
886.5344198105232
 20
173.4190260447558
 30
0.0
 10
886.0262050005621
 20
176.1332412274387
 30
0.0
 10
883.4139093491758
 20
177.9215578685343
 30
0.0
 10
880.6996941664928
 20
177.4133430585734
 30
0.0
 10
877.98547898381
 20
176.9051282486125
 30
0.0
 10
876.1971623427125
 20
174.2928325972261
 30
0.0
 10
876.7053771526734
 20
171.5786174145432
 30
0.0
 10
876.7053832455276
 20
171.5785848745326
 30
0.0
 10
876.7053893387
 20
171.5785523346094
 30
0.0
 10
876.7053954321999
 20
171.5785197947207
 30
0.0
  0
SPLINE
  5
115
330
70
100
AcDbEntity
  8
0
 62
     6
420
 16711935
370
    25
100
AcDbSpline
210
0.0
220
0.0
230
1.0
 70
     8
 71
     3
 72
    11
 73
     7
 74
     0
 42
0.0000000001
 43
0.0000000001
 40
0.0
 40
0.0
 40
0.0
 40
0.0
 40
1.0
 40
1.0
 40
1.0
 40
2.0
 40
2.0
 40
2.0
 40
2.0
 10
1189.869737443679
 20
-575.4687514929774
 30
0.0
 10
1187.387007694368
 20
-576.6776824733661
 30
0.0
 10
1186.35438976554
 20
-579.6703647946578
 30
0.0
 10
1187.563320745928
 20
-582.1530945439699
 30
0.0
 10
1188.772231502833
 20
-584.6357827611809
 30
0.0
 10
1191.764840630018
 20
-585.6684150482033
 30
0.0
 10
1194.247557446449
 20
-584.4595630260573
 30
0.0
  0
SPLINE
  5
116
330
70
100
AcDbEntity
  8
0
 62
     6
420
 16711935
370
    25
100
AcDbSpline
210
0.0
220
0.0
230
1.0
 70
     8
 71
     3
 72
    11
 73
     7
 74
     0
 42
0.0000000001
 43
0.0000000001
 40
0.0
 40
0.0
 40
0.0
 40
0.0
 40
1.0
 40
1.0
 40
1.0
 40
2.0
 40
2.0
 40
2.0
 40
2.0
 10
1198.742895131012
 20
-582.2706861752249
 30
0.0
 10
1201.225624880326
 20
-581.0617551948417
 30
0.0
 10
1202.258242809159
 20
-578.0690728735517
 30
0.0
 10
1201.049311828774
 20
-575.5863431242378
 30
0.0
 10
1199.840401071871
 20
-573.1036549070213
 30
0.0
 10
1196.847791944685
 20
-572.0710226199953
 30
0.0
 10
1194.365075128249
 20
-573.2798746421431
 30
0.0
  0
SPLINE
  5
117
330
70
100
AcDbEntity
  8
0
 62
     6
420
 16711935
370
    25
100
AcDbSpline
210
0.0
220
0.0
230
1.0
 70
     8
 71
     3
 72
    11
 73
     7
 74
     0
 42
0.0000000001
 43
0.0000000001
 40
0.0
 40
0.0
 40
0.0
 40
0.0
 40
1.0
 40
1.0
 40
1.0
 40
2.0
 40
2.0
 40
2.0
 40
2.0
 10
1020.715740490679
 20
-228.0739966350775
 30
0.0
 10
1018.233010741367
 20
-229.2829276154662
 30
0.0
 10
1017.200392812539
 20
-232.275609936758
 30
0.0
 10
1018.409323792928
 20
-234.75833968607
 30
0.0
 10
1019.618234549835
 20
-237.241027903281
 30
0.0
 10
1022.610843677019
 20
-238.2736601903034
 30
0.0
 10
1025.093560493451
 20
-237.0648081681593
 30
0.0
  0
SPLINE
  5
118
330
70
100
AcDbEntity
  8
0
 62
     6
420
 16711935
370
    25
100
AcDbSpline
210
0.0
220
0.0
230
1.0
 70
     8
 71
     3
 72
    11
 73
     7
 74
     0
 42
0.0000000001
 43
0.0000000001
 40
0.0
 40
0.0
 40
0.0
 40
0.0
 40
1.0
 40
1.0
 40
1.0
 40
2.0
 40
2.0
 40
2.0
 40
2.0
 10
1029.588898178012
 20
-234.8759313173268
 30
0.0
 10
1032.071627927325
 20
-233.6670003369418
 30
0.0
 10
1033.104245856161
 20
-230.6743180156518
 30
0.0
 10
1031.895314875775
 20
-228.1915882663379
 30
0.0
 10
1030.686404118873
 20
-225.7089000491214
 30
0.0
 10
1027.693794991684
 20
-224.6762677620954
 30
0.0
 10
1025.211078175249
 20
-225.8851197842414
 30
0.0
  0
SPLINE
  5
119
330
70
100
AcDbEntity
  8
0
 62
     6
420
 16711935
370
    25
100
AcDbSpline
210
0.0
220
0.0
230
1.0
 70
     8
 71
     3
 72
    11
 73
     7
 74
     0
 42
0.0000000001
 43
0.0000000001
 40
0.0
 40
0.0
 40
0.0
 40
0.0
 40
1.0
 40
1.0
 40
1.0
 40
2.0
 40
2.0
 40
2.0
 40
2.0
 10
1109.134590020898
 20
-618.9618706831497
 30
0.0
 10
1109.134590020898
 20
-621.7232944323041
 30
0.0
 10
1111.373166271745
 20
-623.9618706831497
 30
0.0
 10
1114.1345900209
 20
-623.9618706831497
 30
0.0
 10
1116.896013770054
 20
-623.9618706831497
 30
0.0
 10
1119.1345900209
 20
-621.7232944323041
 30
0.0
 10
1119.1345900209
 20
-618.9618706831497
 30
0.0
  0
SPLINE
  5
11A
330
70
100
AcDbEntity
  8
0
 62
     6
420
 16711935
370
    25
100
AcDbSpline
210
0.0
220
0.0
230
1.0
 70
     8
 71
     3
 72
    11
 73
     7
 74
     0
 42
0.0000000001
 43
0.0000000001
 40
0.0
 40
0.0
 40
0.0
 40
0.0
 40
1.0
 40
1.0
 40
1.0
 40
2.0
 40
2.0
 40
2.0
 40
2.0
 10
1119.1345900209
 20
-613.9618706831497
 30
0.0
 10
1119.1345900209
 20
-611.2004469339954
 30
0.0
 10
1116.896013770054
 20
-608.9618706831497
 30
0.0
 10
1114.1345900209
 20
-608.9618706831497
 30
0.0
 10
1111.373166271745
 20
-608.9618706831497
 30
0.0
 10
1109.134590020898
 20
-611.2004469339954
 30
0.0
 10
1109.134590020898
 20
-613.9618706831497
 30
0.0
  0
SPLINE
  5
11B
330
70
100
AcDbEntity
  8
0
 62
     6
420
 16711935
370
    25
100
AcDbSpline
210
0.0
220
0.0
230
1.0
 70
     8
 71
     3
 72
    11
 73
     7
 74
     0
 42
0.0000000001
 43
0.0000000001
 40
0.0
 40
0.0
 40
0.0
 40
0.0
 40
1.0
 40
1.0
 40
1.0
 40
2.0
 40
2.0
 40
2.0
 40
2.0
 10
84.13459002090077
 20
-618.9618706831497
 30
0.0
 10
84.13459002090077
 20
-621.7232944323041
 30
0.0
 10
86.37316627174641
 20
-623.9618706831497
 30
0.0
 10
89.13459002090077
 20
-623.9618706831497
 30
0.0
 10
91.8960137700542
 20
-623.9618706831497
 30
0.0
 10
94.13459002090077
 20
-621.7232944323041
 30
0.0
 10
94.13459002090077
 20
-618.9618706831497
 30
0.0
  0
SPLINE
  5
11C
330
70
100
AcDbEntity
  8
0
 62
     6
420
 16711935
370
    25
100
AcDbSpline
210
0.0
220
0.0
230
1.0
 70
     8
 71
     3
 72
    11
 73
     7
 74
     0
 42
0.0000000001
 43
0.0000000001
 40
0.0
 40
0.0
 40
0.0
 40
0.0
 40
1.0
 40
1.0
 40
1.0
 40
2.0
 40
2.0
 40
2.0
 40
2.0
 10
94.13459002090077
 20
-613.9618706831497
 30
0.0
 10
94.13459002090077
 20
-611.2004469339954
 30
0.0
 10
91.8960137700542
 20
-608.9618706831497
 30
0.0
 10
89.13459002090077
 20
-608.9618706831497
 30
0.0
 10
86.37316627174641
 20
-608.9618706831497
 30
0.0
 10
84.13459002090077
 20
-611.2004469339954
 30
0.0
 10
84.13459002090077
 20
-613.9618706831497
 30
0.0
  0
SPLINE
  5
11D
330
70
100
AcDbEntity
  8
0
 62
     6
420
 16711935
370
    25
100
AcDbSpline
210
0.0
220
0.0
230
1.0
 70
     8
 71
     3
 72
    11
 73
     7
 74
     0
 42
0.0000000001
 43
0.0000000001
 40
0.0
 40
0.0
 40
0.0
 40
0.0
 40
1.0
 40
1.0
 40
1.0
 40
2.0
 40
2.0
 40
2.0
 40
2.0
 10
439.1345900208998
 20
-618.9618706831497
 30
0.0
 10
439.1345900208998
 20
-621.7232944323041
 30
0.0
 10
441.3731662717455
 20
-623.9618706831497
 30
0.0
 10
444.1345900208998
 20
-623.9618706831497
 30
0.0
 10
446.8960137700541
 20
-623.9618706831497
 30
0.0
 10
449.1345900208998
 20
-621.7232944323041
 30
0.0
 10
449.1345900208998
 20
-618.9618706831497
 30
0.0
  0
SPLINE
  5
11E
330
70
100
AcDbEntity
  8
0
 62
     6
420
 16711935
370
    25
100
AcDbSpline
210
0.0
220
0.0
230
1.0
 70
     8
 71
     3
 72
    11
 73
     7
 74
     0
 42
0.0000000001
 43
0.0000000001
 40
0.0
 40
0.0
 40
0.0
 40
0.0
 40
1.0
 40
1.0
 40
1.0
 40
2.0
 40
2.0
 40
2.0
 40
2.0
 10
449.1345900208998
 20
-613.9618706831497
 30
0.0
 10
449.1345900208998
 20
-611.2004469339954
 30
0.0
 10
446.8960137700541
 20
-608.9618706831497
 30
0.0
 10
444.1345900208998
 20
-608.9618706831497
 30
0.0
 10
441.3731662717455
 20
-608.9618706831497
 30
0.0
 10
439.1345900208998
 20
-611.2004469339954
 30
0.0
 10
439.1345900208998
 20
-613.9618706831497
 30
0.0
  0
SPLINE
  5
11F
330
70
100
AcDbEntity
  8
0
 62
     6
420
 16711935
370
    25
100
AcDbSpline
210
0.0
220
0.0
230
1.0
 70
     8
 71
     3
 72
    11
 73
     7
 74
     0
 42
0.0000000001
 43
0.0000000001
 40
0.0
 40
0.0
 40
0.0
 40
0.0
 40
1.0
 40
1.0
 40
1.0
 40
2.0
 40
2.0
 40
2.0
 40
2.0
 10
794.1345900208998
 20
-618.9618706831497
 30
0.0
 10
794.1345900208998
 20
-621.7232944323041
 30
0.0
 10
796.3731662717473
 20
-623.9618706831497
 30
0.0
 10
799.1345900208998
 20
-623.9618706831497
 30
0.0
 10
801.8960137700542
 20
-623.9618706831497
 30
0.0
 10
804.1345900208998
 20
-621.7232944323041
 30
0.0
 10
804.1345900208998
 20
-618.9618706831497
 30
0.0
  0
SPLINE
  5
120
330
70
100
AcDbEntity
  8
0
 62
     6
420
 16711935
370
    25
100
AcDbSpline
210
0.0
220
0.0
230
1.0
 70
     8
 71
     3
 72
    11
 73
     7
 74
     0
 42
0.0000000001
 43
0.0000000001
 40
0.0
 40
0.0
 40
0.0
 40
0.0
 40
1.0
 40
1.0
 40
1.0
 40
2.0
 40
2.0
 40
2.0
 40
2.0
 10
804.1345900208998
 20
-613.9618706831497
 30
0.0
 10
804.1345900208998
 20
-611.2004469339954
 30
0.0
 10
801.8960137700542
 20
-608.9618706831497
 30
0.0
 10
799.1345900208998
 20
-608.9618706831497
 30
0.0
 10
796.3731662717473
 20
-608.9618706831497
 30
0.0
 10
794.1345900208998
 20
-611.2004469339954
 30
0.0
 10
794.1345900208998
 20
-613.9618706831497
 30
0.0
  0
SPLINE
  5
121
330
70
100
AcDbEntity
  8
0
 62
     6
420
 16711935
370
    25
100
AcDbSpline
210
0.0
220
0.0
230
1.0
 70
     8
 71
     3
 72
    11
 73
     7
 74
     0
 42
0.0000000001
 43
0.0000000001
 40
0.0
 40
0.0
 40
0.0
 40
0.0
 40
1.0
 40
1.0
 40
1.0
 40
2.0
 40
2.0
 40
2.0
 40
2.0
 10
754.1345900208998
 20
-618.9618706831497
 30
0.0
 10
754.1345900208998
 20
-621.7232944323041
 30
0.0
 10
756.3731662717473
 20
-623.9618706831497
 30
0.0
 10
759.1345900208998
 20
-623.9618706831497
 30
0.0
 10
761.8960137700542
 20
-623.9618706831497
 30
0.0
 10
764.1345900208998
 20
-621.7232944323041
 30
0.0
 10
764.1345900208998
 20
-618.9618706831497
 30
0.0
  0
SPLINE
  5
122
330
70
100
AcDbEntity
  8
0
 62
     6
420
 16711935
370
    25
100
AcDbSpline
210
0.0
220
0.0
230
1.0
 70
     8
 71
     3
 72
    11
 73
     7
 74
     0
 42
0.0000000001
 43
0.0000000001
 40
0.0
 40
0.0
 40
0.0
 40
0.0
 40
1.0
 40
1.0
 40
1.0
 40
2.0
 40
2.0
 40
2.0
 40
2.0
 10
764.1345900208998
 20
-613.9618706831497
 30
0.0
 10
764.1345900208998
 20
-611.2004469339954
 30
0.0
 10
761.8960137700542
 20
-608.9618706831497
 30
0.0
 10
759.1345900208998
 20
-608.9618706831497
 30
0.0
 10
756.3731662717473
 20
-608.9618706831497
 30
0.0
 10
754.1345900208998
 20
-611.2004469339954
 30
0.0
 10
754.1345900208998
 20
-613.9618706831497
 30
0.0
  0
SPLINE
  5
123
330
70
100
AcDbEntity
  8
0
 62
     6
420
 16711935
370
    25
100
AcDbSpline
210
0.0
220
0.0
230
1.0
 70
     8
 71
     3
 72
    11
 73
     7
 74
     0
 42
0.0000000001
 43
0.0000000001
 40
0.0
 40
0.0
 40
0.0
 40
0.0
 40
1.0
 40
1.0
 40
1.0
 40
2.0
 40
2.0
 40
2.0
 40
2.0
 10
399.1345900208998
 20
-618.9618706831497
 30
0.0
 10
399.1345900208998
 20
-621.7232944323041
 30
0.0
 10
401.3731662717463
 20
-623.9618706831497
 30
0.0
 10
404.1345900209007
 20
-623.9618706831497
 30
0.0
 10
406.8960137700542
 20
-623.9618706831497
 30
0.0
 10
409.1345900209007
 20
-621.7232944323041
 30
0.0
 10
409.1345900209007
 20
-618.9618706831497
 30
0.0
  0
SPLINE
  5
124
330
70
100
AcDbEntity
  8
0
 62
     6
420
 16711935
370
    25
100
AcDbSpline
210
0.0
220
0.0
230
1.0
 70
     8
 71
     3
 72
    11
 73
     7
 74
     0
 42
0.0000000001
 43
0.0000000001
 40
0.0
 40
0.0
 40
0.0
 40
0.0
 40
1.0
 40
1.0
 40
1.0
 40
2.0
 40
2.0
 40
2.0
 40
2.0
 10
409.1345900209007
 20
-613.9618706831497
 30
0.0
 10
409.1345900209007
 20
-611.2004469339954
 30
0.0
 10
406.8960137700542
 20
-608.9618706831497
 30
0.0
 10
404.1345900209007
 20
-608.9618706831497
 30
0.0
 10
401.3731662717463
 20
-608.9618706831497
 30
0.0
 10
399.1345900208998
 20
-611.2004469339954
 30
0.0
 10
399.1345900208998
 20
-613.9618706831497
 30
0.0
  0
SPLINE
  5
125
330
70
100
AcDbEntity
  8
0
 62
     6
420
 16711935
370
    25
100
AcDbSpline
210
0.0
220
0.0
230
1.0
 70
     8
 71
     3
 72
    11
 73
     7
 74
     0
 42
0.0000000001
 43
0.0000000001
 40
0.0
 40
0.0
 40
0.0
 40
0.0
 40
1.0
 40
1.0
 40
1.0
 40
2.0
 40
2.0
 40
2.0
 40
2.0
 10
44.13459002090076
 20
-618.9618706831497
 30
0.0
 10
44.13459002090076
 20
-621.7232944323041
 30
0.0
 10
46.37316627174732
 20
-623.9618706831497
 30
0.0
 10
49.13459002090076
 20
-623.9618706831497
 30
0.0
 10
51.8960137700542
 20
-623.9618706831497
 30
0.0
 10
54.13459002090076
 20
-621.7232944323041
 30
0.0
 10
54.13459002090076
 20
-618.9618706831497
 30
0.0
  0
SPLINE
  5
126
330
70
100
AcDbEntity
  8
0
 62
     6
420
 16711935
370
    25
100
AcDbSpline
210
0.0
220
0.0
230
1.0
 70
     8
 71
     3
 72
    11
 73
     7
 74
     0
 42
0.0000000001
 43
0.0000000001
 40
0.0
 40
0.0
 40
0.0
 40
0.0
 40
1.0
 40
1.0
 40
1.0
 40
2.0
 40
2.0
 40
2.0
 40
2.0
 10
54.13459002090076
 20
-613.9618706831497
 30
0.0
 10
54.13459002090076
 20
-611.2004469339954
 30
0.0
 10
51.8960137700542
 20
-608.9618706831497
 30
0.0
 10
49.13459002090076
 20
-608.9618706831497
 30
0.0
 10
46.37316627174732
 20
-608.9618706831497
 30
0.0
 10
44.13459002090076
 20
-611.2004469339954
 30
0.0
 10
44.13459002090076
 20
-613.9618706831497
 30
0.0
  0
SPLINE
  5
127
330
70
100
AcDbEntity
  8
0
 62
     6
420
 16711935
370
    25
100
AcDbSpline
210
0.0
220
0.0
230
1.0
 70
     8
 71
     3
 72
    11
 73
     7
 74
     0
 42
0.0000000001
 43
0.0000000001
 40
0.0
 40
0.0
 40
0.0
 40
0.0
 40
1.0
 40
1.0
 40
1.0
 40
2.0
 40
2.0
 40
2.0
 40
2.0
 10
1149.1345900209
 20
-618.9618706831497
 30
0.0
 10
1149.1345900209
 20
-621.7232944323041
 30
0.0
 10
1151.373166271745
 20
-623.9618706831516
 30
0.0
 10
1154.1345900209
 20
-623.9618706831516
 30
0.0
 10
1156.896013770054
 20
-623.9618706831516
 30
0.0
 10
1159.1345900209
 20
-621.7232944323041
 30
0.0
 10
1159.1345900209
 20
-618.9618706831497
 30
0.0
  0
SPLINE
  5
128
330
70
100
AcDbEntity
  8
0
 62
     6
420
 16711935
370
    25
100
AcDbSpline
210
0.0
220
0.0
230
1.0
 70
     8
 71
     3
 72
    11
 73
     7
 74
     0
 42
0.0000000001
 43
0.0000000001
 40
0.0
 40
0.0
 40
0.0
 40
0.0
 40
1.0
 40
1.0
 40
1.0
 40
2.0
 40
2.0
 40
2.0
 40
2.0
 10
1159.1345900209
 20
-613.9618706831497
 30
0.0
 10
1159.1345900209
 20
-611.2004469339954
 30
0.0
 10
1156.896013770054
 20
-608.9618706831497
 30
0.0
 10
1154.1345900209
 20
-608.9618706831497
 30
0.0
 10
1151.373166271745
 20
-608.9618706831497
 30
0.0
 10
1149.1345900209
 20
-611.2004469339954
 30
0.0
 10
1149.1345900209
 20
-613.9618706831497
 30
0.0
  0
SPLINE
  5
129
330
70
100
AcDbEntity
  8
0
 62
     6
420
 16711935
370
    25
100
AcDbSpline
210
0.0
220
0.0
230
1.0
 70
     8
 71
     3
 72
    11
 73
     7
 74
     0
 42
0.0000000001
 43
0.0000000001
 40
0.0
 40
0.0
 40
0.0
 40
0.0
 40
1.0
 40
1.0
 40
1.0
 40
2.0
 40
2.0
 40
2.0
 40
2.0
 10
-35.86143310959869
 20
1110.470378142148
 30
0.0
 10
-35.86143310959869
 20
1107.708954392996
 30
0.0
 10
-33.62285685875304
 20
1105.47037814215
 30
0.0
 10
-30.8614331095996
 20
1105.47037814215
 30
0.0
 10
-28.10000936044616
 20
1105.47037814215
 30
0.0
 10
-25.8614331095996
 20
1107.708954392996
 30
0.0
 10
-25.8614331095996
 20
1110.470378142148
 30
0.0
  0
SPLINE
  5
12A
330
70
100
AcDbEntity
  8
0
 62
     6
420
 16711935
370
    25
100
AcDbSpline
210
0.0
220
0.0
230
1.0
 70
     8
 71
     3
 72
    11
 73
     7
 74
     0
 42
0.0000000001
 43
0.0000000001
 40
0.0
 40
0.0
 40
0.0
 40
0.0
 40
1.0
 40
1.0
 40
1.0
 40
2.0
 40
2.0
 40
2.0
 40
2.0
 10
-25.8614331095996
 20
1115.47037814215
 30
0.0
 10
-25.8614331095996
 20
1118.231801891304
 30
0.0
 10
-28.10000936044616
 20
1120.47037814215
 30
0.0
 10
-30.8614331095996
 20
1120.47037814215
 30
0.0
 10
-33.62285685875304
 20
1120.47037814215
 30
0.0
 10
-35.86143310959869
 20
1118.231801891304
 30
0.0
 10
-35.86143310959869
 20
1115.47037814215
 30
0.0
  0
SPLINE
  5
12B
330
70
100
AcDbEntity
  8
0
 62
     6
420
 16711935
370
    25
100
AcDbSpline
210
0.0
220
0.0
230
1.0
 70
     8
 71
     3
 72
    11
 73
     7
 74
     0
 42
0.0000000001
 43
0.0000000001
 40
0.0
 40
0.0
 40
0.0
 40
0.0
 40
1.0
 40
1.0
 40
1.0
 40
2.0
 40
2.0
 40
2.0
 40
2.0
 10
-128.3614331095996
 20
1172.97037814215
 30
0.0
 10
-131.122856858753
 20
1172.97037814215
 30
0.0
 10
-133.3614331095996
 20
1170.731801891304
 30
0.0
 10
-133.3614331095996
 20
1167.97037814215
 30
0.0
 10
-133.3614331095996
 20
1165.208954392996
 30
0.0
 10
-131.122856858753
 20
1162.970378142148
 30
0.0
 10
-128.3614331095996
 20
1162.970378142148
 30
0.0
  0
SPLINE
  5
12C
330
70
100
AcDbEntity
  8
0
 62
     6
420
 16711935
370
    25
100
AcDbSpline
210
0.0
220
0.0
230
1.0
 70
     8
 71
     3
 72
    11
 73
     7
 74
     0
 42
0.0000000001
 43
0.0000000001
 40
0.0
 40
0.0
 40
0.0
 40
0.0
 40
1.0
 40
1.0
 40
1.0
 40
2.0
 40
2.0
 40
2.0
 40
2.0
 10
-123.3614331095987
 20
1162.970378142148
 30
0.0
 10
-120.6000093604443
 20
1162.970378142148
 30
0.0
 10
-118.3614331095987
 20
1165.208954392996
 30
0.0
 10
-118.3614331095987
 20
1167.97037814215
 30
0.0
 10
-118.3614331095987
 20
1170.731801891304
 30
0.0
 10
-120.6000093604443
 20
1172.97037814215
 30
0.0
 10
-123.3614331095987
 20
1172.97037814215
 30
0.0
  0
SPLINE
  5
12D
330
70
100
AcDbEntity
  8
0
 62
     6
420
 16711935
370
    25
100
AcDbSpline
210
0.0
220
0.0
230
1.0
 70
     8
 71
     3
 72
    11
 73
     7
 74
     0
 42
0.0000000001
 43
0.0000000001
 40
0.0
 40
0.0
 40
0.0
 40
0.0
 40
1.0
 40
1.0
 40
1.0
 40
2.0
 40
2.0
 40
2.0
 40
2.0
 10
-75.8614331095996
 20
1110.470378142148
 30
0.0
 10
-75.8614331095996
 20
1107.708954392996
 30
0.0
 10
-73.62285685875395
 20
1105.47037814215
 30
0.0
 10
-70.8614331095996
 20
1105.47037814215
 30
0.0
 10
-68.10000936044525
 20
1105.47037814215
 30
0.0
 10
-65.8614331095996
 20
1107.708954392996
 30
0.0
 10
-65.8614331095996
 20
1110.470378142148
 30
0.0
  0
SPLINE
  5
12E
330
70
100
AcDbEntity
  8
0
 62
     6
420
 16711935
370
    25
100
AcDbSpline
210
0.0
220
0.0
230
1.0
 70
     8
 71
     3
 72
    11
 73
     7
 74
     0
 42
0.0000000001
 43
0.0000000001
 40
0.0
 40
0.0
 40
0.0
 40
0.0
 40
1.0
 40
1.0
 40
1.0
 40
2.0
 40
2.0
 40
2.0
 40
2.0
 10
-65.86143310959869
 20
1115.47037814215
 30
0.0
 10
-65.86143310959869
 20
1118.231801891304
 30
0.0
 10
-68.10000936044525
 20
1120.47037814215
 30
0.0
 10
-70.8614331095996
 20
1120.47037814215
 30
0.0
 10
-73.62285685875395
 20
1120.47037814215
 30
0.0
 10
-75.8614331095996
 20
1118.231801891304
 30
0.0
 10
-75.8614331095996
 20
1115.47037814215
 30
0.0
  0
SPLINE
  5
12F
330
70
100
AcDbEntity
  8
0
 62
     6
420
 16711935
370
    25
100
AcDbSpline
210
0.0
220
0.0
230
1.0
 70
     8
 71
     3
 72
    11
 73
     7
 74
     0
 42
0.0000000001
 43
0.0000000001
 40
0.0
 40
0.0
 40
0.0
 40
0.0
 40
1.0
 40
1.0
 40
1.0
 40
2.0
 40
2.0
 40
2.0
 40
2.0
 10
-128.3614331095996
 20
1212.97037814215
 30
0.0
 10
-131.122856858753
 20
1212.97037814215
 30
0.0
 10
-133.3614331095996
 20
1210.731801891304
 30
0.0
 10
-133.3614331095996
 20
1207.97037814215
 30
0.0
 10
-133.3614331095996
 20
1205.208954392995
 30
0.0
 10
-131.122856858753
 20
1202.97037814215
 30
0.0
 10
-128.3614331095996
 20
1202.97037814215
 30
0.0
  0
SPLINE
  5
130
330
70
100
AcDbEntity
  8
0
 62
     6
420
 16711935
370
    25
100
AcDbSpline
210
0.0
220
0.0
230
1.0
 70
     8
 71
     3
 72
    11
 73
     7
 74
     0
 42
0.0000000001
 43
0.0000000001
 40
0.0
 40
0.0
 40
0.0
 40
0.0
 40
1.0
 40
1.0
 40
1.0
 40
2.0
 40
2.0
 40
2.0
 40
2.0
 10
-123.3614331095987
 20
1202.97037814215
 30
0.0
 10
-120.6000093604443
 20
1202.97037814215
 30
0.0
 10
-118.3614331095987
 20
1205.208954392995
 30
0.0
 10
-118.3614331095987
 20
1207.97037814215
 30
0.0
 10
-118.3614331095987
 20
1210.731801891304
 30
0.0
 10
-120.6000093604443
 20
1212.97037814215
 30
0.0
 10
-123.3614331095987
 20
1212.97037814215
 30
0.0
  0
SPLINE
  5
131
330
70
100
AcDbEntity
  8
0
 62
     6
420
 16711935
370
    25
100
AcDbSpline
210
0.0
220
0.0
230
1.0
 70
     8
 71
     3
 72
    11
 73
     7
 74
     0
 42
0.0000000001
 43
0.0000000001
 40
0.0
 40
0.0
 40
0.0
 40
0.0
 40
1.0
 40
1.0
 40
1.0
 40
2.0
 40
2.0
 40
2.0
 40
2.0
 10
373.2714532835061
 20
1160.887013249251
 30
0.0
 10
376.0328770326605
 20
1160.887013761938
 30
0.0
 10
378.2714528678898
 20
1163.125590428403
 30
0.0
 10
378.2714523552004
 20
1165.887014177556
 30
0.0
 10
378.2714518425109
 20
1168.648437201662
 30
0.0
 10
376.0328763076032
 20
1170.887012736566
 30
0.0
 10
373.2714532834971
 20
1170.88701324925
 30
0.0
  0
SPLINE
  5
132
330
70
100
AcDbEntity
  8
0
 62
     6
420
 16711935
370
    25
100
AcDbSpline
210
0.0
220
0.0
230
1.0
 70
     8
 71
     3
 72
    11
 73
     7
 74
     0
 42
0.0000000001
 43
0.0000000001
 40
0.0
 40
0.0
 40
0.0
 40
0.0
 40
1.0
 40
1.0
 40
1.0
 40
2.0
 40
2.0
 40
2.0
 40
2.0
 10
368.2714545019253
 20
1170.88701324925
 30
0.0
 10
365.51003075277
 20
1170.887012723654
 30
0.0
 10
363.2714549280045
 20
1168.648436046727
 30
0.0
 10
363.2714554536006
 20
1165.887012297574
 30
0.0
 10
363.2714559791966
 20
1163.125589291725
 30
0.0
 10
365.5100314960764
 20
1160.887013774846
 30
0.0
 10
368.2714545019253
 20
1160.887013249251
 30
0.0
  0
SPLINE
  5
133
330
70
100
AcDbEntity
  8
0
 62
     6
420
 16711935
370
    25
100
AcDbSpline
210
0.0
220
0.0
230
1.0
 70
     8
 71
     3
 72
    11
 73
     7
 74
     0
 42
0.0000000001
 43
0.0000000001
 40
0.0
 40
0.0
 40
0.0
 40
0.0
 40
1.0
 40
1.0
 40
1.0
 40
2.0
 40
2.0
 40
2.0
 40
2.0
 10
373.2714532834762
 20
1200.88701324925
 30
0.0
 10
376.0328770326305
 20
1200.887013774846
 30
0.0
 10
378.2714528573961
 20
1203.125590451772
 30
0.0
 10
378.2714523318
 20
1205.887014200925
 30
0.0
 10
378.2714518062039
 20
1208.648437206773
 30
0.0
 10
376.032876289325
 20
1210.887012723654
 30
0.0
 10
373.2714532834762
 20
1210.88701324925
 30
0.0
  0
SPLINE
  5
134
330
70
100
AcDbEntity
  8
0
 62
     6
420
 16711935
370
    25
100
AcDbSpline
210
0.0
220
0.0
230
1.0
 70
     8
 71
     3
 72
    11
 73
     7
 74
     0
 42
0.0000000001
 43
0.0000000001
 40
0.0
 40
0.0
 40
0.0
 40
0.0
 40
1.0
 40
1.0
 40
1.0
 40
2.0
 40
2.0
 40
2.0
 40
2.0
 10
368.2714545020035
 20
1210.88701324925
 30
0.0
 10
365.510030752851
 20
1210.887012736564
 30
0.0
 10
363.2714549176162
 20
1208.648436070107
 30
0.0
 10
363.2714554303002
 20
1205.887012320953
 30
0.0
 10
363.2714559429842
 20
1203.125589296844
 30
0.0
 10
365.5100314778956
 20
1200.887013761934
 30
0.0
 10
368.2714545020035
 20
1200.88701324925
 30
0.0
  0
SPLINE
  5
135
330
70
100
AcDbEntity
  8
0
 62
     6
420
 16711935
370
    25
100
AcDbSpline
210
0.0
220
0.0
230
1.0
 70
     8
 71
     3
 72
    11
 73
     7
 74
     0
 42
0.0000000001
 43
0.0000000001
 40
0.0
 40
0.0
 40
0.0
 40
0.0
 40
1.0
 40
1.0
 40
1.0
 40
2.0
 40
2.0
 40
2.0
 40
2.0
 10
667.0938757608674
 20
546.7962924692901
 30
0.0
 10
664.6189983889126
 20
545.5713667097807
 30
0.0
 10
663.6057124000508
 20
542.5720836676755
 30
0.0
 10
664.8306381595594
 20
540.0972062957189
 30
0.0
 10
666.0555565482027
 20
537.6223438160832
 30
0.0
 10
669.0548132953754
 20
536.6090524924884
 30
0.0
 10
671.5296861988463
 20
537.8339498202749
 30
0.0
  0
SPLINE
  5
136
330
70
100
AcDbEntity
  8
0
 62
     6
420
 16711935
370
    25
100
AcDbSpline
210
0.0
220
0.0
230
1.0
 70
     8
 71
     3
 72
    11
 73
     7
 74
     0
 42
0.0000000001
 43
0.0000000001
 40
0.0
 40
0.0
 40
0.0
 40
0.0
 40
1.0
 40
1.0
 40
1.0
 40
2.0
 40
2.0
 40
2.0
 40
2.0
 10
676.0108324963367
 20
540.0518426524341
 30
0.0
 10
678.4857097370568
 20
541.2767686770985
 30
0.0
 10
679.4989954045814
 20
544.2760518277673
 30
0.0
 10
678.2740693799151
 20
546.7509290684875
 30
0.0
 10
677.0491509117127
 20
549.225791041903
 30
0.0
 10
674.0498947180785
 20
550.2390821784866
 30
0.0
 10
671.5750220583613
 20
549.0141853014474
 30
0.0
  0
SPLINE
  5
137
330
70
100
AcDbEntity
  8
0
 62
     6
420
 16711935
370
    25
100
AcDbSpline
210
0.0
220
0.0
230
1.0
 70
     8
 71
     3
 72
    14
 73
    10
 74
     0
 42
0.0000000001
 43
0.0000000001
 40
0.0
 40
0.0
 40
0.0
 40
0.0
 40
1.0
 40
1.0
 40
1.0
 40
2.0
 40
2.0
 40
2.0
 40
3.0
 40
3.0
 40
3.0
 40
3.0
 10
416.5898743931793
 20
1122.056467575135
 30
0.0
 10
414.8661258264792
 20
1124.213797101934
 30
0.0
 10
411.7198903925118
 20
1124.565283917528
 30
0.0
 10
409.5625608657137
 20
1122.841535350828
 30
0.0
 10
407.4052313389156
 20
1121.117786784129
 30
0.0
 10
407.0537445233212
 20
1117.971551350162
 30
0.0
 10
408.7774930900223
 20
1115.814221823363
 30
0.0
 10
408.7775011408211
 20
1115.814211747514
 30
0.0
 10
408.7775091916118
 20
1115.814201671759
 30
0.0
 10
408.7775172424898
 20
1115.814191595973
 30
0.0
  0
SPLINE
  5
138
330
70
100
AcDbEntity
  8
0
 62
     6
420
 16711935
370
    25
100
AcDbSpline
210
0.0
220
0.0
230
1.0
 70
     8
 71
     3
 72
    14
 73
    10
 74
     0
 42
0.0000000001
 43
0.0000000001
 40
0.0
 40
0.0
 40
0.0
 40
0.0
 40
1.0
 40
1.0
 40
1.0
 40
2.0
 40
2.0
 40
2.0
 40
3.0
 40
3.0
 40
3.0
 40
3.0
 10
411.8986620063224
 20
1111.907985930063
 30
0.0
 10
413.6224105730225
 20
1109.750656403265
 30
0.0
 10
416.7686460069871
 20
1109.399169587671
 30
0.0
 10
418.9259755337871
 20
1111.122918154371
 30
0.0
 10
421.0833050605852
 20
1112.846666721072
 30
0.0
 10
421.4347918761777
 20
1115.992902155038
 30
0.0
 10
419.7110433094795
 20
1118.150231681837
 30
0.0
 10
419.7110352586787
 20
1118.150241757684
 30
0.0
 10
419.7110272078871
 20
1118.150251833441
 30
0.0
 10
419.7110191570081
 20
1118.150261909228
 30
0.0
  0
SPLINE
  5
139
330
70
100
AcDbEntity
  8
0
 62
     6
420
 16711935
370
    25
100
AcDbSpline
210
0.0
220
0.0
230
1.0
 70
     8
 71
     3
 72
    11
 73
     7
 74
     0
 42
0.0000000001
 43
0.0000000001
 40
0.0
 40
0.0
 40
0.0
 40
0.0
 40
1.0
 40
1.0
 40
1.0
 40
2.0
 40
2.0
 40
2.0
 40
2.0
 10
649.3506340089607
 20
582.6456630653665
 30
0.0
 10
646.8757567682405
 20
581.4207370407021
 30
0.0
 10
645.8624711007177
 20
578.4214538900323
 30
0.0
 10
647.0873971253841
 20
575.9465766493121
 30
0.0
 10
648.3123155935845
 20
573.4717146758957
 30
0.0
 10
651.3115717872206
 20
572.4584235393122
 30
0.0
 10
653.7864444469378
 20
573.6833204163513
 30
0.0
  0
SPLINE
  5
13A
330
70
100
AcDbEntity
  8
0
 62
     6
420
 16711935
370
    25
100
AcDbSpline
210
0.0
220
0.0
230
1.0
 70
     8
 71
     3
 72
    11
 73
     7
 74
     0
 42
0.0000000001
 43
0.0000000001
 40
0.0
 40
0.0
 40
0.0
 40
0.0
 40
1.0
 40
1.0
 40
1.0
 40
2.0
 40
2.0
 40
2.0
 40
2.0
 10
658.2675907444373
 20
575.9012132484331
 30
0.0
 10
660.7424679851574
 20
577.1261392730975
 30
0.0
 10
661.7557536526819
 20
580.1254224237673
 30
0.0
 10
660.5308276280156
 20
582.6002996644883
 30
0.0
 10
659.3059091598152
 20
585.0751616379039
 30
0.0
 10
656.3066529661791
 20
586.0884527744874
 30
0.0
 10
653.8317803064601
 20
584.8635558974483
 30
0.0
  0
SPLINE
  5
13B
330
70
100
AcDbEntity
  8
0
 62
     6
420
 16711935
370
    25
100
AcDbSpline
210
0.0
220
0.0
230
1.0
 70
     8
 71
     3
 72
    14
 73
    10
 74
     0
 42
0.0000000001
 43
0.0000000001
 40
0.0
 40
0.0
 40
0.0
 40
0.0
 40
1.0
 40
1.0
 40
1.0
 40
2.0
 40
2.0
 40
2.0
 40
3.0
 40
3.0
 40
3.0
 40
3.0
 10
447.8393029959788
 20
1147.025571491735
 30
0.0
 10
446.1155544292778
 20
1149.182901018535
 30
0.0
 10
442.9693189953105
 20
1149.534387834128
 30
0.0
 10
440.8119894685114
 20
1147.810639267428
 30
0.0
 10
438.6546599417142
 20
1146.086890700728
 30
0.0
 10
438.3031731261216
 20
1142.940655266762
 30
0.0
 10
440.0269216928209
 20
1140.783325739963
 30
0.0
 10
440.0269297436206
 20
1140.783315664115
 30
0.0
 10
440.0269377944132
 20
1140.783305588358
 30
0.0
 10
440.0269458452894
 20
1140.783295512573
 30
0.0
  0
SPLINE
  5
13C
330
70
100
AcDbEntity
  8
0
 62
     6
420
 16711935
370
    25
100
AcDbSpline
210
0.0
220
0.0
230
1.0
 70
     8
 71
     3
 72
    14
 73
    10
 74
     0
 42
0.0000000001
 43
0.0000000001
 40
0.0
 40
0.0
 40
0.0
 40
0.0
 40
1.0
 40
1.0
 40
1.0
 40
2.0
 40
2.0
 40
2.0
 40
3.0
 40
3.0
 40
3.0
 40
3.0
 10
443.1480906091219
 20
1136.877089846663
 30
0.0
 10
444.8718391758212
 20
1134.719760319863
 30
0.0
 10
448.0180746097866
 20
1134.368273504269
 30
0.0
 10
450.1754041365857
 20
1136.092022070971
 30
0.0
 10
452.3327336633847
 20
1137.815770637671
 30
0.0
 10
452.6842204789791
 20
1140.962006071637
 30
0.0
 10
450.9604719122781
 20
1143.119335598436
 30
0.0
 10
450.9604638614782
 20
1143.119345674284
 30
0.0
 10
450.9604558106875
 20
1143.119355750041
 30
0.0
 10
450.9604477598077
 20
1143.119365825827
 30
0.0
  0
SPLINE
  5
13D
330
70
100
AcDbEntity
  8
0
 62
     6
420
 16711935
370
    25
100
AcDbSpline
210
0.0
220
0.0
230
1.0
 70
     8
 71
     3
 72
    11
 73
     7
 74
     0
 42
0.0000000001
 43
0.0000000001
 40
0.0
 40
0.0
 40
0.0
 40
0.0
 40
1.0
 40
1.0
 40
1.0
 40
2.0
 40
2.0
 40
2.0
 40
2.0
 10
-139.5256876413796
 20
1082.19087185859
 30
0.0
 10
-141.813707804692
 20
1083.736971743678
 30
0.0
 10
-144.9218762217524
 20
1083.135526523481
 30
0.0
 10
-146.4679761068391
 20
1080.84750636017
 30
0.0
 10
-148.0140759919259
 20
1078.559486196855
 30
0.0
 10
-147.4126307717315
 20
1075.451317779796
 30
0.0
 10
-145.124610608419
 20
1073.905217894709
 30
0.0
  0
SPLINE
  5
13E
330
70
100
AcDbEntity
  8
0
 62
     6
420
 16711935
370
    25
100
AcDbSpline
210
0.0
220
0.0
230
1.0
 70
     8
 71
     3
 72
    11
 73
     7
 74
     0
 42
0.0000000001
 43
0.0000000001
 40
0.0
 40
0.0
 40
0.0
 40
0.0
 40
1.0
 40
1.0
 40
1.0
 40
2.0
 40
2.0
 40
2.0
 40
2.0
 10
-140.9817836265192
 20
1071.105756411109
 30
0.0
 10
-138.6937634632058
 20
1069.559656526023
 30
0.0
 10
-135.5855950461455
 20
1070.161101746217
 30
0.0
 10
-134.0394951610587
 20
1072.44912190953
 30
0.0
 10
-132.493395275972
 20
1074.737142072843
 30
0.0
 10
-133.0948404961664
 20
1077.845310489903
 30
0.0
 10
-135.3828606594788
 20
1079.39141037499
 30
0.0
  0
SPLINE
  5
13F
330
70
100
AcDbEntity
  8
0
 62
     6
420
 16711935
370
    25
100
AcDbSpline
210
0.0
220
0.0
230
1.0
 70
     8
 71
     3
 72
    11
 73
     7
 74
     0
 42
0.0000000001
 43
0.0000000001
 40
0.0
 40
0.0
 40
0.0
 40
0.0
 40
1.0
 40
1.0
 40
1.0
 40
2.0
 40
2.0
 40
2.0
 40
2.0
 10
-161.9213795095793
 20
1049.04825600309
 30
0.0
 10
-164.2093996728927
 20
1050.594355888177
 30
0.0
 10
-167.3175680899521
 20
1049.992910667984
 30
0.0
 10
-168.8636679750389
 20
1047.70489050467
 30
0.0
 10
-170.4097678601256
 20
1045.416870341357
 30
0.0
 10
-169.8083226399321
 20
1042.308701924296
 30
0.0
 10
-167.5203024766187
 20
1040.76260203921
 30
0.0
  0
SPLINE
  5
140
330
70
100
AcDbEntity
  8
0
 62
     6
420
 16711935
370
    25
100
AcDbSpline
210
0.0
220
0.0
230
1.0
 70
     8
 71
     3
 72
    11
 73
     7
 74
     0
 42
0.0000000001
 43
0.0000000001
 40
0.0
 40
0.0
 40
0.0
 40
0.0
 40
1.0
 40
1.0
 40
1.0
 40
2.0
 40
2.0
 40
2.0
 40
2.0
 10
-163.3774754947189
 20
1037.963140555609
 30
0.0
 10
-161.0894553314056
 20
1036.417040670523
 30
0.0
 10
-157.9812869143461
 20
1037.018485890717
 30
0.0
 10
-156.4351870292594
 20
1039.306506054028
 30
0.0
 10
-154.8890871441717
 20
1041.594526217342
 30
0.0
 10
-155.4905323643661
 20
1044.702694634403
 30
0.0
 10
-157.7785525276795
 20
1046.24879451949
 30
0.0
  0
SPLINE
  5
141
330
70
100
AcDbEntity
  8
0
 62
     6
420
 16711935
370
    25
100
AcDbSpline
210
0.0
220
0.0
230
1.0
 70
     8
 71
     3
 72
    11
 73
     7
 74
     0
 42
0.0000000001
 43
0.0000000001
 40
0.0
 40
0.0
 40
0.0
 40
0.0
 40
1.0
 40
1.0
 40
1.0
 40
2.0
 40
2.0
 40
2.0
 40
2.0
 10
-353.7857769718494
 20
768.0331865405251
 30
0.0
 10
-356.4772571294907
 20
768.6507589520015
 30
0.0
 10
-359.1597742535996
 20
766.9695245422399
 30
0.0
 10
-359.7773466650751
 20
764.2780443845995
 30
0.0
 10
-360.3949190765515
 20
761.5865642269582
 30
0.0
 10
-358.7136846667891
 20
758.9040471028493
 30
0.0
 10
-356.0222045091486
 20
758.2864746913728
 30
0.0
  0
SPLINE
  5
142
330
70
100
AcDbEntity
  8
0
 62
     6
420
 16711935
370
    25
100
AcDbSpline
210
0.0
220
0.0
230
1.0
 70
     8
 71
     3
 72
    11
 73
     7
 74
     0
 42
0.0000000001
 43
0.0000000001
 40
0.0
 40
0.0
 40
0.0
 40
0.0
 40
1.0
 40
1.0
 40
1.0
 40
2.0
 40
2.0
 40
2.0
 40
2.0
 10
-351.1488485845484
 20
757.1682609227746
 30
0.0
 10
-348.4573684269071
 20
756.5506885112982
 30
0.0
 10
-345.7748513027991
 20
758.2319229210589
 30
0.0
 10
-345.1572788913227
 20
760.9234030787002
 30
0.0
 10
-344.5397064798472
 20
763.6148832363415
 30
0.0
 10
-346.2209408896088
 20
766.2974003604504
 30
0.0
 10
-348.9124210472501
 20
766.9149727719259
 30
0.0
  0
SPLINE
  5
143
330
70
100
AcDbEntity
  8
0
 62
     6
420
 16711935
370
    25
100
AcDbSpline
210
0.0
220
0.0
230
1.0
 70
     8
 71
     3
 72
    11
 73
     7
 74
     0
 42
0.0000000001
 43
0.0000000001
 40
0.0
 40
0.0
 40
0.0
 40
0.0
 40
1.0
 40
1.0
 40
1.0
 40
2.0
 40
2.0
 40
2.0
 40
2.0
 10
-362.7314871210501
 20
729.0463391439261
 30
0.0
 10
-365.4229672786905
 20
729.6639115554025
 30
0.0
 10
-368.1054844027995
 20
727.9826771456392
 30
0.0
 10
-368.723056814275
 20
725.2911969879987
 30
0.0
 10
-369.3406292257514
 20
722.5997168303583
 30
0.0
 10
-367.6593948159898
 20
719.9171997062494
 30
0.0
 10
-364.9679146583485
 20
719.299627294773
 30
0.0
  0
SPLINE
  5
144
330
70
100
AcDbEntity
  8
0
 62
     6
420
 16711935
370
    25
100
AcDbSpline
210
0.0
220
0.0
230
1.0
 70
     8
 71
     3
 72
    11
 73
     7
 74
     0
 42
0.0000000001
 43
0.0000000001
 40
0.0
 40
0.0
 40
0.0
 40
0.0
 40
1.0
 40
1.0
 40
1.0
 40
2.0
 40
2.0
 40
2.0
 40
2.0
 10
-360.0945587337483
 20
718.1814135260728
 30
0.0
 10
-357.403078576107
 20
717.5638411145974
 30
0.0
 10
-354.7205614519981
 20
719.245075524359
 30
0.0
 10
-354.1029890405225
 20
721.9365556820003
 30
0.0
 10
-353.485416629047
 20
724.6280358396416
 30
0.0
 10
-355.1666510388086
 20
727.3105529637505
 30
0.0
 10
-357.8581311964499
 20
727.928125375226
 30
0.0
  0
SPLINE
  5
145
330
70
100
AcDbEntity
  8
0
 62
     6
420
 16711935
370
    25
100
AcDbSpline
210
0.0
220
0.0
230
1.0
 70
     8
 71
     3
 72
    11
 73
     7
 74
     0
 42
0.0000000001
 43
0.0000000001
 40
0.0
 40
0.0
 40
0.0
 40
0.0
 40
1.0
 40
1.0
 40
1.0
 40
2.0
 40
2.0
 40
2.0
 40
2.0
 10
-313.5804357259494
 20
468.2676371722354
 30
0.0
 10
-310.8614557019537
 20
468.7499324671562
 30
0.0
 10
-309.0482644752638
 20
471.3450788671034
 30
0.0
 10
-309.5305597701845
 20
474.0640588910991
 30
0.0
 10
-310.0128550651052
 20
476.7830389150949
 30
0.0
 10
-312.6080014650524
 20
478.5962301417839
 30
0.0
 10
-315.3269814890491
 20
478.1139348468641
 30
0.0
  0
SPLINE
  5
146
330
70
100
AcDbEntity
  8
0
 62
     6
420
 16711935
370
    25
100
AcDbSpline
210
0.0
220
0.0
230
1.0
 70
     8
 71
     3
 72
    11
 73
     7
 74
     0
 42
0.0000000001
 43
0.0000000001
 40
0.0
 40
0.0
 40
0.0
 40
0.0
 40
1.0
 40
1.0
 40
1.0
 40
2.0
 40
2.0
 40
2.0
 40
2.0
 10
-320.2501303263489
 20
477.2406619652647
 30
0.0
 10
-322.9691103503455
 20
476.758366670344
 30
0.0
 10
-324.7823015770346
 20
474.1632202703967
 30
0.0
 10
-324.3000062821147
 20
471.4442402463991
 30
0.0
 10
-323.8177109871931
 20
468.7252602224034
 30
0.0
 10
-321.2225645872459
 20
466.9120689957144
 30
0.0
 10
-318.5035845632492
 20
467.3943642906342
 30
0.0
  0
SPLINE
  5
147
330
70
100
AcDbEntity
  8
0
 62
     6
420
 16711935
370
    25
100
AcDbSpline
210
0.0
220
0.0
230
1.0
 70
     8
 71
     3
 72
    11
 73
     7
 74
     0
 42
0.0000000001
 43
0.0000000001
 40
0.0
 40
0.0
 40
0.0
 40
0.0
 40
1.0
 40
1.0
 40
1.0
 40
2.0
 40
2.0
 40
2.0
 40
2.0
 10
-306.5942526735498
 20
428.8824464736344
 30
0.0
 10
-303.8752726495531
 20
429.3647417685551
 30
0.0
 10
-302.0620814228632
 20
431.9598881685033
 30
0.0
 10
-302.544376717784
 20
434.678868192499
 30
0.0
 10
-303.0266720127056
 20
437.3978482164948
 30
0.0
 10
-305.6218184126529
 20
439.2110394431856
 30
0.0
 10
-308.3407984366486
 20
438.728744148264
 30
0.0
  0
SPLINE
  5
148
330
70
100
AcDbEntity
  8
0
 62
     6
420
 16711935
370
    25
100
AcDbSpline
210
0.0
220
0.0
230
1.0
 70
     8
 71
     3
 72
    11
 73
     7
 74
     0
 42
0.0000000001
 43
0.0000000001
 40
0.0
 40
0.0
 40
0.0
 40
0.0
 40
1.0
 40
1.0
 40
1.0
 40
2.0
 40
2.0
 40
2.0
 40
2.0
 10
-313.2639472740493
 20
437.8554712667646
 30
0.0
 10
-315.9829272980451
 20
437.373175971843
 30
0.0
 10
-317.7961185247341
 20
434.7780295718966
 30
0.0
 10
-317.3138232298133
 20
432.0590495479
 30
0.0
 10
-316.8315279348926
 20
429.3400695239042
 30
0.0
 10
-314.2363815349454
 20
427.5268782972143
 30
0.0
 10
-311.5174015109496
 20
428.0091735921351
 30
0.0
  0
SPLINE
  5
149
330
70
100
AcDbEntity
  8
0
 62
     6
420
 16711935
370
    25
100
AcDbSpline
210
0.0
220
0.0
230
1.0
 70
     8
 71
     3
 72
    11
 73
     7
 74
     0
 42
0.0000000001
 43
0.0000000001
 40
0.0
 40
0.0
 40
0.0
 40
0.0
 40
1.0
 40
1.0
 40
1.0
 40
2.0
 40
2.0
 40
2.0
 40
2.0
 10
-266.8848372376497
 20
205.0172989753337
 30
0.0
 10
-264.165857213653
 20
205.4995942702553
 30
0.0
 10
-262.3526659869631
 20
208.0947406702035
 30
0.0
 10
-262.8349612818838
 20
210.8137206941992
 30
0.0
 10
-263.3172565768045
 20
213.532700718195
 30
0.0
 10
-265.9124029767527
 20
215.3458919448858
 30
0.0
 10
-268.6313830007494
 20
214.8635966499642
 30
0.0
  0
SPLINE
  5
14A
330
70
100
AcDbEntity
  8
0
 62
     6
420
 16711935
370
    25
100
AcDbSpline
210
0.0
220
0.0
230
1.0
 70
     8
 71
     3
 72
    11
 73
     7
 74
     0
 42
0.0000000001
 43
0.0000000001
 40
0.0
 40
0.0
 40
0.0
 40
0.0
 40
1.0
 40
1.0
 40
1.0
 40
2.0
 40
2.0
 40
2.0
 40
2.0
 10
-273.5545318380491
 20
213.9903237683648
 30
0.0
 10
-276.2735118620449
 20
213.5080284734431
 30
0.0
 10
-278.0867030887348
 20
210.9128820734968
 30
0.0
 10
-277.6044077938141
 20
208.193902049501
 30
0.0
 10
-277.1221124988933
 20
205.4749220255035
 30
0.0
 10
-274.5269660989452
 20
203.6617307988144
 30
0.0
 10
-271.8079860749494
 20
204.1440260937343
 30
0.0
  0
SPLINE
  5
14B
330
70
100
AcDbEntity
  8
0
 62
     6
420
 16711935
370
    25
100
AcDbSpline
210
0.0
220
0.0
230
1.0
 70
     8
 71
     3
 72
     8
 73
     4
 74
     0
 42
0.0000000001
 43
0.0000000001
 40
0.0
 40
0.0
 40
0.0
 40
0.0
 40
1.0
 40
1.0
 40
1.0
 40
1.0
 10
-145.9447689465478
 20
1097.762204149006
 30
0.0
 10
-146.3302722104008
 20
1097.185695719311
 30
0.0
 10
-146.1756076486153
 20
1096.405849357575
 30
0.0
 10
-145.5992629782686
 20
1096.020101309087
 30
0.0
  0
SPLINE
  5
14C
330
70
100
AcDbEntity
  8
0
 62
     6
420
 16711935
370
    25
100
AcDbSpline
210
0.0
220
0.0
230
1.0
 70
     8
 71
     3
 72
     8
 73
     4
 74
     0
 42
0.0000000001
 43
0.0000000001
 40
0.0
 40
0.0
 40
0.0
 40
0.0
 40
1.0
 40
1.0
 40
1.0
 40
1.0
 10
-139.7330507120787
 20
1092.056084620764
 30
0.0
 10
-139.1610456712506
 20
1091.669559649494
 30
0.0
 10
-138.3840035669864
 20
1091.819920954541
 30
0.0
 10
-137.9974785957147
 20
1092.39192599537
 30
0.0
  0
SPLINE
  5
14D
330
70
100
AcDbEntity
  8
0
 62
     6
420
 16711935
370
    25
100
AcDbSpline
210
0.0
220
0.0
230
1.0
 70
     8
 71
     3
 72
     8
 73
     4
 74
     0
 42
0.0000000001
 43
0.0000000001
 40
0.0
 40
0.0
 40
0.0
 40
0.0
 40
1.0
 40
1.0
 40
1.0
 40
1.0
 10
-130.377647334436
 20
1102.720186179274
 30
0.0
 10
-130.3335859231547
 20
1102.997098968577
 30
0.0
 10
-130.2971825680952
 20
1103.27517610366
 30
0.0
 10
-130.2684789239529
 20
1103.554099393575
 30
0.0
  0
SPLINE
  5
14E
330
70
100
AcDbEntity
  8
0
 62
     6
420
 16711935
370
    25
100
AcDbSpline
210
0.0
220
0.0
230
1.0
 70
     8
 71
     3
 72
     8
 73
     4
 74
     0
 42
0.0000000001
 43
0.0000000001
 40
0.0
 40
0.0
 40
0.0
 40
0.0
 40
1.0
 40
1.0
 40
1.0
 40
1.0
 10
-130.268478923931
 20
1103.554099393669
 30
0.0
 10
-130.2104213975026
 20
1104.11172446718
 30
0.0
 10
-130.5625585965735
 20
1104.630070051387
 30
0.0
 10
-131.1023456897555
 20
1104.781550390105
 30
0.0
  0
SPLINE
  5
14F
330
70
100
AcDbEntity
  8
0
 62
     6
420
 16711935
370
    25
100
AcDbSpline
210
0.0
220
0.0
230
1.0
 70
     8
 71
     3
 72
     8
 73
     4
 74
     0
 42
0.0000000001
 43
0.0000000001
 40
0.0
 40
0.0
 40
0.0
 40
0.0
 40
1.0
 40
1.0
 40
1.0
 40
1.0
 10
-131.1023456898047
 20
1104.781550390083
 30
0.0
 10
-131.2467753086403
 20
1104.821476011285
 30
0.0
 10
-131.395987582765
 20
1104.841457470809
 30
0.0
 10
-131.545833174413
 20
1104.840939118492
 30
0.0
  0
SPLINE
  5
150
330
70
100
AcDbEntity
  8
0
 62
     6
420
 16711935
370
    25
100
AcDbSpline
210
0.0
220
0.0
230
1.0
 70
     8
 71
     3
 72
    11
 73
     7
 74
     0
 42
0.0000000001
 43
0.0000000001
 40
0.0
 40
0.0
 40
0.0
 40
0.0
 40
1.0
 40
1.0
 40
1.0
 40
2.0
 40
2.0
 40
2.0
 40
2.0
 10
424.4229018600817
 20
1195.72921789325
 30
0.0
 10
428.0434930214578
 20
1199.899729148688
 30
0.0
 10
427.5976947035379
 20
1206.215665572256
 30
0.0
 10
423.4271834480987
 20
1209.836256733631
 30
0.0
 10
422.1333358403881
 20
1210.95949868785
 30
0.0
 10
420.5725828795412
 20
1211.731457997502
 30
0.0
 10
418.8946205409656
 20
1212.078093988158
 30
0.0
  0
SPLINE
  5
151
330
70
100
AcDbEntity
  8
0
 62
     6
420
 16711935
370
    25
100
AcDbSpline
210
0.0
220
0.0
230
1.0
 70
     8
 71
     3
 72
    11
 73
     7
 74
     0
 42
0.0000000001
 43
0.0000000001
 40
0.0
 40
0.0
 40
0.0
 40
0.0
 40
1.0
 40
1.0
 40
1.0
 40
2.0
 40
2.0
 40
2.0
 40
2.0
 10
332.3368129574001
 20
1118.854531538349
 30
0.0
 10
331.6464570201124
 20
1118.854531538349
 30
0.0
 10
331.0868129574001
 20
1118.294887475639
 30
0.0
 10
331.0868129574001
 20
1117.60453153835
 30
0.0
 10
331.0868129574001
 20
1116.914175601061
 30
0.0
 10
331.6464570201124
 20
1116.35453153835
 30
0.0
 10
332.3368129574001
 20
1116.35453153835
 30
0.0
  0
SPLINE
  5
152
330
70
100
AcDbEntity
  8
0
 62
     6
420
 16711935
370
    25
100
AcDbSpline
210
0.0
220
0.0
230
1.0
 70
     8
 71
     3
 72
    11
 73
     7
 74
     0
 42
0.0000000001
 43
0.0000000001
 40
0.0
 40
0.0
 40
0.0
 40
0.0
 40
1.0
 40
1.0
 40
1.0
 40
2.0
 40
2.0
 40
2.0
 40
2.0
 10
42.58727938621632
 20
-609.4110037413265
 30
0.0
 10
43.22846102353833
 20
-609.4332840135248
 30
0.0
 10
43.76630316907994
 20
-608.9315653265584
 30
0.0
 10
43.7885834412773
 20
-608.2903836892346
 30
0.0
 10
43.7907587175905
 20
-608.2277835910281
 30
0.0
 10
43.78786726527323
 20
-608.1651100998278
 30
0.0
 10
43.77993736473036
 20
-608.1029762056969
 30
0.0
  0
SPLINE
  5
153
330
70
100
AcDbEntity
  8
0
 62
     6
420
 16711935
370
    25
100
AcDbSpline
210
0.0
220
0.0
230
1.0
 70
     8
 71
     3
 72
     8
 73
     4
 74
     0
 42
0.0000000001
 43
0.0000000001
 40
0.0
 40
0.0
 40
0.0
 40
0.0
 40
1.0
 40
1.0
 40
1.0
 40
1.0
 10
39.1223014632842
 20
-596.1842489429873
 30
0.0
 10
38.86270421472909
 20
-595.5445610591795
 30
0.0
 10
38.13368957484909
 20
-595.2364367195114
 30
0.0
 10
37.49400169104047
 20
-595.4960339680655
 30
0.0
  0
SPLINE
  5
154
330
70
100
AcDbEntity
  8
0
 62
     6
420
 16711935
370
    25
100
AcDbSpline
210
0.0
220
0.0
230
1.0
 70
     8
 71
     3
 72
     8
 73
     4
 74
     0
 42
0.0000000001
 43
0.0000000001
 40
0.0
 40
0.0
 40
0.0
 40
0.0
 40
1.0
 40
1.0
 40
1.0
 40
1.0
 10
30.07882127666653
 20
-598.505252184952
 30
0.0
 10
29.43612927777213
 20
-598.7635832124379
 30
0.0
 10
29.12453608776559
 20
-599.4940007197165
 30
0.0
 10
29.38285281127082
 20
-600.1366984679316
 30
0.0
  0
SPLINE
  5
155
330
70
100
AcDbEntity
  8
0
 62
     6
420
 16711935
370
    25
100
AcDbSpline
210
0.0
220
0.0
230
1.0
 70
     8
 71
     3
 72
     8
 73
     4
 74
     0
 42
0.0000000001
 43
0.0000000001
 40
0.0
 40
0.0
 40
0.0
 40
0.0
 40
1.0
 40
1.0
 40
1.0
 40
1.0
 10
-285.7889042534452
 20
121.8077031427055
 30
0.0
 10
-285.5324382230265
 20
121.1259465973744
 30
0.0
 10
-284.7895432875703
 20
120.7616883422106
 30
0.0
 10
-284.0935118090165
 20
120.9764137313104
 30
0.0
  0
SPLINE
  5
156
330
70
100
AcDbEntity
  8
0
 62
     6
420
 16711935
370
    25
100
AcDbSpline
210
0.0
220
0.0
230
1.0
 70
     8
 71
     3
 72
     8
 73
     4
 74
     0
 42
0.0000000001
 43
0.0000000001
 40
0.0
 40
0.0
 40
0.0
 40
0.0
 40
1.0
 40
1.0
 40
1.0
 40
1.0
 10
-246.867539339899
 20
127.9389103512494
 30
0.0
 10
-246.1771834026103
 20
127.9389103512494
 30
0.0
 10
-245.6175393398989
 20
128.4985544139617
 30
0.0
 10
-245.6175393398989
 20
129.1889103512494
 30
0.0
  0
SPLINE
  5
157
330
70
100
AcDbEntity
  8
0
 62
     6
420
 16711935
370
    25
100
AcDbSpline
210
0.0
220
0.0
230
1.0
 70
     8
 71
     3
 72
     8
 73
     4
 74
     0
 42
0.0000000001
 43
0.0000000001
 40
0.0
 40
0.0
 40
0.0
 40
0.0
 40
1.0
 40
1.0
 40
1.0
 40
1.0
 10
-245.6175393399435
 20
189.2062054166017
 30
0.0
 10
-245.5674070589566
 20
189.9512836754165
 30
0.0
 10
-246.1234737642617
 20
190.5991490705291
 30
0.0
 10
-246.8675393399435
 20
190.6625626056993
 30
0.0
  0
SPLINE
  5
158
330
70
100
AcDbEntity
  8
0
 62
     6
420
 16711935
370
    25
100
AcDbSpline
210
0.0
220
0.0
230
1.0
 70
     8
 71
     3
 72
    11
 73
     7
 74
     0
 42
0.0000000001
 43
0.0000000001
 40
0.0
 40
0.0
 40
0.0
 40
0.0
 40
1.0
 40
1.0
 40
1.0
 40
2.0
 40
2.0
 40
2.0
 40
2.0
 10
-273.0499436371929
 20
190.6625626056484
 30
0.0
 10
-272.9852544969408
 20
191.3498810436995
 30
0.0
 10
-273.4899952704491
 20
191.9595036363043
 30
0.0
 10
-274.1773137084992
 20
192.0241927765564
 30
0.0
 10
-274.2892377079106
 20
192.0347268563873
 30
0.0
 10
-274.4020712486827
 20
192.0301142930566
 30
0.0
 10
-274.5127619786845
 20
192.0104798647789
 30
0.0
  0
SPLINE
  5
159
330
70
100
AcDbEntity
  8
0
 62
     6
420
 16711935
370
    25
100
AcDbSpline
210
0.0
220
0.0
230
1.0
 70
     8
 71
     3
 72
    14
 73
    10
 74
     0
 42
0.0000000001
 43
0.0000000001
 40
0.0
 40
0.0
 40
0.0
 40
0.0
 40
1.0
 40
1.0
 40
1.0
 40
2.0
 40
2.0
 40
2.0
 40
3.0
 40
3.0
 40
3.0
 40
3.0
 10
868.2528860321271
 20
199.6662081715149
 30
0.0
 10
869.9765787551896
 20
197.5088723226618
 30
0.0
 10
873.1227740439807
 20
197.1573351118149
 30
0.0
 10
875.2801098928339
 20
198.8810278348774
 30
0.0
 10
877.437445741687
 20
200.6047205579398
 30
0.0
 10
877.7889829525339
 20
203.750915846731
 30
0.0
 10
876.0652902294713
 20
205.9082516955841
 30
0.0
 10
876.0652702840252
 20
205.9082766588653
 30
0.0
 10
876.0652503383244
 20
205.9083016219756
 30
0.0
 10
876.0652303923979
 20
205.9083265848749
 30
0.0
  0
SPLINE
  5
15A
330
70
100
AcDbEntity
  8
0
 62
     6
420
 16711935
370
    25
100
AcDbSpline
210
0.0
220
0.0
230
1.0
 70
     8
 71
     3
 72
    14
 73
    10
 74
     0
 42
0.0000000001
 43
0.0000000001
 40
0.0
 40
0.0
 40
0.0
 40
0.0
 40
1.0
 40
1.0
 40
1.0
 40
2.0
 40
2.0
 40
2.0
 40
3.0
 40
3.0
 40
3.0
 40
3.0
 10
872.9440838722348
 20
209.8145106149786
 30
0.0
 10
871.2203914284673
 20
211.971846686989
 30
0.0
 10
868.0741961851836
 20
212.323384305153
 30
0.0
 10
865.9168601131714
 20
210.5996918613837
 30
0.0
 10
863.7595240411592
 20
208.8759994176162
 30
0.0
 10
863.407986422997
 20
205.7298041743325
 30
0.0
 10
865.1316788667646
 20
203.5724681023221
 30
0.0
 10
865.1316990815795
 20
203.5724428018984
 30
0.0
 10
865.1317192966635
 20
203.5724175016403
 30
0.0
 10
865.1317395119695
 20
203.5723922016114
 30
0.0
  0
SPLINE
  5
15B
330
70
100
AcDbEntity
  8
0
 62
     6
420
 16711935
370
    25
100
AcDbSpline
210
0.0
220
0.0
230
1.0
 70
     8
 71
     3
 72
    14
 73
    10
 74
     0
 42
0.0000000001
 43
0.0000000001
 40
0.0
 40
0.0
 40
0.0
 40
0.0
 40
1.0
 40
1.0
 40
1.0
 40
2.0
 40
2.0
 40
2.0
 40
3.0
 40
3.0
 40
3.0
 40
3.0
 10
899.5022634732267
 20
224.6346818250149
 30
0.0
 10
901.2259561962892
 20
222.4773459761618
 30
0.0
 10
904.3721514850803
 20
222.125808765315
 30
0.0
 10
906.5294873339334
 20
223.8495014883756
 30
0.0
 10
908.6868231827883
 20
225.5731942114398
 30
0.0
 10
909.0383603936334
 20
228.719389500231
 30
0.0
 10
907.3146676705729
 20
230.8767253490842
 30
0.0
 10
907.3146477251247
 20
230.8767503123672
 30
0.0
 10
907.314627779424
 20
230.8767752754757
 30
0.0
 10
907.3146078334975
 20
230.8768002383749
 30
0.0
  0
SPLINE
  5
15C
330
70
100
AcDbEntity
  8
0
 62
     6
420
 16711935
370
    25
100
AcDbSpline
210
0.0
220
0.0
230
1.0
 70
     8
 71
     3
 72
    14
 73
    10
 74
     0
 42
0.0000000001
 43
0.0000000001
 40
0.0
 40
0.0
 40
0.0
 40
0.0
 40
1.0
 40
1.0
 40
1.0
 40
2.0
 40
2.0
 40
2.0
 40
3.0
 40
3.0
 40
3.0
 40
3.0
 10
904.1934613133344
 20
234.7829842684787
 30
0.0
 10
902.4697688695669
 20
236.9403203404909
 30
0.0
 10
899.3235736262832
 20
237.2918579586531
 30
0.0
 10
897.166237554271
 20
235.5681655148856
 30
0.0
 10
895.0089014822587
 20
233.8444730711162
 30
0.0
 10
894.6573638640966
 20
230.6982778278325
 30
0.0
 10
896.3810563078641
 20
228.5409417558203
 30
0.0
 10
896.3810765226735
 20
228.5409164554039
 30
0.0
 10
896.3810967377613
 20
228.540891155144
 30
0.0
 10
896.3811169530636
 20
228.5408658551187
 30
0.0
  0
LINE
  5
15E
330
70
100
AcDbEntity
  8
1
  6
AI-Linetype-0
 62
    40
420
 16760576
370
    18
100
AcDbLine
 10
820.7798741402003
 20
127.8886361078493
 30
0.0
 11
1176.1977341566
 21
-602.0397284393511
 31
0.0
  0
LINE
  5
160
330
70
100
AcDbEntity
  8
1
  6
AI-Linetype-1
 62
    40
420
 16760576
370
    18
100
AcDbLine
 10
-245.6175393398989
 20
156.8043185161496
 30
0.0
 11
808.1149200722993
 21
156.8043185162496
 31
0.0
  0
LINE
  5
162
330
70
100
AcDbEntity
  8
1
  6
AI-Linetype-2
 62
    40
420
 16760576
370
    18
100
AcDbLine
 10
336.3221579639994
 20
1228.84186228615
 30
0.0
 11
336.3221579639994
 21
1118.854531538349
 31
0.0
  0
LINE
  5
164
330
70
100
AcDbEntity
  8
1
  6
AI-Linetype-3
 62
    40
420
 16760576
370
    18
100
AcDbLine
 10
-376.7432029195989
 20
741.4829096351495
 30
0.0
 11
-279.1319170838988
 21
191.19112968425
 31
0.0
  0
LINE
  5
166
330
70
100
AcDbEntity
  8
1
  6
AI-Linetype-4
 62
    40
420
 16760576
370
    18
100
AcDbLine
 10
344.1929375764003
 20
1099.273997717049
 30
0.0
 11
796.5749863499004
 21
185.2577235621502
 31
0.0
  0
LINE
  5
168
330
70
100
AcDbEntity
  8
1
  6
AI-Linetype-5
 62
    40
420
 16760576
370
    18
100
AcDbLine
 10
1174.755021948998
 20
-603.5835736847493
 30
0.0
 11
42.43663427330012
 21
-603.5835736847493
 31
0.0
  0
LINE
  5
16A
330
70
100
AcDbEntity
  8
1
  6
AI-Linetype-6
 62
    40
420
 16760576
370
    18
100
AcDbLine
 10
-132.1915480878988
 20
1100.255124269049
 30
0.0
 11
341.5791559809004
 21
1100.255124269049
 31
0.0
  0
LINE
  5
16C
330
70
100
AcDbEntity
  8
1
  6
AI-Linetype-7
 62
    40
420
 16760576
370
    18
100
AcDbLine
 10
-379.7627016993993
 20
744.3550016058507
 30
0.0
 11
-143.2172551860994
 21
1094.41049050545
 31
0.0
  0
LINE
  5
16E
330
70
100
AcDbEntity
  8
1
  6
AI-Linetype-8
 62
    40
420
 16760576
370
    18
100
AcDbLine
 10
33.52732573160029
 20
-597.1057848966502
 30
0.0
 11
-260.8035990924991
 21
128.1712644137496
 31
0.0
  0
ENDSEC
  0
SECTION
  2
OBJECTS
  0
DICTIONARY
  5
C
330
0
100
AcDbDictionary
281
     1
  3
ACAD_COLOR
350
63
  3
ACAD_DETAILVIEWSTYLE
350
6A
  3
ACAD_GROUP
350
D
  3
ACAD_LAYOUT
350
62
  3
ACAD_MATERIAL
350
10
  3
ACAD_MLEADERSTYLE
350
66
  3
ACAD_MLINESTYLE
350
5F
  3
ACAD_PLOTSETTINGS
350
61
  3
ACAD_PLOTSTYLENAME
350
E
  3
ACAD_SCALELIST
350
42
  3
ACAD_SECTIONVIEWSTYLE
350
68
  3
ACAD_TABLESTYLE
350
64
  3
ACAD_VISUALSTYLE
350
29
  3
ACDB_RECOMPOSE_DATA
350
178
  3
AcDbVariableDictionary
350
170
  0
DICTIONARY
  5
63
102
{ACAD_REACTORS
330
C
102
}
330
C
100
AcDbDictionary
281
     1
  0
DICTIONARY
  5
6A
102
{ACAD_REACTORS
330
C
102
}
330
C
100
AcDbDictionary
281
     1
  3
Imperial24
350
6B
  0
DICTIONARY
  5
D
102
{ACAD_REACTORS
330
C
102
}
330
C
100
AcDbDictionary
281
     1
  0
DICTIONARY
  5
62
102
{ACAD_REACTORS
330
C
102
}
330
C
100
AcDbDictionary
281
     1
  3
Layout1
350
6F
  3
Layout2
350
77
  3
Model
350
73
  0
DICTIONARY
  5
10
102
{ACAD_REACTORS
330
C
102
}
330
C
100
AcDbDictionary
281
     1
  3
ByBlock
350
19
  3
ByLayer
350
11
  3
Global
350
21
  0
DICTIONARY
  5
66
102
{ACAD_REACTORS
330
C
102
}
330
C
100
AcDbDictionary
281
     1
  3
Standard
350
67
  0
DICTIONARY
  5
5F
102
{ACAD_REACTORS
330
C
102
}
330
C
100
AcDbDictionary
281
     1
  3
Standard
350
60
  0
DICTIONARY
  5
61
102
{ACAD_REACTORS
330
C
102
}
330
C
100
AcDbDictionary
281
     1
  0
ACDBDICTIONARYWDFLT
  5
E
102
{ACAD_REACTORS
330
C
102
}
330
C
100
AcDbDictionary
281
     1
  3
Normal
350
F
100
AcDbDictionaryWithDefault
340
F
  0
DICTIONARY
  5
42
102
{ACAD_REACTORS
330
C
102
}
330
C
100
AcDbDictionary
281
     1
  3
A0
350
43
  3
A1
350
44
  3
A2
350
45
  3
A3
350
46
  3
A4
350
47
  3
A5
350
48
  3
A6
350
49
  3
A7
350
4A
  3
A8
350
4B
  3
A9
350
4C
  3
B0
350
4D
  3
B1
350
4E
  3
B2
350
4F
  3
B3
350
50
  3
B4
350
51
  3
B5
350
52
  3
B6
350
53
  0
DICTIONARY
  5
68
102
{ACAD_REACTORS
330
C
102
}
330
C
100
AcDbDictionary
281
     1
  3
Imperial24
350
69
  0
DICTIONARY
  5
64
102
{ACAD_REACTORS
330
C
102
}
330
C
100
AcDbDictionary
281
     1
  3
Standard
350
65
  0
DICTIONARY
  5
29
102
{ACAD_REACTORS
330
C
102
}
330
C
100
AcDbDictionary
281
     1
  3
2dWireframe
350
2F
  3
Basic
350
2E
  3
Brighten
350
35
  3
ColorChange
350
39
  3
Conceptual
350
32
  3
Dim
350
34
  3
EdgeColorOff
350
41
  3
Facepattern
350
38
  3
Flat
350
2A
  3
FlatWithEdges
350
2B
  3
Gouraud
350
2C
  3
GouraudWithEdges
350
2D
  3
Hidden
350
31
  3
JitterOff
350
3F
  3
Linepattern
350
37
  3
OverhangOff
350
40
  3
Realistic
350
33
  3
Shaded
350
3E
  3
Shaded with edges
350
3D
  3
Shades of Gray
350
3A
  3
Sketchy
350
3B
  3
Thicken
350
36
  3
Wireframe
350
30
  3
X-Ray
350
3C
  0
XRECORD
  5
178
102
{ACAD_REACTORS
330
C
102
}
330
C
100
AcDbXrecord
280
     1
 90
        1
330
65
  0
DICTIONARY
  5
170
102
{ACAD_REACTORS
330
C
102
}
330
C
100
AcDbDictionary
281
     1
  3
CANNOSCALE
350
175
  3
CMLEADERSTYLE
350
172
  3
CTABLESTYLE
350
171
  3
CVIEWDETAILSTYLE
350
173
  3
CVIEWSECTIONSTYLE
350
174
  0
ACDBDETAILVIEWSTYLE
  5
6B
102
{ACAD_REACTORS
330
6A
102
}
330
6A
100
AcDbModelDocViewStyle
 70
     0
  3
Imperial24
290
     1
300
Imperial24
 90
        0
100
AcDbDetailViewStyle
 70
     0
 71
     0
 90
        3
 71
     1
340
55
 62
   256
 40
0.24
340
0
 62
   256
 40
0.24
300

 40
0.36
280
     3
 71
     2
340
5D
 90
       25
 62
   256
 71
     3
340
55
 62
   256
 40
0.24
 90
        1
 40
0.75
 90
        1
300
%<\AcVar ViewType \f "%tc1">% %<\AcVar ViewDetailId>%\PSCALE %<\AcVar ViewScale \f "%sn">%
 71
     4
340
5D
 90
       25
 62
   256
340
5D
 90
       25
 62
   256
280
     0
  0
LAYOUT
  5
6F
102
{ACAD_REACTORS
330
62
102
}
330
62
100
AcDbPlotSettings
  1

  2

  4

  6

 40
0.0
 41
0.0
 42
0.0
 43
0.0
 44
0.0
 45
0.0
 46
0.0
 47
0.0
 48
0.0
 49
0.0
140
0.0
141
0.0
142
1.0
143
1.0
 70
   688
 72
     0
 73
     0
 74
     5
  7

 75
    16
147
1.0
 76
     0
 77
     2
 78
   300
148
0.0
149
0.0
100
AcDbLayout
  1
Layout1
 70
     1
 71
     1
 10
0.0
 20
0.0
 11
12.0
 21
9.0
 12
0.0
 22
0.0
 32
0.0
 14
0.0
 24
0.0
 34
0.0
 15
0.0
 25
0.0
 35
0.0
146
0.0
 13
0.0
 23
0.0
 33
0.0
 16
1.0
 26
0.0
 36
0.0
 17
0.0
 27
1.0
 37
0.0
 76
     0
330
6C
  0
LAYOUT
  5
77
102
{ACAD_REACTORS
330
62
102
}
330
62
100
AcDbPlotSettings
  1

  2

  4

  6

 40
0.0
 41
0.0
 42
0.0
 43
0.0
 44
0.0
 45
0.0
 46
0.0
 47
0.0
 48
0.0
 49
0.0
140
0.0
141
0.0
142
1.0
143
1.0
 70
   688
 72
     0
 73
     0
 74
     5
  7

 75
    16
147
1.0
 76
     0
 77
     2
 78
   300
148
0.0
149
0.0
100
AcDbLayout
  1
Layout2
 70
     1
 71
     2
 10
0.0
 20
0.0
 11
12.0
 21
9.0
 12
0.0
 22
0.0
 32
0.0
 14
0.0
 24
0.0
 34
0.0
 15
0.0
 25
0.0
 35
0.0
146
0.0
 13
0.0
 23
0.0
 33
0.0
 16
1.0
 26
0.0
 36
0.0
 17
0.0
 27
1.0
 37
0.0
 76
     0
330
74
  0
LAYOUT
  5
73
102
{ACAD_REACTORS
330
62
102
}
330
62
100
AcDbPlotSettings
  1

  2

  4

  6

 40
0.0
 41
0.0
 42
0.0
 43
0.0
 44
0.0
 45
0.0
 46
0.0
 47
0.0
 48
0.0
 49
0.0
140
0.0
141
0.0
142
1.0
143
1.0
 70
  1712
 72
     0
 73
     0
 74
     0
  7

 75
     0
147
1.0
 76
     0
 77
     2
 78
   300
148
0.0
149
0.0
100
AcDbLayout
  1
Model
 70
     1
 71
     0
 10
0.0
 20
0.0
 11
12.0
 21
9.0
 12
0.0
 22
0.0
 32
0.0
 14
0.0
 24
0.0
 34
0.0
 15
0.0
 25
0.0
 35
0.0
146
0.0
 13
0.0
 23
0.0
 33
0.0
 16
1.0
 26
0.0
 36
0.0
 17
0.0
 27
1.0
 37
0.0
 76
     0
330
70
  0
MATERIAL
  5
19
102
{ACAD_XDICTIONARY
360
1A
102
}
102
{ACAD_REACTORS
330
10
102
}
330
10
100
AcDbMaterial
  1
ByBlock
 72
     0
 43
0.0208333333333333
 43
0.0
 43
0.0
 43
0.0
 43
0.0
 43
0.0208333333333333
 43
0.0
 43
0.0
 43
0.0
 43
0.0
 43
1.0
 43
0.0
 43
0.0
 43
0.0
 43
0.0
 43
1.0
 77
     0
 47
0.0208333333333333
 47
0.0
 47
0.0
 47
0.0
 47
0.0
 47
0.0208333333333333
 47
0.0
 47
0.0
 47
0.0
 47
0.0
 47
1.0
 47
0.0
 47
0.0
 47
0.0
 47
0.0
 47
1.0
171
     0
 49
0.0208333333333333
 49
0.0
 49
0.0
 49
0.0
 49
0.0
 49
0.0208333333333333
 49
0.0
 49
0.0
 49
0.0
 49
0.0
 49
1.0
 49
0.0
 49
0.0
 49
0.0
 49
0.0
 49
1.0
175
     0
142
0.0208333333333333
142
0.0
142
0.0
142
0.0
142
0.0
142
0.0208333333333333
142
0.0
142
0.0
142
0.0
142
0.0
142
1.0
142
0.0
142
0.0
142
0.0
142
0.0
142
1.0
179
     0
144
0.0208333333333333
144
0.0
144
0.0
144
0.0
144
0.0
144
0.0208333333333333
144
0.0
144
0.0
144
0.0
144
0.0
144
1.0
144
0.0
144
0.0
144
0.0
144
0.0
144
1.0
147
0.0208333333333333
147
0.0
147
0.0
147
0.0
147
0.0
147
0.0208333333333333
147
0.0
147
0.0
147
0.0
147
0.0
147
1.0
147
0.0
147
0.0
147
0.0
147
0.0
147
1.0
  0
MATERIAL
  5
11
102
{ACAD_XDICTIONARY
360
12
102
}
102
{ACAD_REACTORS
330
10
102
}
330
10
100
AcDbMaterial
  1
ByLayer
 72
     0
 43
0.0208333333333333
 43
0.0
 43
0.0
 43
0.0
 43
0.0
 43
0.0208333333333333
 43
0.0
 43
0.0
 43
0.0
 43
0.0
 43
1.0
 43
0.0
 43
0.0
 43
0.0
 43
0.0
 43
1.0
 77
     0
 47
0.0208333333333333
 47
0.0
 47
0.0
 47
0.0
 47
0.0
 47
0.0208333333333333
 47
0.0
 47
0.0
 47
0.0
 47
0.0
 47
1.0
 47
0.0
 47
0.0
 47
0.0
 47
0.0
 47
1.0
171
     0
 49
0.0208333333333333
 49
0.0
 49
0.0
 49
0.0
 49
0.0
 49
0.0208333333333333
 49
0.0
 49
0.0
 49
0.0
 49
0.0
 49
1.0
 49
0.0
 49
0.0
 49
0.0
 49
0.0
 49
1.0
175
     0
142
0.0208333333333333
142
0.0
142
0.0
142
0.0
142
0.0
142
0.0208333333333333
142
0.0
142
0.0
142
0.0
142
0.0
142
1.0
142
0.0
142
0.0
142
0.0
142
0.0
142
1.0
179
     0
144
0.0208333333333333
144
0.0
144
0.0
144
0.0
144
0.0
144
0.0208333333333333
144
0.0
144
0.0
144
0.0
144
0.0
144
1.0
144
0.0
144
0.0
144
0.0
144
0.0
144
1.0
147
0.0208333333333333
147
0.0
147
0.0
147
0.0
147
0.0
147
0.0208333333333333
147
0.0
147
0.0
147
0.0
147
0.0
147
1.0
147
0.0
147
0.0
147
0.0
147
0.0
147
1.0
  0
MATERIAL
  5
21
102
{ACAD_XDICTIONARY
360
22
102
}
102
{ACAD_REACTORS
330
10
102
}
330
10
100
AcDbMaterial
  1
Global
 72
     0
 43
0.0208333333333333
 43
0.0
 43
0.0
 43
0.0
 43
0.0
 43
0.0208333333333333
 43
0.0
 43
0.0
 43
0.0
 43
0.0
 43
1.0
 43
0.0
 43
0.0
 43
0.0
 43
0.0
 43
1.0
 77
     0
 47
0.0208333333333333
 47
0.0
 47
0.0
 47
0.0
 47
0.0
 47
0.0208333333333333
 47
0.0
 47
0.0
 47
0.0
 47
0.0
 47
1.0
 47
0.0
 47
0.0
 47
0.0
 47
0.0
 47
1.0
171
     0
 49
0.0208333333333333
 49
0.0
 49
0.0
 49
0.0
 49
0.0
 49
0.0208333333333333
 49
0.0
 49
0.0
 49
0.0
 49
0.0
 49
1.0
 49
0.0
 49
0.0
 49
0.0
 49
0.0
 49
1.0
175
     0
142
0.0208333333333333
142
0.0
142
0.0
142
0.0
142
0.0
142
0.0208333333333333
142
0.0
142
0.0
142
0.0
142
0.0
142
1.0
142
0.0
142
0.0
142
0.0
142
0.0
142
1.0
179
     0
144
0.0208333333333333
144
0.0
144
0.0
144
0.0
144
0.0
144
0.0208333333333333
144
0.0
144
0.0
144
0.0
144
0.0
144
1.0
144
0.0
144
0.0
144
0.0
144
0.0
144
1.0
147
0.0208333333333333
147
0.0
147
0.0
147
0.0
147
0.0
147
0.0208333333333333
147
0.0
147
0.0
147
0.0
147
0.0
147
1.0
147
0.0
147
0.0
147
0.0
147
0.0
147
1.0
  0
MLEADERSTYLE
  5
67
102
{ACAD_REACTORS
330
66
102
}
330
66
100
AcDbMLeaderStyle
179
     2
170
     2
171
     1
172
     0
 90
        2
 40
0.0
 41
0.0
173
     1
 91
-1056964608
340
5B
 92
       -2
290
     1
 42
0.09
291
     1
 43
0.36
  3
Standard
 44
0.18
300

342
55
174
     1
178
     6
175
     1
176
     0
 93
-1056964608
 45
0.18
292
     0
297
     0
 46
0.18
 94
-1056964608
 47
1.0
 49
1.0
140
1.0
293
     1
141
0.0
294
     1
177
     0
142
1.0
295
     1
296
     0
143
0.125
271
     0
272
     9
273
     9
298
     1
  0
MLINESTYLE
  5
60
102
{ACAD_REACTORS
330
5F
102
}
330
5F
100
AcDbMlineStyle
  2
STANDARD
 70
     0
  3

 62
   256
 51
90.0
 52
90.0
 71
     2
 49
0.5
 62
   256
  6
BYLAYER
 49
-0.5
 62
   256
  6
BYLAYER
  0
ACDBPLACEHOLDER
  5
F
102
{ACAD_REACTORS
330
E
102
}
330
E
  0
SCALE
  5
43
102
{ACAD_REACTORS
330
42
102
}
330
42
100
AcDbScale
 70
     0
300
1:1
140
1.0
141
1.0
290
     1
  0
SCALE
  5
44
102
{ACAD_REACTORS
330
42
102
}
330
42
100
AcDbScale
 70
     0
300
1/128" = 1'-0"
140
0.0078125
141
12.0
290
     0
  0
SCALE
  5
45
102
{ACAD_REACTORS
330
42
102
}
330
42
100
AcDbScale
 70
     0
300
1/64" = 1'-0"
140
0.015625
141
12.0
290
     0
  0
SCALE
  5
46
102
{ACAD_REACTORS
330
42
102
}
330
42
100
AcDbScale
 70
     0
300
1/32" = 1'-0"
140
0.03125
141
12.0
290
     0
  0
SCALE
  5
47
102
{ACAD_REACTORS
330
42
102
}
330
42
100
AcDbScale
 70
     0
300
1/16" = 1'-0"
140
0.0625
141
12.0
290
     0
  0
SCALE
  5
48
102
{ACAD_REACTORS
330
42
102
}
330
42
100
AcDbScale
 70
     0
300
3/32" = 1'-0"
140
0.09375
141
12.0
290
     0
  0
SCALE
  5
49
102
{ACAD_REACTORS
330
42
102
}
330
42
100
AcDbScale
 70
     0
300
1/8" = 1'-0"
140
0.125
141
12.0
290
     0
  0
SCALE
  5
4A
102
{ACAD_REACTORS
330
42
102
}
330
42
100
AcDbScale
 70
     0
300
3/16" = 1'-0"
140
0.1875
141
12.0
290
     0
  0
SCALE
  5
4B
102
{ACAD_REACTORS
330
42
102
}
330
42
100
AcDbScale
 70
     0
300
1/4" = 1'-0"
140
0.25
141
12.0
290
     0
  0
SCALE
  5
4C
102
{ACAD_REACTORS
330
42
102
}
330
42
100
AcDbScale
 70
     0
300
3/8" = 1'-0"
140
0.375
141
12.0
290
     0
  0
SCALE
  5
4D
102
{ACAD_REACTORS
330
42
102
}
330
42
100
AcDbScale
 70
     0
300
1/2" = 1'-0"
140
0.5
141
12.0
290
     0
  0
SCALE
  5
4E
102
{ACAD_REACTORS
330
42
102
}
330
42
100
AcDbScale
 70
     0
300
3/4" = 1'-0"
140
0.75
141
12.0
290
     0
  0
SCALE
  5
4F
102
{ACAD_REACTORS
330
42
102
}
330
42
100
AcDbScale
 70
     0
300
1" = 1'-0"
140
1.0
141
12.0
290
     0
  0
SCALE
  5
50
102
{ACAD_REACTORS
330
42
102
}
330
42
100
AcDbScale
 70
     0
300
1-1/2" = 1'-0"
140
1.5
141
12.0
290
     0
  0
SCALE
  5
51
102
{ACAD_REACTORS
330
42
102
}
330
42
100
AcDbScale
 70
     0
300
3" = 1'-0"
140
3.0
141
12.0
290
     0
  0
SCALE
  5
52
102
{ACAD_REACTORS
330
42
102
}
330
42
100
AcDbScale
 70
     0
300
6" = 1'-0"
140
6.0
141
12.0
290
     0
  0
SCALE
  5
53
102
{ACAD_REACTORS
330
42
102
}
330
42
100
AcDbScale
 70
     0
300
1'-0" = 1'-0"
140
12.0
141
12.0
290
     0
  0
ACDBSECTIONVIEWSTYLE
  5
69
102
{ACAD_REACTORS
330
68
102
}
330
68
100
AcDbModelDocViewStyle
 70
     0
  3
Imperial24
290
     1
300
Imperial24
 90
        0
100
AcDbSectionViewStyle
 70
     0
 71
     0
 90
       78
 71
     1
340
55
 62
   256
 40
0.24
340
0
340
0
 62
   256
 40
0.24
300
I, O, Q, S, X, Z
 40
0.48
 90
        3
 40
0.18
 90
        1
 71
     2
340
5D
 90
       25
 62
   256
340
5D
 90
       50
 62
   256
 40
0.24
 40
0.0
 40
0.24
 71
     3
340
55
 62
   256
 40
0.24
 90
        1
 40
0.75
 90
        1
300
%<\AcVar ViewType \f "%tc1">% %<\AcVar ViewSectionStartId>%-%<\AcVar ViewSectionEndId>%\PSCALE %<\AcVar ViewScale \f "%sn">%
 71
     4
 62
   256
 62
   257
300
ANSI31
 40
1.0
 90
        0
290
     0
290
     0
 90
        6
 40
0.0
 40
1.570796326794896
 40
0.2617993877991494
 40
1.308996938995747
 40
-0.2617993877991494
 40
1.832595714594046
  0
TABLESTYLE
  5
65
102
{ACAD_XDICTIONARY
360
176
102
}
102
{ACAD_REACTORS
330
64
102
}
330
64
100
AcDbTableStyle
280
     0
  3
Standard
 70
     0
 71
     0
 40
0.06
 41
0.06
280
     0
281
     0
  7
Standard
140
0.18
170
     2
 62
     0
 63
     7
283
     0
 90
      512
 91
        0
  1

274
    -2
284
     1
 64
     0
275
    -2
285
     1
 65
     0
276
    -2
286
     1
 66
     0
277
    -2
287
     1
 67
     0
278
    -2
288
     1
 68
     0
279
    -2
289
     1
 69
     0
  7
Standard
140
0.25
170
     5
 62
     0
 63
     7
283
     0
 90
      512
 91
        0
  1

274
    -2
284
     1
 64
     0
275
    -2
285
     1
 65
     0
276
    -2
286
     1
 66
     0
277
    -2
287
     1
 67
     0
278
    -2
288
     1
 68
     0
279
    -2
289
     1
 69
     0
  7
Standard
140
0.18
170
     5
 62
     0
 63
     7
283
     0
 90
      512
 91
        0
  1

274
    -2
284
     1
 64
     0
275
    -2
285
     1
 65
     0
276
    -2
286
     1
 66
     0
277
    -2
287
     1
 67
     0
278
    -2
288
     1
 68
     0
279
    -2
289
     1
 69
     0
  0
VISUALSTYLE
  5
2F
102
{ACAD_REACTORS
330
29
102
}
330
29
100
AcDbVisualStyle
  2
2dWireframe
 70
     4
177
     3
291
     0
 70
    58
 90
        0
176
     1
 90
        2
176
     1
 90
        0
176
     1
 90
        0
176
     1
 40
0.6
176
     1
 40
30.0
176
     1
 62
     7
420
 16777215
176
     1
 90
        1
176
     1
 90
        4
176
     1
 62
     7
176
     1
 62
   257
176
     1
 90
        1
176
     1
 90
        1
176
     1
 40
1.0
176
     1
 90
        0
176
     1
 62
   257
176
     1
 40
1.0
176
     1
 90
        1
176
     1
 90
        6
176
     1
 90
        2
176
     1
 62
     7
176
     1
 90
        5
176
     1
 90
        0
176
     1
 90
        0
176
     1
290
     0
176
     1
 90
        1
176
     1
 40
0.0
176
     1
 90
        0
176
     1
290
     1
176
     1
290
     1
176
     1
290
     0
176
     1
290
     0
176
     1
290
     0
176
     1
290
     0
176
     1
290
     0
176
     1
290
     0
176
     1
290
     0
176
     1
 90
       50
176
     1
 40
0.0
176
     1
 40
1.0
176
     1
 90
        0
176
     1
 62
    18
420
        0
176
     1
 90
       50
176
     1
 90
        3
176
     1
 62
     5
420
      255
176
     1
290
     0
176
     1
 90
       50
176
     1
 90
       50
176
     1
 90
       50
176
     1
290
     0
176
     1
 90
       50
176
     1
 62
   256
176
     0
 40
1.0
176
     0
 90
        2
176
     1
  1
strokes_ogs.tif
176
     1
290
     0
176
     1
 40
1.0
176
     1
 40
1.0
176
     1
  0
VISUALSTYLE
  5
2E
102
{ACAD_REACTORS
330
29
102
}
330
29
100
AcDbVisualStyle
  2
Basic
 70
     7
177
     3
291
     1
 70
    58
 90
        1
176
     1
 90
        0
176
     1
 90
        1
176
     1
 90
        0
176
     1
 40
0.6
176
     1
 40
30.0
176
     1
 62
     7
420
 16777215
176
     1
 90
        0
176
     1
 90
        4
176
     1
 62
     7
176
     1
 62
   257
176
     1
 90
        1
176
     1
 90
        1
176
     1
 40
1.0
176
     1
 90
        8
176
     1
 62
     7
176
     1
 40
1.0
176
     1
 90
        1
176
     1
 90
        6
176
     1
 90
        2
176
     1
 62
     7
176
     1
 90
        5
176
     1
 90
        0
176
     1
 90
        0
176
     1
290
     0
176
     1
 90
        1
176
     1
 40
0.0
176
     1
 90
        0
176
     1
290
     0
176
     1
290
     1
176
     1
290
     1
176
     1
290
     0
176
     1
290
     0
176
     1
290
     0
176
     1
290
     0
176
     1
290
     0
176
     1
290
     0
176
     1
 90
       50
176
     1
 40
0.0
176
     1
 40
1.0
176
     1
 90
        0
176
     1
 62
    18
420
        0
176
     1
 90
       50
176
     1
 90
        3
176
     1
 62
     5
420
      255
176
     1
290
     0
176
     1
 90
       50
176
     1
 90
       50
176
     1
 90
       50
176
     1
290
     0
176
     1
 90
       50
176
     1
 62
   256
176
     0
 40
1.0
176
     0
 90
        2
176
     1
  1
strokes_ogs.tif
176
     1
290
     0
176
     1
 40
1.0
176
     1
 40
1.0
176
     1
  0
VISUALSTYLE
  5
35
102
{ACAD_REACTORS
330
29
102
}
330
29
100
AcDbVisualStyle
  2
Brighten
 70
    12
177
     3
291
     1
 70
    58
 90
        2
176
     1
 90
        2
176
     1
 90
        0
176
     1
 90
        0
176
     1
 40
0.6
176
     1
 40
30.0
176
     1
 62
     7
420
 16777215
176
     1
 90
        1
176
     1
 90
        4
176
     1
 62
     7
176
     1
 62
   257
176
     1
 90
        1
176
     1
 90
        1
176
     1
 40
1.0
176
     1
 90
        8
176
     1
 62
     7
176
     1
 40
1.0
176
     1
 90
        1
176
     1
 90
        6
176
     1
 90
        2
176
     1
 62
     7
176
     1
 90
        5
176
     1
 90
        0
176
     1
 90
        0
176
     1
290
     0
176
     1
 90
        1
176
     1
 40
50.0
176
     1
 90
        0
176
     1
290
     0
176
     1
290
     1
176
     1
290
     1
176
     1
290
     0
176
     1
290
     0
176
     1
290
     0
176
     1
290
     0
176
     1
290
     0
176
     1
290
     0
176
     1
 90
       50
176
     1
 40
0.0
176
     1
 40
1.0
176
     1
 90
        0
176
     1
 62
    18
420
        0
176
     1
 90
       50
176
     1
 90
        3
176
     1
 62
     5
420
      255
176
     1
290
     0
176
     1
 90
       50
176
     1
 90
       50
176
     1
 90
       50
176
     1
290
     0
176
     1
 90
       50
176
     1
 62
   256
176
     0
 40
1.0
176
     0
 90
        2
176
     1
  1
strokes_ogs.tif
176
     1
290
     0
176
     1
 40
1.0
176
     1
 40
1.0
176
     1
  0
VISUALSTYLE
  5
39
102
{ACAD_REACTORS
330
29
102
}
330
29
100
AcDbVisualStyle
  2
ColorChange
 70
    16
177
     3
291
     1
 70
    58
 90
        2
176
     1
 90
        2
176
     1
 90
        3
176
     1
 90
        0
176
     1
 40
0.6
176
     1
 40
30.0
176
     1
 62
     8
420
  8421504
176
     1
 90
        1
176
     1
 90
        4
176
     1
 62
     7
176
     1
 62
   257
176
     1
 90
        1
176
     1
 90
        1
176
     1
 40
1.0
176
     1
 90
        8
176
     1
 62
     8
420
  8421504
176
     1
 40
1.0
176
     1
 90
        1
176
     1
 90
        6
176
     1
 90
        2
176
     1
 62
     7
176
     1
 90
        5
176
     1
 90
        0
176
     1
 90
        0
176
     1
290
     0
176
     1
 90
        1
176
     1
 40
0.0
176
     1
 90
        0
176
     1
290
     0
176
     1
290
     1
176
     1
290
     1
176
     1
290
     0
176
     1
290
     0
176
     1
290
     0
176
     1
290
     0
176
     1
290
     0
176
     1
290
     0
176
     1
 90
       50
176
     1
 40
0.0
176
     1
 40
1.0
176
     1
 90
        0
176
     1
 62
    18
420
        0
176
     1
 90
       50
176
     1
 90
        3
176
     1
 62
     5
420
      255
176
     1
290
     0
176
     1
 90
       50
176
     1
 90
       50
176
     1
 90
       50
176
     1
290
     0
176
     1
 90
       50
176
     1
 62
   256
176
     0
 40
1.0
176
     0
 90
        2
176
     1
  1
strokes_ogs.tif
176
     1
290
     0
176
     1
 40
1.0
176
     1
 40
1.0
176
     1
  0
VISUALSTYLE
  5
32
102
{ACAD_REACTORS
330
29
102
}
330
29
100
AcDbVisualStyle
  2
Conceptual
 70
     9
177
     3
291
     0
 70
    58
 90
        3
176
     1
 90
        2
176
     1
 90
        0
176
     1
 90
        0
176
     1
 40
0.6
176
     1
 40
30.0
176
     1
 62
     7
420
 16777215
176
     1
 90
        2
176
     1
 90
        2
176
     1
 62
     7
176
     1
 62
   257
176
     1
 90
        1
176
     1
 90
        1
176
     1
 40
179.0
176
     1
 90
        8
176
     1
 62
     7
176
     1
 40
1.0
176
     1
 90
        1
176
     1
 90
        6
176
     1
 90
        2
176
     1
 62
     7
176
     1
 90
        3
176
     1
 90
        0
176
     1
 90
        0
176
     1
290
     0
176
     1
 90
        1
176
     1
 40
0.0
176
     1
 90
        0
176
     1
290
     0
176
     1
290
     1
176
     1
290
     1
176
     1
290
     0
176
     1
290
     0
176
     1
290
     0
176
     1
290
     0
176
     1
290
     0
176
     1
290
     0
176
     1
 90
       50
176
     1
 40
0.0
176
     1
 40
1.0
176
     1
 90
        0
176
     1
 62
    18
420
        0
176
     1
 90
       50
176
     1
 90
        3
176
     1
 62
     5
420
      255
176
     1
290
     0
176
     1
 90
       50
176
     1
 90
       50
176
     1
 90
       50
176
     1
290
     0
176
     1
 90
       50
176
     1
 62
   256
176
     0
 40
1.0
176
     0
 90
        2
176
     1
  1
strokes_ogs.tif
176
     1
290
     0
176
     1
 40
1.0
176
     1
 40
1.0
176
     1
  0
VISUALSTYLE
  5
34
102
{ACAD_REACTORS
330
29
102
}
330
29
100
AcDbVisualStyle
  2
Dim
 70
    11
177
     3
291
     1
 70
    58
 90
        2
176
     1
 90
        2
176
     1
 90
        0
176
     1
 90
        0
176
     1
 40
0.6
176
     1
 40
30.0
176
     1
 62
     7
420
 16777215
176
     1
 90
        1
176
     1
 90
        4
176
     1
 62
     7
176
     1
 62
   257
176
     1
 90
        1
176
     1
 90
        1
176
     1
 40
1.0
176
     1
 90
        8
176
     1
 62
     7
176
     1
 40
1.0
176
     1
 90
        1
176
     1
 90
        6
176
     1
 90
        2
176
     1
 62
     7
176
     1
 90
        5
176
     1
 90
        0
176
     1
 90
        0
176
     1
290
     0
176
     1
 90
        1
176
     1
 40
-50.0
176
     1
 90
        0
176
     1
290
     0
176
     1
290
     1
176
     1
290
     1
176
     1
290
     0
176
     1
290
     0
176
     1
290
     0
176
     1
290
     0
176
     1
290
     0
176
     1
290
     0
176
     1
 90
       50
176
     1
 40
0.0
176
     1
 40
1.0
176
     1
 90
        0
176
     1
 62
    18
420
        0
176
     1
 90
       50
176
     1
 90
        3
176
     1
 62
     5
420
      255
176
     1
290
     0
176
     1
 90
       50
176
     1
 90
       50
176
     1
 90
       50
176
     1
290
     0
176
     1
 90
       50
176
     1
 62
   256
176
     0
 40
1.0
176
     0
 90
        2
176
     1
  1
strokes_ogs.tif
176
     1
290
     0
176
     1
 40
1.0
176
     1
 40
1.0
176
     1
  0
VISUALSTYLE
  5
41
102
{ACAD_REACTORS
330
29
102
}
330
29
100
AcDbVisualStyle
  2
EdgeColorOff
 70
    22
177
     3
291
     1
 70
    58
 90
        2
176
     0
 90
        2
176
     0
 90
        0
176
     0
 90
        0
176
     0
 40
0.6
176
     0
 40
30.0
176
     0
 62
     7
420
 16777215
176
     0
 90
        1
176
     0
 90
        4
176
     0
 62
     7
176
     0
 62
   257
176
     0
 90
        1
176
     0
 90
        1
176
     0
 40
1.0
176
     0
 90
        8
176
     2
 62
     7
176
     0
 40
1.0
176
     0
 90
        1
176
     0
 90
        6
176
     0
 90
        2
176
     0
 62
     7
176
     0
 90
        5
176
     0
 90
        0
176
     0
 90
        0
176
     0
290
     0
176
     0
 90
        1
176
     0
 40
0.0
176
     0
 90
        0
176
     0
290
     0
176
     0
290
     1
176
     0
290
     1
176
     0
290
     0
176
     0
290
     0
176
     0
290
     0
176
     0
290
     0
176
     0
290
     0
176
     0
290
     0
176
     0
 90
       50
176
     0
 40
0.0
176
     0
 40
1.0
176
     0
 90
        0
176
     0
 62
    18
420
        0
176
     0
 90
       50
176
     0
 90
        3
176
     0
 62
     5
420
      255
176
     0
290
     0
176
     0
 90
       50
176
     0
 90
       50
176
     0
 90
       50
176
     0
290
     0
176
     0
 90
       50
176
     0
 62
   256
176
     0
 40
1.0
176
     0
 90
        2
176
     0
  1
strokes_ogs.tif
176
     0
290
     0
176
     0
 40
1.0
176
     0
 40
1.0
176
     0
  0
VISUALSTYLE
  5
38
102
{ACAD_REACTORS
330
29
102
}
330
29
100
AcDbVisualStyle
  2
Facepattern
 70
    15
177
     3
291
     1
 70
    58
 90
        2
176
     1
 90
        2
176
     1
 90
        0
176
     1
 90
        0
176
     1
 40
0.6
176
     1
 40
30.0
176
     1
 62
     7
420
 16777215
176
     1
 90
        1
176
     1
 90
        4
176
     1
 62
     7
176
     1
 62
   257
176
     1
 90
        1
176
     1
 90
        1
176
     1
 40
1.0
176
     1
 90
        8
176
     1
 62
     7
176
     1
 40
1.0
176
     1
 90
        1
176
     1
 90
        6
176
     1
 90
        2
176
     1
 62
     7
176
     1
 90
        5
176
     1
 90
        0
176
     1
 90
        0
176
     1
290
     0
176
     1
 90
        1
176
     1
 40
0.0
176
     1
 90
        0
176
     1
290
     0
176
     1
290
     1
176
     1
290
     1
176
     1
290
     0
176
     1
290
     0
176
     1
290
     0
176
     1
290
     0
176
     1
290
     0
176
     1
290
     0
176
     1
 90
       50
176
     1
 40
0.0
176
     1
 40
1.0
176
     1
 90
        0
176
     1
 62
    18
420
        0
176
     1
 90
       50
176
     1
 90
        3
176
     1
 62
     5
420
      255
176
     1
290
     0
176
     1
 90
       50
176
     1
 90
       50
176
     1
 90
       50
176
     1
290
     0
176
     1
 90
       50
176
     1
 62
   256
176
     0
 40
1.0
176
     0
 90
        2
176
     1
  1
strokes_ogs.tif
176
     1
290
     0
176
     1
 40
1.0
176
     1
 40
1.0
176
     1
  0
VISUALSTYLE
  5
2A
102
{ACAD_REACTORS
330
29
102
}
330
29
100
AcDbVisualStyle
  2
Flat
 70
     0
177
     3
291
     1
 70
    58
 90
        2
176
     1
 90
        1
176
     1
 90
        1
176
     1
 90
        2
176
     1
 40
0.6
176
     1
 40
30.0
176
     1
 62
     7
420
 16777215
176
     1
 90
        0
176
     1
 90
        0
176
     1
 62
     7
176
     1
 62
   257
176
     1
 90
        1
176
     1
 90
        1
176
     1
 40
1.0
176
     1
 90
        8
176
     1
 62
     7
176
     1
 40
1.0
176
     1
 90
        1
176
     1
 90
        6
176
     1
 90
        2
176
     1
 62
     7
176
     1
 90
        5
176
     1
 90
        0
176
     1
 90
        0
176
     1
290
     0
176
     1
 90
       13
176
     1
 40
0.0
176
     1
 90
        0
176
     1
290
     0
176
     1
290
     1
176
     1
290
     1
176
     1
290
     0
176
     1
290
     0
176
     1
290
     0
176
     1
290
     0
176
     1
290
     0
176
     1
290
     0
176
     1
 90
       50
176
     1
 40
0.0
176
     1
 40
1.0
176
     1
 90
        0
176
     1
 62
    18
420
        0
176
     1
 90
       50
176
     1
 90
        3
176
     1
 62
     5
420
      255
176
     1
290
     0
176
     1
 90
       50
176
     1
 90
       50
176
     1
 90
       50
176
     1
290
     0
176
     1
 90
       50
176
     1
 62
   256
176
     0
 40
1.0
176
     0
 90
        2
176
     1
  1
strokes_ogs.tif
176
     1
290
     0
176
     1
 40
1.0
176
     1
 40
1.0
176
     1
  0
VISUALSTYLE
  5
2B
102
{ACAD_REACTORS
330
29
102
}
330
29
100
AcDbVisualStyle
  2
FlatWithEdges
 70
     1
177
     3
291
     1
 70
    58
 90
        2
176
     1
 90
        1
176
     1
 90
        1
176
     1
 90
        2
176
     1
 40
0.6
176
     1
 40
30.0
176
     1
 62
     7
420
 16777215
176
     1
 90
        1
176
     1
 90
        0
176
     1
 62
     7
176
     1
 62
   257
176
     1
 90
        1
176
     1
 90
        1
176
     1
 40
1.0
176
     1
 90
        0
176
     1
 62
   257
176
     1
 40
1.0
176
     1
 90
        1
176
     1
 90
        6
176
     1
 90
        2
176
     1
 62
     7
176
     1
 90
        5
176
     1
 90
        0
176
     1
 90
        0
176
     1
290
     0
176
     1
 90
       13
176
     1
 40
0.0
176
     1
 90
        0
176
     1
290
     0
176
     1
290
     1
176
     1
290
     1
176
     1
290
     0
176
     1
290
     0
176
     1
290
     0
176
     1
290
     0
176
     1
290
     0
176
     1
290
     0
176
     1
 90
       50
176
     1
 40
0.0
176
     1
 40
1.0
176
     1
 90
        0
176
     1
 62
    18
420
        0
176
     1
 90
       50
176
     1
 90
        3
176
     1
 62
     5
420
      255
176
     1
290
     0
176
     1
 90
       50
176
     1
 90
       50
176
     1
 90
       50
176
     1
290
     0
176
     1
 90
       50
176
     1
 62
   256
176
     0
 40
1.0
176
     0
 90
        2
176
     1
  1
strokes_ogs.tif
176
     1
290
     0
176
     1
 40
1.0
176
     1
 40
1.0
176
     1
  0
VISUALSTYLE
  5
2C
102
{ACAD_REACTORS
330
29
102
}
330
29
100
AcDbVisualStyle
  2
Gouraud
 70
     2
177
     3
291
     1
 70
    58
 90
        2
176
     1
 90
        2
176
     1
 90
        1
176
     1
 90
        2
176
     1
 40
0.6
176
     1
 40
30.0
176
     1
 62
     7
420
 16777215
176
     1
 90
        0
176
     1
 90
        0
176
     1
 62
     7
176
     1
 62
   257
176
     1
 90
        1
176
     1
 90
        1
176
     1
 40
1.0
176
     1
 90
        0
176
     1
 62
     7
176
     1
 40
1.0
176
     1
 90
        1
176
     1
 90
        6
176
     1
 90
        2
176
     1
 62
     7
176
     1
 90
        5
176
     1
 90
        0
176
     1
 90
        0
176
     1
290
     0
176
     1
 90
       13
176
     1
 40
0.0
176
     1
 90
        0
176
     1
290
     0
176
     1
290
     1
176
     1
290
     1
176
     1
290
     0
176
     1
290
     0
176
     1
290
     0
176
     1
290
     0
176
     1
290
     0
176
     1
290
     0
176
     1
 90
       50
176
     1
 40
0.0
176
     1
 40
1.0
176
     1
 90
        0
176
     1
 62
    18
420
        0
176
     1
 90
       50
176
     1
 90
        3
176
     1
 62
     5
420
      255
176
     1
290
     0
176
     1
 90
       50
176
     1
 90
       50
176
     1
 90
       50
176
     1
290
     0
176
     1
 90
       50
176
     1
 62
   256
176
     0
 40
1.0
176
     0
 90
        2
176
     1
  1
strokes_ogs.tif
176
     1
290
     0
176
     1
 40
1.0
176
     1
 40
1.0
176
     1
  0
VISUALSTYLE
  5
2D
102
{ACAD_REACTORS
330
29
102
}
330
29
100
AcDbVisualStyle
  2
GouraudWithEdges
 70
     3
177
     3
291
     1
 70
    58
 90
        2
176
     1
 90
        2
176
     1
 90
        1
176
     1
 90
        2
176
     1
 40
0.6
176
     1
 40
30.0
176
     1
 62
     7
420
 16777215
176
     1
 90
        1
176
     1
 90
        0
176
     1
 62
     7
176
     1
 62
   257
176
     1
 90
        1
176
     1
 90
        1
176
     1
 40
1.0
176
     1
 90
        0
176
     1
 62
   257
176
     1
 40
1.0
176
     1
 90
        1
176
     1
 90
        6
176
     1
 90
        2
176
     1
 62
     7
176
     1
 90
        5
176
     1
 90
        0
176
     1
 90
        0
176
     1
290
     0
176
     1
 90
       13
176
     1
 40
0.0
176
     1
 90
        0
176
     1
290
     0
176
     1
290
     1
176
     1
290
     1
176
     1
290
     0
176
     1
290
     0
176
     1
290
     0
176
     1
290
     0
176
     1
290
     0
176
     1
290
     0
176
     1
 90
       50
176
     1
 40
0.0
176
     1
 40
1.0
176
     1
 90
        0
176
     1
 62
    18
420
        0
176
     1
 90
       50
176
     1
 90
        3
176
     1
 62
     5
420
      255
176
     1
290
     0
176
     1
 90
       50
176
     1
 90
       50
176
     1
 90
       50
176
     1
290
     0
176
     1
 90
       50
176
     1
 62
   256
176
     0
 40
1.0
176
     0
 90
        2
176
     1
  1
strokes_ogs.tif
176
     1
290
     0
176
     1
 40
1.0
176
     1
 40
1.0
176
     1
  0
VISUALSTYLE
  5
31
102
{ACAD_REACTORS
330
29
102
}
330
29
100
AcDbVisualStyle
  2
Hidden
 70
     6
177
     3
291
     0
 70
    58
 90
        1
176
     1
 90
        2
176
     1
 90
        2
176
     1
 90
        0
176
     1
 40
0.6
176
     1
 40
30.0
176
     1
 62
     7
420
 16777215
176
     1
 90
        2
176
     1
 90
        2
176
     1
 62
     7
176
     1
 62
   257
176
     1
 90
        2
176
     1
 90
        1
176
     1
 40
40.0
176
     1
 90
        0
176
     1
 62
   257
176
     1
 40
1.0
176
     1
 90
        1
176
     1
 90
        6
176
     1
 90
        2
176
     1
 62
     7
176
     1
 90
        3
176
     1
 90
        0
176
     1
 90
        0
176
     1
290
     0
176
     1
 90
        1
176
     1
 40
0.0
176
     1
 90
        0
176
     1
290
     0
176
     1
290
     1
176
     1
290
     1
176
     1
290
     0
176
     1
290
     0
176
     1
290
     0
176
     1
290
     0
176
     1
290
     0
176
     1
290
     0
176
     1
 90
       50
176
     1
 40
0.0
176
     1
 40
1.0
176
     1
 90
        0
176
     1
 62
    18
420
        0
176
     1
 90
       50
176
     1
 90
        3
176
     1
 62
     5
420
      255
176
     1
290
     0
176
     1
 90
       50
176
     1
 90
       50
176
     1
 90
       50
176
     1
290
     0
176
     1
 90
       50
176
     1
 62
   256
176
     0
 40
1.0
176
     0
 90
        2
176
     1
  1
strokes_ogs.tif
176
     1
290
     0
176
     1
 40
1.0
176
     1
 40
1.0
176
     1
  0
VISUALSTYLE
  5
3F
102
{ACAD_REACTORS
330
29
102
}
330
29
100
AcDbVisualStyle
  2
JitterOff
 70
    20
177
     3
291
     1
 70
    58
 90
        2
176
     0
 90
        2
176
     0
 90
        0
176
     0
 90
        0
176
     0
 40
0.6
176
     0
 40
30.0
176
     0
 62
     7
420
 16777215
176
     0
 90
        1
176
     0
 90
        4
176
     0
 62
     7
176
     0
 62
   257
176
     0
 90
        1
176
     0
 90
        1
176
     0
 40
1.0
176
     0
 90
       10
176
     2
 62
     7
176
     0
 40
1.0
176
     0
 90
        1
176
     0
 90
        6
176
     0
 90
        2
176
     0
 62
     7
176
     0
 90
        5
176
     0
 90
        0
176
     0
 90
        0
176
     0
290
     0
176
     0
 90
        1
176
     0
 40
0.0
176
     0
 90
        0
176
     0
290
     0
176
     0
290
     1
176
     0
290
     1
176
     0
290
     0
176
     0
290
     0
176
     0
290
     0
176
     0
290
     0
176
     0
290
     0
176
     0
290
     0
176
     0
 90
       50
176
     0
 40
0.0
176
     0
 40
1.0
176
     0
 90
        0
176
     0
 62
    18
420
        0
176
     0
 90
       50
176
     0
 90
        3
176
     0
 62
     5
420
      255
176
     0
290
     0
176
     0
 90
       50
176
     0
 90
       50
176
     0
 90
       50
176
     0
290
     0
176
     0
 90
       50
176
     0
 62
   256
176
     0
 40
1.0
176
     0
 90
        2
176
     0
  1
strokes_ogs.tif
176
     0
290
     0
176
     0
 40
1.0
176
     0
 40
1.0
176
     0
  0
VISUALSTYLE
  5
37
102
{ACAD_REACTORS
330
29
102
}
330
29
100
AcDbVisualStyle
  2
Linepattern
 70
    14
177
     3
291
     1
 70
    58
 90
        2
176
     1
 90
        2
176
     1
 90
        0
176
     1
 90
        0
176
     1
 40
0.6
176
     1
 40
30.0
176
     1
 62
     7
420
 16777215
176
     1
 90
        1
176
     1
 90
        4
176
     1
 62
     7
176
     1
 62
   257
176
     1
 90
        7
176
     1
 90
        7
176
     1
 40
1.0
176
     1
 90
        8
176
     1
 62
     7
176
     1
 40
1.0
176
     1
 90
        1
176
     1
 90
        6
176
     1
 90
        2
176
     1
 62
     7
176
     1
 90
        5
176
     1
 90
        0
176
     1
 90
        0
176
     1
290
     0
176
     1
 90
        1
176
     1
 40
0.0
176
     1
 90
        0
176
     1
290
     0
176
     1
290
     1
176
     1
290
     1
176
     1
290
     0
176
     1
290
     0
176
     1
290
     0
176
     1
290
     0
176
     1
290
     0
176
     1
290
     0
176
     1
 90
       50
176
     1
 40
0.0
176
     1
 40
1.0
176
     1
 90
        0
176
     1
 62
    18
420
        0
176
     1
 90
       50
176
     1
 90
        3
176
     1
 62
     5
420
      255
176
     1
290
     0
176
     1
 90
       50
176
     1
 90
       50
176
     1
 90
       50
176
     1
290
     0
176
     1
 90
       50
176
     1
 62
   256
176
     0
 40
1.0
176
     0
 90
        2
176
     1
  1
strokes_ogs.tif
176
     1
290
     0
176
     1
 40
1.0
176
     1
 40
1.0
176
     1
  0
VISUALSTYLE
  5
40
102
{ACAD_REACTORS
330
29
102
}
330
29
100
AcDbVisualStyle
  2
OverhangOff
 70
    21
177
     3
291
     1
 70
    58
 90
        2
176
     0
 90
        2
176
     0
 90
        0
176
     0
 90
        0
176
     0
 40
0.6
176
     0
 40
30.0
176
     0
 62
     7
420
 16777215
176
     0
 90
        1
176
     0
 90
        4
176
     0
 62
     7
176
     0
 62
   257
176
     0
 90
        1
176
     0
 90
        1
176
     0
 40
1.0
176
     0
 90
        9
176
     2
 62
     7
176
     0
 40
1.0
176
     0
 90
        1
176
     0
 90
        6
176
     0
 90
        2
176
     0
 62
     7
176
     0
 90
        5
176
     0
 90
        0
176
     0
 90
        0
176
     0
290
     0
176
     0
 90
        1
176
     0
 40
0.0
176
     0
 90
        0
176
     0
290
     0
176
     0
290
     1
176
     0
290
     1
176
     0
290
     0
176
     0
290
     0
176
     0
290
     0
176
     0
290
     0
176
     0
290
     0
176
     0
290
     0
176
     0
 90
       50
176
     0
 40
0.0
176
     0
 40
1.0
176
     0
 90
        0
176
     0
 62
    18
420
        0
176
     0
 90
       50
176
     0
 90
        3
176
     0
 62
     5
420
      255
176
     0
290
     0
176
     0
 90
       50
176
     0
 90
       50
176
     0
 90
       50
176
     0
290
     0
176
     0
 90
       50
176
     0
 62
   256
176
     0
 40
1.0
176
     0
 90
        2
176
     0
  1
strokes_ogs.tif
176
     0
290
     0
176
     0
 40
1.0
176
     0
 40
1.0
176
     0
  0
VISUALSTYLE
  5
33
102
{ACAD_REACTORS
330
29
102
}
330
29
100
AcDbVisualStyle
  2
Realistic
 70
     8
177
     3
291
     0
 70
    58
 90
        2
176
     1
 90
        3
176
     1
 90
        0
176
     1
 90
        2
176
     1
 40
0.6
176
     1
 40
30.0
176
     1
 62
     7
420
 16777215
176
     1
 90
        0
176
     1
 90
        0
176
     1
 62
     7
176
     1
 62
   257
176
     1
 90
        1
176
     1
 90
        1
176
     1
 40
1.0
176
     1
 90
        8
176
     1
 62
   257
176
     1
 40
1.0
176
     1
 90
        1
176
     1
 90
        6
176
     1
 90
        2
176
     1
 62
     7
176
     1
 90
        3
176
     1
 90
        0
176
     1
 90
        0
176
     1
290
     0
176
     1
 90
       13
176
     1
 40
0.0
176
     1
 90
        0
176
     1
290
     0
176
     1
290
     1
176
     1
290
     1
176
     1
290
     0
176
     1
290
     0
176
     1
290
     0
176
     1
290
     0
176
     1
290
     0
176
     1
290
     0
176
     1
 90
       50
176
     1
 40
0.0
176
     1
 40
1.0
176
     1
 90
        0
176
     1
 62
    18
420
        0
176
     1
 90
       50
176
     1
 90
        3
176
     1
 62
     5
420
      255
176
     1
290
     0
176
     1
 90
       50
176
     1
 90
       50
176
     1
 90
       50
176
     1
290
     0
176
     1
 90
       50
176
     1
 62
   256
176
     0
 40
1.0
176
     0
 90
        2
176
     1
  1
strokes_ogs.tif
176
     1
290
     0
176
     1
 40
1.0
176
     1
 40
1.0
176
     1
  0
VISUALSTYLE
  5
3E
102
{ACAD_REACTORS
330
29
102
}
330
29
100
AcDbVisualStyle
  2
Shaded
 70
    27
177
     3
291
     0
 70
    58
 90
        2
176
     1
 90
        2
176
     1
 90
        1
176
     1
 90
        2
176
     1
 40
0.6
176
     1
 40
30.0
176
     1
 62
     7
420
 16777215
176
     1
 90
        0
176
     1
 90
        4
176
     1
 62
     7
176
     1
 62
   257
176
     1
 90
        1
176
     1
 90
        1
176
     1
 40
1.0
176
     1
 90
        8
176
     1
 62
   257
176
     1
 40
1.0
176
     1
 90
        1
176
     1
 90
        6
176
     1
 90
        2
176
     1
 62
     8
420
  7895160
176
     1
 90
        3
176
     1
 90
        0
176
     1
 90
        0
176
     1
290
     0
176
     1
 90
        5
176
     1
 40
0.0
176
     1
 90
        0
176
     1
290
     0
176
     1
290
     1
176
     1
290
     1
176
     1
290
     0
176
     1
290
     0
176
     1
290
     0
176
     1
290
     0
176
     1
290
     0
176
     1
290
     0
176
     1
 90
       50
176
     1
 40
0.0
176
     1
 40
1.0
176
     1
 90
        0
176
     1
 62
    18
420
        0
176
     1
 90
       50
176
     1
 90
        3
176
     1
 62
     5
420
      255
176
     1
290
     0
176
     1
 90
       50
176
     1
 90
       50
176
     1
 90
       50
176
     1
290
     0
176
     1
 90
       50
176
     1
 62
   256
176
     0
 40
1.0
176
     0
 90
        2
176
     1
  1
strokes_ogs.tif
176
     1
290
     0
176
     1
 40
1.0
176
     1
 40
1.0
176
     1
  0
VISUALSTYLE
  5
3D
102
{ACAD_REACTORS
330
29
102
}
330
29
100
AcDbVisualStyle
  2
Shaded with edges
 70
    26
177
     3
291
     0
 70
    58
 90
        2
176
     1
 90
        2
176
     1
 90
        1
176
     1
 90
        2
176
     1
 40
0.6
176
     1
 40
30.0
176
     1
 62
     7
420
 16777215
176
     1
 90
        1
176
     1
 90
        2
176
     1
 62
     7
176
     1
 62
   257
176
     1
 90
        2
176
     1
 90
        1
176
     1
 40
1.0
176
     1
 90
        8
176
     1
 62
   257
176
     1
 40
1.0
176
     1
 90
        1
176
     1
 90
        6
176
     1
 90
        2
176
     1
 62
     7
176
     1
 90
        3
176
     1
 90
        0
176
     1
 90
        0
176
     1
290
     0
176
     1
 90
        5
176
     1
 40
0.0
176
     1
 90
        0
176
     1
290
     0
176
     1
290
     1
176
     1
290
     1
176
     1
290
     0
176
     1
290
     0
176
     1
290
     0
176
     1
290
     0
176
     1
290
     0
176
     1
290
     0
176
     1
 90
       50
176
     1
 40
0.0
176
     1
 40
1.0
176
     1
 90
        0
176
     1
 62
    18
420
        0
176
     1
 90
       50
176
     1
 90
        3
176
     1
 62
     5
420
      255
176
     1
290
     0
176
     1
 90
       50
176
     1
 90
       50
176
     1
 90
       50
176
     1
290
     0
176
     1
 90
       50
176
     1
 62
   256
176
     0
 40
1.0
176
     0
 90
        2
176
     1
  1
strokes_ogs.tif
176
     1
290
     0
176
     1
 40
1.0
176
     1
 40
1.0
176
     1
  0
VISUALSTYLE
  5
3A
102
{ACAD_REACTORS
330
29
102
}
330
29
100
AcDbVisualStyle
  2
Shades of Gray
 70
    23
177
     3
291
     0
 70
    58
 90
        2
176
     1
 90
        2
176
     1
 90
        3
176
     1
 90
        0
176
     1
 40
0.6
176
     1
 40
30.0
176
     1
 62
     7
420
 16777215
176
     1
 90
        2
176
     1
 90
        2
176
     1
 62
     7
176
     1
 62
     7
176
     1
 90
        1
176
     1
 90
        1
176
     1
 40
40.0
176
     1
 90
        8
176
     1
 62
     7
176
     1
 40
1.0
176
     1
 90
        1
176
     1
 90
        6
176
     1
 90
        2
176
     1
 62
     7
176
     1
 90
        3
176
     1
 90
        0
176
     1
 90
        0
176
     1
290
     0
176
     1
 90
        1
176
     1
 40
0.0
176
     1
 90
        0
176
     1
290
     0
176
     1
290
     1
176
     1
290
     1
176
     1
290
     0
176
     1
290
     0
176
     1
290
     0
176
     1
290
     0
176
     1
290
     0
176
     1
290
     0
176
     1
 90
       50
176
     1
 40
0.0
176
     1
 40
1.0
176
     1
 90
        0
176
     1
 62
    18
420
        0
176
     1
 90
       50
176
     1
 90
        3
176
     1
 62
     5
420
      255
176
     1
290
     0
176
     1
 90
       50
176
     1
 90
       50
176
     1
 90
       50
176
     1
290
     0
176
     1
 90
       50
176
     1
 62
   256
176
     0
 40
1.0
176
     0
 90
        2
176
     1
  1
strokes_ogs.tif
176
     1
290
     0
176
     1
 40
1.0
176
     1
 40
1.0
176
     1
  0
VISUALSTYLE
  5
3B
102
{ACAD_REACTORS
330
29
102
}
330
29
100
AcDbVisualStyle
  2
Sketchy
 70
    24
177
     3
291
     0
 70
    58
 90
        1
176
     1
 90
        2
176
     1
 90
        2
176
     1
 90
        0
176
     1
 40
0.6
176
     1
 40
30.0
176
     1
 62
     7
420
 16777215
176
     1
 90
        2
176
     1
 90
        2
176
     1
 62
     7
176
     1
 62
     7
176
     1
 90
        1
176
     1
 90
        1
176
     1
 40
40.0
176
     1
 90
       11
176
     1
 62
     7
176
     1
 40
1.0
176
     1
 90
        1
176
     1
 90
        6
176
     1
 90
        2
176
     1
 62
     7
176
     1
 90
        6
176
     1
 90
        0
176
     1
 90
        0
176
     1
290
     0
176
     1
 90
        1
176
     1
 40
0.0
176
     1
 90
        0
176
     1
290
     0
176
     1
290
     1
176
     1
290
     1
176
     1
290
     0
176
     1
290
     0
176
     1
290
     0
176
     1
290
     0
176
     1
290
     0
176
     1
290
     0
176
     1
 90
       50
176
     1
 40
0.0
176
     1
 40
1.0
176
     1
 90
        0
176
     1
 62
    18
420
        0
176
     1
 90
       50
176
     1
 90
        3
176
     1
 62
     5
420
      255
176
     1
290
     0
176
     1
 90
       50
176
     1
 90
       50
176
     1
 90
       50
176
     1
290
     0
176
     1
 90
       50
176
     1
 62
   256
176
     0
 40
1.0
176
     0
 90
        2
176
     1
  1
strokes_ogs.tif
176
     1
290
     0
176
     1
 40
1.0
176
     1
 40
1.0
176
     1
  0
VISUALSTYLE
  5
36
102
{ACAD_REACTORS
330
29
102
}
330
29
100
AcDbVisualStyle
  2
Thicken
 70
    13
177
     3
291
     1
 70
    58
 90
        2
176
     1
 90
        2
176
     1
 90
        0
176
     1
 90
        0
176
     1
 40
0.6
176
     1
 40
30.0
176
     1
 62
     7
420
 16777215
176
     1
 90
        1
176
     1
 90
        4
176
     1
 62
     7
176
     1
 62
   257
176
     1
 90
        1
176
     1
 90
        1
176
     1
 40
1.0
176
     1
 90
       12
176
     1
 62
     7
176
     1
 40
1.0
176
     1
 90
        1
176
     1
 90
        6
176
     1
 90
        2
176
     1
 62
     7
176
     1
 90
        5
176
     1
 90
        0
176
     1
 90
        0
176
     1
290
     0
176
     1
 90
        1
176
     1
 40
0.0
176
     1
 90
        0
176
     1
290
     0
176
     1
290
     1
176
     1
290
     1
176
     1
290
     0
176
     1
290
     0
176
     1
290
     0
176
     1
290
     0
176
     1
290
     0
176
     1
290
     0
176
     1
 90
       50
176
     1
 40
0.0
176
     1
 40
1.0
176
     1
 90
        0
176
     1
 62
    18
420
        0
176
     1
 90
       50
176
     1
 90
        3
176
     1
 62
     5
420
      255
176
     1
290
     0
176
     1
 90
       50
176
     1
 90
       50
176
     1
 90
       50
176
     1
290
     0
176
     1
 90
       50
176
     1
 62
   256
176
     0
 40
1.0
176
     0
 90
        2
176
     1
  1
strokes_ogs.tif
176
     1
290
     0
176
     1
 40
1.0
176
     1
 40
1.0
176
     1
  0
VISUALSTYLE
  5
30
102
{ACAD_REACTORS
330
29
102
}
330
29
100
AcDbVisualStyle
  2
Wireframe
 70
     5
177
     3
291
     0
 70
    58
 90
        0
176
     1
 90
        2
176
     1
 90
        0
176
     1
 90
        0
176
     1
 40
0.6
176
     1
 40
30.0
176
     1
 62
     7
420
 16777215
176
     1
 90
        1
176
     1
 90
        4
176
     1
 62
     7
176
     1
 62
   257
176
     1
 90
        1
176
     1
 90
        1
176
     1
 40
1.0
176
     1
 90
        0
176
     1
 62
   257
176
     1
 40
1.0
176
     1
 90
        1
176
     1
 90
        6
176
     1
 90
        2
176
     1
 62
     7
176
     1
 90
        3
176
     1
 90
        0
176
     1
 90
        0
176
     1
290
     0
176
     1
 90
        1
176
     1
 40
0.0
176
     1
 90
        0
176
     1
290
     0
176
     1
290
     1
176
     1
290
     1
176
     1
290
     0
176
     1
290
     0
176
     1
290
     0
176
     1
290
     0
176
     1
290
     0
176
     1
290
     0
176
     1
 90
       50
176
     1
 40
0.0
176
     1
 40
1.0
176
     1
 90
        0
176
     1
 62
    18
420
        0
176
     1
 90
       50
176
     1
 90
        3
176
     1
 62
     5
420
      255
176
     1
290
     0
176
     1
 90
       50
176
     1
 90
       50
176
     1
 90
       50
176
     1
290
     0
176
     1
 90
       50
176
     1
 62
   256
176
     0
 40
1.0
176
     0
 90
        2
176
     1
  1
strokes_ogs.tif
176
     1
290
     0
176
     1
 40
1.0
176
     1
 40
1.0
176
     1
  0
VISUALSTYLE
  5
3C
102
{ACAD_REACTORS
330
29
102
}
330
29
100
AcDbVisualStyle
  2
X-Ray
 70
    25
177
     3
291
     0
 70
    58
 90
        2
176
     1
 90
        2
176
     1
 90
        1
176
     1
 90
        1
176
     1
 40
0.5
176
     1
 40
30.0
176
     1
 62
     7
420
 16777215
176
     1
 90
        1
176
     1
 90
        0
176
     1
 62
     7
176
     1
 62
   257
176
     1
 90
        1
176
     1
 90
        1
176
     1
 40
1.0
176
     1
 90
        8
176
     1
 62
     7
176
     1
 40
1.0
176
     1
 90
        1
176
     1
 90
        6
176
     1
 90
        2
176
     1
 62
     7
176
     1
 90
        3
176
     1
 90
        0
176
     1
 90
        0
176
     1
290
     0
176
     1
 90
       13
176
     1
 40
0.0
176
     1
 90
        0
176
     1
290
     0
176
     1
290
     1
176
     1
290
     1
176
     1
290
     0
176
     1
290
     0
176
     1
290
     0
176
     1
290
     0
176
     1
290
     0
176
     1
290
     0
176
     1
 90
       50
176
     1
 40
0.0
176
     1
 40
1.0
176
     1
 90
        0
176
     1
 62
    18
420
        0
176
     1
 90
       50
176
     1
 90
        3
176
     1
 62
     5
420
      255
176
     1
290
     0
176
     1
 90
       50
176
     1
 90
       50
176
     1
 90
       50
176
     1
290
     0
176
     1
 90
       50
176
     1
 62
   256
176
     0
 40
1.0
176
     0
 90
        2
176
     1
  1
strokes_ogs.tif
176
     1
290
     0
176
     1
 40
1.0
176
     1
 40
1.0
176
     1
  0
DICTIONARYVAR
  5
175
102
{ACAD_REACTORS
330
170
102
}
330
170
100
DictionaryVariables
280
     0
  1
1:1
  0
DICTIONARYVAR
  5
172
102
{ACAD_REACTORS
330
170
102
}
330
170
100
DictionaryVariables
280
     0
  1
STANDARD
  0
DICTIONARYVAR
  5
171
102
{ACAD_REACTORS
330
170
102
}
330
170
100
DictionaryVariables
280
     0
  1
STANDARD
  0
DICTIONARYVAR
  5
173
102
{ACAD_REACTORS
330
170
102
}
330
170
100
DictionaryVariables
280
     0
  1
Imperial24
  0
DICTIONARYVAR
  5
174
102
{ACAD_REACTORS
330
170
102
}
330
170
100
DictionaryVariables
280
     0
  1
Imperial24
  0
DICTIONARY
  5
1A
330
19
100
AcDbDictionary
280
     1
281
     1
  3
BUMPTILE
360
1C
  3
DIFFUSETILE
360
1B
  3
OPACITYTILE
360
1F
  3
REFLECTIONTILE
360
1E
  3
REFRACTIONTILE
360
20
  3
SPECULARTILE
360
1D
  0
DICTIONARY
  5
12
330
11
100
AcDbDictionary
280
     1
281
     1
  3
BUMPTILE
360
14
  3
DIFFUSETILE
360
13
  3
OPACITYTILE
360
17
  3
REFLECTIONTILE
360
16
  3
REFRACTIONTILE
360
18
  3
SPECULARTILE
360
15
  0
DICTIONARY
  5
22
330
21
100
AcDbDictionary
280
     1
281
     1
  3
BUMPTILE
360
24
  3
DIFFUSETILE
360
23
  3
OPACITYTILE
360
27
  3
REFLECTIONTILE
360
26
  3
REFRACTIONTILE
360
28
  3
SPECULARTILE
360
25
  0
DICTIONARY
  5
176
330
65
100
AcDbDictionary
280
     1
281
     1
  3
ACAD_ROUNDTRIP_2008_TABLESTYLE_CELLSTYLEMAP
360
177
  0
XRECORD
  5
1C
102
{ACAD_REACTORS
330
1A
102
}
330
1A
100
AcDbXrecord
280
     1
270
     1
271
     1
  0
XRECORD
  5
1B
102
{ACAD_REACTORS
330
1A
102
}
330
1A
100
AcDbXrecord
280
     1
270
     1
271
     1
  0
XRECORD
  5
1F
102
{ACAD_REACTORS
330
1A
102
}
330
1A
100
AcDbXrecord
280
     1
270
     1
271
     1
  0
XRECORD
  5
1E
102
{ACAD_REACTORS
330
1A
102
}
330
1A
100
AcDbXrecord
280
     1
270
     1
271
     1
  0
XRECORD
  5
20
102
{ACAD_REACTORS
330
1A
102
}
330
1A
100
AcDbXrecord
280
     1
270
     1
271
     1
  0
XRECORD
  5
1D
102
{ACAD_REACTORS
330
1A
102
}
330
1A
100
AcDbXrecord
280
     1
270
     1
271
     1
  0
XRECORD
  5
14
102
{ACAD_REACTORS
330
12
102
}
330
12
100
AcDbXrecord
280
     1
270
     1
271
     1
  0
XRECORD
  5
13
102
{ACAD_REACTORS
330
12
102
}
330
12
100
AcDbXrecord
280
     1
270
     1
271
     1
  0
XRECORD
  5
17
102
{ACAD_REACTORS
330
12
102
}
330
12
100
AcDbXrecord
280
     1
270
     1
271
     1
  0
XRECORD
  5
16
102
{ACAD_REACTORS
330
12
102
}
330
12
100
AcDbXrecord
280
     1
270
     1
271
     1
  0
XRECORD
  5
18
102
{ACAD_REACTORS
330
12
102
}
330
12
100
AcDbXrecord
280
     1
270
     1
271
     1
  0
XRECORD
  5
15
102
{ACAD_REACTORS
330
12
102
}
330
12
100
AcDbXrecord
280
     1
270
     1
271
     1
  0
XRECORD
  5
24
102
{ACAD_REACTORS
330
22
102
}
330
22
100
AcDbXrecord
280
     1
270
     1
271
     1
  0
XRECORD
  5
23
102
{ACAD_REACTORS
330
22
102
}
330
22
100
AcDbXrecord
280
     1
270
     1
271
     1
  0
XRECORD
  5
27
102
{ACAD_REACTORS
330
22
102
}
330
22
100
AcDbXrecord
280
     1
270
     1
271
     1
  0
XRECORD
  5
26
102
{ACAD_REACTORS
330
22
102
}
330
22
100
AcDbXrecord
280
     1
270
     1
271
     1
  0
XRECORD
  5
28
102
{ACAD_REACTORS
330
22
102
}
330
22
100
AcDbXrecord
280
     1
270
     1
271
     1
  0
XRECORD
  5
25
102
{ACAD_REACTORS
330
22
102
}
330
22
100
AcDbXrecord
280
     1
270
     1
271
     1
  0
CELLSTYLEMAP
  5
177
102
{ACAD_REACTORS
330
176
102
}
330
176
100
AcDbCellStyleMap
 90
        3
300
CELLSTYLE
  1
TABLEFORMAT_BEGIN
 90
        5
170
     1
 91
        0
 92
    32768
 62
   257
 93
        1
300
CONTENTFORMAT
  1
CONTENTFORMAT_BEGIN
 90
        0
 91
        0
 92
      512
 93
        0
300

 40
0.0
140
1.0
 94
        5
 62
     0
340
55
144
0.25
309
CONTENTFORMAT_END
171
     0
 94
        0
309
TABLEFORMAT_END
  1
CELLSTYLE_BEGIN
 90
        1
 91
        1
300
_TITLE
309
CELLSTYLE_END
300
CELLSTYLE
  1
TABLEFORMAT_BEGIN
 90
        5
170
     1
 91
        0
 92
        0
 62
   257
 93
        1
300
CONTENTFORMAT
  1
CONTENTFORMAT_BEGIN
 90
        0
 91
        0
 92
      512
 93
        0
300

 40
0.0
140
1.0
 94
        5
 62
     0
340
55
144
0.18
309
CONTENTFORMAT_END
171
     0
 94
        0
309
TABLEFORMAT_END
  1
CELLSTYLE_BEGIN
 90
        2
 91
        1
300
_HEADER
309
CELLSTYLE_END
300
CELLSTYLE
  1
TABLEFORMAT_BEGIN
 90
        5
170
     1
 91
        0
 92
        0
 62
   257
 93
        1
300
CONTENTFORMAT
  1
CONTENTFORMAT_BEGIN
 90
        0
 91
        0
 92
      512
 93
        0
300

 40
0.0
140
1.0
 94
        2
 62
     0
340
55
144
0.18
309
CONTENTFORMAT_END
171
     0
 94
        0
309
TABLEFORMAT_END
  1
CELLSTYLE_BEGIN
 90
        3
 91
        2
300
_DATA
309
CELLSTYLE_END
  0
ENDSEC
  0
EOF
